<?xml version="1.0" encoding="UTF-8" standalone="no"?>
<!-- Created with Inkscape (http://www.inkscape.org/) -->

<svg
   width="960"
   height="960"
   viewBox="0 0 960 960"
   version="1.1"
   id="svg1"
   xml:space="preserve"
   inkscape:version="1.4 (e7c3feb100, 2024-10-09)"
   sodipodi:docname="wkit.svg"
   xmlns:inkscape="http://www.inkscape.org/namespaces/inkscape"
   xmlns:sodipodi="http://sodipodi.sourceforge.net/DTD/sodipodi-0.dtd"
   xmlns="http://www.w3.org/2000/svg"
   xmlns:svg="http://www.w3.org/2000/svg"
   xmlns:rdf="http://www.w3.org/1999/02/22-rdf-syntax-ns#"
   xmlns:cc="http://creativecommons.org/ns#"
   xmlns:dc="http://purl.org/dc/elements/1.1/"><title
     id="title78">WKit logo redesign</title><sodipodi:namedview
     id="namedview1"
     pagecolor="#ffffff"
     bordercolor="#000000"
     borderopacity="0.25"
     inkscape:showpageshadow="2"
     inkscape:pageopacity="0.0"
     inkscape:pagecheckerboard="0"
     inkscape:deskcolor="#d1d1d1"
     inkscape:document-units="px"
     showgrid="false"
     inkscape:zoom="1.1509372"
     inkscape:cx="312.35414"
     inkscape:cy="502.19942"
     inkscape:window-width="2554"
     inkscape:window-height="1404"
     inkscape:window-x="1"
     inkscape:window-y="31"
     inkscape:window-maximized="1"
     inkscape:current-layer="layer4"><inkscape:grid
       id="grid1"
       units="mm"
       originx="0"
       originy="0"
       spacingx="0.99999998"
       spacingy="1"
       empcolor="#0099e5"
       empopacity="0.30196078"
       color="#0099e5"
       opacity="0.14901961"
       empspacing="5"
       enabled="true"
       visible="false" /></sodipodi:namedview><defs
     id="defs1"><rect
       x="192.70799"
       y="710.18958"
       width="361.15903"
       height="223.70297"
       id="rect1" /><rect
       x="158.44434"
       y="-1159.7291"
       width="813.33081"
       height="88.10157"
       id="rect99386" /><rect
       x="333.33453"
       y="-1207.104"
       width="1786.3748"
       height="60.831093"
       id="rect6215" /><rect
       x="-13.06842"
       y="-492"
       width="118.47351"
       height="42"
       id="rect41604" /><rect
       x="-499.89114"
       y="332.32587"
       width="280.6019"
       height="177.73174"
       id="rect1346" /><rect
       x="-44.85141"
       y="232.92044"
       width="554.987"
       height="166.23447"
       id="rect18617" /><linearGradient
       id="linearGradient14873"
       inkscape:swatch="solid"><stop
         style="stop-color:#1f1f29;stop-opacity:1;"
         offset="0"
         id="stop14871" /></linearGradient><rect
       x="-13.06842"
       y="-492"
       width="118.47351"
       height="42"
       id="rect47300" /><rect
       x="333.33453"
       y="-1207.104"
       width="1786.3748"
       height="60.831093"
       id="rect13959" /><rect
       x="158.44434"
       y="-1159.7291"
       width="813.33081"
       height="88.10157"
       id="rect99386-3" /><rect
       x="333.33453"
       y="-1207.104"
       width="1786.3748"
       height="60.831093"
       id="rect6215-5" /><rect
       x="-13.06842"
       y="-492"
       width="118.47351"
       height="42"
       id="rect41604-6" /><rect
       x="-499.89114"
       y="332.32587"
       width="280.6019"
       height="177.73174"
       id="rect1346-2" /><rect
       x="-44.85141"
       y="232.92044"
       width="554.987"
       height="166.23447"
       id="rect18617-9" /><rect
       x="-13.06842"
       y="-492"
       width="118.47351"
       height="42"
       id="rect47300-2" /><rect
       x="333.33453"
       y="-1207.104"
       width="1786.3748"
       height="60.831093"
       id="rect13959-7" /><filter
       inkscape:collect="always"
       style="color-interpolation-filters:sRGB"
       id="filter76"
       x="-0.0043880345"
       y="-0.020907857"
       width="1.0087761"
       height="1.0418157"><feGaussianBlur
         inkscape:collect="always"
         stdDeviation="0.38870583"
         id="feGaussianBlur76" /></filter></defs><g
     inkscape:label="full logo"
     inkscape:groupmode="layer"
     id="layer1"
     inkscape:highlight-color="#5aadc9"
     transform="matrix(1.0024674,0,0,1.0024674,-0.26843285,-0.42433299)"
     style="stroke-width:0.997539"><g
       id="g68"
       inkscape:label="blue"
       inkscape:export-filename="wkit_black_long.png"
       inkscape:export-xdpi="96"
       inkscape:export-ydpi="96"
       transform="matrix(4.3502377,0,0,4.3502377,-19.234209,-489.17282)"
       style="display:inline;mix-blend-mode:normal;fill:#00d8fd;fill-opacity:1;stroke-width:0.229307;filter:url(#filter76)"><g
         id="g33"
         transform="rotate(-2.7209065,4627.32,-2178.4624)"
         style="display:inline;fill:#00d8fd;fill-opacity:1;stroke-width:0.229307"
         inkscape:export-filename="/home/plat/k1tteh_text_cp.png"
         inkscape:export-xdpi="300"
         inkscape:export-ydpi="300"
         inkscape:label="tt blue"><path
           style="fill:#00d8fd;fill-opacity:1;stroke:none;stroke-width:0.0606707px;stroke-linecap:butt;stroke-linejoin:miter;stroke-opacity:1"
           d="m 64.423298,-29.720633 16.033643,-28.370237 0.251595,-1.060008 -2.435077,-0.382095 -3.467711,1.701374 -8.775043,19.263713 -1.42993,0.787439 -1.594914,7.527954 z"
           id="path32"
           sodipodi:nodetypes="ccccccccc" /><path
           style="fill:#00d8fd;fill-opacity:1;stroke:none;stroke-width:0.0606707px;stroke-linecap:butt;stroke-linejoin:miter;stroke-opacity:1"
           d="m 57.7823,-55.000922 37.989803,2.62503 6.320387,-2.267984 14.299,1.086587 1.00983,-1.340004 -6.68517,-0.472142 -2.84332,-0.982975 -51.005616,-2.495111 -1.016553,-0.661387 -2.028083,-0.134172 -0.133118,1.358358 z"
           id="path33"
           sodipodi:nodetypes="cccccccccccc" /></g><g
         id="g39"
         transform="rotate(2.4902124,-4820.3768,2775.0352)"
         style="display:inline;fill:#00d8fd;fill-opacity:1;stroke-width:0.229307"
         inkscape:label="1 blue"><path
           style="fill:#00d8fd;fill-opacity:1;stroke:none;stroke-width:0.0606707px;stroke-linecap:butt;stroke-linejoin:miter;stroke-opacity:1"
           d="m 47.26315,-35.401982 -11.285468,-0.171204 -1.305362,-0.733 -2.837704,0.07204 -1.370059,1.002284 0.943797,2.589375 18.676731,0.08687 -0.676726,-1.031045 -1.587964,-0.927851 z"
           id="path36"
           sodipodi:nodetypes="cccccccccc" /><path
           style="fill:#00d8fd;fill-opacity:1;stroke:none;stroke-width:0.0606707px;stroke-linecap:butt;stroke-linejoin:miter;stroke-opacity:1"
           d="m 48.427059,-52.15497 -1.17324,-1.650647 -3.395653,1.412905 -7.917231,19.751525 1.239006,-0.234188 2.537289,-1.382913 1.236389,-0.05371 z"
           id="path37"
           sodipodi:nodetypes="cccccccc" /><path
           style="fill:#00d8fd;fill-opacity:1;stroke:none;stroke-width:0.0606707px;stroke-linecap:butt;stroke-linejoin:miter;stroke-opacity:1"
           d="m 47.26315,-35.401982 -11.285468,-0.171204 -1.305362,-0.733 -2.837704,0.07204 -1.370059,1.002284 0.943797,2.589375 18.676731,0.08687 -0.676726,-1.031045 -1.587964,-0.927851 z"
           id="path38"
           sodipodi:nodetypes="cccccccccc" /><path
           style="fill:#00d8fd;fill-opacity:1;stroke:none;stroke-width:0.0606707px;stroke-linecap:butt;stroke-linejoin:miter;stroke-opacity:1"
           d="m 48.427059,-52.15497 -1.17324,-1.650647 -3.395653,1.412905 -7.917231,19.751525 1.239006,-0.234188 2.537289,-1.382913 1.236389,-0.05371 z"
           id="path39"
           sodipodi:nodetypes="cccccccc" /></g><g
         id="g42"
         transform="matrix(0.95648634,-0.02934532,0.02934532,0.95648634,24.940796,211.14967)"
         style="display:inline;fill:#00d8fd;fill-opacity:1;stroke-width:0.239626"
         inkscape:label="n blue"><path
           style="opacity:1;fill:#00d8fd;fill-opacity:1;stroke:none;stroke-width:0.0606105px;stroke-linecap:butt;stroke-linejoin:miter;stroke-opacity:1"
           d="m 82.249419,-26.670669 2.176727,-0.855115 1.795743,0.589893 10.802913,-20.312999 -0.928002,-0.906791 -3.072775,0.201156 z"
           id="path40"
           sodipodi:nodetypes="ccccccc" /><path
           style="opacity:1;fill:#00d8fd;fill-opacity:1;stroke:none;stroke-width:0.0565725px;stroke-linecap:butt;stroke-linejoin:miter;stroke-opacity:1"
           d="m 109.00103,-45.072348 -0.12535,-2.655362 -2.12948,-1.885195 -1.83095,1.55871 -4.974138,11.081068 0.243868,1.26635 -2.623905,7.236034 0.527173,2.860638 -0.303694,1.774357 0.224754,0.313104 z"
           id="path41"
           sodipodi:nodetypes="ccccccccccc" /><path
           style="opacity:1;fill:#00d8fd;fill-opacity:1;stroke:none;stroke-width:0.0606105px;stroke-linecap:butt;stroke-linejoin:miter;stroke-opacity:1"
           d="m 106.05907,-48.982386 -1.13445,4.145365 -2.4592,3.103888 -15.136972,11.203097 -1.863898,0.07833 2.493863,-5.720424 z"
           id="path42"
           sodipodi:nodetypes="ccccccc" /></g><g
         id="g54"
         transform="matrix(0.9380747,1.6572499e-4,-1.6572499e-4,0.9380747,2.994841,208.25924)"
         style="display:inline;fill:#00d8fd;fill-opacity:1;stroke-width:0.244444"
         inkscape:label="e blue"><path
           style="opacity:1;fill:#00d8fd;fill-opacity:1;stroke:none;stroke-width:0.061829px;stroke-linecap:butt;stroke-linejoin:miter;stroke-opacity:1"
           d="m 82.249419,-26.670669 2.176727,-0.855115 1.795743,0.589893 10.802913,-20.312999 -0.928002,-0.906791 -3.072775,0.201156 z"
           id="path47"
           sodipodi:nodetypes="ccccccc" /><path
           style="opacity:1;fill:#00d8fd;fill-opacity:1;stroke:none;stroke-width:0.0577102px;stroke-linecap:butt;stroke-linejoin:miter;stroke-opacity:1"
           d="m 94.555782,-48.513694 -2.129721,0.499143 -0.755471,2.741883 2.205496,0.957987 8.012794,-0.203382 1.02975,-0.776354 7.65232,-0.828876 2.3366,-1.732473 1.72691,-0.508287 0.18222,-0.339622 z"
           id="path48" /><path
           style="opacity:1;fill:#00d8fd;fill-opacity:1;stroke:none;stroke-width:0.061829px;stroke-linecap:butt;stroke-linejoin:miter;stroke-opacity:1"
           d="m 92.594192,-40.319365 16.118968,-1.423977 -0.84637,1.544709 -2.7372,0.309336 -2.81088,1.782906 -12.675208,1.782503 z"
           id="path49" /><path
           style="opacity:1;fill:#00d8fd;fill-opacity:1;stroke:none;stroke-width:0.061829px;stroke-linecap:butt;stroke-linejoin:miter;stroke-opacity:1"
           d="m 108.5957,-37.328659 -2.53896,3.285102 -3.50212,1.848519 -17.199458,5.427144 -1.438511,-2.023817 1.240018,-2.646421 z"
           id="path50"
           sodipodi:nodetypes="ccccccc" /><path
           style="opacity:1;fill:#00d8fd;fill-opacity:1;stroke:none;stroke-width:0.061829px;stroke-linecap:butt;stroke-linejoin:miter;stroke-opacity:1"
           d="m 82.249419,-26.670669 2.176727,-0.855115 1.795743,0.589893 10.802913,-20.312999 -0.928002,-0.906791 -3.072775,0.201156 z"
           id="path51"
           sodipodi:nodetypes="ccccccc" /><path
           style="opacity:1;fill:#00d8fd;fill-opacity:1;stroke:none;stroke-width:0.0577102px;stroke-linecap:butt;stroke-linejoin:miter;stroke-opacity:1"
           d="m 94.555782,-48.513694 -2.129721,0.499143 -0.755471,2.741883 2.205496,0.957987 8.012794,-0.203382 1.02975,-0.776354 7.65232,-0.828876 2.3366,-1.732473 1.72691,-0.508287 0.18222,-0.339622 z"
           id="path52" /><path
           style="opacity:1;fill:#00d8fd;fill-opacity:1;stroke:none;stroke-width:0.061829px;stroke-linecap:butt;stroke-linejoin:miter;stroke-opacity:1"
           d="m 92.594192,-40.319365 16.118968,-1.423977 -0.84637,1.544709 -2.7372,0.309336 -2.81088,1.782906 -12.675208,1.782503 z"
           id="path53" /><path
           style="opacity:1;fill:#00d8fd;fill-opacity:1;stroke:none;stroke-width:0.061829px;stroke-linecap:butt;stroke-linejoin:miter;stroke-opacity:1"
           d="m 108.5957,-37.328659 -2.53896,3.285102 -3.50212,1.848519 -17.199458,5.427144 -1.438511,-2.023817 1.240018,-2.646421 z"
           id="path54"
           sodipodi:nodetypes="ccccccc" /></g><g
         id="g56"
         inkscape:label="v blue"
         transform="rotate(3.2862687,37.358041,213.65509)"
         style="fill:#00d8fd;fill-opacity:1;stroke-width:0.229307"><path
           style="fill:#00d8fd;fill-opacity:1;stroke-width:0.173356;stroke-linecap:round;stroke-linejoin:round"
           d="m 90.629792,148.51923 -16.67975,31.46886 -2.951614,2.28315 -1.277376,-3.52367 -1.004884,0.76115 11.128224,-19.21441 3.582812,-2.09706 5.818926,-9.04114 z"
           id="path55"
           sodipodi:nodetypes="ccccccccc" /><path
           style="fill:#00d8fd;fill-opacity:1;stroke-width:0.173355;stroke-linecap:round;stroke-linejoin:round"
           d="m 66.064228,160.26483 1.804081,2.08963 2.901982,0.14456 3.510995,15.04114 -3.942477,2.89758 z"
           id="path56"
           sodipodi:nodetypes="cccccc" /></g><g
         id="g62"
         inkscape:label="l blue"
         transform="translate(3.7324936,1.7714428)"
         style="fill:#00d8fd;fill-opacity:1;stroke-width:0.229307"><path
           style="display:inline;fill:#00d8fd;fill-opacity:1;stroke:none;stroke-width:0.0636669px;stroke-linecap:butt;stroke-linejoin:miter;stroke-opacity:1"
           d="m 57.606472,186.4281 7.165846,-21.30171 -0.827986,-2.52813 0.689116,-2.72866 -0.486991,-3.35193 -11.053273,30.06942 1.635689,1.25499 z"
           id="path59"
           sodipodi:nodetypes="cccccccc" /><path
           style="fill:#00d8fd;fill-opacity:1;stroke-width:0.173356;stroke-linecap:round;stroke-linejoin:round"
           d="m 85.623814,184.79607 -30.874864,-1.67865 -3.262379,2.00831 1.375431,0.85241 3.01481,1.32778 56.260308,1.37815 -3.27943,-2.15113 -4.04847,-0.2243 -2.58103,1.03518 -15.247913,-1.04694 z"
           id="path60"
           sodipodi:nodetypes="ccccccccccc" /><path
           style="display:inline;fill:#00d8fd;fill-opacity:1;stroke:none;stroke-width:0.0636669px;stroke-linecap:butt;stroke-linejoin:miter;stroke-opacity:1"
           d="m 57.606472,186.4281 7.165846,-21.30171 -0.827986,-2.52813 0.689116,-2.72866 -0.486991,-3.35193 -11.053273,30.06942 1.635689,1.25499 z"
           id="path61"
           sodipodi:nodetypes="cccccccc" /><path
           style="fill:#00d8fd;fill-opacity:1;stroke-width:0.173356;stroke-linecap:round;stroke-linejoin:round"
           d="m 85.623814,184.79607 -30.874864,-1.67865 -3.262379,2.00831 1.375431,0.85241 3.01481,1.32778 56.260308,1.37815 -3.27943,-2.15113 -4.04847,-0.2243 -2.58103,1.03518 -15.247913,-1.04694 z"
           id="path62"
           sodipodi:nodetypes="ccccccccccc" /></g><g
         id="g63"
         inkscape:label="o blue"
         transform="rotate(-5.5081747,51.414634,137.11082)"
         style="fill:#00d8fd;fill-opacity:1;stroke-width:0.229307"><path
           id="path63"
           style="fill:#00d8fd;fill-opacity:1;stroke-width:0.173355;stroke-linecap:round;stroke-linejoin:round"
           d="m 53.638686,163.34525 -12.096972,1.99537 -6.984056,10.60057 4.115485,7.35829 15.464514,-4.73919 4.240229,-9.60264 -6.235601,-4.116 z m -4.177799,3.46063 3.803572,3.52343 -1.808301,4.58319 -10.538159,3.64779 -1.4964,-3.36704 3.928445,-6.36063 4.769982,-1.24694 z"
           sodipodi:nodetypes="cccccccccccccccc" /></g><g
         id="g67"
         transform="matrix(1.0625352,0.09873909,-0.09873909,1.0625352,-5.108194,164.31514)"
         inkscape:export-filename="/home/plat/k1tteh_text_cp.png"
         inkscape:export-xdpi="300"
         inkscape:export-ydpi="300"
         style="display:inline;fill:#00d8fd;fill-opacity:1;stroke-width:0.214884"
         inkscape:label="w blue"><path
           style="fill:#00d8fd;fill-opacity:1;stroke:none;stroke-width:0.0568551px;stroke-linecap:butt;stroke-linejoin:miter;stroke-opacity:1"
           d="m 28.147434,19.572523 0.594237,0.177863 2.579668,-1.938262 0.487359,0.452713 L 30.288702,4.4183904 28.537735,2.488809 27.82607,-0.33631225 25.462941,-2.314051"
           id="path64"
           sodipodi:nodetypes="cccccccc" /><path
           style="fill:#00d8fd;fill-opacity:1;stroke:none;stroke-width:0.0568551px;stroke-linecap:butt;stroke-linejoin:miter;stroke-opacity:1"
           d="m 15.334882,4.9812061 0.783919,-1.8337067 -0.905391,-8.0360318 1.291326,-3.0922015 -0.03719,-4.1750941 0.895205,-4.714899 5.369349,37.284095 -1.927207,3.512196 -2.490481,-1.749083 z"
           id="path65"
           sodipodi:nodetypes="cccccccccc" /><path
           style="fill:#00d8fd;fill-opacity:1;stroke:none;stroke-width:0.0568551px;stroke-linecap:butt;stroke-linejoin:miter;stroke-opacity:1"
           d="m 31.010328,20.94866 20.21677,-35.701527 1.907264,-1.25067 2.682054,-5.317688 -3.498646,0.981276 -18.365943,28.0485068 -0.751091,0.411354 -4.466302,6.5699542 -0.0048,3.587736 z"
           id="path66"
           sodipodi:nodetypes="cccccccccc" /><path
           style="fill:#00d8fd;fill-opacity:1;stroke-width:0.162453;stroke-linecap:round;stroke-linejoin:round"
           d="m 21.408081,22.057883 c 0,0 6.994967,-14.0266939 7.078587,-14.3445342 C 28.570288,7.3955087 27.71008,4.9192189 27.71008,4.9192189 L 24.808728,6.816022 21.725525,15.68444 Z"
           id="path67"
           sodipodi:nodetypes="cscccc" /></g><g
         id="g47260"
         transform="matrix(0.86582848,0,0,0.86582848,108.54901,208.13562)"
         style="display:inline;fill:#00d8fd;fill-opacity:1;stroke-width:0.264841"
         inkscape:export-filename="/home/plat/k1tteh_text_cp.png"
         inkscape:export-xdpi="300"
         inkscape:export-ydpi="300"
         inkscape:label="k blue"><path
           style="fill:#00d8fd;fill-opacity:1;stroke:none;stroke-width:0.0700725px;stroke-linecap:butt;stroke-linejoin:miter;stroke-opacity:1"
           d="m 32.821062,-54.609023 -0.428953,-0.532866 -4.358421,-0.02577 -0.160128,-0.715888 -9.038552,16.744846 1.189079,3.023336 -1.118025,3.012147 0.912238,3.27366"
           id="path47254"
           sodipodi:nodetypes="cccccccc" /><path
           style="fill:#00d8fd;fill-opacity:1;stroke:none;stroke-width:0.0700725px;stroke-linecap:butt;stroke-linejoin:miter;stroke-opacity:1"
           d="m 32.631124,-44.602492 12.435388,-7.357523 1.390416,-1.288061 7.19446,-4.122423 1.484109,-2.302205 2.624076,-2.127125 1.083116,-1.649634 -31.776857,15.988688 -1.354046,5.941142 z"
           id="path47256"
           sodipodi:nodetypes="cccccccccc" /><path
           style="fill:#00d8fd;fill-opacity:1;stroke:none;stroke-width:0.0700725px;stroke-linecap:butt;stroke-linejoin:miter;stroke-opacity:1"
           d="m 23.277666,-41.367874 44.191077,21.864965 -0.298708,-4.160837 -27.262078,-14.139051 -2.494365,-1.568048 -0.452592,-0.726987 1.258387,0.629371 0.113305,-0.169586 -0.647611,-0.573492 -0.606648,-1.374996 -6.505354,-3.359842"
           id="path47258"
           sodipodi:nodetypes="ccccccccccc" /></g></g><g
       id="g69"
       inkscape:label="black"
       style="display:inline;fill:#000000;fill-opacity:1;stroke-width:0.229307"
       inkscape:export-filename="wkit_yellow_long.png"
       inkscape:export-xdpi="300"
       inkscape:export-ydpi="300"
       transform="matrix(4.3502377,0,0,4.3502377,-19.234209,-489.17282)"><g
         id="g25980"
         transform="rotate(-2.7209065,4615.9145,-2167.5861)"
         style="display:inline;fill:#000000;fill-opacity:1;stroke-width:0.229307"
         inkscape:export-filename="/home/plat/k1tteh_text_cp.png"
         inkscape:export-xdpi="300"
         inkscape:export-ydpi="300"
         inkscape:label="tt black"><path
           style="fill:#000000;fill-opacity:1;stroke:none;stroke-width:0.0606707px;stroke-linecap:butt;stroke-linejoin:miter;stroke-opacity:1"
           d="m 64.423298,-29.720633 16.033643,-28.370237 0.251595,-1.060008 -2.435077,-0.382095 -3.467711,1.701374 -8.775043,19.263713 -1.42993,0.787439 -1.594914,7.527954 z"
           id="path22987"
           sodipodi:nodetypes="ccccccccc" /><path
           style="fill:#000000;fill-opacity:1;stroke:none;stroke-width:0.0606707px;stroke-linecap:butt;stroke-linejoin:miter;stroke-opacity:1"
           d="m 57.7823,-55.000922 37.989803,2.62503 6.320387,-2.267984 14.299,1.086587 1.00983,-1.340004 -6.68517,-0.472142 -2.84332,-0.982975 -51.005616,-2.495111 -1.016553,-0.661387 -2.028083,-0.134172 -0.133118,1.358358 z"
           id="path23055"
           sodipodi:nodetypes="cccccccccccc" /></g><g
         id="g47252"
         transform="matrix(0.86582848,0,0,0.86582848,108.09084,207.67745)"
         inkscape:export-filename="/home/plat/k1tteh_text_cp.png"
         inkscape:export-xdpi="300"
         inkscape:export-ydpi="300"
         style="display:inline;fill:#000000;fill-opacity:1;stroke-width:0.264841"
         inkscape:label="k black"><path
           style="display:inline;fill:#000000;fill-opacity:1;stroke:none;stroke-width:0.0700725px;stroke-linecap:butt;stroke-linejoin:miter;stroke-opacity:1"
           d="m 32.821062,-54.609023 -0.428953,-0.532866 -4.358421,-0.02577 -0.160128,-0.715888 -9.038552,16.744846 1.189079,3.023336 -1.118025,3.012147 0.912238,3.27366"
           id="path37902"
           sodipodi:nodetypes="cccccccc" /><path
           style="display:inline;fill:#000000;fill-opacity:1;stroke:none;stroke-width:0.0700725px;stroke-linecap:butt;stroke-linejoin:miter;stroke-opacity:1"
           d="m 32.631124,-44.602492 12.435388,-7.357523 1.390416,-1.288061 7.19446,-4.122423 1.484109,-2.302205 2.624076,-2.127125 1.083116,-1.649634 -31.776857,15.988688 -1.354046,5.941142 z"
           id="path45404"
           sodipodi:nodetypes="cccccccccc" /><path
           style="display:inline;fill:#000000;fill-opacity:1;stroke:none;stroke-width:0.0700725px;stroke-linecap:butt;stroke-linejoin:miter;stroke-opacity:1"
           d="m 23.277666,-41.367874 44.191077,21.864965 -0.299822,-2.748191 -3.409892,-1.469579 -1.03582,0.465024 -22.407581,-11.214989 -0.407671,-3.332153 -2.494365,-1.568048 -0.452592,-0.726987 1.258387,0.629371 0.113305,-0.169586 -0.647611,-0.573492 -0.606648,-1.374996 -6.505354,-3.359842"
           id="path21951" /></g><g
         id="g25985"
         transform="rotate(2.4902124,-4808.468,2762.5972)"
         style="display:inline;fill:#000000;fill-opacity:1;stroke-width:0.229307"
         inkscape:label="1 black"><path
           style="display:inline;fill:#000000;fill-opacity:1;stroke:none;stroke-width:0.0606707px;stroke-linecap:butt;stroke-linejoin:miter;stroke-opacity:1"
           d="m 47.263142,-35.401982 -11.285468,-0.171204 -1.305362,-0.733 -2.837704,0.07204 -1.370059,1.002284 0.943797,2.589375 18.676731,0.08687 -0.676726,-1.031045 -1.587964,-0.927851 z"
           id="path11"
           sodipodi:nodetypes="cccccccccc" /><path
           style="display:inline;fill:#000000;fill-opacity:1;stroke:none;stroke-width:0.0606707px;stroke-linecap:butt;stroke-linejoin:miter;stroke-opacity:1"
           d="m 48.427051,-52.15497 -1.17324,-1.650647 -3.395653,1.412905 -7.917231,19.751525 1.239006,-0.234188 2.537289,-1.382913 1.236389,-0.05371 z"
           id="path12"
           sodipodi:nodetypes="cccccccc" /><path
           style="display:inline;fill:#000000;fill-opacity:1;stroke:none;stroke-width:0.0606707px;stroke-linecap:butt;stroke-linejoin:miter;stroke-opacity:1"
           d="m 47.814801,-34.896307 -11.285468,-0.171204 -1.305362,-0.733 -2.837704,0.07204 -1.370059,1.002284 0.943797,2.589375 18.676731,0.08687 -0.676726,-1.031045 -1.587964,-0.927851 z"
           id="path34"
           sodipodi:nodetypes="cccccccccc" /><path
           style="display:inline;fill:#000000;fill-opacity:1;stroke:none;stroke-width:0.0606707px;stroke-linecap:butt;stroke-linejoin:miter;stroke-opacity:1"
           d="m 48.97871,-51.649295 -1.17324,-1.650647 -3.395653,1.412905 -7.917231,19.751525 1.239006,-0.234188 2.537289,-1.382913 1.236389,-0.05371 z"
           id="path35"
           sodipodi:nodetypes="cccccccc" /></g><g
         id="g4"
         transform="matrix(0.95648634,-0.02934532,0.02934532,0.95648634,24.411629,210.6205)"
         style="display:inline;fill:#000000;fill-opacity:1;stroke-width:0.239626"
         inkscape:label="n black"><path
           style="opacity:1;fill:#000000;fill-opacity:1;stroke:none;stroke-width:0.0606105px;stroke-linecap:butt;stroke-linejoin:miter;stroke-opacity:1"
           d="m 82.249419,-26.670669 2.176727,-0.855115 1.795743,0.589893 10.802913,-20.312999 -0.928002,-0.906791 -3.072775,0.201156 z"
           id="path1"
           sodipodi:nodetypes="ccccccc" /><path
           style="opacity:1;fill:#000000;fill-opacity:1;stroke:none;stroke-width:0.0565725px;stroke-linecap:butt;stroke-linejoin:miter;stroke-opacity:1"
           d="m 109.00103,-45.072348 -0.12535,-2.655362 -2.12948,-1.885195 -1.83095,1.55871 -4.974138,11.081068 0.243868,1.26635 -2.623905,7.236034 0.527173,2.860638 -0.303694,1.774357 0.224754,0.313104 z"
           id="path2"
           sodipodi:nodetypes="ccccccccccc" /><path
           style="opacity:1;fill:#000000;fill-opacity:1;stroke:none;stroke-width:0.0606105px;stroke-linecap:butt;stroke-linejoin:miter;stroke-opacity:1"
           d="m 106.05907,-48.982386 -1.13445,4.145365 -2.4592,3.103888 -15.136972,11.203097 -1.863898,0.07833 2.493863,-5.720424 z"
           id="path4"
           sodipodi:nodetypes="ccccccc" /></g><g
         id="g28643"
         transform="matrix(0.9380747,1.6572499e-4,-1.6572499e-4,0.9380747,2.4656743,207.73007)"
         style="display:inline;fill:#000000;fill-opacity:1;stroke-width:0.244444"
         inkscape:label="e black"><path
           style="display:inline;opacity:1;fill:#000000;fill-opacity:1;stroke:none;stroke-width:0.061829px;stroke-linecap:butt;stroke-linejoin:miter;stroke-opacity:1"
           d="m 82.249419,-26.670669 2.176727,-0.855115 1.795743,0.589893 10.802913,-20.312999 -0.928002,-0.906791 -3.072775,0.201156 z"
           id="path27354"
           sodipodi:nodetypes="ccccccc" /><path
           style="display:inline;opacity:1;fill:#000000;fill-opacity:1;stroke:none;stroke-width:0.0577102px;stroke-linecap:butt;stroke-linejoin:miter;stroke-opacity:1"
           d="m 94.555782,-48.513694 -2.129721,0.499143 -0.755471,2.741883 2.205496,0.957987 8.012794,-0.203382 1.02975,-0.776354 7.65232,-0.828876 2.3366,-1.732473 1.72691,-0.508287 0.18222,-0.339622 z"
           id="path27356" /><path
           style="display:inline;opacity:1;fill:#000000;fill-opacity:1;stroke:none;stroke-width:0.061829px;stroke-linecap:butt;stroke-linejoin:miter;stroke-opacity:1"
           d="m 92.594192,-40.319365 16.118968,-1.423977 -0.84637,1.544709 -2.7372,0.309336 -2.81088,1.782906 -12.675208,1.782503 z"
           id="path27358" /><path
           style="display:inline;opacity:1;fill:#000000;fill-opacity:1;stroke:none;stroke-width:0.061829px;stroke-linecap:butt;stroke-linejoin:miter;stroke-opacity:1"
           d="m 108.5957,-37.328659 -2.53896,3.285102 -3.50212,1.848519 -17.199458,5.427144 -1.438511,-2.023817 1.240018,-2.646421 z"
           id="path27360"
           sodipodi:nodetypes="ccccccc" /><path
           style="display:inline;opacity:1;fill:#000000;fill-opacity:1;stroke:none;stroke-width:0.061829px;stroke-linecap:butt;stroke-linejoin:miter;stroke-opacity:1"
           d="m 82.813618,-26.10667 2.176727,-0.855115 1.795743,0.589893 10.802913,-20.312999 -0.928002,-0.906791 -3.072775,0.201156 z"
           id="path43"
           sodipodi:nodetypes="ccccccc" /><path
           style="display:inline;opacity:1;fill:#000000;fill-opacity:1;stroke:none;stroke-width:0.0577102px;stroke-linecap:butt;stroke-linejoin:miter;stroke-opacity:1"
           d="m 95.119981,-47.949695 -2.129721,0.499143 -0.755471,2.741883 2.205496,0.957987 8.012795,-0.203382 1.02975,-0.776354 7.65232,-0.828876 2.3366,-1.732473 1.72691,-0.508287 0.18222,-0.339622 z"
           id="path44" /><path
           style="display:inline;opacity:1;fill:#000000;fill-opacity:1;stroke:none;stroke-width:0.061829px;stroke-linecap:butt;stroke-linejoin:miter;stroke-opacity:1"
           d="m 93.158391,-39.755366 16.118969,-1.423977 -0.84637,1.544709 -2.7372,0.309336 -2.81088,1.782906 -12.675209,1.782503 z"
           id="path45" /><path
           style="display:inline;opacity:1;fill:#000000;fill-opacity:1;stroke:none;stroke-width:0.061829px;stroke-linecap:butt;stroke-linejoin:miter;stroke-opacity:1"
           d="m 109.1599,-36.76466 -2.53896,3.285102 -3.50212,1.848519 -17.199459,5.427144 -1.438511,-2.023817 1.240018,-2.646421 z"
           id="path46"
           sodipodi:nodetypes="ccccccc" /></g><g
         id="g9"
         inkscape:label="v black"
         transform="rotate(3.2862687,46.316899,204.16707)"
         style="fill:#000000;fill-opacity:1;stroke-width:0.229307"><path
           style="fill:#000000;fill-opacity:1;stroke-width:0.173356;stroke-linecap:round;stroke-linejoin:round"
           d="m 90.629792,148.51923 -16.67975,31.46886 -2.951614,2.28315 -1.277376,-3.52367 -1.004884,0.76115 11.128224,-19.21441 3.582812,-2.09706 5.818926,-9.04114 z"
           id="path8"
           sodipodi:nodetypes="ccccccccc" /><path
           style="fill:#000000;fill-opacity:1;stroke-width:0.173355;stroke-linecap:round;stroke-linejoin:round"
           d="m 66.064228,160.26483 1.804081,2.08963 2.901982,0.14456 3.510995,15.04114 -3.942477,2.89758 z"
           id="path9"
           sodipodi:nodetypes="cccccc" /></g><g
         id="g17"
         inkscape:label="l black"
         transform="translate(2.6741602,0.71310939)"
         style="fill:#000000;fill-opacity:1;stroke-width:0.229307"><path
           style="display:inline;fill:#000000;fill-opacity:1;stroke:none;stroke-width:0.0636669px;stroke-linecap:butt;stroke-linejoin:miter;stroke-opacity:1"
           d="m 57.606472,186.4281 7.165846,-21.30171 -0.827986,-2.52813 0.689116,-2.72866 -0.486991,-3.35193 -11.053273,30.06942 1.635689,1.25499 z"
           id="path22454"
           sodipodi:nodetypes="cccccccc" /><path
           style="fill:#000000;fill-opacity:1;stroke-width:0.173356;stroke-linecap:round;stroke-linejoin:round"
           d="m 85.623814,184.79607 -30.874864,-1.67865 -3.262379,2.00831 1.375431,0.85241 3.01481,1.32778 56.260308,1.37815 -3.27943,-2.15113 -4.04847,-0.2243 -2.58103,1.03518 -15.247913,-1.04694 z"
           id="path10"
           sodipodi:nodetypes="ccccccccccc" /><path
           style="display:inline;fill:#000000;fill-opacity:1;stroke:none;stroke-width:0.0636669px;stroke-linecap:butt;stroke-linejoin:miter;stroke-opacity:1"
           d="m 58.135639,186.95727 7.165846,-21.30171 -0.827986,-2.52813 0.689116,-2.72866 -0.486991,-3.35193 -11.053273,30.06942 1.635689,1.25499 z"
           id="path57"
           sodipodi:nodetypes="cccccccc" /><path
           style="fill:#000000;fill-opacity:1;stroke-width:0.173356;stroke-linecap:round;stroke-linejoin:round"
           d="m 86.152981,185.32524 -30.874864,-1.67865 -3.262379,2.00831 1.375431,0.85241 3.01481,1.32778 56.260311,1.37815 -3.27943,-2.15113 -4.04847,-0.2243 -2.58103,1.03518 -15.247916,-1.04694 z"
           id="path58"
           sodipodi:nodetypes="ccccccccccc" /></g><g
         id="g18"
         inkscape:label="o black"
         transform="rotate(-5.5081747,45.649924,142.34637)"
         style="fill:#000000;fill-opacity:1;stroke-width:0.229307"><path
           id="path13"
           style="fill:#000000;fill-opacity:1;stroke-width:0.173355;stroke-linecap:round;stroke-linejoin:round"
           d="m 53.638686,163.34525 -12.096972,1.99537 -6.984056,10.60057 4.115485,7.35829 15.464514,-4.73919 4.240229,-9.60264 -6.235601,-4.116 z m -4.177799,3.46063 3.803572,3.52343 -1.808301,4.58319 -10.538159,3.64779 -1.4964,-3.36704 3.928445,-6.36063 4.769982,-1.24694 z"
           sodipodi:nodetypes="cccccccccccccccc" /></g><g
         id="g16"
         transform="matrix(1.0625352,0.09873909,-0.09873909,1.0625352,-5.6373607,163.78597)"
         inkscape:export-filename="/home/plat/k1tteh_text_cp.png"
         inkscape:export-xdpi="300"
         inkscape:export-ydpi="300"
         style="display:inline;fill:#000000;fill-opacity:1;stroke-width:0.214884"
         inkscape:label="w black"><path
           style="display:inline;fill:#000000;fill-opacity:1;stroke:none;stroke-width:0.0568551px;stroke-linecap:butt;stroke-linejoin:miter;stroke-opacity:1"
           d="m 28.147434,19.572523 0.594237,0.177863 2.579668,-1.938262 0.487359,0.452713 L 30.288702,4.4183904 28.537735,2.488809 27.82607,-0.33631225 25.462941,-2.314051"
           id="path14"
           sodipodi:nodetypes="cccccccc" /><path
           style="display:inline;fill:#000000;fill-opacity:1;stroke:none;stroke-width:0.0568551px;stroke-linecap:butt;stroke-linejoin:miter;stroke-opacity:1"
           d="m 15.334882,4.9812061 0.783919,-1.8337067 -0.905391,-8.0360318 1.291326,-3.0922015 -0.03719,-4.1750941 0.895205,-4.714899 5.369349,37.284095 -1.927207,3.512196 -2.490481,-1.749083 z"
           id="path15"
           sodipodi:nodetypes="cccccccccc" /><path
           style="display:inline;fill:#000000;fill-opacity:1;stroke:none;stroke-width:0.0568551px;stroke-linecap:butt;stroke-linejoin:miter;stroke-opacity:1"
           d="m 31.010328,20.94866 20.21677,-35.701527 1.907264,-1.25067 2.682054,-5.317688 -3.498646,0.981276 -18.365943,28.0485068 -0.751091,0.411354 -4.466302,6.5699542 -0.0048,3.587736 z"
           id="path16"
           sodipodi:nodetypes="cccccccccc" /><path
           style="display:inline;fill:#000000;fill-opacity:1;stroke-width:0.162453;stroke-linecap:round;stroke-linejoin:round"
           d="m 21.408081,22.057883 c 0,0 6.994967,-14.0266939 7.078587,-14.3445342 C 28.570288,7.3955087 27.71008,4.9192189 27.71008,4.9192189 L 24.808728,6.816022 21.725525,15.68444 Z"
           id="path17"
           sodipodi:nodetypes="cscccc" /></g></g></g><g
     inkscape:groupmode="layer"
     id="layer3"
     inkscape:label="short logo"
     transform="matrix(5.4854745,0,0,5.4854745,-136.47173,-681.20386)"
     style="stroke-width:0.1823"><g
       id="g70"
       transform="rotate(-2.7209065,6181.3848,-1196.1822)"
       style="display:inline;fill:#00d8fd;fill-opacity:1;stroke-width:0.1823"
       inkscape:export-filename="wkit_yellow_short.svg"
       inkscape:export-xdpi="300"
       inkscape:export-ydpi="300"
       inkscape:label="tt black"><path
         style="fill:#00d8fd;fill-opacity:1;stroke:none;stroke-width:0.0482334px;stroke-linecap:butt;stroke-linejoin:miter;stroke-opacity:1"
         d="m 64.423298,-29.720633 16.033643,-28.370237 0.251595,-1.060008 -2.435077,-0.382095 -3.467711,1.701374 -8.775043,19.263713 -1.42993,0.787439 -1.594914,7.527954 z"
         id="path69"
         sodipodi:nodetypes="ccccccccc" /><path
         style="fill:#00d8fd;fill-opacity:1;stroke:none;stroke-width:0.0482334px;stroke-linecap:butt;stroke-linejoin:miter;stroke-opacity:1"
         d="m 57.7823,-55.000922 37.989803,2.62503 6.320387,-2.267984 14.299,1.086587 1.00983,-1.340004 -6.68517,-0.472142 -2.84332,-0.982975 -51.005616,-2.495111 -1.016553,-0.661387 -2.028083,-0.134172 -0.133118,1.358358 z"
         id="path70"
         sodipodi:nodetypes="cccccccccccc" /></g><g
       id="g72"
       transform="rotate(2.4902124,-6565.4196,1780.072)"
       style="display:inline;fill:#00d8fd;fill-opacity:1;stroke-width:0.1823"
       inkscape:label="1 black"><path
         style="fill:#00d8fd;fill-opacity:1;stroke:none;stroke-width:0.0482334px;stroke-linecap:butt;stroke-linejoin:miter;stroke-opacity:1"
         d="m 47.26315,-35.401982 -11.285468,-0.171204 -1.305362,-0.733 -2.837704,0.07204 -1.370059,1.002284 0.943797,2.589375 18.676731,0.08687 -0.676726,-1.031045 -1.587964,-0.927851 z"
         id="path71"
         sodipodi:nodetypes="cccccccccc" /><path
         style="fill:#00d8fd;fill-opacity:1;stroke:none;stroke-width:0.0482334px;stroke-linecap:butt;stroke-linejoin:miter;stroke-opacity:1"
         d="m 48.427059,-52.15497 -1.17324,-1.650647 -3.395653,1.412905 -7.917231,19.751525 1.239006,-0.234188 2.537289,-1.382913 1.236389,-0.05371 z"
         id="path72"
         sodipodi:nodetypes="cccccccc" /></g><g
       id="g22"
       transform="matrix(0.86582848,0,0,0.86582848,63.671252,283.01593)"
       style="display:inline;fill:#00d8fd;fill-opacity:1;stroke-width:0.210549"
       inkscape:export-filename="/home/plat/k1tteh_text_cp.png"
       inkscape:export-xdpi="300"
       inkscape:export-ydpi="300"
       inkscape:label="k blue"><path
         style="fill:#00d8fd;fill-opacity:1;stroke:none;stroke-width:0.0557078px;stroke-linecap:butt;stroke-linejoin:miter;stroke-opacity:1"
         d="m 32.821062,-54.609023 -0.428953,-0.532866 -4.358421,-0.02577 -0.160128,-0.715888 -9.038552,16.744846 1.189079,3.023336 -1.118025,3.012147 0.912238,3.27366"
         id="path20"
         sodipodi:nodetypes="cccccccc" /><path
         style="fill:#00d8fd;fill-opacity:1;stroke:none;stroke-width:0.0557078px;stroke-linecap:butt;stroke-linejoin:miter;stroke-opacity:1"
         d="m 32.631124,-44.602492 12.435388,-7.357523 1.390416,-1.288061 7.19446,-4.122423 1.484109,-2.302205 2.624076,-2.127125 1.083116,-1.649634 -31.776857,15.988688 -1.354046,5.941142 z"
         id="path21"
         sodipodi:nodetypes="cccccccccc" /><path
         style="fill:#00d8fd;fill-opacity:1;stroke:none;stroke-width:0.0557078px;stroke-linecap:butt;stroke-linejoin:miter;stroke-opacity:1"
         d="m 23.277666,-41.367874 44.191077,21.864965 -0.298708,-4.160837 -27.262078,-14.139051 -2.494365,-1.568048 -0.452592,-0.726987 1.258387,0.629371 0.113305,-0.169586 -0.647611,-0.573492 -0.606648,-1.374996 -6.505354,-3.359842"
         id="path22"
         sodipodi:nodetypes="ccccccccccc" /></g><g
       id="g76"
       transform="matrix(1.0599441,0.12348633,-0.12348633,1.0599441,36.622929,234.51485)"
       inkscape:export-filename="/home/plat/k1tteh_text_cp.png"
       inkscape:export-xdpi="300"
       inkscape:export-ydpi="300"
       style="display:inline;fill:#00d8fd;fill-opacity:1;stroke-width:0.170834"
       inkscape:label="w black"><path
         style="fill:#00d8fd;fill-opacity:1;stroke:none;stroke-width:0.0451999px;stroke-linecap:butt;stroke-linejoin:miter;stroke-opacity:1"
         d="m 28.147434,19.572523 0.594237,0.177863 2.579668,-1.938262 0.487359,0.452713 L 30.288702,4.4183904 28.537735,2.488809 27.82607,-0.33631225 25.462941,-2.314051"
         id="path73"
         sodipodi:nodetypes="cccccccc" /><path
         style="fill:#00d8fd;fill-opacity:1;stroke:none;stroke-width:0.0451999px;stroke-linecap:butt;stroke-linejoin:miter;stroke-opacity:1"
         d="m 15.334882,4.9812061 0.783919,-1.8337067 -0.905391,-8.0360318 1.291326,-3.0922015 -0.03719,-4.1750941 0.895205,-4.714899 5.369349,37.284095 -1.927207,3.512196 -2.490481,-1.749083 z"
         id="path74"
         sodipodi:nodetypes="cccccccccc" /><path
         style="fill:#00d8fd;fill-opacity:1;stroke:none;stroke-width:0.0451999px;stroke-linecap:butt;stroke-linejoin:miter;stroke-opacity:1"
         d="m 31.010328,20.94866 20.21677,-35.701527 1.907264,-1.25067 2.682054,-5.317688 -3.498646,0.981276 -18.365943,28.0485068 -0.751091,0.411354 -4.466302,6.5699542 -0.0048,3.587736 z"
         id="path75"
         sodipodi:nodetypes="cccccccccc" /><path
         style="fill:#00d8fd;fill-opacity:1;stroke-width:0.129151;stroke-linecap:round;stroke-linejoin:round"
         d="m 21.408081,22.057883 c 0,0 6.994967,-14.0266939 7.078587,-14.3445342 C 28.570288,7.3955087 27.71008,4.9192189 27.71008,4.9192189 L 24.808728,6.816022 21.725525,15.68444 Z"
         id="path76"
         sodipodi:nodetypes="cscccc" /></g><g
       id="g19"
       transform="rotate(-2.7209065,6169.9793,-1185.3055)"
       style="display:inline;fill:#fcee0a;fill-opacity:1;stroke-width:0.1823"
       inkscape:export-filename="/home/plat/k1tteh_text_cp.png"
       inkscape:export-xdpi="300"
       inkscape:export-ydpi="300"
       inkscape:label="tt black"><path
         style="fill:#fcee0a;fill-opacity:1;stroke:none;stroke-width:0.0482334px;stroke-linecap:butt;stroke-linejoin:miter;stroke-opacity:1"
         d="m 64.423298,-29.720633 16.033643,-28.370237 0.251595,-1.060008 -2.435077,-0.382095 -3.467711,1.701374 -8.775043,19.263713 -1.42993,0.787439 -1.594914,7.527954 z"
         id="path18"
         sodipodi:nodetypes="ccccccccc" /><path
         style="fill:#fcee0a;fill-opacity:1;stroke:none;stroke-width:0.0482334px;stroke-linecap:butt;stroke-linejoin:miter;stroke-opacity:1"
         d="m 57.7823,-55.000922 37.989803,2.62503 6.320387,-2.267984 14.299,1.086587 1.00983,-1.340004 -6.68517,-0.472142 -2.84332,-0.982975 -51.005616,-2.495111 -1.016553,-0.661387 -2.028083,-0.134172 -0.133118,1.358358 z"
         id="path19"
         sodipodi:nodetypes="cccccccccccc" /></g><g
       id="g25"
       transform="matrix(0.86582848,0,0,0.86582848,63.213081,282.55775)"
       inkscape:export-filename="/home/plat/k1tteh_text_cp.png"
       inkscape:export-xdpi="300"
       inkscape:export-ydpi="300"
       style="display:inline;fill:#fcee0a;fill-opacity:1;stroke-width:0.210549"
       inkscape:label="k black"><path
         style="fill:#fcee0a;fill-opacity:1;stroke:none;stroke-width:0.0557078px;stroke-linecap:butt;stroke-linejoin:miter;stroke-opacity:1"
         d="m 32.821062,-54.609023 -0.428953,-0.532866 -4.358421,-0.02577 -0.160128,-0.715888 -9.038552,16.744846 1.189079,3.023336 -1.118025,3.012147 0.912238,3.27366"
         id="path23"
         sodipodi:nodetypes="cccccccc" /><path
         style="fill:#fcee0a;fill-opacity:1;stroke:none;stroke-width:0.0557078px;stroke-linecap:butt;stroke-linejoin:miter;stroke-opacity:1"
         d="m 32.631124,-44.602492 12.435388,-7.357523 1.390416,-1.288061 7.19446,-4.122423 1.484109,-2.302205 2.624076,-2.127125 1.083116,-1.649634 -31.776857,15.988688 -1.354046,5.941142 z"
         id="path24"
         sodipodi:nodetypes="cccccccccc" /><path
         style="fill:#fcee0a;fill-opacity:1;stroke:none;stroke-width:0.0557078px;stroke-linecap:butt;stroke-linejoin:miter;stroke-opacity:1"
         d="m 23.277666,-41.367874 44.191077,21.864965 -0.299822,-2.748191 -3.409892,-1.469579 -1.03582,0.465024 -22.407581,-11.214989 -0.407671,-3.332153 -2.494365,-1.568048 -0.452592,-0.726987 1.258387,0.629371 0.113305,-0.169586 -0.647611,-0.573492 -0.606648,-1.374996 -6.505354,-3.359842"
         id="path25" /></g><g
       id="g27"
       transform="rotate(2.4902124,-6553.5108,1767.6346)"
       style="display:inline;fill:#fcee0a;fill-opacity:1;stroke-width:0.1823"
       inkscape:label="1 black"><path
         style="fill:#fcee0a;fill-opacity:1;stroke:none;stroke-width:0.0482334px;stroke-linecap:butt;stroke-linejoin:miter;stroke-opacity:1"
         d="m 47.26315,-35.401982 -11.285468,-0.171204 -1.305362,-0.733 -2.837704,0.07204 -1.370059,1.002284 0.943797,2.589375 18.676731,0.08687 -0.676726,-1.031045 -1.587964,-0.927851 z"
         id="path26"
         sodipodi:nodetypes="cccccccccc" /><path
         style="fill:#fcee0a;fill-opacity:1;stroke:none;stroke-width:0.0482334px;stroke-linecap:butt;stroke-linejoin:miter;stroke-opacity:1"
         d="m 48.427059,-52.15497 -1.17324,-1.650647 -3.395653,1.412905 -7.917231,19.751525 1.239006,-0.234188 2.537289,-1.382913 1.236389,-0.05371 z"
         id="path27"
         sodipodi:nodetypes="cccccccc" /></g><g
       id="g31"
       transform="matrix(1.0599441,0.12348632,-0.12348632,1.0599441,36.093762,233.98568)"
       inkscape:export-filename="/home/plat/k1tteh_text_cp.png"
       inkscape:export-xdpi="300"
       inkscape:export-ydpi="300"
       style="display:inline;fill:#fcee0a;fill-opacity:1;stroke-width:0.170834"
       inkscape:label="w black"><path
         style="fill:#fcee0a;fill-opacity:1;stroke:none;stroke-width:0.0451999px;stroke-linecap:butt;stroke-linejoin:miter;stroke-opacity:1"
         d="m 28.147434,19.572523 0.594237,0.177863 2.579668,-1.938262 0.487359,0.452713 L 30.288702,4.4183904 28.537735,2.488809 27.82607,-0.33631225 25.462941,-2.314051"
         id="path28"
         sodipodi:nodetypes="cccccccc" /><path
         style="fill:#fcee0a;fill-opacity:1;stroke:none;stroke-width:0.0451999px;stroke-linecap:butt;stroke-linejoin:miter;stroke-opacity:1"
         d="m 15.334882,4.9812061 0.783919,-1.8337067 -0.905391,-8.0360318 1.291326,-3.0922015 -0.03719,-4.1750941 0.895205,-4.714899 5.369349,37.284095 -1.927207,3.512196 -2.490481,-1.749083 z"
         id="path29"
         sodipodi:nodetypes="cccccccccc" /><path
         style="fill:#fcee0a;fill-opacity:1;stroke:none;stroke-width:0.0451999px;stroke-linecap:butt;stroke-linejoin:miter;stroke-opacity:1"
         d="m 31.010328,20.94866 20.21677,-35.701527 1.907264,-1.25067 2.682054,-5.317688 -3.498646,0.981276 -18.365943,28.0485068 -0.751091,0.411354 -4.466302,6.5699542 -0.0048,3.587736 z"
         id="path30"
         sodipodi:nodetypes="cccccccccc" /><path
         style="fill:#fcee0a;fill-opacity:1;stroke-width:0.129151;stroke-linecap:round;stroke-linejoin:round"
         d="m 21.408081,22.057883 c 0,0 6.994967,-14.0266939 7.078587,-14.3445342 C 28.570288,7.3955087 27.71008,4.9192189 27.71008,4.9192189 L 24.808728,6.816022 21.725525,15.68444 Z"
         id="path31"
         sodipodi:nodetypes="cscccc" /></g></g><g
     inkscape:groupmode="layer"
     id="layer4"
     inkscape:label="colors"><rect
       style="fill:#000000;fill-opacity:1;stroke-width:2.85732;stroke-linecap:round;stroke-linejoin:round"
       id="rect76"
       width="66.033142"
       height="71.246284"
       x="137.27942"
       y="841.92255"
       inkscape:label="black" /><rect
       style="fill:#fcee0a;fill-opacity:1;stroke-width:2.85732;stroke-linecap:round;stroke-linejoin:round"
       id="rect77"
       width="66.033142"
       height="71.246284"
       x="271.76138"
       y="841.92255"
       inkscape:label="yellow" /><rect
       style="fill:#00d8fd;fill-opacity:1;stroke-width:2.85732;stroke-linecap:round;stroke-linejoin:round"
       id="rect78"
       width="66.033142"
       height="71.246284"
       x="204.5204"
       y="841.92255"
       inkscape:label="cyan" /></g><metadata
     id="metadata78"><rdf:RDF><cc:Work
         rdf:about=""><dc:creator><cc:Agent><dc:title>plat_ (platyple@protonmail.com)</dc:title></cc:Agent></dc:creator><dc:rights><cc:Agent><dc:title>GNU GPL v3 or later</dc:title></cc:Agent></dc:rights><dc:title>WKit logo redesign</dc:title></cc:Work></rdf:RDF></metadata></svg>
