<svg xmlns="http://www.w3.org/2000/svg" viewBox="0 0 16 16"><defs><style>.icon-canvas-transparent,.icon-vs-out{fill:#f6f6f6;}.icon-canvas-transparent{opacity:0;}.icon-vs-bg{fill:#424242;}.icon-vs-action-orange{fill:#c27d1a;}.icon-vs-fg{fill:#f0eff1;}</style></defs><title>EventLog_16x</title><path class="icon-canvas-transparent" d="M16,16H0V0H16Z"/><path class="icon-vs-out" d="M15,0V15H1V0Z"/><path class="icon-vs-bg" d="M2,1V2H3V3H2V4H3V5H2V6H3V7H2V8H3V9H2v1H3v1H2v1H3v1H2v1H14V1ZM13,13H4V2h9Z"/><polygon class="icon-vs-action-orange" points="11 4 8 7 11 7 7 11 8.5 8 6 8 8 4 11 4"/><path class="icon-vs-fg" d="M4,2V13h9V2Zm7,5L7,11,8.5,8H6L8,4h3L8,7Z"/></svg>