<svg xmlns="http://www.w3.org/2000/svg" viewBox="0 0 16 16"><style>.icon-canvas-transparent{opacity:0;fill:#f6f6f6}.icon-vs-out{fill:#f6f6f6}.icon-vs-bg{fill:#424242}.icon-vs-fg{fill:#f0eff1}</style><path class="icon-canvas-transparent" d="M16 0v16H0V0h16z" id="canvas"/><path class="icon-vs-out" d="M16 3v9H6v2c0 1.103-.897 2-2 2s-2-.897-2-2v-2.549A3.996 3.996 0 0 1 0 8a4.003 4.003 0 0 1 2.666-3.759h2.335V3h1.395a2.46 2.46 0 0 1 .428-1.057A2.441 2.441 0 0 1 8.838.906c.648 0 1.205.242 1.663.721.459-.479 1.015-.721 1.662-.721a2.472 2.472 0 0 1 2.441 2.095H16z" id="outline"/><path class="icon-vs-fg" d="M7 5h3v5H7.456A3.962 3.962 0 0 0 8 8a3.97 3.97 0 0 0-1-2.617V5zm4 0v5h3V5h-3z" id="iconFg"/><g id="iconBg"><path class="icon-vs-bg" d="M13.475 4c.063-.123.113-.25.136-.387a1.464 1.464 0 0 0-1.197-1.687c-1.034-.168-1.472.721-1.64 1.056-.042.084-.15.323-.274.6a20.337 20.337 0 0 0-.274-.598c-.168-.337-.604-1.227-1.641-1.058a1.464 1.464 0 0 0-1.196 1.686c.023.137.073.265.136.388H6v.557c.381.221.715.502 1 .826V5h3v5H7.456c-.22.377-.507.711-.839 1H15V4h-1.525zM8.999 4a4.264 4.264 0 0 1-.339-.195c-.254-.173-.277-.313-.285-.36a.461.461 0 0 1 .379-.532c.136-.024.294-.05.579.521.04.079.142.305.259.566h-.593zm2.669-.568c.284-.568.443-.544.578-.518a.462.462 0 0 1 .379.533c-.008.046-.031.185-.284.357a4.23 4.23 0 0 1-.339.196h-.593c.117-.261.218-.488.259-.568zM14 10h-3V5h3v5zM7 8a2.99 2.99 0 0 1-2 2.816V14a1 1 0 1 1-2 0v-3.184A2.99 2.99 0 0 1 1 8c0-1.304.838-2.403 2-2.816V8h2V5.184C6.162 5.597 7 6.696 7 8z"/></g></svg>