<svg xmlns="http://www.w3.org/2000/svg" viewBox="0 0 16 16"><style>.st0{opacity:0}.st0,.st1{fill:#f6f6f6}.st2{fill:#1ba1e2}.st3{fill:#00539c}</style><g id="outline"><path class="st0" d="M0 0h16v16H0z"/><path class="st1" d="M8.303 0h-.606L1 4.465v7.07L7.697 16h.606L15 11.535v-7.07z"/></g><g id="color_x5F_decoration"><path class="st2" d="M8 1L2 5v6l6 4 6-4V5L8 1zm-.5 12.465l-4.5-3V6.268l4.5 3v4.197zM3.353 5.301L8 2.201l4.648 3.1L8 8.398 3.353 5.301zM13 10.465l-4.5 3V9.268l4.5-3v4.197z"/><path class="st3" d="M3 6.268l4.5 3v4.197l-4.5-3V6.268zm5-4.067l-4.647 3.1L8 8.398 12.648 5.3 8 2.201zm.5 7.067v4.197l4.5-3V6.268l-4.5 3z"/></g></svg>