<svg xmlns="http://www.w3.org/2000/svg" viewBox="0 0 16 16"><defs><style>.icon-canvas-transparent,.icon-vs-out{fill:#f6f6f6;}.icon-canvas-transparent{opacity:0;}.icon-vs-bg{fill:#424242;}.icon-vs-action-blue{fill:#00539c;}.icon-vs-fg{fill:#f0eff1;}</style></defs><title>ZoomOriginalSize_16x</title><g id="canvas"><path class="icon-canvas-transparent" d="M16,16H0V0H16Z"/></g><g id="outline"><path class="icon-vs-out" d="M16,10H8.949A3.283,3.283,0,0,1,9,10.5,3.5,3.5,0,0,1,5.5,14a3.356,3.356,0,0,1-.949-.137L2.414,16H1.586L0,14.414v-.828l2.137-2.137A3.356,3.356,0,0,1,2,10.5a3.283,3.283,0,0,1,.051-.5H0V0H16Z"/></g><g id="iconBg"><path class="icon-vs-bg" d="M15,1V9H8.649a3.5,3.5,0,0,0-.708-1H14V2H2V8H3.059a3.5,3.5,0,0,0-.708,1H1V1ZM9,4.965a2.445,2.445,0,0,1-.395,1.5,1.327,1.327,0,0,1-1.128.521Q6,6.986,6,5.053a2.5,2.5,0,0,1,.4-1.528A1.372,1.372,0,0,1,7.558,3Q9,3,9,4.965Zm-.929.027q0-1.344-.553-1.344-.592,0-.592,1.383,0,1.3.58,1.305T8.071,4.992ZM13,4.979a2.445,2.445,0,0,1-.395,1.5A1.327,1.327,0,0,1,11.477,7Q10,7,10,5.066a2.493,2.493,0,0,1,.4-1.527,1.369,1.369,0,0,1,1.159-.525Q13,3.014,13,4.979Zm-.929.027q0-1.346-.553-1.344-.593,0-.592,1.383,0,1.3.58,1.3C11.883,6.35,12.071,5.9,12.071,5.006ZM3.957,3.367c-.091.048-.194.077-.291.117v.772c.04-.013.081-.024.119-.039a1.923,1.923,0,0,0,.2-.1A.89.89,0,0,0,4.153,4V7H5V3.035H4.486A3.353,3.353,0,0,1,3.957,3.367Z"/></g><g id="colorAction"><path class="icon-vs-action-blue" d="M8,10.5A2.5,2.5,0,0,1,5.5,13a2.474,2.474,0,0,1-1.188-.312L2,15,1,14l2.312-2.312A2.5,2.5,0,1,1,8,10.5ZM5.5,9A1.5,1.5,0,1,0,7,10.5,1.5,1.5,0,0,0,5.5,9Z"/></g><g id="iconFg"><path class="icon-vs-fg" d="M7,10.5A1.5,1.5,0,1,1,5.5,9,1.5,1.5,0,0,1,7,10.5Zm4.518-6.838q-.593,0-.592,1.383,0,1.3.58,1.3c.377,0,.565-.45.565-1.344S11.887,3.662,11.518,3.662Zm-4-.014q-.592,0-.592,1.383,0,1.3.58,1.305t.565-1.344Q8.071,3.648,7.518,3.648ZM14,2V8H7.942A3.482,3.482,0,0,0,3.058,8H2V2ZM5,3.035H4.486a3.353,3.353,0,0,1-.529.332c-.091.048-.194.077-.291.117v.772c.04-.013.081-.024.119-.039a1.923,1.923,0,0,0,.2-.1A.89.89,0,0,0,4.153,4V7H5Zm4,1.93Q9,3,7.558,3A1.372,1.372,0,0,0,6.4,3.525,2.5,2.5,0,0,0,6,5.053q0,1.93,1.477,1.933a1.327,1.327,0,0,0,1.128-.521A2.445,2.445,0,0,0,9,4.965Zm4,.014q0-1.966-1.442-1.965a1.369,1.369,0,0,0-1.159.525A2.493,2.493,0,0,0,10,5.066Q10,7,11.477,7a1.327,1.327,0,0,0,1.128-.521A2.445,2.445,0,0,0,13,4.979Z"/></g></svg>