<?xml version="1.0" encoding="UTF-8" standalone="no"?>
<svg
   xmlns:dc="http://purl.org/dc/elements/1.1/"
   xmlns:cc="http://creativecommons.org/ns#"
   xmlns:rdf="http://www.w3.org/1999/02/22-rdf-syntax-ns#"
   xmlns:svg="http://www.w3.org/2000/svg"
   xmlns="http://www.w3.org/2000/svg"
   xmlns:sodipodi="http://sodipodi.sourceforge.net/DTD/sodipodi-0.dtd"
   xmlns:inkscape="http://www.inkscape.org/namespaces/inkscape"
   viewBox="0 0 16 16"
   version="1.1"
   id="svg8"
   sodipodi:docname="Copy_16x.svg"
   inkscape:version="0.92.3 (2405546, 2018-03-11)">
  <metadata
     id="metadata14">
    <rdf:RDF>
      <cc:Work
         rdf:about="">
        <dc:format>image/svg+xml</dc:format>
        <dc:type
           rdf:resource="http://purl.org/dc/dcmitype/StillImage" />
        <dc:title></dc:title>
      </cc:Work>
    </rdf:RDF>
  </metadata>
  <defs
     id="defs12" />
  <sodipodi:namedview
     pagecolor="#ffffff"
     bordercolor="#666666"
     borderopacity="1"
     objecttolerance="10"
     gridtolerance="10"
     guidetolerance="10"
     inkscape:pageopacity="0"
     inkscape:pageshadow="2"
     inkscape:window-width="3840"
     inkscape:window-height="2104"
     id="namedview10"
     showgrid="false"
     inkscape:pagecheckerboard="true"
     inkscape:zoom="83.4386"
     inkscape:cx="5.9238363"
     inkscape:cy="8.5382659"
     inkscape:window-x="-16"
     inkscape:window-y="-16"
     inkscape:window-maximized="1"
     inkscape:current-layer="svg8" />
  <style
     id="style2">.icon-canvas-transparent{opacity:0;fill:#f6f6f6}.icon-vs-out{fill:#f6f6f6}.icon-vs-bg{fill:#424242}.icon-vs-fg{fill:#f0eff1}</style>
  <path
     class="icon-canvas-transparent"
     d="M16 16H0V0h16v16z"
     id="canvas" />
  <path
     class="icon-vs-out"
     d="M5 16v-3H1V0h6.618l2.987 3h1.017L16 7.379V16H5z"
     id="outline"
     style="fill:#f6f6f6;fill-opacity:0.13870247" />
  <path
     class="icon-vs-bg"
     d="M11.207 4H10.19L7.202 1H2v11h4v3h9V7.793L11.207 4zM11 5.207L13.793 8H11V5.207zM6 11H3V2h3.798L8.81 4H6v7zm8 3H7V5h3v4h4v5z"
     id="iconBg"
     style="fill:#ffffff;fill-opacity:1" />
  <path
     class="icon-vs-fg"
     d="M11 5.207L13.793 8H11V5.207zM6 11H3V2h3.798L8.81 4H6v7zm8 3H7V5h3v4h4v5z"
     id="iconFg"
     style="fill:#f0eff1;fill-opacity:0.04362416" />
</svg>
