<?xml version="1.0" encoding="UTF-8" standalone="no"?>
<svg
   xmlns:dc="http://purl.org/dc/elements/1.1/"
   xmlns:cc="http://creativecommons.org/ns#"
   xmlns:rdf="http://www.w3.org/1999/02/22-rdf-syntax-ns#"
   xmlns:svg="http://www.w3.org/2000/svg"
   xmlns="http://www.w3.org/2000/svg"
   xmlns:sodipodi="http://sodipodi.sourceforge.net/DTD/sodipodi-0.dtd"
   xmlns:inkscape="http://www.inkscape.org/namespaces/inkscape"
   viewBox="0 0 16 16"
   version="1.1"
   id="svg11"
   sodipodi:docname="Cut_16x.svg"
   inkscape:version="0.92.3 (2405546, 2018-03-11)">
  <metadata
     id="metadata17">
    <rdf:RDF>
      <cc:Work
         rdf:about="">
        <dc:format>image/svg+xml</dc:format>
        <dc:type
           rdf:resource="http://purl.org/dc/dcmitype/StillImage" />
        <dc:title></dc:title>
      </cc:Work>
    </rdf:RDF>
  </metadata>
  <defs
     id="defs15" />
  <sodipodi:namedview
     pagecolor="#ffffff"
     bordercolor="#666666"
     borderopacity="1"
     objecttolerance="10"
     gridtolerance="10"
     guidetolerance="10"
     inkscape:pageopacity="0"
     inkscape:pageshadow="2"
     inkscape:window-width="3840"
     inkscape:window-height="2104"
     id="namedview13"
     showgrid="false"
     inkscape:pagecheckerboard="true"
     inkscape:zoom="59"
     inkscape:cx="8.2288136"
     inkscape:cy="4.3076596"
     inkscape:window-x="-16"
     inkscape:window-y="-16"
     inkscape:window-maximized="1"
     inkscape:current-layer="svg11" />
  <style
     id="style2">.st0{opacity:0}.st0,.st1{fill:#f6f6f6}.st2{fill:#424242}.st3{fill:#f0eff1}</style>
  <g
     id="outline"
     style="fill:#ffffff;fill-opacity:0.07424594">
    <path
       class="st0"
       d="M 0,0 H 16 V 16 H 0 Z"
       id="path4"
       inkscape:connector-curvature="0"
       style="opacity:0;fill:#ffffff;fill-opacity:0.07424594" />
    <path
       class="st1"
       d="M 11.503,9 C 11.334,9 11.166,9.014 11,9.041 V 9 C 11,8.455 10.856,7.934 10.584,7.478 11.757,5.405 12.378,4.291 12.53,3.988 12.735,3.577 12.992,3.066 13,2.498 A 2.231,2.231 0 0 0 12.343,0.928 L 11.414,0 H 10.382 L 8,4.764 5.618,0 H 4.589 L 3.651,0.928 C 3.453,1.125 2.993,1.673 3,2.475 3.003,3.065 3.28,3.62 3.464,3.988 3.619,4.297 4.275,5.471 5.415,7.48 A 2.97,2.97 0 0 0 5,9 V 9.04 A 3.208,3.208 0 0 0 4.501,9 C 2.604,9 1,10.604 1,12.5 1,14.396 2.604,16 4.501,16 6.365,16 8,14.364 8,12.5 8,12.332 8,12.332 8,12.5 8,14.396 9.604,16 11.503,16 13.398,16 15,14.396 15,12.5 15,10.604 13.398,9 11.503,9 Z"
       id="path6"
       inkscape:connector-curvature="0"
       style="fill:#ffffff;fill-opacity:0.07424594" />
  </g>
  <path
     class="st2"
     d="M11.503 10c-.42 0-.818.127-1.175.328L9.82 9.82c.114-.25.18-.527.18-.82 0-.564-.237-1.073-.614-1.438.942-1.662 2.054-3.631 2.25-4.023.171-.341.359-.718.364-1.055.005-.356-.185-.669-.364-.849L11 1 8 7 5 1l-.642.635c-.177.178-.361.484-.358.834.002.342.186.724.358 1.071.196.392 1.31 2.362 2.255 4.025A1.974 1.974 0 0 0 6.18 9.82l-.507.508A2.39 2.39 0 0 0 4.501 10C3.17 10 2 11.172 2 12.5S3.17 15 4.501 15C5.828 15 7 13.828 7 12.5c0-.419-.126-.816-.327-1.172l.508-.508a1.966 1.966 0 0 0 1.639 0l.507.508A2.383 2.383 0 0 0 9 12.5c0 1.328 1.172 2.5 2.503 2.5C12.834 15 14 13.828 14 12.5S12.834 10 11.503 10zm-7.015 4C3.658 14 3 13.352 3 12.523 3 11.693 3.658 11 4.488 11A1.53 1.53 0 0 1 6 12.523C6 13.352 5.314 14 4.488 14zm3.514-4A1 1 0 1 1 8 7.998 1 1 0 0 1 8.002 10zm3.491 4A1.485 1.485 0 0 1 10 12.512c0-.83.667-1.512 1.493-1.512.827 0 1.507.682 1.507 1.512 0 .829-.68 1.488-1.507 1.488z"
     id="icon_x5F_bg"
     style="fill:#ffffff;fill-opacity:1" />
  <path
     class="st3"
     d="M4.488 14C3.658 14 3 13.352 3 12.523 3 11.693 3.658 11 4.488 11A1.53 1.53 0 0 1 6 12.523C6 13.352 5.314 14 4.488 14zM9 9a1 1 0 1 0-2 0 1 1 0 0 0 2 0zm4 3.512c0-.83-.68-1.512-1.507-1.512-.826 0-1.493.682-1.493 1.512 0 .829.667 1.488 1.493 1.488.827 0 1.507-.659 1.507-1.488z"
     id="icon_x5F_fg"
     style="fill:#f0eff1;fill-opacity:0.07192575" />
</svg>
