<?xml version="1.0" encoding="UTF-8" standalone="no"?>
<svg
   xmlns:dc="http://purl.org/dc/elements/1.1/"
   xmlns:cc="http://creativecommons.org/ns#"
   xmlns:rdf="http://www.w3.org/1999/02/22-rdf-syntax-ns#"
   xmlns:svg="http://www.w3.org/2000/svg"
   xmlns="http://www.w3.org/2000/svg"
   xmlns:sodipodi="http://sodipodi.sourceforge.net/DTD/sodipodi-0.dtd"
   xmlns:inkscape="http://www.inkscape.org/namespaces/inkscape"
   version="1.1"
   width="24"
   height="24"
   viewBox="0 0 24 24"
   id="svg4"
   sodipodi:docname="desk-lamp-dark.svg"
   inkscape:version="0.92.3 (2405546, 2018-03-11)"
   inkscape:export-filename="E:\TMP\HighlightingOnOff\desk-lamp-light_128x.png"
   inkscape:export-xdpi="512"
   inkscape:export-ydpi="512">
  <metadata
     id="metadata10">
    <rdf:RDF>
      <cc:Work
         rdf:about="">
        <dc:format>image/svg+xml</dc:format>
        <dc:type
           rdf:resource="http://purl.org/dc/dcmitype/StillImage" />
        <dc:title></dc:title>
      </cc:Work>
    </rdf:RDF>
  </metadata>
  <defs
     id="defs8" />
  <sodipodi:namedview
     pagecolor="#ffffff"
     bordercolor="#666666"
     borderopacity="1"
     objecttolerance="10"
     gridtolerance="10"
     guidetolerance="10"
     inkscape:pageopacity="0"
     inkscape:pageshadow="2"
     inkscape:window-width="3840"
     inkscape:window-height="2104"
     id="namedview6"
     showgrid="false"
     inkscape:zoom="55.625733"
     inkscape:cx="9.9637383"
     inkscape:cy="12.634369"
     inkscape:window-x="-16"
     inkscape:window-y="-16"
     inkscape:window-maximized="1"
     inkscape:current-layer="svg4"
     inkscape:pagecheckerboard="true" />
  <path
     d="M10.85,2L9.18,4.5L10.32,5.25L7.14,10C7.1,10 7.05,10 7,10A2,2 0 0,0 5,12C5,12.94 5.66,13.75 6.58,13.95L10.62,20H7V22H17V20H13L8.53,13.28C8.83,12.92 9,12.47 9,12C9,11.7 8.93,11.4 8.8,11.13L12,6.37C11.78,8.05 12.75,9.89 14.45,11L18.89,4.37C17.2,3.24 15.12,3.04 13.65,3.87L10.85,2M18.33,7L16.67,9.5C17.35,9.95 18.29,9.77 18.75,9.08C19.21,8.39 19,7.46 18.33,7Z"
     id="path2"
     style="fill:none;stroke:#fffffd;stroke-opacity:1;stroke-width:0.75;stroke-miterlimit:4;stroke-dasharray:none" />
</svg>
