<?xml version="1.0" encoding="UTF-8" standalone="no"?>
<svg
   xmlns:dc="http://purl.org/dc/elements/1.1/"
   xmlns:cc="http://creativecommons.org/ns#"
   xmlns:rdf="http://www.w3.org/1999/02/22-rdf-syntax-ns#"
   xmlns:svg="http://www.w3.org/2000/svg"
   xmlns="http://www.w3.org/2000/svg"
   xmlns:sodipodi="http://sodipodi.sourceforge.net/DTD/sodipodi-0.dtd"
   xmlns:inkscape="http://www.inkscape.org/namespaces/inkscape"
   viewBox="0 0 16 16"
   enable-background="new 0 0 16 16"
   version="1.1"
   id="svg850"
   sodipodi:docname="Paste_16x.svg"
   inkscape:version="0.92.3 (2405546, 2018-03-11)"
   inkscape:export-filename="E:\TMP\Edi\Paste\Dark\Paste_256x.png"
   inkscape:export-xdpi="1536"
   inkscape:export-ydpi="1536">
  <metadata
     id="metadata856">
    <rdf:RDF>
      <cc:Work
         rdf:about="">
        <dc:format>image/svg+xml</dc:format>
        <dc:type
           rdf:resource="http://purl.org/dc/dcmitype/StillImage" />
        <dc:title></dc:title>
      </cc:Work>
    </rdf:RDF>
  </metadata>
  <defs
     id="defs854" />
  <sodipodi:namedview
     pagecolor="#ffffff"
     bordercolor="#666666"
     borderopacity="1"
     objecttolerance="10"
     gridtolerance="10"
     guidetolerance="10"
     inkscape:pageopacity="0"
     inkscape:pageshadow="2"
     inkscape:window-width="3840"
     inkscape:window-height="2104"
     id="namedview852"
     showgrid="false"
     inkscape:pagecheckerboard="true"
     inkscape:zoom="83.4386"
     inkscape:cx="2.4281573"
     inkscape:cy="7.0663011"
     inkscape:window-x="-16"
     inkscape:window-y="-16"
     inkscape:window-maximized="1"
     inkscape:current-layer="svg850" />
  <style
     type="text/css"
     id="style841">.icon-canvas-transparent{opacity:0;fill:#F6F6F6;} .icon-vs-out{fill:#F6F6F6;} .icon-vs-bg{fill:#424242;} .icon-vs-fg{fill:#F0EFF1;}</style>
  <path
     class="icon-canvas-transparent"
     d="M16 16h-16v-16h16v16z"
     id="canvas" />
  <path
     style="fill:#f6f6f6;fill-opacity:0.07212205"
     inkscape:connector-curvature="0"
     id="path844"
     d="M 6,16 V 15 H 1 V 2 H 4.171 C 4.584,0.836 5.696,0 7,0 8.304,0 9.416,0.836 9.829,2 H 13 v 4 h 2 v 10 z"
     class="icon-vs-out" />
  <path
     style="fill:#faffff;fill-opacity:1"
     inkscape:connector-curvature="0"
     id="path846"
     d="M 12,7 V 3 H 9 C 9,1.897 8.103,1 7,1 5.897,1 5,1.897 5,3 H 2 v 11 h 5 v 1 h 7 V 7 Z M 5,4 H 6 V 3 C 6,2.449 6.449,2 7,2 7.551,2 8,2.449 8,3 V 4 H 9 V 5 H 5 Z M 3,13 V 4 h 1 v 2 h 6 V 4 h 1 V 7 H 7 v 6 z m 10,1 H 8 V 8 h 5 z"
     class="icon-vs-bg" />
  <path
     class="icon-vs-fg"
     d="M5 4h1v-1c0-.551.449-1 1-1s1 .449 1 1v1h1v1h-4v-1zm-2 9v-9h1v2h6v-2h1v3h-4v6h-4zm10 1h-5v-6h5v6z"
     id="iconFg"
     style="fill:#f0eff1;fill-opacity:0.03744799" />
</svg>
