<?xml version="1.0" encoding="UTF-8" standalone="no"?>
<svg
   xmlns:dc="http://purl.org/dc/elements/1.1/"
   xmlns:cc="http://creativecommons.org/ns#"
   xmlns:rdf="http://www.w3.org/1999/02/22-rdf-syntax-ns#"
   xmlns:svg="http://www.w3.org/2000/svg"
   xmlns="http://www.w3.org/2000/svg"
   xmlns:sodipodi="http://sodipodi.sourceforge.net/DTD/sodipodi-0.dtd"
   xmlns:inkscape="http://www.inkscape.org/namespaces/inkscape"
   viewBox="0 0 16 16"
   version="1.1"
   id="svg9"
   sodipodi:docname="Redo_16x.svg"
   inkscape:export-filename="E:\TMP\Edi\Redo\Dark\Redo_256x.png"
   inkscape:export-xdpi="1536"
   inkscape:export-ydpi="1536"
   inkscape:version="0.92.3 (2405546, 2018-03-11)">
  <metadata
     id="metadata15">
    <rdf:RDF>
      <cc:Work
         rdf:about="">
        <dc:format>image/svg+xml</dc:format>
        <dc:type
           rdf:resource="http://purl.org/dc/dcmitype/StillImage" />
        <dc:title />
      </cc:Work>
    </rdf:RDF>
  </metadata>
  <defs
     id="defs13" />
  <sodipodi:namedview
     pagecolor="#ffffff"
     bordercolor="#666666"
     borderopacity="1"
     objecttolerance="10"
     gridtolerance="10"
     guidetolerance="10"
     inkscape:pageopacity="0"
     inkscape:pageshadow="2"
     inkscape:window-width="3840"
     inkscape:window-height="2104"
     id="namedview11"
     showgrid="false"
     inkscape:pagecheckerboard="true"
     inkscape:zoom="83.4386"
     inkscape:cx="1.6407977"
     inkscape:cy="7.6123455"
     inkscape:window-x="-16"
     inkscape:window-y="-16"
     inkscape:window-maximized="1"
     inkscape:current-layer="svg9" />
  <style
     id="style2">.icon-canvas-transparent{opacity:0;fill:#f6f6f6}.icon-vs-out{fill:#f6f6f6}.icon-vs-action-blue{fill:#00539c}</style>
  <path
     class="icon-canvas-transparent"
     d="M16 0v16H0V0h16z"
     id="canvas" />
  <path
     class="icon-vs-out"
     d="M2.895 1.736A5.883 5.883 0 0 1 7.087.002c1.457 0 2.832.52 3.913 1.472V0h4v8H7V4.011a2.041 2.041 0 0 0-1.332.61 1.915 1.915 0 0 0-.565 1.363c0 .515.2.999.565 1.363l5.945 5.945L8.906 16h-.242L2.84 10.176a5.857 5.857 0 0 1-1.728-4.204 6.01 6.01 0 0 1 1.783-4.236z"
     id="outline"
     style="fill:#f6f6f6;fill-opacity:0.07226355" />
  <g
     id="iconBg"
     style="fill:#7ac0ff;fill-opacity:1">
    <path
       class="icon-vs-action-blue"
       d="m 3.602,2.443 a 4.933,4.933 0 0 1 6.969,0 L 12,3.872 V 1 h 2 V 7 H 8 V 5 h 2.3 L 9.158,3.857 C 8.017,2.715 6.159,2.716 4.961,3.914 a 2.909,2.909 0 0 0 -0.858,2.07 c 0,0.782 0.305,1.517 0.857,2.07 L 10.198,13.292 8.784,14.706 3.547,9.469 C 1.625,7.547 1.625,4.421 3.602,2.443 Z"
       id="path6"
       inkscape:connector-curvature="0"
       style="fill:#7ac0ff;fill-opacity:1" />
  </g>
</svg>
