<?xml version="1.0" encoding="UTF-8" standalone="no"?>
<svg
   xmlns:dc="http://purl.org/dc/elements/1.1/"
   xmlns:cc="http://creativecommons.org/ns#"
   xmlns:rdf="http://www.w3.org/1999/02/22-rdf-syntax-ns#"
   xmlns:svg="http://www.w3.org/2000/svg"
   xmlns="http://www.w3.org/2000/svg"
   xmlns:sodipodi="http://sodipodi.sourceforge.net/DTD/sodipodi-0.dtd"
   xmlns:inkscape="http://www.inkscape.org/namespaces/inkscape"
   viewBox="0 0 16 16"
   version="1.1"
   id="svg8"
   sodipodi:docname="ShowLineNumbers_16x.svg"
   inkscape:version="0.92.3 (2405546, 2018-03-11)"
   inkscape:export-filename="E:\TMP\Edi\ShowLineNumbers\Dark\ShowLineNumbers_256x.png"
   inkscape:export-xdpi="1536"
   inkscape:export-ydpi="1536">
  <metadata
     id="metadata14">
    <rdf:RDF>
      <cc:Work
         rdf:about="">
        <dc:format>image/svg+xml</dc:format>
        <dc:type
           rdf:resource="http://purl.org/dc/dcmitype/StillImage" />
        <dc:title />
      </cc:Work>
    </rdf:RDF>
  </metadata>
  <defs
     id="defs12" />
  <sodipodi:namedview
     pagecolor="#ffffff"
     bordercolor="#666666"
     borderopacity="1"
     objecttolerance="10"
     gridtolerance="10"
     guidetolerance="10"
     inkscape:pageopacity="0"
     inkscape:pageshadow="2"
     inkscape:window-width="3840"
     inkscape:window-height="2104"
     id="namedview10"
     showgrid="false"
     inkscape:zoom="83.4386"
     inkscape:cx="7.3732222"
     inkscape:cy="7.3033228"
     inkscape:window-x="-16"
     inkscape:window-y="-16"
     inkscape:window-maximized="1"
     inkscape:current-layer="svg8" />
  <style
     id="style2">.icon-canvas-transparent{opacity:0;fill:#f6f6f6}.icon-vs-out{fill:#f6f6f6}.icon-vs-bg{fill:#424242}.icon-vs-blue{fill:#1ba1e2}</style>
  <path
     class="icon-canvas-transparent"
     d="M16 16H0V0h16v16z"
     id="canvas" />
  <path
     class="icon-vs-out"
     d="M 5,4 V 5.6 C 4.853436,18.375584 4.9540726,2.9340229 4.9,15.4 4.7,15.6 4.4,15.8 4.1,15.9 3.9,15.9 3.7,16 3.5,16 H 2.2 C 2.1,16 1.9,15.9 1.8,15.9 1.6,15.8 1.4,15.7 1.3,15.6 L 1,15.4 V 8.9 C 1,8.9 1.6,8 2.1,8 H 1 V 6.3 C 1,5.8 1.3,5.4 2,5.2 V 2.7 L 1,2.9 V 1 L 3.8,0 H 5 V 1 C 4.9869195,15.264459 4.977277,-0.39844388 5,4 Z"
     id="outline"
     inkscape:connector-curvature="0"
     style="fill:#f6f6f6;fill-opacity:0.07192575"
     sodipodi:nodetypes="ccccssccccccscccccccc" />
  <path
     class="icon-vs-blue"
     d="M4.5 5V4H4V1l-1.6.4v.7l.6-.2V4h-.4v1h1.9zM3.4 9.1s1-1.2 1.1-1.3c.1-.1.1-.2.1-.3v-.3c0-.2 0-.3-.1-.4 0-.3 0-.4-.2-.5-.1-.1-.2-.2-.3-.2-.2-.1-.4-.1-.6-.1H3c-.1 0-1 .3-1 .3v1c0-.1.6-.3.7-.4.1 0 .2-.1.3-.1h.6c.1 0 .2.2.2.4 0 .1-.1.4-.3.6C3.3 7.9 2 9.3 2 9.3v.7h2.6v-.9H3.4zm1.2 4.2c-.2-.4-.6-.5-.6-.5.7-.1.6-.9.6-1 0-.1 0-.2-.1-.4 0-.1-.1-.2-.2-.3-.1-.1-.2-.2-.4-.2-.2-.1-.4-.1-.6-.1H3c-.1 0-.2 0-.3.1-.1 0-.2 0-.2.1-.3-.1-.5 0-.5 0v.7c.5-.3 1.1-.2 1.2-.2.5.1.2.8.1.8s-.1.1-.3.1H2.4v.7h.8c.1 0 .2.1.3.1.1 0 .1.1.2.2 0 .1.1.2.1.3 0 .2-.1.3-.2.4-.1.1-.3.2-.6.2h-.2c-.1 0-.2 0-.3-.1-.1 0-.2-.1-.2-.1-.2 0-.2-.1-.3-.1v.8c.1 0 .1.1.2.1s.2 0 .3.1h.6c.3 0 .5 0 .7-.1.2-.1.4-.2.5-.3.1-.1.2-.2.3-.4 0 0 .1-.5 0-.9z"
     id="colorImportance" />
</svg>
