<?xml version="1.0" encoding="UTF-8" standalone="no"?>
<svg
   xmlns:dc="http://purl.org/dc/elements/1.1/"
   xmlns:cc="http://creativecommons.org/ns#"
   xmlns:rdf="http://www.w3.org/1999/02/22-rdf-syntax-ns#"
   xmlns:svg="http://www.w3.org/2000/svg"
   xmlns="http://www.w3.org/2000/svg"
   xmlns:sodipodi="http://sodipodi.sourceforge.net/DTD/sodipodi-0.dtd"
   xmlns:inkscape="http://www.inkscape.org/namespaces/inkscape"
   viewBox="0 0 16 16"
   version="1.1"
   id="svg9"
   sodipodi:docname="Undo_16x.svg"
   inkscape:version="0.92.3 (2405546, 2018-03-11)"
   inkscape:export-filename="E:\TMP\Edi\Undo\Dark\Undo_256x.png"
   inkscape:export-xdpi="1536"
   inkscape:export-ydpi="1536">
  <metadata
     id="metadata15">
    <rdf:RDF>
      <cc:Work
         rdf:about="">
        <dc:format>image/svg+xml</dc:format>
        <dc:type
           rdf:resource="http://purl.org/dc/dcmitype/StillImage" />
      </cc:Work>
    </rdf:RDF>
  </metadata>
  <defs
     id="defs13" />
  <sodipodi:namedview
     pagecolor="#ffffff"
     bordercolor="#666666"
     borderopacity="1"
     objecttolerance="10"
     gridtolerance="10"
     guidetolerance="10"
     inkscape:pageopacity="0"
     inkscape:pageshadow="2"
     inkscape:window-width="3840"
     inkscape:window-height="2104"
     id="namedview11"
     showgrid="false"
     inkscape:zoom="83.4386"
     inkscape:cx="6.4340278"
     inkscape:cy="8.1292182"
     inkscape:window-x="-16"
     inkscape:window-y="-16"
     inkscape:window-maximized="1"
     inkscape:current-layer="svg9" />
  <style
     id="style2">.icon-canvas-transparent{opacity:0;fill:#f6f6f6}.icon-vs-out{fill:#f6f6f6}.icon-vs-action-blue{fill:#00539c}</style>
  <path
     class="icon-canvas-transparent"
     d="M16 0v16H0V0h16z"
     id="canvas" />
  <path
     class="icon-vs-out"
     d="M14.888 5.972a5.852 5.852 0 0 1-1.727 4.204L7.336 16h-.242l-2.707-2.707 5.945-5.945c.364-.364.565-.849.565-1.363 0-.515-.2-1-.565-1.364A2.036 2.036 0 0 0 9 4.011V8H1V0h4v1.474A5.885 5.885 0 0 1 8.913.002c1.585 0 3.074.616 4.192 1.734a6.01 6.01 0 0 1 1.783 4.236z"
     id="outline"
     style="fill:#f6f6f6;fill-opacity:0.07192575" />
  <g
     id="iconBg"
     style="fill:#7ac0ff;fill-opacity:1">
    <path
       class="icon-vs-action-blue"
       d="M 12.453,9.469 7.215,14.707 5.801,13.293 11.039,8.055 a 2.91,2.91 0 0 0 0.857,-2.07 C 11.896,5.203 11.591,4.467 11.039,3.914 9.841,2.716 7.983,2.715 6.842,3.857 L 5.7,5 H 8 V 7 H 2 V 1 H 4 V 3.872 L 5.428,2.444 a 4.933,4.933 0 0 1 6.969,0 c 1.978,1.977 1.978,5.103 0.056,7.025 z"
       id="path6"
       inkscape:connector-curvature="0"
       style="fill:#7ac0ff;fill-opacity:1" />
  </g>
</svg>
