<svg id="Layer_1" data-name="Layer 1" xmlns="http://www.w3.org/2000/svg" viewBox="0 0 22 22"><defs><style>.cls-1{fill:#29aae2;}.cls-2{fill:none;stroke:#29aae2;stroke-linecap:round;stroke-miterlimit:10;stroke-width:1.436px;}</style></defs><polygon class="cls-1" points="2.538 8.628 2.03 5.076 0 3.045 1.523 1.523 3.045 0 5.076 2.03 8.628 2.538 5.583 5.583 2.538 8.628"/><path class="cls-2" d="M4.836,9.141a3.151,3.151,0,0,0,3.373-.874,3.152,3.152,0,0,0,.875-3.374"/><polygon class="cls-1" points="19.462 8.628 19.97 5.076 22 3.045 20.477 1.523 18.955 0 16.924 2.03 13.372 2.538 16.417 5.583 19.462 8.628"/><path class="cls-2" d="M17.164,9.141a3.151,3.151,0,0,1-3.373-.874,3.152,3.152,0,0,1-.875-3.374"/><polygon class="cls-1" points="2.538 13.372 2.03 16.924 0 18.955 1.523 20.477 3.045 22 5.076 19.97 8.628 19.462 5.583 16.417 2.538 13.372"/><path class="cls-2" d="M4.836,12.859a3.151,3.151,0,0,1,3.373.874,3.152,3.152,0,0,1,.875,3.374"/><polygon class="cls-1" points="19.462 13.372 19.97 16.924 22 18.955 20.477 20.477 18.955 22 16.924 19.97 13.372 19.462 16.417 16.417 19.462 13.372"/><path class="cls-2" d="M17.164,12.859a3.151,3.151,0,0,0-3.373.874,3.152,3.152,0,0,0-.875,3.374"/></svg>