<?xml version="1.0" encoding="utf-8"?>
<!-- Generator: Adobe Illustrator 25.2.1, SVG Export Plug-In . SVG Version: 6.00 Build 0)  -->
<svg version="1.1" id="Layer_1" xmlns="http://www.w3.org/2000/svg" xmlns:xlink="http://www.w3.org/1999/xlink" x="0px" y="0px"
	 viewBox="0 0 22 22" style="enable-background:new 0 0 22 22;" xml:space="preserve">
<style type="text/css">
	.st0{fill:none;stroke:url(#SVGID_1_);stroke-width:2.0753;stroke-linecap:round;stroke-linejoin:round;stroke-miterlimit:10;}
</style>
<g transform="matrix(0.459762,0,0,0.459762,-228.495,-104.385)">
	
		<linearGradient id="SVGID_1_" gradientUnits="userSpaceOnUse" x1="499.7765" y1="271.895" x2="513.2713" y2="271.895" gradientTransform="matrix(1.3051 0 0 -1.3051 -150.5168 605.8254)">
		<stop  offset="0" style="stop-color:#27B34B"/>
		<stop  offset="1" style="stop-color:#22411D"/>
	</linearGradient>
	<path class="st0" d="M501.8,241.4c0,5.3,8.6,9.6,19.2,9.6c10.5,0,19.2-4.3,19.2-9.6 M501.8,251c0,5.3,8.6,9.6,19.2,9.6
		c10.5,0,19.2-4.3,19.2-9.6 M501.8,260.5c0,5.3,8.6,9.6,19.2,9.6c10.5,0,19.2-4.3,19.2-9.6 M501.8,241.4c0-5.3,8.6-9.6,19.2-9.6
		c10.5,0,19.2,4.3,19.2,9.6"/>
</g>
</svg>
