<?xml version="1.0" encoding="utf-8"?>
<!-- Generator: Adobe Illustrator 25.2.0, SVG Export Plug-In . SVG Version: 6.00 Build 0)  -->
<svg version="1.1" xmlns="http://www.w3.org/2000/svg" xmlns:xlink="http://www.w3.org/1999/xlink" x="0px" y="0px"
	 viewBox="0 0 22 22" style="enable-background:new 0 0 22 22;" xml:space="preserve">
<style type="text/css">
	.st0{fill:#FFFFFF;}
	.st1{fill:none;stroke:#3333CC;stroke-width:3;stroke-miterlimit:10;}
	.st2{fill:none;stroke:#CC3333;stroke-width:3;stroke-miterlimit:10;}
	.st3{fill:none;stroke:#020202;stroke-width:3;stroke-linecap:round;stroke-miterlimit:10;}
	.st4{stroke:#020202;stroke-miterlimit:10;}
	.st5{fill:none;stroke:#020202;stroke-linecap:round;stroke-miterlimit:10;}
</style>
<g id="Layer_2">
	<g>
		<rect class="st0" width="22" height="22"/>
	</g>
</g>
<g id="Layer_1">
	<polyline class="st1" points="11.1,20.6 1.6,20.6 1.6,11 1.6,1.5 8.7,1.5 	"/>
	<polyline class="st2" points="12.6,17.6 10.7,20.6 20.6,20.6 20.6,11 20.6,1.5 10.7,1.5 	"/>
	<path class="st3" d="M3.9,17.9c1.4-0.7,3.4-1.9,5.3-4c1.7-1.8,4.1-5,4.7-6.3"/>
	<polyline class="st3" points="12.8,13.2 16.2,15.9 12.4,20.1 	"/>
	<circle class="st4" cx="15.3" cy="3" r="2.2"/>
	<line class="st5" x1="7.7" y1="12.1" x2="1.2" y2="12.1"/>
	<line class="st5" x1="5.5" y1="14.6" x2="2.2" y2="14.6"/>
	<polyline class="st1" points="1.6,11 1.6,1.5 10.7,1.5 6.8,6 	"/>
	<polyline class="st3" points="6.6,8.2 9.2,4.6 17.8,9.6 20.4,6.3 	"/>
	<line class="st5" x1="9.2" y1="4.5" x2="1.8" y2="4.5"/>
	<line class="st5" x1="5.5" y1="7.8" x2="3.1" y2="7.8"/>
	<line class="st5" x1="4.9" y1="10.4" x2="2.5" y2="10.4"/>
</g>
</svg>
