<?xml version="1.0" encoding="utf-8"?>
<!-- Generator: Adobe Illustrator 25.2.0, SVG Export Plug-In . SVG Version: 6.00 Build 0)  -->
<svg version="1.1" id="Layer_1" xmlns="http://www.w3.org/2000/svg" xmlns:xlink="http://www.w3.org/1999/xlink" x="0px" y="0px"
	 viewBox="0 0 22 22" style="enable-background:new 0 0 22 22;" xml:space="preserve">
<style type="text/css">
	.st0{fill:#F9ED32;}
	.st1{fill:#FFFFFF;}
	.st2{fill:#EC008C;}
	.st3{fill:#C1272D;}
	.st4{fill:#8E68AD;}
	.st5{fill:#45B864;}
	.st6{fill:#F15A29;}
	.st7{fill:#29AAE2;}
</style>
<g>
	<g>
		<g>
			<polygon class="st0" points="5.5,20.3 5.1,17.3 7.5,15.5 10.3,16.6 10.7,19.6 8.3,21.5 			"/>
			<path d="M7.6,15.7l2.5,1l0.4,2.7l-2.2,1.7l-2.5-1l-0.4-2.7L7.6,15.7 M7.5,15.2l-0.2,0.2L5.1,17l-0.2,0.2l0,0.3l0.4,2.7l0,0.3
				l0.3,0.1l2.5,1l0.3,0.1l0.2-0.2l2.2-1.7l0.2-0.2l0-0.3l-0.4-2.7l0-0.3l-0.3-0.1l-2.5-1L7.5,15.2L7.5,15.2z"/>
		</g>
	</g>
	<g>
		<g>
			<polygon class="st1" points="1.7,16.5 0.5,13.7 2.4,11.3 5.4,11.7 6.6,14.5 4.7,16.9 			"/>
			<path d="M2.5,11.6l2.7,0.4l1.1,2.5l-1.7,2.2l-2.7-0.4l-1.1-2.5L2.5,11.6 M2.3,11l-0.2,0.2l-1.7,2.2l-0.2,0.2l0.1,0.3l1.1,2.5
				l0.1,0.3l0.3,0l2.7,0.4l0.3,0L5,16.9l1.7-2.2l0.2-0.2l-0.1-0.3l-1.1-2.5l-0.1-0.3l-0.3,0l-2.7-0.4L2.3,11L2.3,11z"/>
		</g>
	</g>
	<g>
		<g>
			<polygon class="st2" points="0.5,8.3 1.7,5.5 4.7,5.1 6.5,7.5 5.4,10.3 2.4,10.7 			"/>
			<path d="M4.6,5.4l1.7,2.2l-1,2.5l-2.7,0.4L0.8,8.3l1-2.5L4.6,5.4 M4.8,4.9l-0.3,0L1.8,5.3l-0.3,0L1.4,5.6l-1,2.5L0.2,8.4l0.2,0.2
				l1.7,2.2L2.3,11l0.3,0l2.7-0.4l0.3,0l0.1-0.3l1-2.5l0.1-0.3L6.7,7.3L5,5.1L4.8,4.9L4.8,4.9z"/>
		</g>
	</g>
	<g>
		<g>
			<polygon class="st3" points="5.1,4.7 5.5,1.7 8.3,0.5 10.7,2.4 10.3,5.4 7.5,6.6 			"/>
			<path d="M8.2,0.8l2.2,1.7l-0.4,2.7L7.5,6.3L5.4,4.6l0.4-2.7L8.2,0.8 M8.3,0.3L8.1,0.4L5.5,1.4L5.3,1.5l0,0.3L4.9,4.6l0,0.3L5.1,5
				l2.2,1.7l0.2,0.2l0.3-0.1l2.5-1.1l0.3-0.1l0-0.3l0.4-2.7l0-0.3l-0.2-0.2L8.5,0.4L8.3,0.3L8.3,0.3z"/>
		</g>
	</g>
	<g>
		<g>
			<polygon class="st4" points="11.7,5.4 11.3,2.4 13.7,0.5 16.5,1.7 16.9,4.7 14.5,6.5 			"/>
			<path d="M13.7,0.8l2.5,1l0.4,2.7l-2.2,1.7l-2.5-1l-0.4-2.7L13.7,0.8 M13.6,0.2l-0.2,0.2l-2.2,1.7L11,2.3l0,0.3l0.4,2.7l0,0.3
				l0.3,0.1l2.5,1l0.3,0.1l0.2-0.2L16.9,5l0.2-0.2l0-0.3l-0.4-2.7l0-0.3l-0.3-0.1l-2.5-1L13.6,0.2L13.6,0.2z"/>
		</g>
	</g>
	<g>
		<g>
			<polygon class="st5" points="16.6,10.3 15.4,7.5 17.3,5.1 20.3,5.5 21.5,8.3 19.6,10.7 			"/>
			<path d="M17.4,5.4l2.7,0.4l1.1,2.5l-1.7,2.2l-2.7-0.4l-1.1-2.5L17.4,5.4 M17.2,4.8L17,5.1l-1.7,2.2l-0.2,0.2l0.1,0.3l1.1,2.5
				l0.1,0.3l0.3,0l2.7,0.4l0.3,0l0.2-0.2l1.7-2.2l0.2-0.2l-0.1-0.3l-1.1-2.5l-0.1-0.3l-0.3,0l-2.7-0.4L17.2,4.8L17.2,4.8z"/>
		</g>
	</g>
	<g>
		<g>
			<polygon class="st6" points="15.5,14.5 16.6,11.7 19.6,11.3 21.5,13.7 20.3,16.5 17.3,16.9 			"/>
			<path d="M19.5,11.5l1.7,2.2l-1,2.5l-2.7,0.4l-1.7-2.2l1-2.5L19.5,11.5 M19.7,11l-0.3,0l-2.7,0.4l-0.3,0l-0.1,0.3l-1,2.5l-0.1,0.3
				l0.2,0.2l1.7,2.2l0.2,0.2l0.3,0l2.7-0.4l0.3,0l0.1-0.3l1-2.5l0.1-0.3l-0.2-0.2l-1.7-2.2L19.7,11L19.7,11z"/>
		</g>
	</g>
	<g>
		<g>
			<polygon class="st7" points="11.3,19.6 11.7,16.6 14.5,15.4 16.9,17.3 16.5,20.3 13.7,21.5 			"/>
			<path d="M14.5,15.7l2.2,1.7l-0.4,2.7l-2.5,1.1l-2.2-1.7l0.4-2.7L14.5,15.7 M14.5,15.1l-0.3,0.1l-2.5,1.1l-0.3,0.1l0,0.3l-0.4,2.7
				l0,0.3l0.2,0.2l2.2,1.7l0.2,0.2l0.3-0.1l2.5-1.1l0.3-0.1l0-0.3l0.4-2.7l0-0.3L16.9,17l-2.2-1.7L14.5,15.1L14.5,15.1z"/>
		</g>
	</g>
</g>
</svg>
