<?xml version="1.0" encoding="utf-8"?>
<!-- Generator: Adobe Illustrator 25.2.0, SVG Export Plug-In . SVG Version: 6.00 Build 0)  -->
<svg version="1.1" id="Layer_1" xmlns="http://www.w3.org/2000/svg" xmlns:xlink="http://www.w3.org/1999/xlink" x="0px" y="0px"
	 viewBox="0 0 22 22" style="enable-background:new 0 0 22 22;" xml:space="preserve">
<style type="text/css">
	.st0{fill:#FFFFFF;stroke:#29ABE2;stroke-width:0.5;stroke-linecap:round;stroke-linejoin:round;stroke-miterlimit:10;}
	.st1{fill:#29ABE2;}
	.st2{fill:none;stroke:#29ABE2;stroke-width:2;stroke-linecap:round;stroke-miterlimit:10;}
</style>
<polygon class="st0" points="21,20 16,20 11,20 6,20 1,16 1,13 1,11 1,9 1,6 6,2 11,2 16,2 21,2 21,7 21,11 21,15 "/>
<polygon class="st1" points="12,17 8,14 4,14 4,11 4,8 8,8 12,5 12,11 "/>
<g>
	<path class="st2" d="M14.8,15.2c0,0,2.5-1,2.5-4.2s-2.5-4.2-2.5-4.2"/>
</g>
</svg>
