<?xml version="1.0" encoding="utf-8"?>
<!-- Generator: Adobe Illustrator 25.2.0, SVG Export Plug-In . SVG Version: 6.00 Build 0)  -->
<svg version="1.1" id="Layer_1" xmlns="http://www.w3.org/2000/svg" xmlns:xlink="http://www.w3.org/1999/xlink" x="0px" y="0px"
	 viewBox="0 0 22 22" style="enable-background:new 0 0 22 22;" xml:space="preserve">
<style type="text/css">
	.st0{fill:#29ABE2;}
	.st1{fill:none;stroke:#29ABE2;stroke-linecap:round;stroke-miterlimit:10;}
</style>
<polygon class="st0" points="8,17 4,14 0,14 0,11 0,8 4,8 8,5 8,11 "/>
<g>
	<line class="st1" x1="9.1" y1="8.8" x2="9.1" y2="9.8"/>
	<line class="st1" x1="11.1" y1="9.8" x2="11.1" y2="5.8"/>
	<line class="st1" x1="13.1" y1="9.8" x2="13.1" y2="8.2"/>
	<line class="st1" x1="15.1" y1="9.8" x2="15.1" y2="4.2"/>
	<line class="st1" x1="17" y1="9.8" x2="17" y2="5.8"/>
	<line class="st1" x1="19" y1="9.8" x2="19" y2="2.2"/>
</g>
<g>
	<line class="st1" x1="9.1" y1="14.2" x2="9.1" y2="13.2"/>
	<line class="st1" x1="11.1" y1="13.2" x2="11.1" y2="17.2"/>
	<line class="st1" x1="13.1" y1="13.2" x2="13.1" y2="14.8"/>
	<line class="st1" x1="15.1" y1="13.2" x2="15.1" y2="18.8"/>
	<line class="st1" x1="17" y1="13.2" x2="17" y2="17.2"/>
	<line class="st1" x1="19" y1="13.2" x2="19" y2="20.8"/>
</g>
</svg>
