<?xml version="1.0" encoding="utf-8"?>
<!-- Generator: Adobe Illustrator 24.3.0, SVG Export Plug-In . SVG Version: 6.00 Build 0)  -->
<svg version="1.1" id="Layer_1" xmlns="http://www.w3.org/2000/svg" xmlns:xlink="http://www.w3.org/1999/xlink" x="0px" y="0px"
	 viewBox="0 0 22 22" style="enable-background:new 0 0 22 22;" xml:space="preserve">
<style type="text/css">
	.st0{fill:#EABBBB;stroke:#FF6699;stroke-linecap:round;stroke-miterlimit:10;}
	.st1{fill:none;stroke:#FF6699;stroke-linecap:round;stroke-linejoin:round;stroke-miterlimit:10;}
	.st2{fill:none;stroke:#FF6699;stroke-linecap:round;stroke-miterlimit:10;}
</style>
<path class="st0" d="M11.6,18c-0.8-0.7-1-4.7-2-3.2c-1.2,1.2-4.7,1.8-7.4-1.2S0.9,6,3.4,3.6c7-7.2,23.1,1.6,16.1,11.1
	c-1,0.4-2.2-0.4-2.5,0c-0.3,0.4,1.1,0.2,1.2,1.5C17.7,20.1,13.5,19.5,11.6,18z"/>
<path class="st1" d="M10.5,14.5c0,0,2,2,4,2s2.6-1.7,2.6-1.7"/>
<path class="st2" d="M5.5,7.5c-0.3-0.8-0.3-1.5,0-2c0.3-0.5,0.7-0.5,1-1c0.3-0.5,0.3-1.2,0-2"/>
<path class="st2" d="M10.4,1.7c0.2,1.1,0.6,1.7,1.1,1.9c0.7,0.3,1.3-0.4,2-0.1c0.7,0.4,0.4,1.4,1.1,1.9c0.4,0.3,1.2,0.5,3-0.2"/>
<path class="st2" d="M6.5,4.5c-0.1,0.4-0.2,0.8,0,1c0.4,0.4,1.6-0.4,2,0c0.5,0.4-0.3,1.8,0,2c0.3,0.2,1.2-1.2,2-1
	c0.5,0.1,0.4,0.7,1,1c0.8,0.4,1.4-0.4,2,0c0.7,0.4,0.3,1.6,1,2c0.3,0.2,0.7,0.1,1,0"/>
<path class="st2" d="M0.7,9.7c0.2,0.8,0.4,1.2,0.7,1.2c0.5,0.1,0.8-0.8,1.2-0.7c0.4,0.1,0.3,1.1,0.7,1.2s0.8-0.8,1.2-0.7
	C5,10.9,4.9,11.8,5.3,12c0.3,0.1,0.7-0.1,1.2-0.7"/>
<path class="st2" d="M11.5,7.5c-0.9,0.5-1,0.8-1,1c0.1,0.5,1.5,0.2,2,1c0.4,0.7-1.3,1.3-1,2c0.2,0.5,0.9,1,3,1"/>
</svg>
