<?xml version="1.0" encoding="utf-8"?>
<!-- Generator: Adobe Illustrator 25.2.0, SVG Export Plug-In . SVG Version: 6.00 Build 0)  -->
<svg version="1.1" id="Layer_1" xmlns="http://www.w3.org/2000/svg" xmlns:xlink="http://www.w3.org/1999/xlink" x="0px" y="0px"
	 viewBox="0 0 22 22" style="enable-background:new 0 0 22 22;" xml:space="preserve">
<style type="text/css">
	.st0{fill:none;stroke:#2AACE2;stroke-miterlimit:10;}
	.st1{fill:#28ABE2;}
	.st2{fill:#28ABE2;stroke:#28ABE2;stroke-miterlimit:10;}
</style>
<path class="st0" d="M12.9,22c0-5,4.1-9.1,9.1-9.1"/>
<path class="st0" d="M9.8,22c0-6.7,5.5-12.2,12.2-12.2"/>
<path class="st0" d="M15.9,22c0-3.4,2.7-6.1,6.1-6.1"/>
<g>
	<path class="st1" d="M5.7,13.4c0.4,0,0.8,0.2,1.1,0.5C7,14.2,7.2,14.6,7.2,15c0,0.4-0.2,0.8-0.5,1.1c-0.3,0.3-0.7,0.4-1,0.4
		c-0.4,0-0.8-0.2-1.1-0.5c-0.3-0.3-0.4-0.7-0.4-1.1c0-0.4,0.2-0.8,0.5-1.1C4.9,13.6,5.3,13.4,5.7,13.4 M5.7,11.4
		c-0.9,0-1.7,0.3-2.4,1c-1.4,1.3-1.4,3.6-0.1,5c0.7,0.7,1.6,1.1,2.5,1.1c0.9,0,1.7-0.3,2.4-1c1.4-1.3,1.4-3.6,0.1-5
		C7.5,11.8,6.6,11.4,5.7,11.4L5.7,11.4z"/>
</g>
<g>
	<path class="st1" d="M15.9,4c0.4,0,0.8,0.2,1.1,0.5c0.3,0.3,0.4,0.7,0.4,1.1c0,0.4-0.2,0.8-0.5,1.1c-0.3,0.3-0.7,0.4-1,0.4
		c-0.4,0-0.8-0.2-1.1-0.5c-0.3-0.3-0.4-0.7-0.4-1.1c0-0.4,0.2-0.8,0.5-1.1C15.1,4.2,15.5,4,15.9,4 M15.9,2c-0.9,0-1.7,0.3-2.4,1
		c-1.4,1.3-1.4,3.6-0.1,5C14.1,8.7,15,9,15.9,9c0.9,0,1.7-0.3,2.4-1c1.4-1.3,1.4-3.6,0.1-5C17.7,2.4,16.8,2,15.9,2L15.9,2z"/>
</g>
<path class="st2" d="M6.2,12.4c3-2.6,3.6-3.3,3.6-3.3S7.6,7,7.4,5.4c-0.2-2,4.1-5.1,6-4c0.8,0.5,1.3,1.9,0.9,2.8
	c-0.8,1.8-3.6,2.2-3.6,2.2s1.1,1,1.6,2.2c0.5,1.3-1.4,2.8-2.5,3.7c-1.7,1.5-4.3,1.5-4.5,1C5.3,13.2,5.5,13,6.2,12.4z"/>
<path class="st2" d="M8.6,9.5l-2.9,2.7c-0.2,0.2-0.6,0.2-0.8,0l-0.6-0.6c-0.2-0.2-0.2-0.6,0-0.8l2.9-2.7c0.2-0.2,0.6-0.2,0.8,0
	l0.6,0.6C8.9,9,8.8,9.3,8.6,9.5z"/>
</svg>
