<?xml version="1.0" encoding="utf-8"?>
<!-- Generator: Adobe Illustrator 25.2.0, SVG Export Plug-In . SVG Version: 6.00 Build 0)  -->
<svg version="1.1" xmlns="http://www.w3.org/2000/svg" xmlns:xlink="http://www.w3.org/1999/xlink" x="0px" y="0px"
	 viewBox="0 0 22 22" style="enable-background:new 0 0 22 22;" xml:space="preserve">
<style type="text/css">
	.st0{opacity:0.48;}
	.st1{fill:none;stroke:#BD202E;stroke-miterlimit:10;}
	.st2{opacity:0.64;}
	.st3{opacity:0.8;}
	.st4{opacity:0.9;}
	.st5{opacity:0.16;}
	.st6{opacity:0.32;}
	.st7{fill:#BD202E;stroke:#BD202E;stroke-width:0.55;stroke-miterlimit:10;}
</style>
<g id="Layer_1">
	<g class="st0">
		<path class="st1" d="M11,17.1L11,17.1c0.2,0,0.4,0.2,0.4,0.4l0,3.4c0,0.2-0.2,0.4-0.4,0.4h0c-0.2,0-0.4-0.2-0.4-0.4l0-3.4
			C10.6,17.3,10.8,17.1,11,17.1z"/>
	</g>
	<g class="st2">
		<path class="st1" d="M6.7,15.3L6.7,15.3c0.1,0.1,0.1,0.4,0,0.5l-2.4,2.4c-0.1,0.1-0.4,0.1-0.5,0l0,0c-0.1-0.1-0.1-0.4,0-0.5
			l2.4-2.4C6.3,15.2,6.5,15.2,6.7,15.3z"/>
	</g>
	<g class="st3">
		<path class="st1" d="M4.9,11L4.9,11c0,0.2-0.2,0.4-0.4,0.4l-3.4,0c-0.2,0-0.4-0.2-0.4-0.4v0c0-0.2,0.2-0.4,0.4-0.4l3.4,0
			C4.7,10.6,4.9,10.8,4.9,11z"/>
	</g>
	<g class="st4">
		<path class="st1" d="M6.7,6.7L6.7,6.7c-0.1,0.1-0.4,0.1-0.5,0L3.7,4.3c-0.1-0.1-0.1-0.4,0-0.5l0,0c0.1-0.1,0.4-0.1,0.5,0l2.4,2.4
			C6.8,6.3,6.8,6.5,6.7,6.7z"/>
	</g>
	<g>
		<path class="st1" d="M11,4.9L11,4.9c-0.2,0-0.4-0.2-0.4-0.4l0-3.4c0-0.2,0.2-0.4,0.4-0.4h0c0.2,0,0.4,0.2,0.4,0.4l0,3.4
			C11.4,4.7,11.2,4.9,11,4.9z"/>
	</g>
	<g class="st5">
		<path class="st1" d="M17.1,11L17.1,11c0-0.2,0.2-0.4,0.4-0.4l3.4,0c0.2,0,0.4,0.2,0.4,0.4v0c0,0.2-0.2,0.4-0.4,0.4l-3.4,0
			C17.3,11.4,17.1,11.2,17.1,11z"/>
	</g>
	<g class="st6">
		<path class="st1" d="M15.3,15.3L15.3,15.3c0.1-0.1,0.4-0.1,0.5,0l2.4,2.4c0.1,0.1,0.1,0.4,0,0.5h0c-0.1,0.1-0.4,0.1-0.5,0
			l-2.4-2.4C15.2,15.7,15.2,15.5,15.3,15.3z"/>
	</g>
</g>
<g id="Layer_2">
	<g>
		<path class="st7" d="M13.3,9c0.1,1.3-0.9,2.4-2.2,2.4c0,0,0.2,1.9-0.9,1.7c-0.2,0-0.2-1.8-0.1-1.9c0-0.5,0-0.5,0.6-0.5
			c2.6-0.1,1.6-4.2-0.8-3.2C9.3,7.7,8.5,8.3,8.7,7.2C10.2,5.8,13.5,6.6,13.3,9z M11.3,14.7c0,1-1.3,1-1.4,0
			C9.9,13.7,11.3,13.7,11.3,14.7z"/>
	</g>
</g>
</svg>
