<?xml version="1.0" encoding="utf-8"?>
<!-- Generator: Adobe Illustrator 24.3.0, SVG Export Plug-In . SVG Version: 6.00 Build 0)  -->
<svg version="1.1" xmlns="http://www.w3.org/2000/svg" xmlns:xlink="http://www.w3.org/1999/xlink" x="0px" y="0px"
	 viewBox="0 0 22 22" style="enable-background:new 0 0 22 22;" xml:space="preserve">
<style type="text/css">
	.st0{stroke:#000000;stroke-width:0.25;stroke-miterlimit:10;}
	.st1{stroke:#000000;stroke-miterlimit:10;}
	.st2{fill:#FFFFFF;stroke:#000000;stroke-width:0.5;stroke-miterlimit:10;}
	.st3{fill:none;stroke:#000000;stroke-miterlimit:10;}
	.st4{fill:#FFFFFF;stroke:#FFFFFF;stroke-width:0.25;stroke-miterlimit:10;}
</style>
<g id="Layer_1">
	<path class="st0" d="M5,6.3H1.7V4.6c0-0.3,0.3-0.6,0.6-0.6h2.2C4.7,4.1,5,4.3,5,4.6V6.3z"/>
	<path class="st0" d="M18,6.3H5l4.4-4.7C9.7,1.2,10.1,1,10.6,1h1.7c0.5,0,1.1,0.2,1.4,0.6L18,6.3z"/>
	<path class="st1" d="M19.5,19.1H2.5c-0.8,0-1.5-0.7-1.5-1.5V7.2c0-0.8,0.7-1.5,1.5-1.5h17.1c0.8,0,1.5,0.7,1.5,1.5v10.4
		C21,18.4,20.3,19.1,19.5,19.1z"/>
	<g>
		<circle class="st2" cx="11" cy="11" r="5.6"/>
		<path class="st2" d="M11,17.1c-3.4,0-6.1-2.7-6.1-6.1c0-3.4,2.7-6.1,6.1-6.1c3.4,0,6.1,2.7,6.1,6.1C17.1,14.4,14.4,17.1,11,17.1z
			 M11,6c-2.8,0-5,2.2-5,5s2.2,5,5,5s5-2.2,5-5S13.8,6,11,6z"/>
	</g>
	<circle class="st3" cx="11" cy="11" r="3.1"/>
	<circle class="st4" cx="2.5" cy="7.2" r="0.8"/>
</g>
<g id="Layer_2">
</g>
</svg>
