<?xml version="1.0" encoding="utf-8"?>
<!-- Generator: Adobe Illustrator 25.2.0, SVG Export Plug-In . SVG Version: 6.00 Build 0)  -->
<svg version="1.1" xmlns="http://www.w3.org/2000/svg" xmlns:xlink="http://www.w3.org/1999/xlink" x="0px" y="0px"
	 viewBox="0 0 22 22" style="enable-background:new 0 0 22 22;" xml:space="preserve">
<style type="text/css">
	.st0{fill:#FFFFFF;}
	.st1{stroke:#000000;stroke-miterlimit:10;}
	.st2{fill:#FFFFFF;stroke:#000000;stroke-width:0.5;stroke-miterlimit:10;}
	.st3{fill:none;stroke:#000000;stroke-miterlimit:10;}
	.st4{fill:#FFFFFF;stroke:#FFFFFF;stroke-width:0.25;stroke-miterlimit:10;}
</style>
<g id="Layer_3">
	<g>
		<path class="st0" d="M20.9,8.2v10.3c0,0.8-0.7,1.5-1.5,1.5H2.5c-0.8,0-1.5-0.7-1.5-1.5V8.2c0-0.5,0.3-1,0.7-1.2V5.6
			c0-0.3,0.2-0.6,0.6-0.6h2.2C4.8,5.1,5,5.3,5,5.6v1.6l0.5-0.6l3.8-4.2C9.7,2.2,10.1,2,10.6,2h1.7c0.5,0,1,0.2,1.4,0.6l3.7,4h2
			C20.3,6.7,20.9,7.4,20.9,8.2z"/>
		<path class="st0" d="M19.5,20.5H2.5c-1.1,0-2-0.9-2-2V8.2c0-0.6,0.2-1.1,0.7-1.5V5.6c0-0.6,0.5-1.1,1.1-1.1h2.2
			c0.6,0,1.1,0.5,1.1,1.1v0.3L9,2.2c0.4-0.4,1-0.7,1.6-0.7h1.7c0.7,0,1.3,0.3,1.8,0.8l3.6,3.9h1.8c1.1,0,2,0.9,2,2v10.3
			C21.4,19.6,20.6,20.5,19.5,20.5z M2.3,5.6l0,1.6L2,7.4C1.8,7.6,1.6,7.9,1.6,8.2v10.3c0,0.5,0.4,0.9,0.9,0.9h16.9
			c0.5,0,0.9-0.4,0.9-0.9V8.2c0-0.5-0.4-0.9-0.9-0.9h-2.3L13.3,3c-0.3-0.3-0.6-0.5-1-0.5h-1.7c-0.3,0-0.6,0.1-0.8,0.4L4.5,8.6v-3
			L2.3,5.6z"/>
	</g>
</g>
<g id="Layer_1">
	<g>
		<path d="M20.4,8.3v9.8c0,0.8-0.6,1.4-1.4,1.4H2.9c-0.8,0-1.4-0.6-1.4-1.4V8.3c0-0.5,0.3-0.9,0.6-1.2V5.9c0-0.3,0.2-0.5,0.5-0.5
			h2.1c0.3,0,0.5,0.2,0.5,0.5v1.6l0.5-0.5l3.6-4c0.3-0.3,0.7-0.5,1.1-0.5h1.6c0.5,0,1,0.2,1.4,0.6l3.6,3.9h1.9
			C19.8,6.9,20.4,7.6,20.4,8.3z"/>
		<path d="M19.1,20H2.9c-1,0-1.9-0.8-1.9-1.9V8.3c0-0.5,0.2-1.1,0.6-1.4v-1c0-0.6,0.5-1,1-1h2.1c0.6,0,1,0.5,1,1v0.3l3.3-3.5
			C9.5,2.2,10,2,10.6,2h1.6c0.6,0,1.3,0.3,1.7,0.8l3.4,3.7h1.7c1,0,1.9,0.8,1.9,1.9v9.8C20.9,19.2,20.1,20,19.1,20z M2.7,5.9l0,1.6
			L2.5,7.6C2.2,7.7,2.1,8,2.1,8.3v9.8c0,0.5,0.4,0.9,0.9,0.9h16.1c0.5,0,0.9-0.4,0.9-0.9V8.3c0-0.5-0.4-0.9-0.9-0.9h-2.2l-3.7-4
			c-0.3-0.3-0.6-0.4-1-0.4h-1.6C10.3,3,10,3.1,9.8,3.3l-5,5.4V5.9L2.7,5.9z"/>
	</g>
	<polygon class="st1" points="5.8,6.9 5.3,7.5 5.3,6.9 	"/>
	<g>
		<circle class="st2" cx="11" cy="11.9" r="5.2"/>
		<path class="st2" d="M11,17.7c-3.2,0-5.8-2.6-5.8-5.8c0-3.2,2.6-5.8,5.8-5.8c3.2,0,5.8,2.6,5.8,5.8C16.8,15.1,14.2,17.7,11,17.7z
			 M11,7.2c-2.6,0-4.7,2.1-4.7,4.7s2.1,4.7,4.7,4.7s4.7-2.1,4.7-4.7S13.6,7.2,11,7.2z"/>
	</g>
	<circle class="st3" cx="11" cy="11.9" r="2.9"/>
	<circle class="st4" cx="2.9" cy="8.3" r="0.8"/>
</g>
<g id="Layer_2">
</g>
</svg>
