<?xml version="1.0" encoding="utf-8"?>
<!-- Generator: Adobe Illustrator 24.3.0, SVG Export Plug-In . SVG Version: 6.00 Build 0)  -->
<svg version="1.1" id="Layer_1" xmlns="http://www.w3.org/2000/svg" xmlns:xlink="http://www.w3.org/1999/xlink" x="0px" y="0px"
	 viewBox="0 0 22 22" style="enable-background:new 0 0 22 22;" xml:space="preserve">
<style type="text/css">
	.st0{fill:#054927;}
	.st1{fill:#005421;}
	.st2{fill:#FFFFFF;stroke:#FFFFFF;stroke-width:0.75;stroke-linecap:round;stroke-miterlimit:10;}
	.st3{fill:#FFFFFF;stroke:#FFFFFF;stroke-width:0.5;stroke-linecap:round;stroke-miterlimit:10;}
	.st4{fill:#FFFFFF;stroke:#006837;stroke-width:2;stroke-linecap:round;stroke-miterlimit:10;}
</style>
<g>
	<path class="st0" d="M1.9,21c-0.1-1.4-0.3-5.4,0.5-7.9l0.3-0.9c1-3,2.1-6.4,3.8-8.4c1.1-1.3,2.6-2,4.5-2c0.6,0,1.3,0.1,2,0.2
		c1.9,0.4,3.5,1.2,3.8,1.4c0.3,0.3,1.3,1.7,2,3.5c1,2.7,0.8,4.9-0.6,6.7c-1.7,2-4.8,3.7-7.6,5.2l-0.8,0.5C7.4,20.5,3.3,20.9,1.9,21z
		"/>
	<path class="st1" d="M11,2.4c0.6,0,1.2,0.1,1.9,0.2c1.7,0.4,3.1,1.1,3.6,1.3c0.3,0.4,1.3,1.7,1.9,3.3c1,2.5,0.8,4.6-0.6,6.2
		c-1.6,1.9-4.7,3.6-7.5,5.1l-0.8,0.5c-2,1.1-5.5,1.5-7.2,1.6c-0.1-1.6-0.2-5,0.5-7.2l0.3-0.9c1-2.9,2.1-6.3,3.7-8.2
		C7.9,2.9,9.2,2.4,11,2.4 M11,1.4c-1.7,0-3.5,0.5-4.9,2.1C4.2,5.8,3,9.8,1.9,12.9s-0.5,8.6-0.5,8.6s5.6-0.2,8.5-1.8
		c2.9-1.6,6.7-3.5,8.6-5.7s1.6-5,0.7-7.2c-0.8-2.2-2.2-3.7-2.2-3.7s-1.8-1-4-1.5C12.4,1.4,11.7,1.4,11,1.4L11,1.4z"/>
</g>
<path class="st2" d="M15.4,4.8C11.7,9.2,8,13.7,4.3,18.1"/>
<line class="st3" x1="10.4" y1="7.9" x2="7" y2="8.2"/>
<line class="st3" x1="7.4" y1="12.6" x2="4.5" y2="12.4"/>
<line class="st2" x1="14.1" y1="10.4" x2="15.1" y2="12.8"/>
<line class="st3" x1="9.3" y1="14" x2="10.5" y2="16.4"/>
<line class="st4" x1="16.6" y1="3.6" x2="19" y2="1"/>
</svg>
