<svg id="Layer_1" data-name="Layer 1" xmlns="http://www.w3.org/2000/svg" viewBox="0 0 22.04 22.01"><defs><style>.cls-1{fill:#231f20;stroke:#231f20;}.cls-1,.cls-2,.cls-3{stroke-miterlimit:10;}.cls-2{fill:none;}.cls-2,.cls-3{stroke:#fff;}.cls-3{fill:#fff;}</style></defs><ellipse class="cls-1" cx="11.01" cy="8.61" rx="8.27" ry="8.11"/><path class="cls-1" d="M11,16.45c-4.32,0-8.36,1.27-10.5,3,0,.89,0,1.36,0,2.05,3.16,0,4.16,0,7.73,0h6.69l3.38,0c1.38,0,1.86,0,3.2,0,0-.48,0-.9,0-1.62C19.49,17.92,15.63,16.45,11,16.45Z" transform="translate(0.01 -0.03)"/><line class="cls-2" x1="3.45" y1="5.25" x2="18.57" y2="5.29"/><ellipse class="cls-3" cx="6.67" cy="5.07" rx="1.2" ry="1.18"/><ellipse class="cls-3" cx="11.01" cy="8.47" rx="1.2" ry="1.18"/><ellipse class="cls-3" cx="15.39" cy="11.82" rx="1.2" ry="1.18"/><line class="cls-2" x1="3.45" y1="8.56" x2="18.57" y2="8.6"/><line class="cls-2" x1="3.45" y1="11.65" x2="18.57" y2="11.69"/></svg>