<?xml version="1.0" encoding="utf-8"?>
<!-- Generator: Adobe Illustrator 24.3.0, SVG Export Plug-In . SVG Version: 6.00 Build 0)  -->
<svg version="1.1" id="Layer_1" xmlns="http://www.w3.org/2000/svg" xmlns:xlink="http://www.w3.org/1999/xlink" x="0px" y="0px"
	 viewBox="0 0 20.8 21.5" style="enable-background:new 0 0 20.8 21.5;" xml:space="preserve">
<style type="text/css">
	.st0{fill:#C2B59B;}
	.st1{fill:none;stroke:#231F20;stroke-miterlimit:10;}
	.st2{stroke:#231F20;stroke-linecap:round;stroke-miterlimit:10;}
	.st3{fill:#847761;}
	.st4{fill:none;stroke:#231F20;stroke-width:3;stroke-miterlimit:10;stroke-dasharray:2;}
	.st5{stroke:#231F20;stroke-width:2;stroke-linecap:round;stroke-miterlimit:10;}
</style>
<polygon class="st0" points="7.4,4.4 7.1,4.6 6.8,4.4 0,0.4 0,17.2 7.1,21.3 13.4,17 13.7,16.8 13.9,17 20.8,21 20.8,4.3 13.7,0.1 
	"/>
<path class="st1" d="M0.6,7.4"/>
<path class="st2" d="M14.7,2.4c0.1-0.2-0.3,11.2-0.3,11.2"/>
<g>
	<line class="st0" x1="13.6" y1="16.1" x2="13.6" y2="1.5"/>
	<path class="st3" d="M13.6,16.1c-0.4-2.4-0.5-4.9-0.5-7.3c0-2.4,0.1-4.9,0.5-7.3c0.4,2.4,0.5,4.9,0.5,7.3
		C14.1,11.2,14,13.6,13.6,16.1z"/>
</g>
<g>
	<line class="st0" x1="7" y1="20.3" x2="7" y2="5.8"/>
	<path class="st3" d="M7,20.3c-0.4-2.4-0.5-4.9-0.5-7.3c0-2.4,0.1-4.9,0.5-7.3c0.4,2.4,0.5,4.9,0.5,7.3C7.5,15.5,7.4,17.9,7,20.3z"
		/>
</g>
<path class="st4" d="M1.8,11.2c0.1,0.3,1.2,2.8,3.9,3.5c2.1,0.5,3.7-0.4,4.4-0.7c2-1.1,2.9-2.8,3.1-3.4"/>
<line class="st5" x1="19.3" y1="5.7" x2="9.3" y2="10.2"/>
</svg>
