<?xml version="1.0" encoding="utf-8"?>
<!-- Generator: Adobe Illustrator 25.2.0, SVG Export Plug-In . SVG Version: 6.00 Build 0)  -->
<svg version="1.1" xmlns="http://www.w3.org/2000/svg" xmlns:xlink="http://www.w3.org/1999/xlink" x="0px" y="0px"
	 viewBox="0 0 22 22" style="enable-background:new 0 0 22 22;" xml:space="preserve">
<style type="text/css">
	.st0{fill:#29AAE2;stroke:#FFFFFF;stroke-width:0.5;stroke-miterlimit:10;}
	.st1{fill:#29AAE2;stroke:#FFFFFF;stroke-miterlimit:10;}
	.st2{stroke:#000000;stroke-width:0.5;stroke-miterlimit:10;}
</style>
<g id="Layer_1">
	<path class="st0" d="M21,14.1c0-3.1-1.7-7.5-3.7-7.5s-3.7,4.4-3.7,7.5h3.7H21z"/>
	<circle class="st0" cx="17.2" cy="4" r="2.6"/>
	<path class="st0" d="M8.4,14.1c0-3.1-1.7-7.5-3.7-7.5S1,11,1,14.1h3.7H8.4z"/>
	<circle class="st0" cx="4.7" cy="4" r="2.6"/>
	<path class="st1" d="M16.3,21.5c0-4.4-2.4-10.7-5.3-10.7s-5.3,6.3-5.3,10.7H11H16.3z"/>
	<circle class="st1" cx="11" cy="6.9" r="3.7"/>
</g>
<g id="Layer_2">
	<g>
		<circle class="st2" cx="11" cy="14.8" r="2.2"/>
		<polygon class="st2" points="10.3,15.5 11.8,15.5 12.8,19 9.3,19 		"/>
	</g>
	<g>
		<circle class="st2" cx="17.2" cy="9.2" r="1.4"/>
		<polygon class="st2" points="16.8,9.7 17.7,9.7 18.4,12 16.1,12 		"/>
	</g>
	<g>
		<circle class="st2" cx="4.7" cy="9.2" r="1.4"/>
		<polygon class="st2" points="4.3,9.7 5.2,9.7 5.9,12 3.6,12 		"/>
	</g>
</g>
</svg>
