<?xml version="1.0" encoding="utf-8"?>
<!-- Generator: Adobe Illustrator 25.2.0, SVG Export Plug-In . SVG Version: 6.00 Build 0)  -->
<svg version="1.1" id="Layer_1" xmlns="http://www.w3.org/2000/svg" xmlns:xlink="http://www.w3.org/1999/xlink" x="0px" y="0px"
	 viewBox="0 0 22 22" style="enable-background:new 0 0 22 22;" xml:space="preserve">
<style type="text/css">
	.st0{fill:#565656;stroke:#F1F2F2;stroke-miterlimit:10;}
	.st1{stroke:#F1F2F2;stroke-miterlimit:10;}
	.st2{fill:#FDB81B;}
	.st3{fill:#3A93BC;}
</style>
<path class="st0" d="M17.2,20.9H4.8c-0.9,0-1.6-0.7-1.6-1.6V6.9h15.6v12.4C18.8,20.2,18.1,20.9,17.2,20.9z"/>
<path class="st1" d="M18.8,7.9h2.4l-0.7,2.1c0,0.5-0.4,0.9-0.9,0.9h-0.8V7.9z"/>
<path class="st1" d="M3.2,7.9H0.8l0.7,2.1c0,0.5,0.4,0.9,0.9,0.9h0.8V7.9z"/>
<path class="st0" d="M17.4,3.8H4.6c-0.8,0-1.4,0.6-1.4,1.4v1.2h15.6V5.2C18.8,4.4,18.2,3.8,17.4,3.8z"/>
<path class="st0" d="M19,7.9H3c-0.4,0-0.7-0.3-0.7-0.7V6.4C2.3,6,2.6,5.7,3,5.7h16c0.4,0,0.7,0.3,0.7,0.7v0.8
	C19.7,7.6,19.4,7.9,19,7.9z"/>
<path class="st0" d="M11.7,3.8h-1.4c-0.5,0-0.9-0.4-0.9-0.9v0C9.4,2.4,9.8,2,10.3,2h1.4c0.5,0,0.9,0.4,0.9,0.9v0
	C12.6,3.4,12.2,3.8,11.7,3.8z"/>
<path class="st2" d="M16.3,11.7L11.2,9l-0.6-0.3L10,9l-4.5,2.4l-0.5,0.3l0.4,0.2L9.5,14l0.8,0.4c0.3-0.4,0.9-0.8,0.8-0.8
	c-0.1,0,0.4,0.2,0.7,0.5l0.3-0.3c0-0.1,0.1-0.3,0.1-0.4s0.1-0.3,0.1-0.4l0.6,0.1l0.8,0.1l2.6-1.2l0.4-0.2L16.3,11.7z"/>
<path class="st2" d="M15.1,13.5l-0.6,0.3c0,0.1,0,0.1,0,0.2c0,0.1,0,0.1,0,0.2c0,0,0.1,0,0.1,0.1c0.1-0.1,0.2-0.2,0.4-0.3
	c0.2-0.1,0.3-0.2,0.5-0.3c0.1,0.1,0.3,0.3,0.4,0.4c0.1,0.1,0.3,0.3,0.4,0.4l0.5-0.2L15.1,13.5z"/>
<path class="st2" d="M10.3,16.3c0-0.1,0-0.1,0-0.2c-0.3-0.2-0.5-0.5-0.8-0.8c0,0,0.2-0.2,0.2-0.2l-3.2-1.6l-1.6,0.8l4.8,2.3
	c0.3-0.1,0.4-0.1,0.6-0.2C10.3,16.4,10.3,16.4,10.3,16.3z"/>
<path class="st2" d="M11,18.8c0,0,0,0-0.1-0.1c0,0-1.1,0.4-1.1,0.3c0-0.1-0.4-1.2-0.5-1.4l-2.8-1.3L4.9,17l5.3,2.6l0.3,0.1l0.1-0.2
	l0.1-0.2C11,18.8,10.9,19,11,18.8z"/>
<path class="st3" d="M16.4,16.8L16,16.7l-0.4-0.1c0-0.2-0.1-0.4-0.1-0.5l0.6-0.5l0.2-0.1l-0.9-1.1l-0.1,0.1l-0.3,0.2l-0.4,0.3
	c-0.2-0.1-0.3-0.2-0.5-0.2l0-0.7v-0.2l-1.4-0.1l0,0.2l-0.1,0.4l-0.1,0.5c-0.2,0.1-0.4,0.1-0.5,0.2l-0.6-0.5l-0.2-0.1l-0.9,1.1
	l0.1,0.1l0.3,0.3l0.3,0.4c0,0.1-0.1,0.2-0.1,0.3c0,0.1,0,0.3,0,0.4L10,17.1l-0.2,0.1l0.5,1.3l0.2-0.1l0.3-0.1l0.3-0.1
	c0.1,0.1,0.2,0.3,0.4,0.4l-0.3,0.6l-0.1,0.2l1.3,0.6l0.2-0.2l0.2-0.3l0.2-0.3c0.2,0,0.5,0,0.7,0l0.4,0.7l0.1,0.2l1.2-0.7l-0.1-0.3
	l-0.1-0.3L15,18.6c0.1-0.1,0.2-0.3,0.3-0.5l0.8,0.2l0.2,0.1l0.4-1.3L16.4,16.8z M13.1,18.1c-1.6,0-1.6-2.4,0-2.4
	C14.7,15.6,14.7,18.1,13.1,18.1z"/>
</svg>
