<?xml version="1.0" encoding="utf-8"?>
<!-- Generator: Adobe Illustrator 25.2.0, SVG Export Plug-In . SVG Version: 6.00 Build 0)  -->
<svg version="1.1" xmlns="http://www.w3.org/2000/svg" xmlns:xlink="http://www.w3.org/1999/xlink" x="0px" y="0px"
	 viewBox="0 0 22 22" style="enable-background:new 0 0 22 22;" xml:space="preserve">
<style type="text/css">
	.st0{fill:#565656;stroke:#F1F2F2;stroke-miterlimit:10;}
	.st1{stroke:#F1F2F2;stroke-miterlimit:10;}
	.st2{fill:none;stroke:#2BAAE2;stroke-width:2;stroke-miterlimit:10;}
	.st3{fill:#2BAAE2;}
</style>
<g id="Layer_1">
	<path class="st0" d="M17.2,20.9H4.8c-0.9,0-1.6-0.7-1.6-1.6V6h15.6v13.3C18.8,20.2,18.1,20.9,17.2,20.9z"/>
	<path class="st1" d="M18.8,7.1h2.4l-0.7,2.3c0,0.5-0.4,1-0.9,1h-0.8V7.1z"/>
	<path class="st1" d="M3.2,7.1H0.8l0.7,2.3c0,0.5,0.4,1,0.9,1h0.8V7.1z"/>
	<path class="st0" d="M17.4,2.7H4.6c-0.8,0-1.4,0.6-1.4,1.4v1.3h15.6V4.1C18.8,3.3,18.2,2.7,17.4,2.7z"/>
	<path class="st0" d="M19,7.1H3c-0.4,0-0.7-0.3-0.7-0.7V5.4C2.3,5,2.6,4.7,3,4.7h16c0.4,0,0.7,0.3,0.7,0.7v0.9
		C19.7,6.8,19.4,7.1,19,7.1z"/>
	<path class="st0" d="M11.7,2.7h-1.4c-0.5,0-0.9-0.4-0.9-0.9V1.7c0-0.5,0.4-0.9,0.9-0.9h1.4c0.5,0,0.9,0.4,0.9,0.9v0.1
		C12.6,2.3,12.2,2.7,11.7,2.7z"/>
</g>
<g id="Layer_2">
	<g>
		<circle class="st2" cx="11" cy="14" r="3"/>
		<g>
			<rect x="9.8" y="7.9" class="st3" width="2.3" height="2.9"/>
			
				<rect x="5.5" y="12.5" transform="matrix(4.592688e-11 -1 1 4.592688e-11 -7.3262 20.6375)" class="st3" width="2.3" height="2.9"/>
			<rect x="9.8" y="16.9" transform="matrix(-1 4.631927e-11 -4.631927e-11 -1 22 36.6523)" class="st3" width="2.3" height="2.9"/>
			
				<rect x="14.2" y="12.5" transform="matrix(-1.836970e-16 1 -1 -1.836970e-16 29.3262 -1.3625)" class="st3" width="2.3" height="2.9"/>
			<rect x="6.7" y="9.2" transform="matrix(0.7071 -0.7071 0.7071 0.7071 -5.2476 8.6567)" class="st3" width="2.3" height="2.9"/>
			
				<rect x="6.9" y="15.6" transform="matrix(-0.7071 -0.7071 0.7071 -0.7071 1.6801 34.7186)" class="st3" width="2.3" height="2.9"/>
			
				<rect x="13" y="15.6" transform="matrix(-0.7071 0.7071 -0.7071 -0.7071 36.2259 19.0174)" class="st3" width="2.3" height="2.9"/>
			<rect x="13" y="9.4" transform="matrix(0.7071 0.7071 -0.7071 0.7071 11.8361 -6.8397)" class="st3" width="2.3" height="2.9"/>
		</g>
	</g>
</g>
</svg>
