<?xml version="1.0" encoding="utf-8"?>
<!-- Generator: Adobe Illustrator 25.2.0, SVG Export Plug-In . SVG Version: 6.00 Build 0)  -->
<svg version="1.1" xmlns="http://www.w3.org/2000/svg" xmlns:xlink="http://www.w3.org/1999/xlink" x="0px" y="0px"
	 viewBox="0 0 22 22" style="enable-background:new 0 0 22 22;" xml:space="preserve">
<style type="text/css">
	.st0{fill:#565656;stroke:#F1F2F2;stroke-miterlimit:10;}
	.st1{stroke:#F1F2F2;stroke-miterlimit:10;}
	.st2{fill:#2BAAE2;stroke:#2BAAE2;stroke-linecap:round;stroke-linejoin:round;stroke-miterlimit:10;}
</style>
<g id="Layer_1">
	<path class="st0" d="M17.2,20.9H4.8c-0.9,0-1.6-0.7-1.6-1.6V6h15.6v13.3C18.8,20.2,18.1,20.9,17.2,20.9z"/>
	<path class="st1" d="M18.8,7.1h2.4l-0.7,2.3c0,0.5-0.4,1-0.9,1h-0.8V7.1z"/>
	<path class="st1" d="M3.2,7.1H0.8l0.7,2.3c0,0.5,0.4,1,0.9,1h0.8V7.1z"/>
	<path class="st0" d="M17.4,2.7H4.6c-0.8,0-1.4,0.6-1.4,1.4v1.3h15.6V4.1C18.8,3.3,18.2,2.7,17.4,2.7z"/>
	<path class="st0" d="M19,7.1H3c-0.4,0-0.7-0.3-0.7-0.7V5.4C2.3,5,2.6,4.7,3,4.7h16c0.4,0,0.7,0.3,0.7,0.7v0.9
		C19.7,6.8,19.4,7.1,19,7.1z"/>
	<path class="st0" d="M11.7,2.7h-1.4c-0.5,0-0.9-0.4-0.9-0.9V1.7c0-0.5,0.4-0.9,0.9-0.9h1.4c0.5,0,0.9,0.4,0.9,0.9v0.1
		C12.6,2.3,12.2,2.7,11.7,2.7z"/>
</g>
<g id="Layer_2">
	<polygon class="st2" points="16.1,13.8 5.9,8.4 5.9,19.2 	"/>
</g>
</svg>
