<?xml version="1.0" encoding="utf-8"?>
<!-- Generator: Adobe Illustrator 25.2.0, SVG Export Plug-In . SVG Version: 6.00 Build 0)  -->
<svg version="1.1" xmlns="http://www.w3.org/2000/svg" xmlns:xlink="http://www.w3.org/1999/xlink" x="0px" y="0px"
	 viewBox="0 0 22 22" style="enable-background:new 0 0 22 22;" xml:space="preserve">
<style type="text/css">
	.st0{fill:#FFFFFF;}
	.st1{fill:none;}
	.st2{font-family:'Calibri';}
	.st3{font-size:14px;}
</style>
<g id="Layer_1">
	<rect class="st0" width="22" height="22"/>
</g>
<g id="Layer_3">
	<g>
		<rect width="22" height="3.6"/>
		<path class="st0" d="M2.1,3L2.1,3C1.7,3,1.3,2.7,1.3,2.3v-1c0-0.4,0.3-0.7,0.7-0.7h0c0.4,0,0.7,0.3,0.7,0.7v1C2.8,2.7,2.5,3,2.1,3
			z"/>
		<path class="st0" d="M5.1,3L5.1,3C4.7,3,4.3,2.7,4.3,2.3v-1c0-0.4,0.3-0.7,0.7-0.7h0c0.4,0,0.7,0.3,0.7,0.7v1C5.8,2.7,5.5,3,5.1,3
			z"/>
		<path class="st0" d="M8.1,3L8.1,3C7.7,3,7.3,2.7,7.3,2.3v-1c0-0.4,0.3-0.7,0.7-0.7h0c0.4,0,0.7,0.3,0.7,0.7v1C8.8,2.7,8.5,3,8.1,3
			z"/>
		<path class="st0" d="M11.1,3L11.1,3c-0.4,0-0.7-0.3-0.7-0.7v-1c0-0.4,0.3-0.7,0.7-0.7h0c0.4,0,0.7,0.3,0.7,0.7v1
			C11.8,2.7,11.5,3,11.1,3z"/>
		<path class="st0" d="M14.1,3L14.1,3c-0.4,0-0.7-0.3-0.7-0.7v-1c0-0.4,0.3-0.7,0.7-0.7h0c0.4,0,0.7,0.3,0.7,0.7v1
			C14.8,2.7,14.5,3,14.1,3z"/>
		<path class="st0" d="M17.1,3L17.1,3c-0.4,0-0.7-0.3-0.7-0.7v-1c0-0.4,0.3-0.7,0.7-0.7l0,0c0.4,0,0.7,0.3,0.7,0.7v1
			C17.8,2.7,17.5,3,17.1,3z"/>
		<path class="st0" d="M20.1,3L20.1,3c-0.4,0-0.7-0.3-0.7-0.7v-1c0-0.4,0.3-0.7,0.7-0.7l0,0c0.4,0,0.7,0.3,0.7,0.7v1
			C20.8,2.7,20.5,3,20.1,3z"/>
	</g>
	<g>
		<rect y="18.4" width="22" height="3.6"/>
		<path class="st0" d="M2.1,21.4L2.1,21.4c-0.4,0-0.7-0.3-0.7-0.7v-1c0-0.4,0.3-0.7,0.7-0.7h0c0.4,0,0.7,0.3,0.7,0.7v1
			C2.8,21.1,2.5,21.4,2.1,21.4z"/>
		<path class="st0" d="M5.1,21.4L5.1,21.4c-0.4,0-0.7-0.3-0.7-0.7v-1c0-0.4,0.3-0.7,0.7-0.7h0c0.4,0,0.7,0.3,0.7,0.7v1
			C5.8,21.1,5.5,21.4,5.1,21.4z"/>
		<path class="st0" d="M8.1,21.4L8.1,21.4c-0.4,0-0.7-0.3-0.7-0.7v-1c0-0.4,0.3-0.7,0.7-0.7h0c0.4,0,0.7,0.3,0.7,0.7v1
			C8.8,21.1,8.5,21.4,8.1,21.4z"/>
		<path class="st0" d="M11.1,21.4L11.1,21.4c-0.4,0-0.7-0.3-0.7-0.7v-1c0-0.4,0.3-0.7,0.7-0.7h0c0.4,0,0.7,0.3,0.7,0.7v1
			C11.8,21.1,11.5,21.4,11.1,21.4z"/>
		<path class="st0" d="M14.1,21.4L14.1,21.4c-0.4,0-0.7-0.3-0.7-0.7v-1c0-0.4,0.3-0.7,0.7-0.7h0c0.4,0,0.7,0.3,0.7,0.7v1
			C14.8,21.1,14.5,21.4,14.1,21.4z"/>
		<path class="st0" d="M17.1,21.4L17.1,21.4c-0.4,0-0.7-0.3-0.7-0.7v-1c0-0.4,0.3-0.7,0.7-0.7l0,0c0.4,0,0.7,0.3,0.7,0.7v1
			C17.8,21.1,17.5,21.4,17.1,21.4z"/>
		<path class="st0" d="M20.1,21.4L20.1,21.4c-0.4,0-0.7-0.3-0.7-0.7v-1c0-0.4,0.3-0.7,0.7-0.7l0,0c0.4,0,0.7,0.3,0.7,0.7v1
			C20.8,21.1,20.5,21.4,20.1,21.4z"/>
	</g>
</g>
<g id="Layer_2">
	<polygon class="st0" points="10.8,15.6 10.2,15.6 10,16.1 10.2,16.5 10.8,16.5 11,16.1 	"/>
	<rect y="5.8" class="st1" width="22" height="10.3"/>
	<text transform="matrix(1 0 0 1 0 15.7461)" class="st2 st3">End</text>
</g>
</svg>
