<svg id="Layer_1" data-name="Layer 1" xmlns="http://www.w3.org/2000/svg" xmlns:xlink="http://www.w3.org/1999/xlink" viewBox="0 0 20.736 20.322"><defs><style>.cls-1,.cls-10,.cls-11,.cls-12,.cls-13,.cls-14,.cls-15,.cls-16,.cls-17,.cls-18,.cls-19,.cls-2,.cls-20,.cls-21,.cls-22,.cls-23,.cls-24,.cls-25,.cls-26,.cls-27,.cls-28,.cls-3,.cls-4,.cls-5,.cls-6,.cls-7,.cls-8,.cls-9{fill:none;stroke-linecap:round;stroke-miterlimit:10;stroke-width:2px;}.cls-1{stroke:url(#linear-gradient);}.cls-2{stroke:url(#linear-gradient-2);}.cls-3{stroke:url(#linear-gradient-3);}.cls-4{stroke:url(#linear-gradient-4);}.cls-5{stroke:url(#linear-gradient-5);}.cls-6{stroke:url(#linear-gradient-6);}.cls-7{stroke:url(#linear-gradient-7);}.cls-8{stroke:url(#linear-gradient-8);}.cls-9{stroke:url(#linear-gradient-9);}.cls-10{stroke:url(#linear-gradient-10);}.cls-11{stroke:url(#linear-gradient-11);}.cls-12{stroke:url(#linear-gradient-12);}.cls-13{stroke:url(#linear-gradient-13);}.cls-14{stroke:url(#linear-gradient-14);}.cls-15{stroke:url(#linear-gradient-15);}.cls-16{stroke:url(#linear-gradient-16);}.cls-17{stroke:url(#linear-gradient-17);}.cls-18{stroke:url(#linear-gradient-18);}.cls-19{stroke:url(#linear-gradient-19);}.cls-20{stroke:url(#linear-gradient-20);}.cls-21{stroke:url(#linear-gradient-21);}.cls-22{stroke:url(#linear-gradient-22);}.cls-23{stroke:url(#linear-gradient-23);}.cls-24{stroke:url(#linear-gradient-24);}.cls-25{stroke:url(#linear-gradient-25);}.cls-26{stroke:url(#linear-gradient-26);}.cls-27{stroke:url(#linear-gradient-27);}.cls-28{stroke:url(#linear-gradient-28);}</style><linearGradient id="linear-gradient" x1="11.829" y1="2.82" x2="11.829" y2="2.82" gradientUnits="userSpaceOnUse"><stop offset="0" stop-color="#39b54a"/><stop offset="1" stop-color="#005129"/></linearGradient><linearGradient id="linear-gradient-2" x1="8.434" y1="2.82" x2="8.434" y2="2.82" xlink:href="#linear-gradient"/><linearGradient id="linear-gradient-3" x1="5.295" y1="2.817" x2="8.786" y2="2.817" gradientTransform="translate(-0.296 5.521) rotate(-49.668)" xlink:href="#linear-gradient"/><linearGradient id="linear-gradient-4" x1="0.179" y1="1.978" x2="4.66" y2="1.978" xlink:href="#linear-gradient"/><linearGradient id="linear-gradient-5" x1="8.198" y1="1.983" x2="12.679" y2="1.983" xlink:href="#linear-gradient"/><linearGradient id="linear-gradient-6" x1="13.348" y1="2.82" x2="16.838" y2="2.82" gradientTransform="translate(2.543 11.661) rotate(-49.668)" xlink:href="#linear-gradient"/><linearGradient id="linear-gradient-7" x1="16.243" y1="1.983" x2="20.724" y2="1.983" xlink:href="#linear-gradient"/><linearGradient id="linear-gradient-8" x1="11.829" y1="8.022" x2="11.829" y2="8.022" xlink:href="#linear-gradient"/><linearGradient id="linear-gradient-9" x1="8.434" y1="8.022" x2="8.434" y2="8.022" xlink:href="#linear-gradient"/><linearGradient id="linear-gradient-10" x1="5.295" y1="8.019" x2="8.786" y2="8.019" gradientTransform="translate(-4.261 7.357) rotate(-49.668)" xlink:href="#linear-gradient"/><linearGradient id="linear-gradient-11" x1="0.179" y1="7.18" x2="4.66" y2="7.18" xlink:href="#linear-gradient"/><linearGradient id="linear-gradient-12" x1="8.198" y1="7.186" x2="12.679" y2="7.186" xlink:href="#linear-gradient"/><linearGradient id="linear-gradient-13" x1="13.348" y1="8.022" x2="16.838" y2="8.022" gradientTransform="translate(-1.423 13.496) rotate(-49.668)" xlink:href="#linear-gradient"/><linearGradient id="linear-gradient-14" x1="16.243" y1="7.186" x2="20.724" y2="7.186" xlink:href="#linear-gradient"/><linearGradient id="linear-gradient-15" x1="11.842" y1="13.637" x2="11.842" y2="13.637" xlink:href="#linear-gradient"/><linearGradient id="linear-gradient-16" x1="8.446" y1="13.637" x2="8.446" y2="13.637" xlink:href="#linear-gradient"/><linearGradient id="linear-gradient-17" x1="5.307" y1="13.634" x2="8.798" y2="13.634" gradientTransform="translate(-8.537 9.347) rotate(-49.668)" xlink:href="#linear-gradient"/><linearGradient id="linear-gradient-18" x1="0.192" y1="12.795" x2="4.673" y2="12.795" xlink:href="#linear-gradient"/><linearGradient id="linear-gradient-19" x1="8.211" y1="12.8" x2="12.692" y2="12.8" xlink:href="#linear-gradient"/><linearGradient id="linear-gradient-20" x1="13.36" y1="13.637" x2="16.851" y2="13.637" gradientTransform="translate(-5.698 15.487) rotate(-49.668)" xlink:href="#linear-gradient"/><linearGradient id="linear-gradient-21" x1="16.255" y1="12.8" x2="20.736" y2="12.8" xlink:href="#linear-gradient"/><linearGradient id="linear-gradient-22" x1="11.65" y1="19.183" x2="11.65" y2="19.183" xlink:href="#linear-gradient"/><linearGradient id="linear-gradient-23" x1="8.254" y1="19.183" x2="8.254" y2="19.183" xlink:href="#linear-gradient"/><linearGradient id="linear-gradient-24" x1="5.116" y1="19.18" x2="8.606" y2="19.18" gradientTransform="translate(-12.833 11.158) rotate(-49.668)" xlink:href="#linear-gradient"/><linearGradient id="linear-gradient-25" x1="0" y1="18.341" x2="4.481" y2="18.341" xlink:href="#linear-gradient"/><linearGradient id="linear-gradient-26" x1="8.019" y1="18.347" x2="12.5" y2="18.347" xlink:href="#linear-gradient"/><linearGradient id="linear-gradient-27" x1="13.168" y1="19.183" x2="16.659" y2="19.183" gradientTransform="translate(-9.994 17.297) rotate(-49.668)" xlink:href="#linear-gradient"/><linearGradient id="linear-gradient-28" x1="16.064" y1="18.347" x2="20.545" y2="18.347" xlink:href="#linear-gradient"/></defs><path class="cls-1" d="M11.829,2.82" transform="translate(-0.632 -0.839)"/><path class="cls-2" d="M8.434,2.82" transform="translate(-0.632 -0.839)"/><line class="cls-3" x1="6.408" y1="2.955" x2="6.408" y2="1"/><line class="cls-4" x1="1.179" y1="1.978" x2="3.66" y2="1.978"/><line class="cls-5" x1="9.198" y1="1.983" x2="11.679" y2="1.983"/><line class="cls-6" x1="14.461" y1="2.958" x2="14.461" y2="1.003"/><line class="cls-7" x1="17.243" y1="1.983" x2="19.724" y2="1.983"/><path class="cls-8" d="M11.829,8.022" transform="translate(-0.632 -0.839)"/><path class="cls-9" d="M8.434,8.022" transform="translate(-0.632 -0.839)"/><line class="cls-10" x1="6.408" y1="8.158" x2="6.408" y2="6.202"/><line class="cls-11" x1="1.179" y1="7.18" x2="3.66" y2="7.18"/><line class="cls-12" x1="9.198" y1="7.186" x2="11.679" y2="7.186"/><line class="cls-13" x1="14.461" y1="8.161" x2="14.461" y2="6.205"/><line class="cls-14" x1="17.243" y1="7.186" x2="19.724" y2="7.186"/><path class="cls-15" d="M11.842,13.637" transform="translate(-0.632 -0.839)"/><path class="cls-16" d="M8.446,13.637" transform="translate(-0.632 -0.839)"/><line class="cls-17" x1="6.421" y1="13.772" x2="6.421" y2="11.817"/><line class="cls-18" x1="1.192" y1="12.795" x2="3.673" y2="12.795"/><line class="cls-19" x1="9.211" y1="12.8" x2="11.692" y2="12.8"/><line class="cls-20" x1="14.474" y1="13.775" x2="14.474" y2="11.82"/><line class="cls-21" x1="17.255" y1="12.8" x2="19.736" y2="12.8"/><path class="cls-22" d="M11.65,19.183" transform="translate(-0.632 -0.839)"/><path class="cls-23" d="M8.254,19.183" transform="translate(-0.632 -0.839)"/><line class="cls-24" x1="6.229" y1="19.319" x2="6.229" y2="17.363"/><line class="cls-25" x1="1" y1="18.341" x2="3.481" y2="18.341"/><line class="cls-26" x1="9.019" y1="18.347" x2="11.5" y2="18.347"/><line class="cls-27" x1="14.282" y1="19.322" x2="14.282" y2="17.366"/><line class="cls-28" x1="17.064" y1="18.347" x2="19.545" y2="18.347"/></svg>