<?xml version="1.0" encoding="utf-8"?>
<!-- Generator: Adobe Illustrator 25.2.0, SVG Export Plug-In . SVG Version: 6.00 Build 0)  -->
<svg version="1.1" xmlns="http://www.w3.org/2000/svg" xmlns:xlink="http://www.w3.org/1999/xlink" x="0px" y="0px"
	 viewBox="0 0 22 22" style="enable-background:new 0 0 22 22;" xml:space="preserve">
<style type="text/css">
	.st0{fill:#FFFFFF;}
	.st1{fill:#3EC7F4;}
	.st2{fill:#0075A1;}
</style>
<g id="Layer_2">
	<rect x="2.9" y="0.3" class="st0" width="15" height="8.1"/>
	<rect x="1.6" y="10" class="st0" width="19" height="11.7"/>
</g>
<g id="Layer_1">
	<path class="st1" d="M21.4,4l-0.1,16.4c-0.1,0.4-0.5,0.8-0.9,0.8l-0.5-0.1l-0.1-9c0.1-0.9-0.5-1.6-1.4-1.7c-0.1,0-0.2,0-0.3,0H3.8
		c-0.9,0-1.7,0.7-1.8,1.6c0,0.1,0,0.1,0,0.2l0.1,9.1l-0.8,0.1c-0.4,0-0.9-0.7-0.9-1V2.6C0.5,2,0.6,1.5,0.9,1c0.6-0.3,1.3-0.4,2-0.4
		L2.7,6.8c0,0.9,0.5,1.3,1.4,1.3h12.4c1,0,1.6-0.4,1.6-1.3V1.3C19.3,2.2,20,2.7,21.4,4z"/>
	<path class="st1" d="M15.5,2.7v3.1c-0.1,0.2-0.2,0.3-0.4,0.4h-1c-0.1,0-0.4-0.3-0.4-0.4V2.7c0-0.2,0.2-0.3,0.3-0.3h1
		C15.2,2.4,15.5,2.6,15.5,2.7z"/>
	<path class="st2" d="M15.3,11.4h-9l0,0c-2,0.5-3.4,2.4-3.2,4.5c0,2.5,1.7,4.5,3.8,4.5c1.2,0,2.4-0.7,3-1.7H12c0.6,1,1.8,1.7,3,1.7
		c2.1,0,3.8-2,3.8-4.5C19,13.7,17.5,11.7,15.3,11.4z M15,19.6c-1-0.1-2-0.6-2.5-1.6l-0.1-0.2h-3L9.4,18c-0.5,0.9-1.4,1.5-2.5,1.6
		c-1.7,0-3.1-1.7-3.1-3.8c-0.1-1.7,1-3.3,2.6-3.7h9c1.7,0.4,2.8,2,2.7,3.7C18.1,17.9,16.8,19.6,15,19.6z"/>
	<path class="st2" d="M8.3,15.9c0,0.3-0.2,0.5-0.5,0.5c0,0,0,0,0,0H7.2v0.9c0,0.3-0.2,0.5-0.5,0.5c-0.3,0-0.5-0.2-0.5-0.5v-0.9H5.5
		c-0.3,0-0.5-0.2-0.5-0.5c0,0,0,0,0,0c0-0.3,0.2-0.5,0.5-0.5h0.7v-0.9c0-0.3,0.2-0.5,0.5-0.5c0.3,0,0.5,0.2,0.5,0.5v0.9h0.7
		C8.1,15.4,8.3,15.6,8.3,15.9C8.3,15.9,8.3,15.9,8.3,15.9z"/>
	<path class="st2" d="M21.8,3.5C20.3,2,19.4,1.3,17.9,0H2.4C1.7-0.1,1.1,0.1,0.6,0.6C0.1,1.1-0.1,1.9,0,2.6v17.7
		C0,21.3,0.7,22,1.6,22h18.7c0.9,0,1.6-0.7,1.6-1.6V3.9L21.8,3.5z M3.2,0.8h14.3v5.9c0,0.6-0.4,1-1,1H4.1c-0.5,0-0.9-0.4-0.9-0.9
		c0,0,0,0,0,0L3.2,0.8z M19.5,21H2.4v-8.9c0-0.8,0.6-1.4,1.4-1.4h14.3c0.8,0,1.4,0.6,1.4,1.4V21z M21,20.4c0,0.3-0.3,0.6-0.6,0.6H20
		v-8.9c0-1-0.8-1.9-1.9-1.9H3.8c-1,0-1.8,0.9-1.8,1.9V21H1.7c-0.3,0-0.6-0.3-0.6-0.6V2.6C1,2.2,1.1,1.7,1.3,1.3
		C1.7,1.1,2.1,1,2.5,1.1v5.7c0,0.9,0.7,1.6,1.6,1.7h12.4c1,0,1.7-0.8,1.7-1.7V1.7c1.1,1,1.4,1.2,2.7,2.4L21,20.4z"/>
	<path class="st2" d="M15.1,1.7h-1c-0.6,0-1,0.4-1,1v3.1c0,0.6,0.4,1,1,1h1c0.6,0,1-0.4,1-1c0,0,0,0,0,0V2.7
		C16.1,2.1,15.6,1.7,15.1,1.7z M15.3,5.8c0,0.1-0.1,0.2-0.2,0.2c0,0,0,0,0,0h-1c-0.1,0-0.2-0.1-0.2-0.2l0,0V2.7
		c0-0.1,0.1-0.2,0.2-0.2l0,0h1c0.1,0,0.2,0.1,0.2,0.2c0,0,0,0,0,0V5.8z"/>
	<ellipse class="st2" cx="15.2" cy="14.1" rx="0.6" ry="0.6"/>
	<path class="st2" d="M16.7,15.2c-0.4,0-0.6,0.3-0.6,0.6c0,0.4,0.3,0.7,0.6,0.7c0.4,0,0.7-0.3,0.7-0.6
		C17.4,15.5,17.1,15.2,16.7,15.2C16.7,15.2,16.7,15.2,16.7,15.2z"/>
	<path class="st2" d="M13.6,15.1c-0.4,0-0.7,0.2-0.7,0.6c0,0.4,0.2,0.7,0.6,0.7c0.1,0,0.1,0,0.2,0c0.4,0,0.7-0.2,0.7-0.6
		s-0.2-0.7-0.6-0.7C13.7,15.1,13.7,15.1,13.6,15.1z"/>
	<ellipse class="st2" cx="15.2" cy="17.3" rx="0.6" ry="0.6"/>
</g>
</svg>
