<?xml version="1.0" encoding="UTF-8"?>
<svg width="22px" height="22px" viewBox="0 0 22 22" version="1.1" xmlns="http://www.w3.org/2000/svg" xmlns:xlink="http://www.w3.org/1999/xlink">
    <title>Devices</title>
    <defs>
        <radialGradient cx="75.6333656%" cy="9.01797963%" fx="75.6333656%" fy="9.01797963%" r="136.46845%" gradientTransform="translate(0.756334,0.090180),scale(1.000000,0.777778),rotate(109.156333),scale(1.000000,1.468517),translate(-0.756334,-0.090180)" id="radialGradient-1">
            <stop stop-color="#343FFF" offset="0%"></stop>
            <stop stop-color="#FF3A5E" offset="100%"></stop>
        </radialGradient>
    </defs>
    <g id="Page-1" stroke="none" stroke-width="1" fill="none" fill-rule="evenodd">
        <path d="M15.5821588,2 C16.8618566,2 17.9093524,2.95781435 17.994422,4.16992594 L18,4.32941176 L18,17.6705882 C18,18.9034827 17.005825,19.9126677 15.747699,19.994626 L15.5821588,20 L6.41784121,20 C5.13814342,20 4.09064764,19.0421856 4.00557803,17.8300741 L4,17.6705882 L4,4.32941176 C4,3.09651728 4.99417503,2.08733232 6.25230096,2.00537402 L6.41784121,2 L15.5821588,2 Z M11,15 C9.8954305,15 9,15.8954305 9,17 C9,18.1045695 9.8954305,19 11,19 C12.1045695,19 13,18.1045695 13,17 C13,15.8954305 12.1045695,15 11,15 Z M15.5821588,4.11764706 L6.41784121,4.11764706 C6.31667933,4.11764706 6.2314791,4.18348754 6.20588907,4.27311632 L6.19803747,4.32941176 L6.198,13.647 L15.801,13.647 L15.8019625,4.32941176 C15.8019625,4.23194975 15.7336226,4.1498656 15.6405913,4.1252115 L15.5821588,4.11764706 Z" id="Symbol" fill="url(#radialGradient-1)" fill-rule="nonzero"></path>
        <rect id="Rectangle" x="0" y="0" width="22" height="22"></rect>
    </g>
</svg>