<?xml version="1.0" encoding="utf-8"?>
<!-- Generator: Adobe Illustrator 25.2.0, SVG Export Plug-In . SVG Version: 6.00 Build 0)  -->
<svg version="1.1" id="Layer_1" xmlns="http://www.w3.org/2000/svg" xmlns:xlink="http://www.w3.org/1999/xlink" x="0px" y="0px"
	 viewBox="0 0 22 22" style="enable-background:new 0 0 22 22;" xml:space="preserve">
<style type="text/css">
	.st0{fill:#4E4E4E;}
	.st1{fill:#F3F3F3;}
</style>
<g id="Layer_2_1_">
	<circle class="st0" cx="11" cy="11" r="9.1"/>
</g>
<g id="Layer_1_1_">
	<g>
		<path class="st1" d="M11,22C5,22,0.1,17.1,0.1,11S5,0.1,11,0.1S22,5,22,11S17.1,22,11,22z M19.2,11c0-4.5-3.7-8.2-8.2-8.2
			S2.8,6.5,2.8,11s3.7,8.2,8.2,8.2S19.2,15.6,19.2,11z M11,16.5c-3,0-5.5-2.4-5.5-5.5S8,5.6,11,5.6S16.5,8,16.5,11
			S14.1,16.5,11,16.5z M13.8,11c0-1.5-1.2-2.7-2.7-2.7S8.3,9.5,8.3,11s1.2,2.7,2.7,2.7S13.8,12.5,13.8,11z"/>
	</g>
	<g>
		<path class="st0" d="M11,5.7c-2.9,0-5.3,2.4-5.3,5.3H11V5.7z"/>
		<path class="st0" d="M11,16.3c2.9,0,5.3-2.4,5.3-5.3H11V16.3z"/>
		<path class="st1" d="M11,16.3c-2.9,0-5.3-2.4-5.3-5.3H11V16.3z"/>
		<path class="st1" d="M11,5.7c2.9,0,5.3,2.4,5.3,5.3H11V5.7z"/>
	</g>
</g>
</svg>
