<?xml version="1.0" encoding="UTF-8"?>
<svg width="22px" height="22px" viewBox="0 0 22 22" version="1.1" xmlns="http://www.w3.org/2000/svg" xmlns:xlink="http://www.w3.org/1999/xlink">
    <title>Effect</title>
    <defs>
        <radialGradient cx="90.5922203%" cy="9.40777972%" fx="90.5922203%" fy="9.40777972%" r="128.891411%" gradientTransform="translate(0.905922,0.094078),scale(0.988087,1.000000),rotate(135.343333),scale(1.000000,1.292295),translate(-0.905922,-0.094078)" id="radialGradient-1">
            <stop stop-color="#10E78D" offset="0%"></stop>
            <stop stop-color="#007AFF" offset="49.5629371%"></stop>
            <stop stop-color="#BD00FF" stop-opacity="0.99" offset="100%"></stop>
        </radialGradient>
    </defs>
    <g id="Page-1" stroke="none" stroke-width="1" fill="none" fill-rule="evenodd">
        <rect id="Rectangle" x="0" y="0" width="22" height="22"></rect>
        <g id="Group-2" transform="translate(0.864015, 0.778175)" fill="url(#radialGradient-1)">
            <path d="M10.0354797,0.214076042 C10.2266436,3.30120216 11.1460288,5.65875428 12.7936355,7.28673241 C14.4412421,8.91471054 16.8216885,9.81767805 19.9349747,9.99563493 C16.822727,10.1725656 14.4410179,11.0767808 12.7898473,12.7082805 C11.1386767,14.3397801 10.2205542,16.6960845 10.0354797,19.7771938 C9.86315223,16.7086796 8.95041108,14.3576924 7.2972563,12.7242323 C5.64410152,11.0907721 3.25701102,10.1812396 0.13598481,9.99563493 C3.26482967,9.80230474 5.65239308,8.89230502 7.29867504,7.26563577 C8.944957,5.63896653 9.85722524,3.28844662 10.0354797,0.214076042 Z M3.97788767,11.9750349 C4.04616048,13.0775799 4.37451235,13.9195628 4.96294328,14.5009836 C5.55137422,15.0824044 6.40153365,15.4048927 7.51342158,15.4684488 C6.40190456,15.5316383 5.55129416,15.8545723 4.96159038,16.4372507 C4.3718866,17.0199292 4.0439857,17.8614665 3.97788767,18.9618627 C3.91634213,17.8659647 3.59036315,17.0263265 2.99995073,16.4429478 C2.40953831,15.8595692 1.55700599,15.5347362 0.442353768,15.4684488 C1.55979836,15.3994023 2.41249958,15.0744024 3.00045742,14.4934491 C3.58841526,13.9124958 3.91422535,13.0730244 3.97788767,11.9750349 Z M16.0338618,13.957644 C16.0705107,14.549491 16.2467702,15.0014679 16.5626403,15.313575 C16.8785105,15.6256821 17.3348766,15.7987941 17.9317388,15.832911 C17.3350757,15.8668312 16.8784675,16.0401824 16.5619141,16.3529645 C16.2453607,16.6657467 16.0693433,17.1174845 16.0338618,17.7081779 C16.0008241,17.1198992 15.8258384,16.6691808 15.5089046,16.3560227 C15.1919708,16.0428647 14.7343309,15.8684941 14.1359848,15.832911 C14.7358298,15.7958468 15.1935604,15.6213866 15.5091766,15.3095305 C15.8247928,14.9976743 15.9996878,14.5470455 16.0338618,13.957644 Z M15.9778877,0.975034887 C16.0461605,2.07757993 16.3745123,2.91956283 16.9629433,3.50098359 C17.5513742,4.08240435 18.4015337,4.40489275 19.5134216,4.46844878 C18.4019046,4.53163832 17.5512942,4.85457231 16.9615904,5.43725075 C16.3718866,6.01992919 16.0439857,6.8614665 15.9778877,7.96186267 C15.9163421,6.86596474 15.5903631,6.02632646 14.9999507,5.44294782 C14.4095383,4.85956918 13.557006,4.53473617 12.4423538,4.46844878 C13.5597984,4.39940228 14.4124996,4.07440238 15.0004574,3.49344908 C15.5884153,2.91249577 15.9142253,2.07302438 15.9778877,0.975034887 Z" id="Combined-Shape"></path>
        </g>
    </g>
</svg>