<svg id="Layer_1" data-name="Layer 1" xmlns="http://www.w3.org/2000/svg" viewBox="0 0 21.232 21.762"><defs><style>.cls-1{fill:#e9e67d;}.cls-2{fill:none;stroke:#e9e67d;stroke-miterlimit:10;stroke-width:5.055px;}.cls-3{fill:#1c75bc;}.cls-4{fill:#00a651;}</style></defs><polygon class="cls-1" points="14.566 6.413 10.591 4.917 14.448 0.697 14.448 0.697 14.566 6.413"/><polygon class="cls-1" points="6.302 7.273 4.807 11.248 0.587 7.391 0.587 7.391 6.302 7.273"/><polygon class="cls-1" points="6.666 15.35 10.64 16.845 6.784 21.065 6.784 21.065 6.666 15.35"/><polygon class="cls-1" points="14.743 14.986 16.238 11.012 20.458 14.868 20.458 14.868 14.743 14.986"/><polygon class="cls-1" points="10.249 4.929 6.381 6.681 6.124 0.97 6.124 0.97 10.249 4.929"/><polygon class="cls-1" points="5.014 11.38 6.767 15.248 1.056 15.505 1.056 15.505 5.014 11.38"/><polygon class="cls-1" points="10.983 16.834 14.85 15.081 15.108 20.792 15.108 20.792 10.983 16.834"/><polygon class="cls-1" points="16.436 10.866 14.684 6.998 20.395 6.741 20.395 6.741 16.436 10.866"/><circle class="cls-2" cx="10.616" cy="11.147" r="5.573"/><polygon class="cls-1" points="12.739 5.308 8.493 5.308 10.616 0 10.616 0 12.739 5.308"/><polygon class="cls-1" points="5.308 9.023 5.308 13.27 0 11.147 0 11.147 5.308 9.023"/><polygon class="cls-1" points="8.493 16.455 12.739 16.455 10.616 21.762 10.616 21.762 8.493 16.455"/><polygon class="cls-1" points="15.924 13.27 15.924 9.023 21.232 11.147 21.232 11.147 15.924 13.27"/><polygon class="cls-1" points="8.176 5.439 5.174 8.442 2.922 3.187 2.922 3.187 8.176 5.439"/><polygon class="cls-1" points="5.549 13.321 8.552 16.323 3.297 18.575 3.297 18.575 5.549 13.321"/><polygon class="cls-1" points="13.055 16.323 16.058 13.321 18.31 18.575 18.31 18.575 13.055 16.323"/><polygon class="cls-1" points="16.058 8.817 13.055 5.814 18.31 3.562 18.31 3.562 16.058 8.817"/><circle class="cls-3" cx="10.616" cy="10.881" r="7.23"/><path class="cls-4" d="M4.441,7.957a2.914,2.914,0,0,0,.6,2.272,7.15,7.15,0,0,0,1.3,1c.191.081-.1-.348.136-.272.444.148.961.3,1.536.473.862.265.712,1.509.771,1.939.089.659-1.054-.06-1.574,1.069A3.107,3.107,0,0,0,7.277,17.2a7.853,7.853,0,0,0,5.184.883c.664-.2.5-.733.869-1.568.2-.461-.828-.857-1.1-1.2-1.637-2.072-1.966-.454-2.271-1.972-.049-.247,1.235-.3.634-.535-1.281-.5-.4-2.312-.1-2.373,1.835-.364,1.152.79,1.972.8.369.006.44.267.535-.067.191-.667-1.515-1.629-.535-1.537.514.048,1.268-1.482,1.588-2.112-.551-.462,1.172-2.362.578-2.771a7.791,7.791,0,0,0-3.067-.952A9.884,9.884,0,0,0,9.6,3.907,7.147,7.147,0,0,0,4.441,7.957Z" transform="translate(-0.384 -0.119)"/></svg>