<svg id="Layer_1" data-name="Layer 1" xmlns="http://www.w3.org/2000/svg" viewBox="0 0 23.52 23.41"><defs><style>.cls-1{fill:#fff;stroke:#fff;stroke-miterlimit:10;}.cls-2{fill:#33618f;}.cls-3{fill:#a7d4f2;}.cls-4{fill:#231f20;}</style></defs><rect class="cls-1" x="0.5" y="0.5" width="22.52" height="22.41"/><polygon class="cls-2" points="8.8 11.61 1.18 22.06 1.31 1.84 8.8 11.61"/><polygon class="cls-3" points="22.16 1.78 22.25 22 14.48 11.63 22.16 1.78"/><path class="cls-4" d="M11,2.75c.21,0,.5-.09.51-.28V.3c0-.17-.22-.3-.5-.3s-.5.13-.5.3V2.48C10.5,2.64,10.77,2.74,11,2.75Z" transform="translate(0.7 0.7)"/><path class="cls-4" d="M11,4.69c-.27,0-.5.14-.5.3V7.18c0,.15.27.26.48.26s.5-.09.51-.27V5C11.5,4.83,11.28,4.69,11,4.69Z" transform="translate(0.7 0.7)"/><path class="cls-4" d="M11,9.66c-.27,0-.5.13-.5.3v2.18c0,.15.27.26.48.26s.5-.08.51-.27V10C11.5,9.79,11.28,9.66,11,9.66Z" transform="translate(0.7 0.7)"/><path class="cls-4" d="M11,14.59c-.27,0-.5.14-.5.3v2.19c0,.15.27.26.48.26s.5-.09.51-.27V14.89C11.5,14.73,11.28,14.59,11,14.59Z" transform="translate(0.7 0.7)"/><path class="cls-4" d="M11,19.24c-.27,0-.5.13-.5.29v2.19c0,.15.27.26.48.26s.5-.08.51-.27V19.53C11.5,19.37,11.28,19.24,11,19.24Z" transform="translate(0.7 0.7)"/><path class="cls-4" d="M8.41,10.68.88.39A.47.47,0,0,0,.45.06.47.47,0,0,0,0,.56v21a.47.47,0,0,0,.45.5.44.44,0,0,0,.42-.32l7.41-10.3.06,0A.54.54,0,0,0,8.41,10.68Zm-7.5,9.4V2l6.54,9Z" transform="translate(0.7 0.7)"/><path class="cls-4" d="M21.54.06a.46.46,0,0,0-.43.33L13.43,10.68a.54.54,0,0,0,.07.71l.06,0,7.55,10.3a.46.46,0,0,0,.43.32.48.48,0,0,0,.46-.5V.56A.48.48,0,0,0,21.54.06Zm-.46,20L14.4,11l6.68-9Z" transform="translate(0.7 0.7)"/></svg>