<svg id="Layer_1" data-name="Layer 1" xmlns="http://www.w3.org/2000/svg" viewBox="0 0 24.37 25.08"><defs><style>.cls-1{fill:#9fa1a4;}.cls-2{fill:#231f20;}</style></defs><ellipse class="cls-1" cx="14.94" cy="11.01" rx="9.43" ry="11.01"/><path class="cls-2" d="M12.57,0c-4.21,0-7.76,3.22-9,7.66a4.87,4.87,0,0,1,.55-.06C5.34,3.47,8.66.49,12.57.49,17.49.49,21.5,5.21,21.5,11s-4,10.51-8.93,10.51A7.5,7.5,0,0,1,11,21.32c0,.17-.06.33-.1.5a7.87,7.87,0,0,0,1.68.19C17.78,22,22,17.08,22,11S17.78,0,12.57,0Z" transform="translate(2.37 0.01)"/><path class="cls-2" d="M4.64,15.08a3.34,3.34,0,0,1-3.26-3.4,3.34,3.34,0,0,1,3.26-3.4,3.34,3.34,0,0,1,3.25,3.4A3.34,3.34,0,0,1,4.64,15.08Z" transform="translate(2.37 0.01)"/><path class="cls-2" d="M4.64,8.53a3.08,3.08,0,0,1,3,3.15,3.09,3.09,0,0,1-3,3.15,3.09,3.09,0,0,1-3-3.15,3.08,3.08,0,0,1,3-3.15m0-.5a3.58,3.58,0,0,0-3.51,3.65,3.58,3.58,0,0,0,3.51,3.65,3.58,3.58,0,0,0,3.5-3.65A3.58,3.58,0,0,0,4.64,8Z" transform="translate(2.37 0.01)"/><path class="cls-2" d="M13.83,14.81a3.34,3.34,0,0,1-3.26-3.4A3.34,3.34,0,0,1,13.83,8a3.34,3.34,0,0,1,3.26,3.4A3.34,3.34,0,0,1,13.83,14.81Z" transform="translate(2.37 0.01)"/><path class="cls-2" d="M13.83,8.26a3.08,3.08,0,0,1,3,3.15,3.08,3.08,0,0,1-3,3.15,3.08,3.08,0,0,1-3-3.15,3.08,3.08,0,0,1,3-3.15m0-.5a3.58,3.58,0,0,0-3.51,3.65,3.51,3.51,0,1,0,7,0,3.58,3.58,0,0,0-3.51-3.65Z" transform="translate(2.37 0.01)"/><path class="cls-2" d="M12.42,20.63l-.59,0-.68-.12V20.4a3,3,0,0,0,0-.57,5,5,0,0,0-.23-1.22,3.79,3.79,0,0,0-.66-1.15,4.49,4.49,0,0,0-.54-.63,2.92,2.92,0,0,1,1.71-.55h4.5a2.94,2.94,0,0,1,2.66,1.34c-.06.07-.12.13-.17.2l-.17.18-.16.17c-.15.15-.27.28-.44.43l-.11.1a6.42,6.42,0,0,1-.63.51l-.35.21a3.28,3.28,0,0,1-.52.3c-.41.19-.6.27-1,.45s-.75.21-1,.27l-.16,0a5.06,5.06,0,0,1-.94.15Z" transform="translate(2.37 0.01)"/><path class="cls-2" d="M15.91,16.53a2.65,2.65,0,0,1,2.34,1.08l0,0-.14.17-.2.21c-.14.14-.25.25-.41.39l-.11.1a4.46,4.46,0,0,1-.59.48l-.35.22a3.19,3.19,0,0,1-.5.28c-.41.2-.6.28-1,.43a9.55,9.55,0,0,1-1,.27l-.17,0a5.41,5.41,0,0,1-.89.14h-.43l-.54,0-.48-.08a2.83,2.83,0,0,0,0-.47,5.06,5.06,0,0,0-.24-1.27,3.83,3.83,0,0,0-.7-1.23c-.13-.17-.24-.31-.35-.43a2.56,2.56,0,0,1,1.32-.35h4.5m0-.5h-4.5a3.35,3.35,0,0,0-2.11.77,4.92,4.92,0,0,1,.74.81,3.58,3.58,0,0,1,.63,1.1,5.17,5.17,0,0,1,.21,1.15,4.48,4.48,0,0,1,0,.82,8.68,8.68,0,0,0,.92.18l.61,0h.45A5.76,5.76,0,0,0,14,20.68c.28-.06.58-.13,1.07-.28s.63-.26,1-.46a8.71,8.71,0,0,0,.88-.52,6.33,6.33,0,0,0,.78-.63c.24-.21.38-.38.64-.63s.28-.3.45-.54a3.2,3.2,0,0,0-3-1.59Z" transform="translate(2.37 0.01)"/><path class="cls-2" d="M.6,24.82A2.72,2.72,0,0,1-2.12,22.1v-2a3.71,3.71,0,0,1,3.71-3.7H6.24a4,4,0,0,1,4,4V22.2a2.62,2.62,0,0,1-2.62,2.62Z" transform="translate(2.37 0.01)"/><path class="cls-2" d="M6.24,16.62A3.73,3.73,0,0,1,10,20.34V22.2a2.37,2.37,0,0,1-2.37,2.37H.6A2.48,2.48,0,0,1-1.87,22.1v-2a3.46,3.46,0,0,1,3.46-3.45H6.24m0-.5H1.59a4,4,0,0,0-4,3.95v2a3,3,0,0,0,3,3h7a2.86,2.86,0,0,0,2.87-2.87V20.34a4.22,4.22,0,0,0-4.22-4.22Z" transform="translate(2.37 0.01)"/><path class="cls-2" d="M19.64,6.71a.36.36,0,0,1-.24-.09l-5.54-4.8a.35.35,0,0,1,0-.5.36.36,0,0,1,.51,0l5.54,4.8a.34.34,0,0,1,0,.5A.36.36,0,0,1,19.64,6.71Z" transform="translate(2.37 0.01)"/><path class="cls-2" d="M16.82,7a.31.31,0,0,1-.22-.09L14,4.47a.38.38,0,0,1,0-.5.31.31,0,0,1,.46,0L17,6.41a.36.36,0,0,1,0,.49A.33.33,0,0,1,16.82,7Z" transform="translate(2.37 0.01)"/></svg>