<?xml version="1.0" encoding="utf-8"?>
<!-- Generator: Adobe Illustrator 25.2.0, SVG Export Plug-In . SVG Version: 6.00 Build 0)  -->
<svg version="1.1" xmlns="http://www.w3.org/2000/svg" xmlns:xlink="http://www.w3.org/1999/xlink" x="0px" y="0px"
	 viewBox="0 0 22 22" style="enable-background:new 0 0 22 22;" xml:space="preserve">
<style type="text/css">
	.st0{fill:#A7A9AC;}
	.st1{fill:#FFFFFF;}
	.st2{fill:none;stroke:#29AAE2;stroke-width:3;stroke-miterlimit:10;}
	.st3{fill:#29AAE2;}
</style>
<g id="Layer_2">
</g>
<g id="Layer_3">
	<rect class="st0" width="22" height="22"/>
	<g>
		<circle class="st1" cx="10.8" cy="13" r="8.6"/>
	</g>
</g>
<g id="Layer_4">
	<path d="M6.6,8.2c1,0.7,7.7,0.9,8.4,0c3.2,1.9,4.2,4.7,4.4,5.2c0.2,0.5,1.9-4.5,0-7c-1.8-2.3-4.3-2.9-5.4-3c0.9-0.5,2.5-2,2.5-2
		s-2.2,0.1-4.6,0.6c-1.1,0.2-1.1,0.1-2,0.6c0.4-0.9,1.3-1.9,1.3-1.9C11,0.5,8.7,1.7,7.4,2.4C6.5,2.9,4.6,3.7,5.6,4.7
		C4.3,4,3.3,5.4,2.5,6.8C1,9.4,1.9,14,2.2,13.2C2.5,12.3,5.8,8.5,6.6,8.2z"/>
</g>
<g id="Layer_5">
	<g>
		<circle class="st2" cx="10.8" cy="15.2" r="3"/>
		<rect x="9.7" y="9.3" class="st3" width="2.3" height="2.8"/>
		
			<rect x="5.4" y="13.8" transform="matrix(4.552631e-11 -1 1 4.552631e-11 -8.6613 21.8023)" class="st3" width="2.3" height="2.8"/>
		
			<rect x="9.7" y="18.1" transform="matrix(-1 4.552657e-11 -4.552657e-11 -1 21.6812 39.0037)" class="st3" width="2.3" height="2.8"/>
		
			<rect x="14" y="13.8" transform="matrix(-1.597128e-12 1 -1 -1.597128e-12 30.3425 0.121)" class="st3" width="2.3" height="2.8"/>
		<rect x="6.6" y="10.5" transform="matrix(0.7071 -0.7071 0.7071 0.7071 -6.2023 8.965)" class="st3" width="2.3" height="2.8"/>
		
			<rect x="6.8" y="16.8" transform="matrix(-0.7071 -0.7071 0.7071 -0.7071 0.6474 36.6871)" class="st3" width="2.3" height="2.8"/>
		
			<rect x="12.8" y="16.8" transform="matrix(-0.7071 0.7071 -0.7071 -0.7071 36.7085 21.2138)" class="st3" width="2.3" height="2.8"/>
		<rect x="12.8" y="10.7" transform="matrix(0.7071 0.7071 -0.7071 0.7071 12.6949 -6.307)" class="st3" width="2.3" height="2.8"/>
	</g>
</g>
</svg>
