<?xml version="1.0" encoding="utf-8"?>
<!-- Generator: Adobe Illustrator 25.2.0, SVG Export Plug-In . SVG Version: 6.00 Build 0)  -->
<svg version="1.1" xmlns="http://www.w3.org/2000/svg" xmlns:xlink="http://www.w3.org/1999/xlink" x="0px" y="0px"
	 viewBox="0 0 22 22" style="enable-background:new 0 0 22 22;" xml:space="preserve">
<style type="text/css">
	.st0{display:none;}
	.st1{display:inline;}
	.st2{fill:url(#SVGID_1_);stroke:#0C0C0C;stroke-linecap:round;stroke-linejoin:round;stroke-miterlimit:1.3161;}
	.st3{fill:#8D633A;stroke:#754D25;stroke-width:1.2247;stroke-miterlimit:10;}
	.st4{fill:#046937;}
	.st5{fill:#FFFFFF;}
</style>
<g id="Layer_2" class="st0">
	<g id="File-outline_1_" transform="matrix(1,0,0,1,-502.815,-339.547)" class="st1">
		
			<linearGradient id="SVGID_1_" gradientUnits="userSpaceOnUse" x1="210.5052" y1="745.9138" x2="210.7684" y2="745.9138" gradientTransform="matrix(5.000000e-15 79.5383 106.0507 -6.000000e-15 -78590.625 -16403.1992)">
			<stop  offset="0" style="stop-color:#FFFFFF"/>
			<stop  offset="0.92" style="stop-color:#FFFFFF"/>
		</linearGradient>
		<path class="st2" d="M506.3,345.4l5.2-5.2h10.4h-10.4h10.4v20.7h-15.5V345.4"/>
	</g>
</g>
<g id="Layer_1">
	<rect x="8.4" y="16.1" class="st3" width="5.4" height="5.1"/>
	<g>
		<polygon class="st4" points="3.1,16.5 11.1,2.3 19.1,16.5 		"/>
		<path class="st4" d="M11.1,4.3l6.3,11.2H4.8L11.1,4.3 M11.1,0.3L1.4,17.5h19.5L11.1,0.3L11.1,0.3z"/>
	</g>
</g>
<g id="Layer_3">
	<g>
		<path class="st5" d="M11.9,6c0,0.3-0.1,0.6-0.2,0.7c-0.1,0.1-0.4,0.2-0.7,0.2c-0.3,0-0.6-0.1-0.7-0.2c-0.1-0.1-0.2-0.3-0.2-0.7
			c0-0.3,0.1-0.6,0.2-0.7c0.1-0.1,0.4-0.2,0.7-0.2c0.3,0,0.6,0.1,0.7,0.2S11.9,5.6,11.9,6z M11.7,16.6c0,0,0,0.1,0,0.1
			c0,0-0.1,0.1-0.1,0.1c-0.1,0-0.1,0-0.2,0.1c-0.1,0-0.2,0-0.4,0c-0.1,0-0.3,0-0.4,0c-0.1,0-0.2,0-0.2-0.1s-0.1-0.1-0.1-0.1
			c0,0,0-0.1,0-0.1v-8c0,0,0-0.1,0-0.1s0.1-0.1,0.1-0.1s0.1,0,0.2-0.1c0.1,0,0.2,0,0.4,0c0.1,0,0.3,0,0.4,0c0.1,0,0.2,0,0.2,0.1
			c0.1,0,0.1,0.1,0.1,0.1s0,0.1,0,0.1V16.6z"/>
	</g>
</g>
</svg>
