<?xml version="1.0" encoding="utf-8"?>
<!-- Generator: Adobe Illustrator 25.2.0, SVG Export Plug-In . SVG Version: 6.00 Build 0)  -->
<svg version="1.1" xmlns="http://www.w3.org/2000/svg" xmlns:xlink="http://www.w3.org/1999/xlink" x="0px" y="0px"
	 viewBox="0 0 22 22" style="enable-background:new 0 0 22 22;" xml:space="preserve">
<style type="text/css">
	.st0{fill:#006838;}
	.st1{fill:#00A651;}
	.st2{fill:#3C2415;stroke:#3C2415;stroke-width:2;stroke-linecap:round;stroke-linejoin:round;stroke-miterlimit:10;}
	.st3{fill:#FFFFFF;}
	.st4{fill:#094A28;}
	.st5{fill:#0B552B;}
	.st6{fill:#FFFFFF;stroke:#FFFFFF;stroke-width:0.75;stroke-linecap:round;stroke-miterlimit:10;}
	.st7{fill:#FFFFFF;stroke:#FFFFFF;stroke-width:0.5;stroke-linecap:round;stroke-miterlimit:10;}
</style>
<g id="Layer_1">
	<g>
		<path class="st0" d="M7.1,19.9c2.4-1,4.4-2.4,4.3-3.8c-0.2-1.3-2-2.3-3.9-3.4c-1.3-0.8-3-1.7-3.1-2.4c0-0.2,0.1-0.5,0.3-0.7
			c1-1.2,4.1-2.3,7.3-3.1c-1.6,0.9-2.8,2.1-2.9,3.7c-0.1,2,2.7,2.9,5.3,3.7c1.6,0.5,3.7,1.2,3.6,1.8C17.6,17.2,12.4,18.7,7.1,19.9z"
			/>
		<path class="st1" d="M9.6,7.7c-0.6,0.7-1,1.5-1,2.5c-0.1,2.4,3,3.3,5.7,4.2c1.1,0.3,2.9,0.9,3.2,1.3c-0.3,0.8-3.1,1.9-7.1,3
			c1-0.8,1.6-1.6,1.5-2.6c-0.2-1.5-2.1-2.6-4.1-3.8c-1-0.6-2.7-1.6-2.8-2c0,0,0-0.1,0.2-0.3C5.7,9.1,7.5,8.3,9.6,7.7 M20.7,4.2
			c-1.1,0-17.3,2.7-16.8,6.1c0.3,1.8,6.7,3.8,7,5.8c0.3,2.7-10.5,5.5-10.5,5.5s17.4-2.5,18.1-5.9c0.5-2.3-9-2.5-8.9-5.6
			C9.7,5.6,20.8,4.5,20.7,4.2C20.7,4.2,20.7,4.2,20.7,4.2L20.7,4.2z"/>
	</g>
</g>
<g id="Layer_3">
	<path class="st2" d="M17.1,2l-0.8-0.6l-7.2,8.9c-0.4,0.5-0.4,1.1,0,1.3l0.1,0.1c0.4,0.3,0.9,0.1,1.3-0.4L17.1,2z"/>
	<g>
		<path class="st3" d="M0.8,21.1c-0.1-0.9-0.1-3,0.3-4.3l0.2-0.5c0.6-1.7,1.2-3.7,2.2-4.8c0.6-0.7,1.4-1.1,2.5-1.1
			c0.3,0,0.7,0,1.1,0.1c1,0.2,1.9,0.6,2.1,0.8c0.2,0.2,0.7,1,1.1,2c0.6,1.5,0.5,2.7-0.3,3.7c-1,1.1-2.8,2.1-4.4,3l-0.5,0.3
			C3.9,20.8,1.7,21,0.8,21.1z"/>
		<path class="st3" d="M5.9,10.9c0.3,0,0.6,0,1,0.1c0.9,0.2,1.6,0.5,1.9,0.7c0.2,0.3,0.7,0.9,1,1.8c0.5,1.3,0.4,2.4-0.3,3.2
			c-0.9,1.1-2.7,2-4.2,2.8l-0.5,0.3c-0.9,0.5-2.5,0.7-3.6,0.8c0-1.1,0-2.6,0.3-3.6l0.2-0.5c0.5-1.6,1.2-3.6,2.1-4.6
			C4.4,11.2,5,10.9,5.9,10.9 M5.9,9.9c-1,0-2,0.3-2.8,1.2c-1.1,1.3-1.8,3.7-2.5,5.5c-0.6,1.8-0.3,5-0.3,5s3.3-0.1,5-1s3.9-2,5-3.3
			c1.1-1.3,0.9-2.9,0.4-4.2c-0.5-1.3-1.3-2.2-1.3-2.2s-1-0.6-2.4-0.9C6.7,9.9,6.3,9.9,5.9,9.9L5.9,9.9z"/>
	</g>
</g>
<g id="Layer_2">
	<g>
		<path class="st4" d="M1.3,20.6c-0.1-0.9-0.1-2.7,0.3-3.8l0.2-0.5c0.5-1.6,1.1-3.3,2-4.4c0.5-0.6,1.3-1,2.2-1c0.3,0,0.6,0,1,0.1
			c0.9,0.2,1.7,0.6,1.9,0.7c0.2,0.2,0.7,0.9,1,1.8c0.5,1.3,0.4,2.4-0.3,3.3c-0.9,1-2.5,1.9-4,2.7l-0.4,0.2C4,20.3,2.2,20.5,1.3,20.6
			z"/>
		<path class="st5" d="M5.9,11.4c0.3,0,0.6,0,0.9,0.1c0.8,0.2,1.4,0.5,1.7,0.6c0.2,0.3,0.6,0.8,0.9,1.6c0.7,1.7,0,2.5-0.2,2.8
			c-0.8,0.9-2.5,1.8-3.8,2.6l-0.4,0.2c-0.8,0.4-2.1,0.6-3.1,0.7c0-1,0-2.3,0.3-3.1l0.2-0.5c0.5-1.4,1.1-3.2,1.9-4.2
			C4.5,11.7,5.1,11.4,5.9,11.4 M5.9,10.4c-0.9,0-1.9,0.3-2.6,1.1c-1,1.2-1.7,3.3-2.2,5c-0.6,1.7-0.3,4.5-0.3,4.5s3-0.1,4.5-0.9
			s3.5-1.8,4.5-3c1-1.2,0.8-2.7,0.4-3.8c-0.4-1.1-1.1-2-1.1-2S8.2,10.8,7,10.5C6.6,10.5,6.3,10.4,5.9,10.4L5.9,10.4z"/>
	</g>
	<path class="st6" d="M8.3,12.3c-2,2.3-4,4.7-5.9,7"/>
	<line class="st7" x1="5.6" y1="13.9" x2="3.8" y2="14.1"/>
	<line class="st7" x1="4" y1="16.4" x2="2.4" y2="16.3"/>
	<line class="st6" x1="7.6" y1="15.2" x2="8.1" y2="16.5"/>
	<line class="st7" x1="5" y1="17.1" x2="5.7" y2="18.4"/>
</g>
</svg>
