<svg height="394pt" viewBox="0 -8 394 394" width="394pt" xmlns="http://www.w3.org/2000/svg"><path d="m387 149.449219v178.222656c0 23.445313-19.011719 42.453125-42.460938 42.449219h-290.609374c23.449218.003906 42.460937-19.003906 42.460937-42.449219v-178.222656c-.003906-23.445313 19.003906-42.453125 42.449219-42.449219h205.699218c23.449219-.003906 42.460938 19 42.460938 42.449219zm0 0" fill="#e48e66"/><path d="m334.929688 98.351562v8.648438h-196.089844c-23.445313-.003906-42.453125 19.003906-42.449219 42.449219v178.222656c0 23.445313-19.011719 42.453125-42.460937 42.449219h-4.46875c-23.449219.003906-42.460938-19.003906-42.460938-42.449219v-278.222656c0-23.449219 19.011719-42.453125 42.460938-42.449219h95.25c11.921874 0 23.292968 5.011719 31.339843 13.808594l28.910157 31.632812c2.011718 2.199219 4.855468 3.457032 7.839843 3.457032h79.667969c23.449219-.003907 42.460938 19.003906 42.460938 42.453124zm0 0" fill="#f8ec7d"/><path d="m49.460938 377.121094h295.078124c27.300782-.027344 49.425782-22.152344 49.460938-49.449219v-178.222656c-.035156-27.300781-22.160156-49.421875-49.460938-49.449219h-2.609374v-1.648438c-.035157-27.300781-22.160157-49.421874-49.460938-49.453124h-79.667969c-1.019531 0-1.988281-.429688-2.671875-1.179688l-28.910156-31.628906c-9.378906-10.242188-22.621094-16.0781252-36.507812-16.089844h-95.25c-27.300782.0273438-49.4257818 22.148438-49.460938 49.449219v278.222656c.0351562 27.296875 22.160156 49.421875 49.460938 49.449219zm295.078124-263.121094c19.570313.023438 35.433594 15.878906 35.460938 35.449219v178.222656c-.027344 19.570313-15.890625 35.425781-35.460938 35.449219h-256.160156c9.601563-9.296875 15.019532-22.089844 15.011719-35.449219v-178.222656c.019531-19.570313 15.878906-35.425781 35.449219-35.449219zm-330.539062-64.550781c.027344-19.570313 15.890625-35.425781 35.460938-35.449219h95.25c9.953124.007812 19.449218 4.191406 26.171874 11.53125l28.910157 31.628906c3.339843 3.652344 8.058593 5.734375 13.007812 5.738282h79.667969c19.570312.023437 35.433594 15.878906 35.460938 35.453124v1.648438h-189.089844c-27.296875.03125-49.417969 22.152344-49.449219 49.449219v178.222656c-.027344 19.570313-15.890625 35.425781-35.460937 35.449219h-4.46875c-19.570313-.023438-35.433594-15.878906-35.460938-35.449219zm0 0" fill="#63316d"/></svg>