<svg id="Layer_1" data-name="Layer 1" xmlns="http://www.w3.org/2000/svg" viewBox="0 0 20.52 21.22"><defs><style>.cls-1{fill:#006838;}.cls-2{fill:#231f20;}.cls-3{fill:#603913;}</style></defs><path class="cls-1" d="M14.31,3.41a3.38,3.38,0,0,1,1.62,2.46,2.82,2.82,0,0,1-1.26,2.67.49.49,0,0,1-.2-.21s0-.52,0-.53.11-.53.14-.71,0-.31,0-.22-.15.52-.17.6c-.08.3-.16.62-.23.9a3,3,0,0,1-.51-2.78c.14-.46.45-.7.52-1.17A4.92,4.92,0,0,0,14.31,3.41Z" transform="translate(-1.38 -0.63)"/><path class="cls-2" d="M9.06,4.3C9.31,3,9.31,3,9.69,1.2l.1-.46L9.3.63l-.1.46c-.38,1.78-.38,1.78-.64,3.12l-.1.53.5.1Z" transform="translate(-1.38 -0.63)"/><path class="cls-2" d="M4.87,4.49,6.15,5.76l.36-.36L5.22,4.14C4.73,3.65,4.73,3.65,4.08,3l-.67-.71L3,2.6l.68.71C4.37,4,4.37,4,4.87,4.49Z" transform="translate(-1.38 -0.63)"/><path class="cls-2" d="M2.49,9.26l2.19-.93L5.55,8l-.19-.46-.87.36-2.2.93-.91.4.2.46Z" transform="translate(-1.38 -0.63)"/><path class="cls-3" d="M8.65,8.27c-.06.06-1,.72-1,.76,1.92,2,3.41,3.5,4.23,4.35,1.6,1.67,2.5,2.95,6.92,7.46.25-.25.81-.78,1.07-1.06s.91-.87,1.1-1.07c-3.74-3.91-5.3-5.23-6.45-6.44-.93-1-2.41-2.38-4.94-5.06C9.14,7.65,9.06,7.85,8.65,8.27Zm9.14,9.81a44.15,44.15,0,0,0-3.75-4c-.16-.14,0-.26.14-.11a41.48,41.48,0,0,1,3.64,3.85C18,18,17.93,18.26,17.79,18.08Zm-5.22-6.73c.93.93,1.78,1.8,2.67,2.77.15.16,0,.26-.14.1-.91-1-1.74-1.83-2.67-2.76C12.28,11.3,12.41,11.19,12.57,11.35Zm-.76.34c.14.17,0,.31-.14.14-.67-.77-1.29-1.51-1.89-2.33,0-.07-.09-.14,0-.2s.12,0,.18.06C10.55,10.18,11.15,10.91,11.81,11.69Z" transform="translate(-1.38 -0.63)"/><path class="cls-2" d="M14.21,13.89a42.36,42.36,0,0,1,3.78,4,.16.16,0,1,1-.25.21,46,46,0,0,0-3.77-4C13.81,14,14.05,13.74,14.21,13.89Z" transform="translate(-1.38 -0.63)"/><path class="cls-2" d="M12.59,11.26c.93.93,1.84,1.89,2.74,2.85.15.16-.09.41-.24.25-.91-1-1.82-1.92-2.75-2.85C12.18,11.36,12.44,11.11,12.59,11.26Z" transform="translate(-1.38 -0.63)"/><path class="cls-2" d="M10,9.26c.6.83,1.23,1.63,1.9,2.41.13.17-.12.41-.25.24-.67-.77-1.3-1.57-1.9-2.4a.18.18,0,0,1,0-.24A.16.16,0,0,1,10,9.26Z" transform="translate(-1.38 -0.63)"/><path class="cls-2" d="M13.9,3.33a1.75,1.75,0,0,1,0,1.33A7.3,7.3,0,0,0,13.42,6a3.89,3.89,0,0,0,.39,2.2c.06.13.23.5.37.75l-.37.69c-.2-.2-.26-.24-.4-.37a2.81,2.81,0,0,0-.35-.34,1.69,1.69,0,0,0-.2.23c-.7-.73-1.57-1.67-2.77-2.94l-.33-.34C8.12,5.39,8.77,7,8.49,7.94c-.16.55-2-.61-2,1.19l.85.93c2,2,3,3.14,3.85,4S12.8,15.72,14.08,17a.83.83,0,0,1-.08.12c.09.11.13.18.2.26.26.35.57.72.84,1.07.1.13.08.19.18.11a.48.48,0,0,0,.15-.11l.06,0C16.14,19.13,17,20,18,21.08l.76.77c.61-1.34,1.39-.73,2-1.38s-.12-1.13,1.09-1.82l-.5-.56-.53-.55c-3.75-3.91-4.61-4.85-5.76-6.06l-.22-.23s.3-.35.3-.35c-.25-.25-.4-.37-.55-.5L14.16,10l.26-.4a2.7,2.7,0,0,0,.15-.27A.63.63,0,0,1,14.85,9,3.19,3.19,0,0,0,16.23,6.3a3.25,3.25,0,0,0-2.3-3.21C13.71,3,13.8,3.07,13.9,3.33Zm.26,9.1c1.15,1.21,2.2,2.33,5.93,6.24-.5.27-.11.77-.3,1s-.81-.12-1,.41c-4.43-4.51-5.13-5.25-6.73-6.92l-3.81-4c.36-.39.93.1,1.14-.69s-.08-.61.3-.75C12.21,10.37,13.23,11.44,14.16,12.43ZM15.78,6a2.51,2.51,0,0,1-1.15,2.52.57.57,0,0,1-.06-.42,2.29,2.29,0,0,1,0-.36c.08-.43.11-.6.22-1,0-.1.13-1,0-1a6.3,6.3,0,0,0-.31,1.23c-.08.3-.23.85-.3,1.13a3.33,3.33,0,0,1-.33-2.29,10,10,0,0,0,.53-1.29,3.6,3.6,0,0,0-.05-.81A3.42,3.42,0,0,1,15.78,6Z" transform="translate(-1.38 -0.63)"/></svg>