<svg height="415pt" viewBox="0 -24 415.32639 415" width="415pt" xmlns="http://www.w3.org/2000/svg"><path d="m274.929688 105.832031h-152.988282c-22.09375 0-40 17.910157-40 40v207.742188c-12.238281 7.074219-26.894531 8.644531-40.351562 4.320312l.351562-1.070312v-242.992188c0-22.089843 17.90625-40 40-40h160.988282c17.671874 0 32 14.328125 32 32zm0 0" fill="#6fe3ff"/><path d="m81.941406 353.574219c11.867188-6.875 20.382813-18.332031 23.546875-31.679688l43.601563-153.953125c4.277344-18.035156 20.382812-30.773437 38.921875-30.777344h180.316406c11.96875 0 23.304687 5.359376 30.902344 14.601563 7.597656 9.246094 10.65625 21.40625 8.339843 33.148437l-34.199218 143.128907c-3.703125 18.742187-20.136719 32.25-39.242188 32.25h-277.207031c8.785156.003906 17.417969-2.3125 25.019531-6.71875zm0 0" fill="#e48e66"/><path d="m334.929688 88.523438v48.640624h-20c.003906-17.300781-14.019532-31.328124-31.320313-31.332031h-8.679687c0-17.671875-14.328126-32-32-32h-160.988282c-22.09375 0-40 17.910157-40 40v242.992188l-.351562 1.070312c-20.613282-6.664062-34.585938-25.855469-34.589844-47.519531v-260.75c0-23.453125 19.011719-42.460938 42.460938-42.460938h99c9.652343 0 18.980468 3.492188 26.257812 9.828126l22.109375 19.242187c7.28125 6.339844 16.609375 9.832031 26.261719 9.828125h69.390625c23.445312.003906 42.449219 19.015625 42.449219 42.460938zm0 0" fill="#f8ec7d"/><path d="m314.929688 137.164062h-126.917969c-18.539063.003907-34.644531 12.742188-38.921875 30.777344l-43.601563 153.953125c-3.164062 13.347657-11.679687 24.804688-23.546875 31.679688v-207.742188c0-22.089843 17.90625-40 40-40h161.667969c17.300781.003907 31.324219 14.03125 31.320313 31.332031zm0 0" fill="#6fe3ff"/><path d="m368.328125 130.164062h-26.398437v-41.640624c-.027344-27.300782-22.148438-49.425782-49.449219-49.460938h-69.390625c-7.964844 0-15.660156-2.878906-21.664063-8.109375l-22.109375-19.238281c-8.554687-7.449219-19.511718-11.550782-30.855468-11.550782h-99c-27.304688.03125-49.429688 22.15625-49.460938 49.460938v260.75c-.0273438 30.28125 23.683594 55.277344 53.929688 56.839844v.078125h280.199218c22.378906-.039063 41.640625-15.820313 46.082032-37.753907l34.167968-143 .058594-.269531c2.722656-13.792969-.875-28.082031-9.800781-38.945312-8.925781-10.859375-22.246094-17.15625-36.308594-17.15625zm-354.328125 180.210938v-260.75c.023438-19.578125 15.886719-35.441406 35.460938-35.460938h99c7.964843 0 15.65625 2.878907 21.664062 8.109376l22.109375 19.238281c8.550781 7.449219 19.511719 11.550781 30.855469 11.550781h69.390625c19.570312.027344 35.425781 15.890625 35.449219 35.460938v41.640624h-6.652344c-3.386719-18.144531-19.210938-31.304687-37.667969-31.332031h-2.320313c-3.402343-18.515625-19.53125-31.972656-38.359374-32h-160.988282c-25.945312.03125-46.972656 21.054688-47 47v233.402344c-3.046875-1.816406-5.859375-4.003906-8.371094-6.507813-8.070312-8.035156-12.597656-18.964843-12.570312-30.351562zm269.609375-197.542969c10.734375.015625 20.191406 7.054688 23.289063 17.332031h-118.886719c-21.746094-.058593-40.667969 14.855469-45.695313 36.011719l-43.5625 153.808594-.074218.292969c-1.65625 6.921875-5.003907 13.324218-9.738282 18.632812v-193.078125c.019532-18.214843 14.78125-32.976562 33-33zm-234.667969 239.714844v-238.714844c.019532-18.214843 14.78125-32.976562 33-33h160.988282c11.105468.015625 20.878906 7.34375 24 18h-144.988282c-25.945312.03125-46.972656 21.054688-47 47v203.472657c-8.117187 3.769531-17.207031 4.90625-26 3.242187zm351.785156-169.117187-34.164062 142.988281-.058594.269531c-3.082031 15.445312-16.625 26.578125-32.375 26.605469h-239.84375c8.914063-7.78125 15.199219-18.132813 17.984375-29.632813l43.558594-153.808594.078125-.292968c3.488281-14.90625 16.796875-25.4375 32.109375-25.398438h180.3125c9.851563 0 19.1875 4.398438 25.457031 11.996094 6.265625 7.597656 8.816406 17.597656 6.945313 27.269531zm0 0" fill="#63316d"/></svg>