<svg height="434pt" viewBox="0 -1 434 434" width="434pt" xmlns="http://www.w3.org/2000/svg"><path d="m427 241.460938v33.789062l-70.308594 60.25v69.699219l-39.382812 19.671875v-89.371094l-70.308594-60.25v-33.789062zm0 0" fill="#6fe3ff"/><path d="m367 211h60v30.460938h-180v-30.460938zm0 0" fill="#6fe3ff"/><path d="m367 141.960938v69.039062h-120v64.25l70.308594 60.25v15.511719h-265.859375c22.21875.003906 40.230469-18.003907 40.230469-40.222657v-168.828124c0-22.214844 18.007812-40.222657 40.21875-40.222657h194.871093c22.21875-.003906 40.230469 18.003907 40.230469 40.222657zm0 0" fill="#e48e66"/><path d="m317.671875 93.550781v8.1875h-185.773437c-22.210938 0-40.21875 18.007813-40.21875 40.222657v168.828124c0 22.21875-18.011719 40.226563-40.230469 40.222657h-4.230469c-22.214844.003906-40.222656-18.007813-40.21875-40.222657v-263.570312c0-22.210938 18.007812-40.21875 40.21875-40.21875h90.242188c11.292968 0 22.070312 4.75 29.6875 13.089844l27.390624 29.960937c1.902344 2.085938 4.597657 3.273438 7.421876 3.269531h75.488281c22.214843.003907 40.222656 18.015626 40.222656 40.230469zm0 0" fill="#f8ec7d"/><path d="m47.21875 358.011719h263.089844v66.859375c0 2.425781 1.257812 4.675781 3.320312 5.953125 2.0625 1.273437 4.640625 1.390625 6.808594.308593l39.378906-19.671874c2.375-1.183594 3.875-3.609376 3.875-6.261719v-66.480469l67.863282-58.152344c1.550781-1.332031 2.445312-3.273437 2.445312-5.316406v-64.25c0-3.867188-3.132812-7-7-7h-53v-62.039062c-.03125-26.070313-21.160156-47.195313-47.230469-47.222657h-2.097656v-1.1875c-.027344-26.070312-21.152344-47.199219-47.222656-47.230469h-75.488281c-.859376 0-1.675782-.359374-2.253907-.992187l-27.390625-29.960937c-8.953125-9.777344-21.597656-15.3554692-34.855468-15.367188h-90.242188c-26.066406.03125-47.1875 21.152344-47.21875 47.21875v263.570312c.03125 26.066407 21.152344 47.191407 47.21875 47.222657zm304.917969-27.828125c-1.554688 1.332031-2.445313 3.273437-2.445313 5.316406v65.371094l-25.382812 12.679687v-78.050781c0-2.042969-.890625-3.984375-2.445313-5.316406l-67.863281-58.152344v-23.570312h166v23.570312zm67.863281-95.722656h-166v-16.460938h166zm-93.230469-125.722657c18.339844.019531 33.207031 14.878907 33.230469 33.222657v62.039062h-113c-3.867188 0-7 3.132812-7 7v64.25c0 2.042969.894531 3.984375 2.445312 5.316406l67.863282 58.152344v5.292969h-225.332032c8.78125-8.828125 13.707032-20.773438 13.703126-33.222657v-168.828124c.019531-18.339844 14.878906-33.199219 33.21875-33.222657zm-312.769531-61.519531c.019531-18.335938 14.882812-33.199219 33.21875-33.21875h90.242188c9.328124.011719 18.222656 3.933594 24.523437 10.8125l27.375 29.945312c3.230469 3.542969 7.804687 5.5625 12.601563 5.5625h75.488281c18.34375.023438 33.203125 14.886719 33.222656 33.230469v1.1875h-178.773437c-26.066407.03125-47.1875 21.15625-47.21875 47.222657v168.828124c-.023438 18.34375-14.890626 33.203126-33.230469 33.222657h-4.230469c-18.335938-.023438-33.199219-14.882813-33.21875-33.222657zm0 0" fill="#63316d"/></svg>