<?xml version="1.0" encoding="utf-8"?>
<!-- Generator: Adobe Illustrator 25.2.0, SVG Export Plug-In . SVG Version: 6.00 Build 0)  -->
<svg version="1.1" xmlns="http://www.w3.org/2000/svg" xmlns:xlink="http://www.w3.org/1999/xlink" x="0px" y="0px"
	 viewBox="0 0 22 22" style="enable-background:new 0 0 22 22;" xml:space="preserve">
<style type="text/css">
	.st0{fill:#2CA9E1;stroke:#2CA9E1;stroke-miterlimit:10;}
	.st1{fill:#1A5D76;}
	.st2{fill:#1A5D76;stroke:#1A5D76;stroke-miterlimit:10;}
</style>
<g id="Layer_1">
	<g>
		<path class="st0" d="M13.7,10.4c0,0.6-0.2,1.1-0.6,1.6l-7.9,8.2c-0.8,0.9-2.3,0.9-3.2,0.1C1.2,19.4,1.1,18,2,17.1l7.9-8.2
			c0.4-0.4,1-0.7,1.6-0.7c-0.8-1.7-0.3-3.9,0.8-5.2c1.7-2,4.8-2,5-1.6c0.1,0.2-1.5,1.5-1.5,1.5l-1.5,1.5l3.1,3l1.5-1.5
			c0,0,1.3-1.6,1.5-1.5c0.4,0.2,0.5,3.3-1.4,5.1C17.7,10.5,15.5,11.1,13.7,10.4z"/>
		<polygon class="st1" points="4.9,18.2 4,17.3 2.7,17.7 2.4,19 3.3,19.9 4.6,19.5 		"/>
	</g>
</g>
<g id="Layer_2">
	<g>
		<path class="st2" d="M10.3,11.8l2-1.9c0.2-0.2,0.6-0.2,0.8,0l7.7,8.1c0.6,0.7,0.6,1.7-0.1,2.4l-0.3,0.3c-0.7,0.6-1.7,0.6-2.4-0.1
			l-7.7-8.1C10.1,12.4,10.1,12,10.3,11.8z"/>
		<polygon class="st2" points="14.3,13.2 14.1,13.4 13.9,13.6 13.7,13.8 13.4,14 11.4,11.9 4.7,4.8 4.1,4.5 2.2,2.2 2.4,2 2.6,1.8 
			2.9,1.6 3.1,1.5 5.2,3.4 5.5,4.1 12.3,11.1 		"/>
		<path class="st0" d="M18.8,20.1L18.8,20.1c0,0,0-0.1,0-0.1l-6.5-6.9c0,0-0.1,0-0.1,0l0,0c0,0,0,0.1,0,0.1l6.5,6.9
			C18.7,20.1,18.8,20.1,18.8,20.1z"/>
		<path class="st0" d="M20.1,18.9L20.1,18.9c0,0,0-0.1,0-0.1l-6.5-6.9c0,0-0.1,0-0.1,0l0,0c0,0,0,0.1,0,0.1l6.5,6.9
			C20,18.9,20,18.9,20.1,18.9z"/>
	</g>
</g>
</svg>
