<?xml version="1.0" encoding="utf-8"?>
<!-- Generator: Adobe Illustrator 25.2.0, SVG Export Plug-In . SVG Version: 6.00 Build 0)  -->
<svg version="1.1" xmlns="http://www.w3.org/2000/svg" xmlns:xlink="http://www.w3.org/1999/xlink" x="0px" y="0px"
	 viewBox="0 0 22 22" style="enable-background:new 0 0 22 22;" xml:space="preserve">
<style type="text/css">
	.st0{fill:#993333;stroke:#C1272D;stroke-width:0.5;stroke-linejoin:round;stroke-miterlimit:10;}
	.st1{stroke:#C1272D;stroke-width:0.5;stroke-linejoin:round;stroke-miterlimit:10;}
	.st2{fill:#363795;stroke:#2AACE2;stroke-width:0.5;stroke-linejoin:round;stroke-miterlimit:10;}
	.st3{fill:none;stroke:#2AACE2;stroke-width:0.5;stroke-linejoin:round;stroke-miterlimit:10;}
</style>
<g id="Layer_1">
</g>
<g id="Layer_2">
	<polygon class="st0" points="15.5,10.2 15.5,8.7 19.1,11.6 21.6,8.1 15.5,3.8 13.3,3.8 11,3.8 8.7,3.8 6.5,3.8 0.4,8.1 2.9,11.6 
		6.5,8.7 6.5,10.2 6.5,13.4 6.5,19.6 8.7,19.6 11,19.6 13.3,19.6 15.5,19.6 15.5,13.4 	"/>
	<path class="st1" d="M13.7,3.8c0,1.5-1.2,2.9-2.7,2.9S8.3,5.3,8.3,3.8H11H13.7z"/>
	<g>
		<path class="st2" d="M14.4,3.8c-0.5,0-0.7,0.2-0.7,0.5c-0.2,1.9-1.3,6.1-2.7,6.1S8.5,6.1,8.3,4.2C8.3,4,8,3.8,7.8,3.8l-1.4,0
			c-0.5,0-0.9,0.5-0.7,1c0.3,0.9,0.7,2.3,0.8,4c0,0,0,1.5,0,1.5v3.2v6.6c0,0.3,0.2,0.5,0.5,0.5h1.7H11h2.3H15c0.3,0,0.5-0.2,0.5-0.5
			v-6.6v-3.2c0,0,0-1.4,0-1.5c0-1,0.2-2.4,0.9-4.2c0.1-0.4-0.1-0.7-0.5-0.7L14.4,3.8z"/>
	</g>
</g>
<g id="Layer_3">
	<line class="st3" x1="11" y1="10.3" x2="11" y2="19.6"/>
</g>
</svg>
