<?xml version="1.0" encoding="utf-8"?>
<!-- Generator: Adobe Illustrator 25.2.0, SVG Export Plug-In . SVG Version: 6.00 Build 0)  -->
<svg version="1.1" xmlns="http://www.w3.org/2000/svg" xmlns:xlink="http://www.w3.org/1999/xlink" x="0px" y="0px"
	 viewBox="0 0 22 22" style="enable-background:new 0 0 22 22;" xml:space="preserve">
<style type="text/css">
	.st0{fill:#D1D3D4;stroke:#2CA9E1;stroke-miterlimit:10;}
	.st1{fill:none;stroke:#2CA9E1;stroke-miterlimit:10;}
	.st2{fill:#993333;stroke:#993333;stroke-linejoin:round;stroke-miterlimit:10;}
</style>
<g id="Layer_4">
	<path class="st0" d="M15.9,5.1c0,0-0.3-3.8-7.6-3.8S0.7,5.1,0.7,5.1v12.2c0,0,0.3,3.8,7.6,3.8s7.6-3.8,7.6-3.8V5.1z"/>
	<path class="st1" d="M0.7,5.1c0,0,0.3,3.8,7.6,3.8s7.6-3.8,7.6-3.8"/>
	<path class="st1" d="M0.7,9.3c0,0,0.3,3.8,7.6,3.8s7.6-3.8,7.6-3.8"/>
	<path class="st1" d="M0.7,13.5c0,0,0.3,3.8,7.6,3.8s7.6-3.8,7.6-3.8"/>
</g>
<g id="Layer_3">
	<polygon class="st2" points="6.6,7.7 6.6,2.6 12.9,5.1 	"/>
</g>
<g id="Layer_5">
	<circle class="st2" cx="16" cy="5.1" r="1.7"/>
	<path class="st2" d="M16,15.2L16,15.2c-1.1,0-2-0.9-2-2v-2.8c0-1.1,0.9-2,2-2h0c1.1,0,2,0.9,2,2v2.8C18,14.3,17.1,15.2,16,15.2z"/>
	<path class="st2" d="M17.1,13.4L17.1,13.4c0.5,0,0.8,0.4,0.8,0.8l0.8,6.3c0,0.5-0.4,0.8-0.8,0.8l0,0c-0.5,0-0.8-0.4-0.8-0.8
		l-0.8-6.3C16.3,13.8,16.7,13.4,17.1,13.4z"/>
	<path class="st2" d="M13.9,21.4L13.9,21.4c0.5,0,0.8-0.4,0.8-0.8l0.8-6.3c0-0.5-0.4-0.8-0.8-0.8h0c-0.5,0-0.8,0.4-0.8,0.8l-0.8,6.3
		C13.1,21,13.5,21.4,13.9,21.4z"/>
	<path class="st2" d="M11.4,15.3L11.4,15.3c0.5,0,0.9-0.4,0.9-0.9l2.3-4.6c0-0.5-0.4-0.9-0.9-0.9h0c-0.5,0-0.9,0.4-0.9,0.9l-2.3,4.6
		C10.5,14.8,10.9,15.3,11.4,15.3z"/>
	<path class="st2" d="M18,8.8L18,8.8c0.5,0,0.9,0.4,0.9,0.9l2.3,4.6c0,0.5-0.4,0.9-0.9,0.9h0c-0.5,0-0.9-0.4-0.9-0.9l-2.3-4.6
		C17.1,9.2,17.5,8.8,18,8.8z"/>
</g>
</svg>
