<svg id="Layer_1" data-name="Layer 1" xmlns="http://www.w3.org/2000/svg" viewBox="0 0 18.142 18.537"><defs><style>.cls-1{fill:none;stroke:#2ca9e1;stroke-miterlimit:10;}</style></defs><path class="cls-1" d="M13.828,13.16c.173,1.624-.77,2.886-2.237,2.633A4.408,4.408,0,0,1,8.454,12.23a1.915,1.915,0,0,1,2.471-2.284A3.67,3.67,0,0,1,13.828,13.16Z" transform="translate(-1.406 -2.334)"/><path class="cls-1" d="M19.048,10.473c.013,5.137-3.579,10.41-7.934,9.858S3.741,14.343,2.21,9.112s2.973-7.037,7.852-5.995S19.034,5.337,19.048,10.473Z" transform="translate(-1.406 -2.334)"/><path class="cls-1" d="M16.453,12.117c.213,3.342-1.864,6.35-4.863,5.878s-5.528-3.774-6.282-7.228S7.29,5.8,10.48,6.465,16.24,8.775,16.453,12.117Z" transform="translate(-1.406 -2.334)"/></svg>