<svg id="Layer_1" data-name="Layer 1" xmlns="http://www.w3.org/2000/svg" xmlns:xlink="http://www.w3.org/1999/xlink" viewBox="0 0 15.121 18.293"><defs><style>.cls-1{fill:url(#linear-gradient);}</style><linearGradient id="linear-gradient" x1="3.439" y1="11" x2="18.561" y2="11" gradientUnits="userSpaceOnUse"><stop offset="0.008" stop-color="#2fa8e0"/><stop offset="1" stop-color="#214082"/></linearGradient></defs><path class="cls-1" d="M18.561,4.9a5.813,5.813,0,0,1-.035.684,2.108,2.108,0,0,1-.095.458.505.505,0,0,1-.151.239.335.335,0,0,1-.212.069,1.332,1.332,0,0,1-.574-.247,8.648,8.648,0,0,0-1.053-.533,11.344,11.344,0,0,0-1.565-.533,8.13,8.13,0,0,0-2.112-.246,5.863,5.863,0,0,0-2.325.444A5.067,5.067,0,0,0,8.662,6.5,5.625,5.625,0,0,0,7.527,8.45a7.657,7.657,0,0,0-.4,2.523,8.1,8.1,0,0,0,.4,2.673A5.419,5.419,0,0,0,8.662,15.58a4.651,4.651,0,0,0,1.743,1.176,6.138,6.138,0,0,0,2.249.4,5.3,5.3,0,0,0,1.19-.136,4.35,4.35,0,0,0,1.094-.411V12.5h-3.35q-.246,0-.383-.308a2.822,2.822,0,0,1-.137-1.046,5,5,0,0,1,.035-.642,1.547,1.547,0,0,1,.1-.417.585.585,0,0,1,.164-.233.352.352,0,0,1,.219-.075h5.974a.979.979,0,0,1,.39.075.863.863,0,0,1,.3.226,1.038,1.038,0,0,1,.2.362,1.575,1.575,0,0,1,.069.486v7.041a1.674,1.674,0,0,1-.144.717,1.022,1.022,0,0,1-.588.486q-.444.177-1.1.369t-1.361.328c-.47.091-.943.159-1.422.2s-.959.068-1.442.068a11.074,11.074,0,0,1-3.794-.608,7.449,7.449,0,0,1-4.614-4.58,10.8,10.8,0,0,1-.616-3.767,10.926,10.926,0,0,1,.657-3.9A8.25,8.25,0,0,1,5.955,4.349,8.05,8.05,0,0,1,8.86,2.5a10.683,10.683,0,0,1,3.794-.642,12.756,12.756,0,0,1,2.092.157,11.776,11.776,0,0,1,1.648.383,6.426,6.426,0,0,1,1.168.485,2.958,2.958,0,0,1,.65.451,1.143,1.143,0,0,1,.267.54A4.893,4.893,0,0,1,18.561,4.9Z" transform="translate(-3.439 -1.854)"/></svg>