<?xml version="1.0" encoding="utf-8"?>
<!-- Generator: Adobe Illustrator 25.2.0, SVG Export Plug-In . SVG Version: 6.00 Build 0)  -->
<svg version="1.1" id="Layer_1" xmlns="http://www.w3.org/2000/svg" xmlns:xlink="http://www.w3.org/1999/xlink" x="0px" y="0px"
	 viewBox="0 0 22 22" style="enable-background:new 0 0 22 22;" xml:space="preserve">
<style type="text/css">
	.st0{fill:#257C35;stroke:#287D3E;stroke-miterlimit:10;}
</style>
<path class="st0" d="M0.8,21.6c0,0-0.3-6.4,1.4-11.7C2.5,9,3.5,6.1,3.5,6.1s-0.3,4.1,0,8.4c0.3,3.8-0.1,7.1-0.1,7.1H0.8z"/>
<path class="st0" d="M14,21.6h2.4c0,0-1-6.8,0-14.2c0.2-1.2,0.3-2.3,0.3-2.3s-1.8,4.3-2.4,8.8C14,17,14,21.6,14,21.6z"/>
<path class="st0" d="M7.3,21.6h2.2c0,0,2.6-4.2,1.7-8.7c-0.7-3.4-1.5-9.6-1.5-9.6s-0.4,1-0.5,1.9C8.5,15.3,7.3,21.6,7.3,21.6z"/>
<path class="st0" d="M10.3,21.6h2.3L12.5,5.1c0,0-0.9,3.4-1,5.5C10.8,20.3,10.3,21.6,10.3,21.6z"/>
<path class="st0" d="M11.4,21.6c0,0-0.3-6.4,1.4-11.7c0.3-0.9,1.3-3.8,1.3-3.8s-0.3,4.1,0,8.4c0.3,3.8-0.1,7.1-0.1,7.1H11.4z"/>
<path class="st0" d="M4.1,21.6h2.4c0,0-1-6.8,0-14.2c0.2-1.2,0.3-2.3,0.3-2.3S5,9.4,4.4,13.9C4,17,4.1,21.6,4.1,21.6z"/>
<path class="st0" d="M17.3,21.6h2.2c0,0,2.6-4.2,1.7-8.7c-0.7-3.4-1.5-9.6-1.5-9.6s-0.4,1-0.5,1.9C18.5,15.3,17.3,21.6,17.3,21.6z"
	/>
</svg>
