<?xml version="1.0" encoding="utf-8"?>
<!-- Generator: Adobe Illustrator 25.2.0, SVG Export Plug-In . SVG Version: 6.00 Build 0)  -->
<svg version="1.1" xmlns="http://www.w3.org/2000/svg" xmlns:xlink="http://www.w3.org/1999/xlink" x="0px" y="0px"
	 viewBox="0 0 22 22" style="enable-background:new 0 0 22 22;" xml:space="preserve">
<style type="text/css">
	.st0{fill:#A7A9AC;}
	.st1{fill:url(#SVGID_1_);}
</style>
<g id="Layer_2">
</g>
<g id="Layer_3">
	<g>
		<circle class="st0" cx="10.8" cy="13" r="8.6"/>
	</g>
</g>
<g id="Layer_4">
	<linearGradient id="SVGID_1_" gradientUnits="userSpaceOnUse" x1="3.9326" y1="4.2827" x2="19.6139" y2="13.3363">
		<stop  offset="0" style="stop-color:#ED1C24"/>
		<stop  offset="0.5112" style="stop-color:#39B54A"/>
		<stop  offset="1" style="stop-color:#2E3192"/>
	</linearGradient>
	<path class="st1" d="M6.6,8.2c1,0.7,7.7,0.9,8.4,0c3.2,1.9,4.2,4.7,4.4,5.2c0.2,0.5,1.9-4.5,0-7c-1.8-2.3-4.3-2.9-5.4-3
		c0.9-0.5,2.5-2,2.5-2s-2.2,0.1-4.6,0.6c-1.1,0.2-1.1,0.1-2,0.6c0.4-0.9,1.3-1.9,1.3-1.9C11,0.5,8.7,1.7,7.4,2.4
		C6.5,2.9,4.6,3.7,5.6,4.7C4.3,4,3.3,5.4,2.5,6.8C1,9.4,1.9,14,2.2,13.2C2.5,12.3,5.8,8.5,6.6,8.2z"/>
</g>
</svg>
