<svg id="Layer_1" data-name="Layer 1" xmlns="http://www.w3.org/2000/svg" xmlns:xlink="http://www.w3.org/1999/xlink" viewBox="0 0 20.921 20.771"><defs><style>.cls-1{fill:none;stroke-linecap:round;stroke-linejoin:round;stroke:url(#linear-gradient);}</style><linearGradient id="linear-gradient" x1="-1.492" y1="19.216" x2="11.037" y2="19.216" gradientTransform="matrix(1.492, 0.316, -0.019, -1.466, 6.78, 37.982)" gradientUnits="userSpaceOnUse"><stop offset="0" stop-color="#38a5b8"/><stop offset="1" stop-color="#3a53a4"/></linearGradient></defs><path class="cls-1" d="M.7,16.164C4.455,20,8.8,21.927,10.33,20.431c2.293-2.243,3.214-5.076,2.04-6.275a1.126,1.126,0,0,1-.159-1.556,1.126,1.126,0,0,1,1.552.192c1.174,1.2,4.026.34,6.318-1.9,1.529-1.495-.3-5.883-4.058-9.72.234.24-3.031,3.822-7.234,7.935S.934,16.4.7,16.164ZM16.94,5.606c.94,1.7,1.012,2.724.862,2.871M14.807,7.6l2.133-2m-2.133,2a14.858,14.858,0,0,1,.975,2.5L17.8,8.477M7.274,16.053l.383-.375M6.382,20.016l1.461-1.43m-.485-3.979.307.313M8.79,16.069l-.375-.383m.008-.758.383-.375M3.392,18.271l1.689-1.564" transform="translate(-0.2 -0.668)"/></svg>