<?xml version="1.0" encoding="utf-8"?>
<!-- Generator: Adobe Illustrator 25.2.0, SVG Export Plug-In . SVG Version: 6.00 Build 0)  -->
<svg version="1.1" xmlns="http://www.w3.org/2000/svg" xmlns:xlink="http://www.w3.org/1999/xlink" x="0px" y="0px"
	 viewBox="0 0 22 22" style="enable-background:new 0 0 22 22;" xml:space="preserve">
<style type="text/css">
	.st0{fill:none;stroke:#29AAE2;stroke-width:3;stroke-miterlimit:10;}
	.st1{fill:#29AAE2;}
	.st2{opacity:0.7;fill:url(#SVGID_1_);stroke:url(#SVGID_2_);stroke-width:0.25;stroke-miterlimit:10;}
	.st3{opacity:0.7;fill:url(#SVGID_3_);stroke:url(#SVGID_4_);stroke-width:0.25;stroke-miterlimit:10;}
	.st4{opacity:0.7;fill:url(#SVGID_5_);stroke:url(#SVGID_6_);stroke-width:0.25;stroke-miterlimit:10;}
	.st5{fill:url(#SVGID_7_);}
	.st6{fill:url(#SVGID_8_);}
	.st7{fill:#898989;stroke:#636464;stroke-width:0.25;stroke-miterlimit:10;}
	.st8{display:none;}
	.st9{display:inline;}
	.st10{stroke:#000000;stroke-width:2;stroke-miterlimit:10;}
	.st11{fill:#525252;}
</style>
<g id="Layer_3">
	<circle class="st0" cx="10.8" cy="11" r="3"/>
	<rect x="9.7" y="5" class="st1" width="2.3" height="2.8"/>
	<rect x="5.4" y="9.6" transform="matrix(4.552631e-11 -1 1 4.552631e-11 -4.405 17.546)" class="st1" width="2.3" height="2.8"/>
	
		<rect x="9.7" y="13.8" transform="matrix(-1 4.552657e-11 -4.552657e-11 -1 21.6812 30.4913)" class="st1" width="2.3" height="2.8"/>
	
		<rect x="14" y="9.6" transform="matrix(-1.597128e-12 1 -1 -1.597128e-12 26.0863 -4.1352)" class="st1" width="2.3" height="2.8"/>
	<rect x="6.6" y="6.3" transform="matrix(0.7071 -0.7071 0.7071 0.7071 -3.1927 7.7184)" class="st1" width="2.3" height="2.8"/>
	<rect x="6.8" y="12.5" transform="matrix(-0.7071 -0.7071 0.7071 -0.7071 3.657 29.4213)" class="st1" width="2.3" height="2.8"/>
	
		<rect x="12.8" y="12.5" transform="matrix(-0.7071 0.7071 -0.7071 -0.7071 33.6988 13.948)" class="st1" width="2.3" height="2.8"/>
	<rect x="12.8" y="6.5" transform="matrix(0.7071 0.7071 -0.7071 0.7071 9.6853 -7.5536)" class="st1" width="2.3" height="2.8"/>
</g>
<g id="Layer_2">
	<linearGradient id="SVGID_1_" gradientUnits="userSpaceOnUse" x1="5.5531" y1="7.5131" x2="15.7445" y2="19.0803">
		<stop  offset="0.1" style="stop-color:#FFFFFF;stop-opacity:0.7"/>
		<stop  offset="1" style="stop-color:#BCBEC0;stop-opacity:0.1"/>
	</linearGradient>
	<linearGradient id="SVGID_2_" gradientUnits="userSpaceOnUse" x1="11.0018" y1="2.319" x2="11.0018" y2="21.5244">
		<stop  offset="0.1" style="stop-color:#FFFFFF;stop-opacity:0.7"/>
		<stop  offset="1" style="stop-color:#BCBEC0;stop-opacity:0.3"/>
	</linearGradient>
	<path class="st2" d="M11,2.7L8.5,10L6,17.3c-0.2,0.4,0,4.1,4.6,4.1s5.5-3.6,5.4-4.1L13.5,10L11,2.7z"/>
	
		<linearGradient id="SVGID_3_" gradientUnits="userSpaceOnUse" x1="9.5886" y1="3.7014" x2="20.0092" y2="15.5287" gradientTransform="matrix(0.852 -0.17 0.1569 0.846 0.6938 3.0192)">
		<stop  offset="0.1" style="stop-color:#FFFFFF;stop-opacity:0.7"/>
		<stop  offset="1" style="stop-color:#BCBEC0;stop-opacity:0.1"/>
	</linearGradient>
	
		<linearGradient id="SVGID_4_" gradientUnits="userSpaceOnUse" x1="9.052" y1="4.196" x2="20.3287" y2="15.4728" gradientTransform="matrix(0.852 -0.17 0.1569 0.846 0.6938 3.0192)">
		<stop  offset="0.1" style="stop-color:#FFFFFF;stop-opacity:0.7"/>
		<stop  offset="1" style="stop-color:#BCBEC0;stop-opacity:0.3"/>
	</linearGradient>
	<path class="st3" d="M11,2.7l4.2,2.6l4.2,2.6c0.2,0.2,3.2,3.2,0.3,5.4s-5.5-1-5.6-1.3l-1.5-4.6L11,2.7z"/>
	
		<linearGradient id="SVGID_5_" gradientUnits="userSpaceOnUse" x1="21.3825" y1="4.4874" x2="31.8031" y2="16.3148" gradientTransform="matrix(-0.8529 -0.1652 -0.1521 0.8469 31.4561 4.2192)">
		<stop  offset="0.1" style="stop-color:#FFFFFF;stop-opacity:0.7"/>
		<stop  offset="1" style="stop-color:#BCBEC0;stop-opacity:0.1"/>
	</linearGradient>
	
		<linearGradient id="SVGID_6_" gradientUnits="userSpaceOnUse" x1="20.8459" y1="4.9821" x2="32.1226" y2="16.2588" gradientTransform="matrix(-0.8529 -0.1652 -0.1521 0.8469 31.4561 4.2192)">
		<stop  offset="0.1" style="stop-color:#FFFFFF;stop-opacity:0.7"/>
		<stop  offset="1" style="stop-color:#BCBEC0;stop-opacity:0.3"/>
	</linearGradient>
	<path class="st4" d="M11,2.7L6.8,5.3L2.7,7.9C2.4,8-0.5,11.1,2.4,13.3s5.5-1,5.6-1.3l1.5-4.7L11,2.7z"/>
	<linearGradient id="SVGID_7_" gradientUnits="userSpaceOnUse" x1="7.46" y1="2.0915" x2="7.46" y2="22">
		<stop  offset="0.1" style="stop-color:#FFFFFF;stop-opacity:0.7"/>
		<stop  offset="1" style="stop-color:#BCBEC0;stop-opacity:0.3"/>
	</linearGradient>
	<polygon class="st5" points="11.7,2.1 10.3,2.1 3.3,22 4.7,22 	"/>
	
		<linearGradient id="SVGID_8_" gradientUnits="userSpaceOnUse" x1="1.2762" y1="2.0915" x2="1.2762" y2="22" gradientTransform="matrix(-1 0 0 1 15.7462 0)">
		<stop  offset="0.1" style="stop-color:#FFFFFF;stop-opacity:0.7"/>
		<stop  offset="1" style="stop-color:#BCBEC0;stop-opacity:0.3"/>
	</linearGradient>
	<polygon class="st6" points="10.3,2.1 11.7,2.1 18.7,22 17.3,22 	"/>
	<path class="st7" d="M13.2,2.6H9c-0.6,0-1-0.5-1-1V1.3c0-0.6,0.5-1,1-1h4.2c0.6,0,1,0.5,1,1v0.3C14.2,2.2,13.8,2.6,13.2,2.6z"/>
</g>
<g id="Layer_1" class="st8">
	<g class="st9">
		<path class="st10" d="M8.5,10.4C8.3,10.1,7.9,9.7,7.7,9C7.5,8.5,7.5,8.1,7.5,8c0-1,0.4-1.8,1-2.5c0.6-0.6,1.5-1,2.5-1
			s1.8,0.4,2.5,1c0.6,0.6,1,1.5,1,2.5c0,0.4-0.1,0.7-0.2,1c-0.2,0.8-0.7,1.2-0.9,1.4c-1.1,1.3-0.8,3.3-0.8,3.3l-3.4,0
			C9.3,13.8,9.5,11.8,8.5,10.4z"/>
		<polygon class="st11" points="13.9,16.1 12.4,17.5 11,17.5 9.6,17.5 8.1,16.1 8.5,15.7 8.1,15.3 8.5,14.9 8.1,14.5 9.6,14.5 
			11,14.5 12.4,14.5 13.9,14.5 13.5,14.9 13.9,15.3 13.5,15.7 		"/>
	</g>
</g>
</svg>
