<?xml version="1.0" encoding="utf-8"?>
<!-- Generator: Adobe Illustrator 25.2.0, SVG Export Plug-In . SVG Version: 6.00 Build 0)  -->
<svg version="1.1" xmlns="http://www.w3.org/2000/svg" xmlns:xlink="http://www.w3.org/1999/xlink" x="0px" y="0px"
	 viewBox="0 0 22 22" style="enable-background:new 0 0 22 22;" xml:space="preserve">
<style type="text/css">
	.st0{fill:#FF0000;}
	.st1{fill:#29ABE2;stroke:#29ABE2;stroke-miterlimit:10;}
	.st2{fill:none;stroke:#000000;stroke-width:2;stroke-miterlimit:10;}
	.st3{stroke:#000000;stroke-width:2;stroke-miterlimit:10;}
	.st4{fill:#C1272D;}
</style>
<g id="Layer_3">
	<rect width="22" height="22"/>
</g>
<g id="Layer_4">
	<g>
		<path class="st0" d="M21.8,0.2v21.5H0.2V0.2H21.8 M22,0H0v22h22V0L22,0z"/>
	</g>
</g>
<g id="Layer_1">
	<ellipse class="st1" cx="12.2" cy="9.2" rx="8.3" ry="8.1"/>
	<path class="st1" d="M12.2,17c-4.3,0-8.4,1.3-10.5,3c0,0.9,0,0.4,0,1c3.2,0,4.2,0,7.7,0h6.7h3.4c1.4,0,0.7,0,2,0c0-0.5,0,0.1,0-0.6
		C19.5,18.5,16.8,17,12.2,17z"/>
	<line class="st2" x1="4.6" y1="6.9" x2="19.7" y2="6.9"/>
	<ellipse class="st3" cx="8.8" cy="6.7" rx="1.2" ry="1.2"/>
	<ellipse class="st3" cx="16.6" cy="11.4" rx="1.2" ry="1.2"/>
	<line class="st2" x1="4.6" y1="11.3" x2="19.7" y2="11.3"/>
</g>
<g id="Layer_2">
	<rect class="st4" width="3.5" height="22"/>
</g>
</svg>
