<?xml version="1.0" encoding="utf-8"?>
<!-- Generator: Adobe Illustrator 25.2.0, SVG Export Plug-In . SVG Version: 6.00 Build 0)  -->
<svg version="1.1" xmlns="http://www.w3.org/2000/svg" xmlns:xlink="http://www.w3.org/1999/xlink" x="0px" y="0px"
	 viewBox="0 0 22 22" style="enable-background:new 0 0 22 22;" xml:space="preserve">
<style type="text/css">
	.st0{fill:#FF0000;}
	.st1{fill:#1A5D76;}
	.st2{fill:#2CA9E1;stroke:#1A5D76;stroke-miterlimit:10;}
	.st3{fill:#C1272D;}
</style>
<g id="Layer_3">
	<rect width="22" height="22"/>
</g>
<g id="Layer_4">
	<g>
		<path class="st0" d="M21.8,0.2v21.5H0.2V0.2H21.8 M22,0H0v22h22V0L22,0z"/>
	</g>
</g>
<g id="Layer_1">
	<g>
		<polygon class="st1" points="13,11.6 9.6,17.5 16.4,17.5 		"/>
		<rect x="6.6" y="16.5" class="st1" width="13" height="2"/>
		<path class="st2" d="M19.6,13.5H5.6c-0.5,0-1-0.4-1-1V4.5c0-0.5,0.4-1,1-1h14.1c0.5,0,1,0.4,1,1v8.1
			C20.6,13.1,20.2,13.5,19.6,13.5z"/>
	</g>
</g>
<g id="Layer_2">
	<rect class="st3" width="3.5" height="22"/>
</g>
</svg>
