<?xml version="1.0" encoding="utf-8"?>
<!-- Generator: Adobe Illustrator 25.2.0, SVG Export Plug-In . SVG Version: 6.00 Build 0)  -->
<svg version="1.1" xmlns="http://www.w3.org/2000/svg" xmlns:xlink="http://www.w3.org/1999/xlink" x="0px" y="0px"
	 viewBox="0 0 22 22" style="enable-background:new 0 0 22 22;" xml:space="preserve">
<style type="text/css">
	.st0{fill:#FF0000;}
	.st1{fill:none;stroke:#29ABE2;stroke-width:5;stroke-miterlimit:10;}
	.st2{fill:#29ABE2;stroke:#29ABE2;stroke-miterlimit:10;}
	.st3{fill:#C1272D;}
</style>
<g id="Layer_3">
	<rect width="22" height="22"/>
</g>
<g id="Layer_4">
	<g>
		<path class="st0" d="M21.8,0.2v21.5H0.2V0.2H21.8 M22,0H0v22h22V0L22,0z"/>
	</g>
</g>
<g id="Layer_1">
	<circle class="st1" cx="12.5" cy="11.2" r="4.2"/>
	<rect x="10.9" y="2.8" class="st2" width="3.2" height="4"/>
	<rect x="4.9" y="9.2" transform="matrix(4.553697e-11 -1 1 4.553697e-11 -4.7303 17.6717)" class="st2" width="3.2" height="4"/>
	<rect x="10.9" y="15.2" transform="matrix(-1 4.581923e-11 -4.581923e-11 -1 25 34.4605)" class="st2" width="3.2" height="4"/>
	
		<rect x="16.9" y="9.2" transform="matrix(-1.131723e-12 1 -1 -1.131723e-12 29.7303 -7.3283)" class="st2" width="3.2" height="4"/>
	<rect x="6.5" y="4.6" transform="matrix(0.7071 -0.7071 0.7071 0.7071 -2.2922 7.6552)" class="st2" width="3.2" height="4"/>
	<rect x="6.8" y="13.4" transform="matrix(-0.7071 -0.7071 0.7071 -0.7071 3.4101 32.2235)" class="st2" width="3.2" height="4"/>
	<rect x="15.3" y="13.4" transform="matrix(-0.7071 0.7071 -0.7071 -0.7071 39.7528 14.3448)" class="st2" width="3.2" height="4"/>
	<rect x="15.3" y="4.9" transform="matrix(0.7071 0.7071 -0.7071 0.7071 9.8155 -9.9392)" class="st2" width="3.2" height="4"/>
</g>
<g id="Layer_2">
	<rect class="st3" width="3.5" height="22"/>
</g>
</svg>
