<?xml version="1.0" encoding="utf-8"?>
<!-- Generator: Adobe Illustrator 25.2.0, SVG Export Plug-In . SVG Version: 6.00 Build 0)  -->
<svg version="1.1" xmlns="http://www.w3.org/2000/svg" xmlns:xlink="http://www.w3.org/1999/xlink" x="0px" y="0px"
	 viewBox="0 0 22 22" style="enable-background:new 0 0 22 22;" xml:space="preserve">
<style type="text/css">
	.st0{fill:#FF0000;}
	.st1{fill:#29ABE2;stroke:url(#SVGID_1_);stroke-linecap:round;stroke-linejoin:round;stroke-miterlimit:10;}
	.st2{fill:#C1272D;}
</style>
<g id="Layer_3">
	<rect width="22" height="22"/>
</g>
<g id="Layer_4">
	<g>
		<path class="st0" d="M21.8,0.2v21.5H0.2V0.2H21.8 M22,0H0v22h22V0L22,0z"/>
	</g>
</g>
<g id="Layer_1">
	
		<linearGradient id="SVGID_1_" gradientUnits="userSpaceOnUse" x1="-1.3281" y1="21.368" x2="9.5429" y2="21.368" gradientTransform="matrix(-0.2017 1.3025 1.3025 0.2017 -14.1767 3.2475)">
		<stop  offset="0" style="stop-color:#0000FF"/>
		<stop  offset="0.9888" style="stop-color:#00FFFF"/>
	</linearGradient>
	<path class="st1" d="M9,2.4c-0.2,0.2,2.3,3.3,5.5,7 M9,2.4C6,5,4.5,8.2,5.7,9.5c1.8,2,4,3,4.9,2.2c0.4-0.3,0.9-0.3,1.2,0
		c0.3,0.3,0.2,0.9-0.1,1.2c-0.9,0.8-0.2,3.1,1.5,5.1c1.2,1.3,4.6,0.3,7.5-2.3c-0.2,0.2-3-2.7-6.2-6.4"/>
</g>
<g id="Layer_2">
	<rect class="st2" width="3.5" height="22"/>
</g>
</svg>
