<?xml version="1.0" encoding="utf-8"?>
<!-- Generator: Adobe Illustrator 25.2.0, SVG Export Plug-In . SVG Version: 6.00 Build 0)  -->
<svg version="1.1" xmlns="http://www.w3.org/2000/svg" xmlns:xlink="http://www.w3.org/1999/xlink" x="0px" y="0px"
	 viewBox="0 0 22 22" style="enable-background:new 0 0 22 22;" xml:space="preserve">
<style type="text/css">
	.st0{fill:#FF0000;}
	.st1{fill:#185266;}
	.st2{fill:#1B1464;}
	.st3{fill:#29ABE2;}
	.st4{fill:#C1272D;}
</style>
<g id="Layer_3">
	<rect width="22" height="22"/>
</g>
<g id="Layer_4">
	<g>
		<path class="st0" d="M21.8,0.2v21.5H0.2V0.2H21.8 M22,0H0v22h22V0L22,0z"/>
	</g>
</g>
<g id="Layer_1">
	<g>
		<polygon class="st1" points="3,15.6 11,11.2 18.9,15.6 11,19.9 		"/>
		<path class="st2" d="M11,11.8l4,2.2l2.9,1.6L15,17.1l-4,2.2l-4-2.2l-2.9-1.6L7,14L11,11.8 M11,10.6l-4.5,2.5L2,15.6L6.5,18
			l4.5,2.5l4.5-2.5l4.5-2.5l-4.5-2.5L11,10.6L11,10.6z"/>
	</g>
	<g>
		<polygon class="st3" points="4.7,12.5 12.7,8.2 20.6,12.5 12.7,16.9 		"/>
		<path class="st3" d="M12.7,8.7l4,2.2l2.9,1.6l-2.9,1.6l-4,2.2l-4-2.2l-2.9-1.6l2.9-1.6L12.7,8.7 M12.7,7.6l-4.5,2.5l-4.5,2.5
			L8.2,15l4.5,2.5l4.5-2.5l4.5-2.5l-4.5-2.5L12.7,7.6L12.7,7.6z"/>
	</g>
	<g>
		<polygon class="st1" points="3,9.5 11,5.1 18.9,9.5 11,13.8 		"/>
		<path class="st2" d="M11,5.7l4,2.2l2.9,1.6L15,11.1l-4,2.2l-4-2.2L4.1,9.5L7,7.9L11,5.7 M11,4.6L6.5,7L2,9.5l4.5,2.5l4.5,2.5
			l4.5-2.5L20,9.5L15.5,7L11,4.6L11,4.6z"/>
	</g>
	<g>
		<polygon class="st1" points="3,6.4 11,2.1 18.9,6.4 11,10.8 		"/>
		<path class="st2" d="M11,2.7l4,2.2l2.9,1.6L15,8l-4,2.2L7,8L4.1,6.4L7,4.9L11,2.7 M11,1.5L6.5,4L2,6.4l4.5,2.5l4.5,2.5l4.5-2.5
			L20,6.4L15.5,4L11,1.5L11,1.5z"/>
	</g>
</g>
<g id="Layer_2">
	<rect class="st4" width="3.5" height="22"/>
</g>
</svg>
