<?xml version="1.0" encoding="utf-8"?>
<!-- Generator: Adobe Illustrator 25.2.0, SVG Export Plug-In . SVG Version: 6.00 Build 0)  -->
<svg version="1.1" xmlns="http://www.w3.org/2000/svg" xmlns:xlink="http://www.w3.org/1999/xlink" x="0px" y="0px"
	 viewBox="0 0 22 22" style="enable-background:new 0 0 22 22;" xml:space="preserve">
<style type="text/css">
	.st0{fill:#FF0000;}
	.st1{fill:#29ABE2;}
	.st2{fill:#29ABE2;stroke:#000000;stroke-width:2;stroke-miterlimit:10;}
	.st3{fill:#C1272D;}
</style>
<g id="Layer_3">
	<rect width="22" height="22"/>
</g>
<g id="Layer_4">
	<g>
		<path class="st0" d="M21.8,0.2v21.5H0.2V0.2H21.8 M22,0H0v22h22V0L22,0z"/>
	</g>
</g>
<g id="Layer_1">
	<g>
		<rect x="4" y="2.5" class="st1" width="17" height="17"/>
		<path class="st1" d="M20.5,3v16h-16V3H20.5 M21.5,2h-18v18h18V2L21.5,2z"/>
	</g>
	<circle class="st2" cx="12.5" cy="11" r="7.7"/>
	<g>
		<polygon points="8.7,14.2 12.5,7.5 16.3,14.2 		"/>
		<path d="M12.5,8.5l2.9,5.2H9.6L12.5,8.5 M12.5,6.4l-4.6,8.2h9.3L12.5,6.4L12.5,6.4z"/>
	</g>
</g>
<g id="Layer_2">
	<rect class="st3" width="3.5" height="22"/>
</g>
</svg>
