<?xml version="1.0" encoding="utf-8"?>
<!-- Generator: Adobe Illustrator 25.2.0, SVG Export Plug-In . SVG Version: 6.00 Build 0)  -->
<svg version="1.1" xmlns="http://www.w3.org/2000/svg" xmlns:xlink="http://www.w3.org/1999/xlink" x="0px" y="0px"
	 viewBox="0 0 22 22" style="enable-background:new 0 0 22 22;" xml:space="preserve">
<style type="text/css">
	.st0{fill:#010101;}
	.st1{fill:#ED2224;}
	.st2{fill:#C1282D;}
	.st3{fill:#185D76;}
	.st4{fill:#29AAE2;}
	.st5{fill:#1B5367;}
</style>
<g id="Layer_1">
	<rect class="st0" width="22" height="22"/>
	<g>
		<path class="st1" d="M21.8,0.2v21.5H0.2V0.2H21.8 M22,0H0v22h22V0L22,0z"/>
	</g>
	<rect class="st2" width="3.5" height="22"/>
</g>
<g id="Layer_2">
	<g>
		<path class="st3" d="M5.3,20.1c0-0.2,0.1-0.5,0.1-0.8c0.1-0.4,0.1-0.7,0.1-0.9c0-0.3,0.7-1.4,1-1.9L15,5.4
			c0.2-0.2,0.5-0.4,0.8-0.5c0.1,0,0.1,0,0.2,0c0.3,0,0.5,0.1,0.7,0.2c0.3,0.2,0.4,0.5,0.5,0.8c0,0.3,0,0.6-0.2,0.9L8.4,18
			c-0.3,0.4-1.3,1.4-1.6,1.4c-0.2,0-0.5,0.1-0.8,0.3C5.8,19.9,5.5,20,5.3,20.1z"/>
		<path class="st4" d="M15.9,5.4c0.1,0,0.3,0,0.4,0.1c0.1,0.1,0.2,0.3,0.3,0.5c0,0.2,0,0.4-0.1,0.5l-4.2,5.6L8,17.7
			c-0.2,0.3-1,1.1-1.3,1.3c-0.2,0.1-0.5,0.2-0.7,0.3C6,18.9,6,18.7,6,18.5c0.1-0.3,0.6-1.3,0.9-1.6l4.2-5.6l4.2-5.6
			C15.5,5.5,15.7,5.5,15.9,5.4C15.9,5.4,15.9,5.4,15.9,5.4 M15.9,4.4c-0.1,0-0.2,0-0.2,0c-0.4,0.1-0.8,0.3-1.1,0.6l-4.2,5.6
			l-4.2,5.6C5.8,16.6,4.9,18,5,18.5c0.1,0.4-0.5,1.8-0.1,2.1c0.1,0,0.1,0.1,0.2,0.1c0.5,0,1.4-0.7,1.8-0.7c0.4-0.1,1.6-1.3,1.9-1.6
			l4.2-5.6l4.2-5.6c0.3-0.4,0.4-0.8,0.3-1.2c-0.1-0.4-0.3-0.8-0.6-1.1C16.6,4.5,16.3,4.4,15.9,4.4L15.9,4.4z"/>
	</g>
	<g>
		<path class="st4" d="M17.6,8c-0.4,0-0.7-0.1-1-0.3l-2.3-1.7c-0.8-0.6-0.9-1.7-0.3-2.4c0.3-0.4,0.8-0.7,1.4-0.7
			c0.3,0,0.6,0.1,0.9,0.2c0.1,0,0.1,0.1,0.2,0.1l2.3,1.7c0,0,0.1,0.1,0.1,0.1c0.7,0.7,0.8,1.7,0.2,2.4C18.7,7.7,18.2,8,17.6,8z"/>
		<path class="st4" d="M15.3,3.3L15.3,3.3c0.2,0,0.4,0.1,0.6,0.2l0.1,0l0,0l0,0l2.3,1.7l0,0l0,0l0.1,0.1C18.9,5.8,19,6.5,18.6,7
			c-0.2,0.3-0.6,0.5-1,0.5c-0.3,0-0.5-0.1-0.7-0.2l-2.3-1.7c-0.5-0.4-0.6-1.2-0.2-1.7C14.6,3.4,14.9,3.3,15.3,3.3 M15.3,2.3
			c-0.7,0-1.3,0.3-1.8,0.9c-0.7,1-0.5,2.4,0.4,3.1L16.3,8c0.4,0.3,0.9,0.5,1.3,0.5c0.7,0,1.3-0.3,1.8-0.9c0.7-0.9,0.6-2.2-0.2-3
			c-0.1-0.1-0.1-0.1-0.2-0.2l-2.3-1.7c-0.1-0.1-0.1-0.1-0.2-0.1C16.1,2.4,15.7,2.3,15.3,2.3L15.3,2.3z"/>
	</g>
	<g>
		<path class="st5" d="M17.2,2.5C17.6,2.2,18,2,18.3,2c0.2,0,0.4,0.1,0.6,0.2c0.4,0.3,0.5,1,0.2,1.7L17.2,2.5z"/>
		<path class="st4" d="M18.3,2.5c0.1,0,0.2,0,0.3,0.1c0.1,0.1,0.2,0.3,0.2,0.4l-0.6-0.5C18.2,2.5,18.3,2.5,18.3,2.5 M18.3,1.5
			c-0.6,0-1.3,0.4-1.8,1c0,0,0,0,0,0c0.1,0,0.2,0.1,0.2,0.1L19,4.5c0.1,0.1,0.1,0.1,0.2,0.2c0,0,0,0,0,0c0.7-1,0.7-2.2,0-2.8
			C18.9,1.6,18.6,1.5,18.3,1.5L18.3,1.5z"/>
	</g>
</g>
</svg>
