<svg xmlns="http://www.w3.org/2000/svg" viewBox="0 0 22 22"><defs><style>.cls-1{fill:red;}.cls-2{fill:#29abe2;}.cls-3{fill:#c1272d;}</style></defs><g id="Layer_3" data-name="Layer 3"><rect width="22" height="22"/></g><g id="Layer_4" data-name="Layer 4"><path class="cls-1" d="M21.75.25v21.5H.25V.25h21.5M22,0H0V22H22V0Z"/></g><g id="Layer_1" data-name="Layer 1"><path class="cls-2" d="M10.74,8A4.26,4.26,0,0,1,9.38,9.7,2.48,2.48,0,0,1,7.23,10,3.65,3.65,0,0,1,4.75,6.59a4.71,4.71,0,0,1,2.3-3.73,4.32,4.32,0,0,1,2.2-.69,6.08,6.08,0,0,1,2.24.44,9.72,9.72,0,0,1,3.63,2.56c.5.55.93,1.13,1.38,1.61a3,3,0,0,0,1.47,1,2.14,2.14,0,0,0,1.66-.42,2,2,0,0,0,.69-1.59A5.73,5.73,0,0,0,18.77,2L18.83,2A5.51,5.51,0,0,1,21,5.73a3.1,3.1,0,0,1-.11,1.2A2.49,2.49,0,0,1,20.17,8a3,3,0,0,1-2.33.75,2.42,2.42,0,0,1-1.2-.48,6.42,6.42,0,0,1-.89-.75c-.54-.56-.93-1.15-1.38-1.67a8.93,8.93,0,0,0-3.19-2.47,4,4,0,0,0-3.78.05A4.2,4.2,0,0,0,5.25,6.6,3.28,3.28,0,0,0,7.32,9.75a2.28,2.28,0,0,0,1.95-.22A4.05,4.05,0,0,0,10.65,8Z"/><path class="cls-2" d="M11.33,6c.44.26.95.53,1.51.79s1.16.6,1.72.94l0,0,0,0a4.09,4.09,0,0,1,.75,1.67,16.64,16.64,0,0,1,.31,1.66,15,15,0,0,1,0,3.35,19.15,19.15,0,0,1-.61,3.28,6.4,6.4,0,0,1-1.59,3l0,0h-.09l-2,.14-1,.06.83-.72a7.33,7.33,0,0,0,2-3.06,10.24,10.24,0,0,0,.41-3.71,14,14,0,0,0-.76-3.76A32.36,32.36,0,0,0,11.33,6ZM11.4,6a13.15,13.15,0,0,1,2.13,3.36,12.56,12.56,0,0,1,1.1,3.95,7.91,7.91,0,0,1-3.07,7.46l-.19-.66,2,.14-.15,0a4.7,4.7,0,0,0,1.57-2.7,12,12,0,0,0,.26-3.22c0-1.08-.15-2.15-.26-3.22-.06-.53-.14-1.06-.24-1.58a4.26,4.26,0,0,0-.44-1.36l.06.05c-.44-.33-.84-.67-1.28-1.06A16.23,16.23,0,0,0,11.4,6Z"/></g><g id="Layer_2" data-name="Layer 2"><rect class="cls-3" width="3.5" height="22"/></g></svg>