<?xml version="1.0" encoding="utf-8"?>
<!-- Generator: Adobe Illustrator 25.2.0, SVG Export Plug-In . SVG Version: 6.00 Build 0)  -->
<svg version="1.1" xmlns="http://www.w3.org/2000/svg" xmlns:xlink="http://www.w3.org/1999/xlink" x="0px" y="0px"
	 viewBox="0 0 22 22" style="enable-background:new 0 0 22 22;" xml:space="preserve">
<style type="text/css">
	.st0{fill:#FF0000;}
	.st1{fill:#29ABE2;}
	.st2{fill:#C1272D;}
</style>
<g id="Layer_3">
	<rect width="22" height="22"/>
</g>
<g id="Layer_4">
	<g>
		<path class="st0" d="M21.8,0.2v21.5H0.2V0.2H21.8 M22,0H0v22h22V0L22,0z"/>
	</g>
</g>
<g id="Layer_1">
	<g>
		<path class="st1" d="M10.7,8C10.4,8.7,10,9.3,9.4,9.7C8.8,10.1,8,10.3,7.2,10C5.8,9.6,4.8,8.1,4.8,6.6c0-1.6,1.1-2.9,2.3-3.7
			c0.6-0.4,1.4-0.7,2.2-0.7c0.8,0,1.5,0.2,2.2,0.4c1.4,0.5,2.6,1.5,3.6,2.6c0.5,0.6,0.9,1.1,1.4,1.6c0.5,0.5,1,0.9,1.5,1
			c0.5,0.1,1.2-0.1,1.7-0.4c0.5-0.4,0.7-0.9,0.7-1.6c0-1.3-0.6-2.7-1.6-3.7L18.8,2c1.1,0.9,2,2.2,2.1,3.8c0,0.4,0,0.8-0.1,1.2
			c-0.1,0.4-0.4,0.8-0.7,1.1c-0.6,0.6-1.5,0.8-2.3,0.8c-0.4,0-0.9-0.3-1.2-0.5C16.3,8,16,7.8,15.8,7.5c-0.5-0.6-0.9-1.1-1.4-1.7
			c-0.9-1-2-1.9-3.2-2.5C10,2.8,8.5,2.7,7.4,3.4C6.3,4.1,5.3,5.3,5.3,6.6C5.2,7.9,6,9.3,7.3,9.7C8,10,8.7,9.9,9.3,9.5
			C9.9,9.2,10.3,8.6,10.7,8L10.7,8z"/>
	</g>
	<g>
		<path class="st1" d="M11.3,6c0.4,0.3,1,0.5,1.5,0.8C13.4,7,14,7.4,14.6,7.7l0,0l0,0c0.5,0.6,0.6,1.1,0.7,1.7
			c0.1,0.6,0.2,1.1,0.3,1.7c0.1,1.1,0.1,2.2,0,3.3c-0.1,1.1-0.3,2.2-0.6,3.3c-0.3,1.1-0.7,2.1-1.6,3l0,0l-0.1,0l-2,0.1l-1,0.1
			l0.8-0.7c0.9-0.8,1.6-1.9,2-3.1c0.4-1.2,0.5-2.4,0.4-3.7c-0.1-1.3-0.3-2.5-0.8-3.8C12.4,8.4,11.9,7.3,11.3,6z M11.4,6
			c0.9,0.9,1.5,2.2,2.1,3.4c0.6,1.2,1,2.6,1.1,4c0.3,2.7-0.7,5.8-3.1,7.5l-0.2-0.7l2,0.1l-0.1,0.1c0.8-0.6,1.3-1.7,1.6-2.7
			c0.3-1.1,0.3-2.1,0.3-3.2c0-1.1-0.1-2.2-0.3-3.2c-0.1-0.5-0.1-1.1-0.2-1.6c-0.1-0.5-0.3-1.1-0.4-1.4l0.1,0
			c-0.4-0.3-0.8-0.7-1.3-1.1C12.5,6.8,12,6.4,11.4,6z"/>
	</g>
</g>
<g id="Layer_2">
	<rect class="st2" width="3.5" height="22"/>
</g>
</svg>
