<?xml version="1.0" encoding="UTF-8"?>
<svg width="22px" height="22px" viewBox="0 0 22 22" version="1.1" xmlns="http://www.w3.org/2000/svg" xmlns:xlink="http://www.w3.org/1999/xlink">
    <title>Interaction</title>
    <defs>
        <linearGradient x1="50%" y1="0%" x2="50%" y2="100%" id="linearGradient-1">
            <stop stop-color="#32E27F" offset="0%"></stop>
            <stop stop-color="#00C88C" offset="48.8202069%"></stop>
            <stop stop-color="#19AC8A" offset="100%"></stop>
        </linearGradient>
    </defs>
    <g id="Page-1" stroke="none" stroke-width="1" fill="none" fill-rule="evenodd">
        <rect id="Rectangle" x="0" y="0" width="22" height="22"></rect>
        <path d="M8.07011252,1 C9.05053868,1 9.84718745,1.81257313 9.86302239,2.82116074 L9.86326262,6.24063333 L9.86687802,6.23948929 C10.0203242,6.19226396 10.1821343,6.16507989 10.3494612,6.16087717 L10.3952305,6.16030297 C10.9304451,6.16030297 11.412488,6.39540231 11.7498076,6.77105586 L11.759985,6.78248222 L11.7732544,6.79773618 L11.7771602,6.79510122 C12.0536148,6.61167959 12.3805244,6.5023103 12.7316218,6.4941195 L12.7436003,6.4938795 L12.7741429,6.49362397 C13.5113254,6.49362397 14.1476348,6.9396348 14.4438461,7.5846091 L14.4527179,7.60421442 L14.459704,7.62021193 L14.4607619,7.61975552 C14.6617125,7.53579711 14.8802307,7.48729865 15.1090415,7.48177272 L15.1530554,7.48124176 C16.1628944,7.48124176 16.9834426,8.31819208 16.9997526,9.35703732 L17,9.38857862 L17,14.0550727 L16.999,14.078 L17,16.0488261 C16.9925244,16.0501222 16.9925203,16.051481 16.9925119,16.0528408 C16.9802416,18.0373711 16.2454899,19.2285439 14.7919887,19.3140567 L14.6210876,19.318999 L8.54828588,19.318999 C7.48637804,19.318999 6.61148562,18.8711862 5.98354449,18.0075852 C5.95781476,17.9721993 5.93617485,17.935088 5.91853566,17.8968151 L4.39100002,15.251 L4.38300002,15.256 L4.05600002,14.671 L2.77569372,12.4540262 L2.80700002,12.436 L2.24053599,11.4225145 C1.74537126,10.5368202 2.03922401,9.40428727 2.89687448,8.89293142 C3.74594844,8.38668912 4.82928878,8.6790491 5.33132851,9.54433524 L5.34636307,9.57073117 L6.27696242,11.2352634 L6.27696242,2.85178336 C6.27696242,1.83929877 7.06380693,1.0166008 8.0404595,1.00024809 L8.07011252,1 Z M8.07011252,2.35797447 C7.80866554,2.35797447 7.59622587,2.57466063 7.59193916,2.84361733 L7.59193916,13.76496 C7.59193916,14.1399543 7.29757159,14.4439472 6.93445079,14.4439472 C6.68229461,14.4439472 6.46329199,14.2973585 6.35299078,14.0821993 L6.35000002,14.083 L4.20755981,10.2497184 C4.07551588,10.0135332 3.78306964,9.93261024 3.55436285,10.0689718 C3.32794313,10.2039697 3.24887757,10.5013185 3.375441,10.7364222 L3.37933925,10.7435273 L5.52200002,14.577 L5.52100002,14.577 L7.11817308,17.3419577 L7.11300002,17.344 L7.14221422,17.3801392 C7.47167305,17.7706733 7.87209998,17.9757224 8.37632242,18.0128269 L8.54828588,18.018999 L14.6210876,18.018999 C15.3272508,18.018999 15.6829936,17.4785527 15.6924977,16.048922 L15.6850233,16.0488261 L15.6850233,9.38857862 C15.6850233,9.08517415 15.4468532,8.83921623 15.1530554,8.83921623 C14.8621957,8.83921623 14.6258565,9.08027959 14.6211588,9.37949391 L14.6210876,10.6754628 C14.6210876,11.0385836 14.32672,11.3329512 13.9635992,11.3329512 C13.6004784,11.3329512 13.3061108,11.0385836 13.3061108,10.6754628 L13.3061108,8.40096083 C13.3061108,8.09755636 13.0679407,7.85159843 12.7741429,7.85159843 C12.4832832,7.85159843 12.246944,8.09266179 12.2422464,8.39187612 L12.2421751,10.6754628 C12.2421751,11.0385836 11.9478075,11.3329512 11.5846867,11.3329512 C11.2215659,11.3329512 10.9271983,11.0385836 10.9271983,10.6754628 L10.9271983,8.06763983 C10.9271983,7.76423535 10.6890282,7.51827743 10.3952305,7.51827743 C10.1043707,7.51827743 9.86803158,7.75934079 9.86333389,8.05855511 L9.86326262,10.6754628 C9.86326262,11.0385836 9.56889505,11.3329512 9.20577425,11.3329512 C8.84265345,11.3329512 8.54828588,11.0385836 8.54828588,10.6754628 L8.54828588,2.85178336 C8.54828588,2.57906024 8.33420037,2.35797447 8.07011252,2.35797447 Z" id="Combined-Shape" stroke="url(#linearGradient-1)" stroke-width="0.75" fill="url(#linearGradient-1)" fill-rule="nonzero" transform="translate(9.500000, 10.159499) rotate(-30.000000) translate(-9.500000, -10.159499) "></path>
    </g>
</svg>