<?xml version="1.0" encoding="utf-8"?>
<!-- Generator: Adobe Illustrator 25.2.0, SVG Export Plug-In . SVG Version: 6.00 Build 0)  -->
<svg version="1.1" xmlns="http://www.w3.org/2000/svg" xmlns:xlink="http://www.w3.org/1999/xlink" x="0px" y="0px"
	 viewBox="0 0 22 22" style="enable-background:new 0 0 22 22;" xml:space="preserve">
<style type="text/css">
	.st0{stroke:#F1F2F2;stroke-width:0.5;stroke-miterlimit:10;}
	.st1{fill:#FFF200;stroke:#FFF200;stroke-miterlimit:10;}
	.st2{fill:none;}
	.st3{font-family:'Calibri';}
	.st4{font-size:14px;}
</style>
<g id="Layer_1">
	<path class="st0" d="M17.6,21.4H2.9C2.4,21.4,2,21,2,20.5V1.5C2,1,2.4,0.6,2.9,0.6h14.7c0.5,0,0.9,0.4,0.9,0.9v18.9
		C18.5,21,18.1,21.4,17.6,21.4z"/>
	<path class="st0" d="M5.5,21.4h-3c-0.3,0-0.6-0.2-0.6-0.6V1.2c0-0.3,0.2-0.6,0.6-0.6h3V21.4z"/>
	<rect x="2" y="7.4" class="st0" width="3.5" height="8"/>
	<polygon class="st1" points="8.9,15.5 16.4,15.5 16.4,11 16.4,6.5 11.9,6.5 7.4,6.5 7.4,13.5 	"/>
</g>
<g id="Layer_2">
	<rect x="8.7" y="6.1" class="st2" width="6.7" height="10.2"/>
	<text transform="matrix(1 0 0 1 9.8026 15.6006)" class="st3 st4">!</text>
</g>
</svg>
