<?xml version="1.0" encoding="utf-8"?>
<!-- Generator: Adobe Illustrator 25.2.0, SVG Export Plug-In . SVG Version: 6.00 Build 0)  -->
<svg version="1.1" id="Layer_1" xmlns="http://www.w3.org/2000/svg" xmlns:xlink="http://www.w3.org/1999/xlink" x="0px" y="0px"
	 viewBox="0 0 22 22" style="enable-background:new 0 0 22 22;" xml:space="preserve">
<style type="text/css">
	.st0{fill:#EAE77D;stroke:#A59629;stroke-width:3;stroke-miterlimit:10;}
	.st1{fill:#515151;}
</style>
<path class="st0" d="M7,10.9c-0.4-0.6-1-1.1-1.4-2.2C5.4,7.9,5.4,7.3,5.4,7C5.4,5.5,6,4.1,7,3.2s2.4-1.6,3.9-1.6s2.9,0.6,3.9,1.6
	c1,1,1.6,2.4,1.6,3.9c0,0.6-0.1,1.1-0.2,1.6c-0.4,1.2-1.1,1.9-1.4,2.2c-1.7,2-1.3,5.2-1.3,5.2l-5.3,0.1C8.2,16.1,8.5,13,7,10.9z"/>
<polygon class="st1" points="15.3,19.8 13.1,22 10.8,22 8.6,22 6.3,19.8 6.8,19.2 6.3,18.6 6.8,17.9 6.3,17.3 8.6,17.3 10.8,17.3 
	13.1,17.3 15.3,17.3 14.8,17.9 15.3,18.6 14.8,19.2 "/>
</svg>
