<svg xmlns="http://www.w3.org/2000/svg" viewBox="0 0 22 22"><defs><style>.cls-1,.cls-3{fill:#eae77d;}.cls-1{stroke:#a59629;stroke-miterlimit:10;stroke-width:2.788px;}.cls-2{fill:#515151;}</style></defs><g id="Layer_3" data-name="Layer 3"><rect width="22" height="22"/></g><g id="Layer_1" data-name="Layer 1"><path class="cls-1" d="M7.406,11.676a6.356,6.356,0,0,1-1.26-2.083,5.19,5.19,0,0,1-.228-1.511,5.082,5.082,0,1,1,9.936,1.511,5.615,5.615,0,0,1-1.26,2.083c-1.547,1.821-1.185,4.836-1.185,4.836l-4.914.048A8.22,8.22,0,0,0,7.406,11.676Z" transform="translate(0 0)"/><polygon class="cls-2" points="15.181 19.971 13.091 22 11 22 8.909 22 6.819 19.971 7.316 19.386 6.819 18.802 7.316 18.217 6.819 17.633 8.909 17.633 11 17.633 13.091 17.633 15.181 17.633 14.684 18.217 15.181 18.802 14.684 19.386 15.181 19.971"/></g><g id="Layer_2" data-name="Layer 2"><polygon class="cls-3" points="22 0 13.635 0 22 8.365 22 0"/><polygon class="cls-3" points="0 0 8.365 0 0 8.365 0 0"/><polygon class="cls-3" points="22 22 13.635 22 22 13.635 22 22"/><polygon class="cls-3" points="0 22 8.365 22 0 13.635 0 22"/></g></svg>