<svg id="Layer_1" data-name="Layer 1" xmlns="http://www.w3.org/2000/svg" viewBox="0 0 21 21.8"><defs><style>.cls-1{fill:#fff;}.cls-2{fill:#29abe2;}.cls-3{fill:none;stroke:#000;stroke-miterlimit:10;}</style></defs><polygon class="cls-1" points="0.5 15.9 0.5 5.8 10 10.6 10 21 0.5 15.9"/><path class="cls-2" d="M1.5,6.8,10,11.1v9.3L1.5,15.9V6.8M.5,5.133V16.4L11,22V10.4L.5,5.133Z" transform="translate(-0.5 -0.2)"/><polygon class="cls-1" points="11 10.6 20.5 5.9 20.5 15.9 11 21 11 10.6"/><path class="cls-2" d="M20.5,6.9v8.9L12,20.3V11l8.5-4.1m1-1.6L11,10.4V22l10.5-5.6V5.3Z" transform="translate(-0.5 -0.2)"/><polygon class="cls-1" points="1.2 5 11.5 0.5 19.9 5.1 10.5 9.7 1.2 5"/><path class="cls-2" d="M12,1.3l7.3,4L11,9.3,2.9,5.2,12,1.3M12.1.2.5,5.133,11,10.4,21.5,5.3,12.1.2Z" transform="translate(-0.5 -0.2)"/><path class="cls-3" d="M5.2,6.8" transform="translate(-0.5 -0.2)"/><path class="cls-3" d="M5.2,18.3" transform="translate(-0.5 -0.2)"/><path class="cls-3" d="M5.2,7.8" transform="translate(-0.5 -0.2)"/><path class="cls-3" d="M15.8,3.1" transform="translate(-0.5 -0.2)"/></svg>