<?xml version="1.0" encoding="UTF-8" standalone="no"?>
<svg
   id="Layer_1"
   data-name="Layer 1"
   viewBox="0 0 21 21.8"
   version="1.1"
   xmlns="http://www.w3.org/2000/svg"
   xmlns:svg="http://www.w3.org/2000/svg">
  <defs
     id="defs4">
    <style
       id="style2">.cls-1{fill:#fff;}.cls-2{fill:#29abe2;}.cls-3{fill:none;stroke:#000;stroke-miterlimit:10;}</style>
  </defs>
  <path
     class="cls-2"
     d="M1.5,6.8,10,11.1v9.3L1.5,15.9V6.8M.5,5.133V16.4L11,22V10.4L.5,5.133Z"
     transform="translate(-0.5 -0.2)"
     id="path8" />
  <path
     class="cls-2"
     d="M20.5,6.9v8.9L12,20.3V11l8.5-4.1m1-1.6L11,10.4V22l10.5-5.6V5.3Z"
     transform="translate(-0.5 -0.2)"
     id="path12" />
  <path
     class="cls-2"
     d="M12,1.3l7.3,4L11,9.3,2.9,5.2,12,1.3M12.1.2.5,5.133,11,10.4,21.5,5.3,12.1.2Z"
     transform="translate(-0.5 -0.2)"
     id="path16" />
  <path
     class="cls-3"
     d="M5.2,6.8"
     transform="translate(-0.5 -0.2)"
     id="path18" />
  <path
     class="cls-3"
     d="M5.2,18.3"
     transform="translate(-0.5 -0.2)"
     id="path20" />
  <path
     class="cls-3"
     d="M5.2,7.8"
     transform="translate(-0.5 -0.2)"
     id="path22" />
  <path
     class="cls-3"
     d="M15.8,3.1"
     transform="translate(-0.5 -0.2)"
     id="path24" />
</svg>
