<?xml version="1.0" encoding="UTF-8" standalone="no"?>
<!-- Generator: Blender, SVG Export for Grease Pencil - v1.0 -->

<svg
   version="1.0"
   x="0px"
   y="0px"
   width="1016px"
   height="1015px"
   viewBox="0 0 1016 1015"
   id="svg61"
   xmlns="http://www.w3.org/2000/svg"
   xmlns:svg="http://www.w3.org/2000/svg">
  <defs
     id="defs65" />
  <g
     id="blender_frame_4">
    <g
       id="blender_object_GPencil.001">
      <!--Layer: Plane_003_Fills-->
      <g
         id="Plane_003_Fills">
        <polygon
           fill="#FDB91B"
           stroke="none"
           fill-opacity="1"
           points="666.713074,476.161743 666.713074,548.224854 652.010193,557.675659 593.824158,511.266724 491.488220,639.611816 10.000061,330.117310 508.014099,10.000000 1006.028259,330.117310 778.823547,476.161743"
           id="polygon2" />
        <polygon
           fill="#FDB91B"
           stroke="none"
           fill-opacity="1"
           points="508.014221,1005.736084 10.000061,685.618896 79.132812,641.181152 508.014343,916.860840 533.751770,900.317139 586.970154,888.168457 591.068298,893.308105 553.903259,970.494019"
           id="polygon4" />
        <polygon
           fill="#FDB91B"
           stroke="none"
           fill-opacity="1"
           points="847.183167,521.096313 936.895813,463.430237 1006.028503,507.867920 947.407166,545.548950 920.072205,511.266846 853.100159,564.683350 847.183411,561.833496"
           id="polygon6" />
        <polygon
           fill="#FDB91B"
           stroke="none"
           fill-opacity="1"
           points="481.482117,810.930664 10.000061,507.867920 79.132812,463.430359 487.296936,725.793213 463.302917,731.270508"
           id="polygon8" />
      </g>
      <!--Layer: Plane_003_Lines-->
      <g
         id="Plane_003_Lines" />
    </g>
  </g>
  <g
     id="g59">
    <g
       id="blender_object_GPencil">
      <!--Layer: Gear_002_Fills-->
      <g
         id="Gear_002_Fills">
        <path
           id="polygon14"
           style="fill:#3991bb"
           d="m 704.05273,513.50195 c 0,23.93099 0,47.86198 0,71.79297 -16.98008,5.83792 -33.04424,13.57751 -48.19531,23.21289 -18.70703,-14.92057 -37.41406,-29.84115 -56.12109,-44.76172 -21.98633,27.57422 -43.97266,55.14844 -65.95899,82.72266 18.70703,14.92057 37.41407,29.84115 56.1211,44.76172 -6.02265,16.91707 -9.98794,34.30363 -11.90235,52.1582 -23.32747,5.32552 -46.65495,10.65104 -69.98242,15.97656 7.84701,34.38412 15.69401,68.76823 23.54102,103.15235 23.32747,-5.32487 46.65495,-10.64974 69.98242,-15.97461 9.46725,15.25828 20.58613,29.19964 33.35156,41.82812 -10.38151,21.5612 -20.76302,43.1224 -31.14453,64.6836 31.77083,15.30208 63.54167,30.60417 95.3125,45.90625 10.38151,-21.56055 20.76302,-43.12109 31.14453,-64.68164 17.83137,2.10861 35.66275,2.10628 53.49414,0 10.38151,21.56055 20.76302,43.12109 31.14453,64.68164 31.77083,-15.30208 63.54167,-30.60417 95.3125,-45.90625 -10.38151,-21.5612 -20.76302,-43.1224 -31.14453,-64.6836 12.76592,-12.62809 23.88133,-26.57222 33.35157,-41.82812 23.32747,5.32487 46.65495,10.64974 69.98242,15.97461 7.847,-34.38412 15.694,-68.76823 23.541,-103.15235 -23.32747,-5.32552 -46.65494,-10.65104 -69.98241,-15.97656 -1.91209,-17.85532 -5.88209,-35.24095 -11.9043,-52.1582 18.70768,-14.92057 37.41537,-29.84115 56.12305,-44.76172 -21.98698,-27.57422 -43.97396,-55.14844 -65.96094,-82.72266 -18.70703,14.92057 -37.41406,29.84115 -56.12109,44.76172 -15.14925,-9.63773 -31.21463,-17.37343 -48.19336,-23.21289 0,-23.93099 0,-47.86198 0,-71.79297 -35.26367,0 -70.52735,0 -105.79102,0 z m 52.89454,138.70899 c 40.87521,-0.0665 80.38836,25.64622 95.98467,63.56857 18.91736,42.31489 4.95264,96.28503 -32.47624,123.76762 -36.88881,29.64326 -94.23493,28.5958 -130.01758,-2.39504 -37.1132,-29.38443 -48.84978,-85.54017 -26.60151,-127.33759 16.86953,-34.92464 54.5063,-57.50426 93.11066,-57.60356 z" />
      </g>
      <!--Layer: Gear_002_Lines-->
      <g
         id="Gear_002_Lines" />
    </g>
  </g>
</svg>
