<svg id="Layer_1" data-name="Layer 1" xmlns="http://www.w3.org/2000/svg" viewBox="0 0 22 21.51"><defs><style>.cls-1{fill:#fdb91b;}.cls-2{fill:#3992bb;}</style></defs><path class="cls-1" d="M21.39,6,11.82,1,10.71.43,9.55,1,1,5.58,0,6.11l.8.4L8.66,10.4l1.47.77c.63-.7,1.64-1.5,1.46-1.53s.77.45,1.28.89l.64-.48c.06-.2.18-.6.22-.71s.12-.5.18-.7L15,8.77l1.42.15L21.3,6.68,22,6.35Z" transform="translate(0 -0.43)"/><path class="cls-1" d="M19.09,9.49,18,10c0,.13,0,.23,0,.42s0,.25-.05.47a.82.82,0,0,1,.25.16,5.93,5.93,0,0,1,.71-.48c.35-.21.65-.4.91-.53.21.2.53.54.69.7a9.68,9.68,0,0,1,.69.73l.86-.38Z" transform="translate(0 -0.43)"/><path class="cls-1" d="M10.1,14.72a1.38,1.38,0,0,1,.09-.33,15.59,15.59,0,0,1-1.47-1.45s.38-.37.37-.42L3,9.55,0,11.1l9,4.29c.49-.16.66-.19,1.07-.33C10.11,15,10.11,14.88,10.1,14.72Z" transform="translate(0 -0.43)"/><path class="cls-1" d="M11.46,19.45s0,0-.11-.21c0,0-2.1.79-2.16.6s-.75-2.2-.9-2.72L3,14.59,0,16.1l10,4.82.54.23.25-.4.25-.46C11.43,19.53,11.29,19.82,11.46,19.45Z" transform="translate(0 -0.43)"/><path class="cls-2" d="M21.51,15.76l-.61-.21-.78-.27a4.5,4.5,0,0,0-.24-1l1.1-1,.3-.24-1.66-2-.14.1-.65.4-.81.52a4.48,4.48,0,0,0-.94-.44l.07-1.35,0-.38-2.63-.22-.06.33-.14.71-.18.86a4.35,4.35,0,0,0-1,.44L12,11.15l-.29-.26-1.72,2,.12.12.53.59.64.71a5.27,5.27,0,0,0-.2.6,3.74,3.74,0,0,0-.09.74l-1.4.52-.37.12.88,2.53.41-.12.61-.17.61-.16a6,6,0,0,0,.66.76l-.56,1.21-.19.34L14,21.86l.29-.43.31-.49.4-.59a4.7,4.7,0,0,0,1.35,0l.73,1.25.18.34,2.31-1.27-.21-.53-.27-.65-.2-.49a4.47,4.47,0,0,0,.64-.86l1.43.3.37.1L22,16Zm-6.08,2.31c-3,0-2.95-4.59,0-4.59S18.39,18.07,15.43,18.07Z" transform="translate(0 -0.43)"/></svg>