<?xml version="1.0" encoding="utf-8"?>
<!-- Generator: Adobe Illustrator 25.2.0, SVG Export Plug-In . SVG Version: 6.00 Build 0)  -->
<svg version="1.1" id="Layer_1" xmlns="http://www.w3.org/2000/svg" xmlns:xlink="http://www.w3.org/1999/xlink" x="0px" y="0px"
	 viewBox="0 0 22 22" style="enable-background:new 0 0 22 22;" xml:space="preserve">
<style type="text/css">
	.st0{fill:#C1272D;}
	.st1{fill:#29AAE2;}
	.st2{fill:#FFFFFF;}
	.st3{fill:#006937;}
</style>
<rect x="11" y="15.5" class="st0" width="10.9" height="6.4"/>
<rect x="11" y="0.1" class="st1" width="10.9" height="6.3"/>
<g>
	<path class="st2" d="M6.2,6.3C6.2,6.3,6.2,6.3,6.2,6.3c0,0.1,0,0.1-0.1,0.1c0,0-0.1,0-0.1,0s-0.1,0-0.2,0c-0.1,0-0.1,0-0.2,0
		s-0.1,0-0.1,0c0,0,0,0-0.1,0c0,0,0,0,0-0.1V3.9c0-0.2,0-0.3,0-0.5S5.4,3.2,5.3,3.1S5.2,2.9,5.1,2.8S4.9,2.8,4.7,2.8
		c-0.2,0-0.3,0.1-0.5,0.2C4.1,3.1,3.9,3.3,3.7,3.5v2.8c0,0,0,0,0,0.1c0,0,0,0-0.1,0c0,0-0.1,0-0.1,0s-0.1,0-0.2,0
		c-0.1,0-0.1,0-0.2,0c0,0-0.1,0-0.1,0c0,0,0,0-0.1,0c0,0,0,0,0-0.1V3.9c0-0.2,0-0.3,0-0.5c0-0.1-0.1-0.3-0.1-0.4S2.6,2.9,2.5,2.8
		S2.3,2.8,2.2,2.8C2,2.8,1.8,2.8,1.6,2.9S1.3,3.3,1.1,3.5v2.8c0,0,0,0,0,0.1c0,0,0,0-0.1,0s-0.1,0-0.1,0s-0.1,0-0.2,0
		c-0.1,0-0.1,0-0.2,0s-0.1,0-0.1,0c0,0,0,0-0.1,0c0,0,0,0,0-0.1v-4c0,0,0,0,0-0.1s0,0,0.1,0c0,0,0.1,0,0.1,0c0,0,0.1,0,0.2,0
		c0.1,0,0.1,0,0.2,0c0,0,0.1,0,0.1,0c0,0,0,0,0.1,0s0,0,0,0.1v0.5c0.2-0.2,0.4-0.4,0.6-0.5c0.2-0.1,0.4-0.2,0.6-0.2
		c0.2,0,0.3,0,0.4,0.1c0.1,0,0.2,0.1,0.3,0.2s0.2,0.2,0.3,0.2s0.1,0.2,0.2,0.3c0.1-0.1,0.3-0.3,0.4-0.4C4,2.4,4.1,2.4,4.2,2.3
		c0.1-0.1,0.2-0.1,0.3-0.1c0.1,0,0.2,0,0.3,0c0.3,0,0.5,0,0.6,0.1c0.2,0.1,0.3,0.2,0.4,0.4C6,2.8,6.1,2.9,6.2,3.1
		c0,0.2,0.1,0.4,0.1,0.6V6.3z"/>
	<path class="st2" d="M11,6.1c0,0.1,0,0.1,0,0.1s0,0.1,0,0.1s0,0-0.1,0.1c0,0,0,0-0.1,0h-3c0,0,0,0-0.1,0c0,0,0,0-0.1-0.1
		c0,0,0-0.1,0-0.1s0-0.1,0-0.1c0-0.1,0-0.1,0-0.1s0-0.1,0-0.1c0,0,0,0,0-0.1c0,0,0,0,0.1,0H9V1.5L7.9,2.1c-0.1,0-0.1,0-0.1,0.1
		c0,0-0.1,0-0.1,0c0,0,0-0.1,0-0.1c0,0,0-0.1,0-0.2c0,0,0-0.1,0-0.1c0,0,0-0.1,0-0.1s0,0,0-0.1c0,0,0,0,0.1-0.1l1.3-0.8c0,0,0,0,0,0
		s0,0,0.1,0s0.1,0,0.1,0s0.1,0,0.1,0c0.1,0,0.1,0,0.2,0s0.1,0,0.1,0c0,0,0,0,0.1,0s0,0,0,0.1v5h1c0,0,0,0,0.1,0c0,0,0,0,0.1,0.1
		c0,0,0,0.1,0,0.1C11,6,11,6,11,6.1z"/>
</g>
<g>
	<path class="st2" d="M6.2,21.5C6.2,21.5,6.2,21.5,6.2,21.5c0,0.1,0,0.1-0.1,0.1c0,0-0.1,0-0.1,0s-0.1,0-0.2,0c-0.1,0-0.1,0-0.2,0
		s-0.1,0-0.1,0c0,0,0,0-0.1,0c0,0,0,0,0-0.1v-2.4c0-0.2,0-0.3,0-0.5s-0.1-0.3-0.1-0.4S5.2,18.1,5.1,18s-0.2-0.1-0.4-0.1
		c-0.2,0-0.3,0.1-0.5,0.2c-0.2,0.1-0.4,0.3-0.6,0.6v2.8c0,0,0,0,0,0.1c0,0,0,0-0.1,0c0,0-0.1,0-0.1,0s-0.1,0-0.2,0
		c-0.1,0-0.1,0-0.2,0c0,0-0.1,0-0.1,0c0,0,0,0-0.1,0c0,0,0,0,0-0.1v-2.4c0-0.2,0-0.3,0-0.5c0-0.1-0.1-0.3-0.1-0.4S2.6,18.1,2.5,18
		s-0.2-0.1-0.3-0.1c-0.2,0-0.3,0.1-0.5,0.2s-0.4,0.3-0.6,0.6v2.8c0,0,0,0,0,0.1c0,0,0,0-0.1,0s-0.1,0-0.1,0s-0.1,0-0.2,0
		c-0.1,0-0.1,0-0.2,0s-0.1,0-0.1,0c0,0,0,0-0.1,0c0,0,0,0,0-0.1v-4c0,0,0,0,0-0.1c0,0,0,0,0.1,0c0,0,0.1,0,0.1,0c0,0,0.1,0,0.2,0
		c0.1,0,0.1,0,0.2,0c0,0,0.1,0,0.1,0c0,0,0,0,0.1,0c0,0,0,0,0,0.1V18c0.2-0.2,0.4-0.4,0.6-0.5c0.2-0.1,0.4-0.2,0.6-0.2
		c0.2,0,0.3,0,0.4,0.1c0.1,0,0.2,0.1,0.3,0.2c0.1,0.1,0.2,0.2,0.3,0.2c0.1,0.1,0.1,0.2,0.2,0.3c0.1-0.1,0.3-0.3,0.4-0.4
		c0.1-0.1,0.2-0.2,0.3-0.2c0.1-0.1,0.2-0.1,0.3-0.1c0.1,0,0.2,0,0.3,0c0.3,0,0.5,0,0.6,0.1c0.2,0.1,0.3,0.2,0.4,0.4
		C6,18,6.1,18.1,6.2,18.3c0,0.2,0.1,0.4,0.1,0.6V21.5z"/>
	<path class="st2" d="M10.9,19.9c0,0.3,0,0.5-0.1,0.7c-0.1,0.2-0.2,0.4-0.4,0.5s-0.4,0.3-0.6,0.3c-0.2,0.1-0.5,0.1-0.8,0.1
		c-0.2,0-0.4,0-0.5,0c-0.2,0-0.3-0.1-0.4-0.1c-0.1,0-0.2-0.1-0.3-0.1c-0.1,0-0.1-0.1-0.2-0.1c0,0,0,0-0.1-0.1s0,0,0-0.1
		c0,0,0-0.1,0-0.1c0,0,0-0.1,0-0.2c0-0.1,0-0.2,0-0.2c0,0,0.1-0.1,0.1-0.1c0,0,0.1,0,0.2,0.1s0.2,0.1,0.3,0.2
		c0.1,0.1,0.3,0.1,0.4,0.2C8.5,21,8.7,21,8.9,21c0.2,0,0.4,0,0.5-0.1s0.3-0.1,0.4-0.2s0.2-0.2,0.2-0.3c0.1-0.1,0.1-0.3,0.1-0.4
		c0-0.2,0-0.3-0.1-0.4s-0.2-0.2-0.3-0.3c-0.1-0.1-0.3-0.2-0.5-0.2C9.1,19,8.9,19,8.7,19H8.1c0,0,0,0-0.1,0c0,0,0,0-0.1-0.1
		s0-0.1,0-0.1s0-0.1,0-0.1c0-0.1,0-0.1,0-0.1c0,0,0-0.1,0-0.1c0,0,0,0,0.1,0c0,0,0,0,0.1,0h0.5c0.2,0,0.4,0,0.5-0.1
		c0.2,0,0.3-0.1,0.4-0.2c0.1-0.1,0.2-0.2,0.2-0.3c0.1-0.1,0.1-0.3,0.1-0.4c0-0.1,0-0.2-0.1-0.3c0-0.1-0.1-0.2-0.2-0.3
		s-0.2-0.1-0.3-0.2c-0.1,0-0.3-0.1-0.4-0.1c-0.2,0-0.3,0-0.5,0.1c-0.1,0.1-0.3,0.1-0.4,0.2s-0.2,0.1-0.3,0.2
		c-0.1,0.1-0.1,0.1-0.2,0.1c0,0,0,0-0.1,0c0,0,0,0,0,0c0,0,0-0.1,0-0.1c0,0,0-0.1,0-0.2c0,0,0-0.1,0-0.1c0,0,0-0.1,0-0.1
		c0,0,0,0,0-0.1c0,0,0,0,0.1-0.1c0,0,0.1-0.1,0.2-0.1C7.9,16.1,8,16,8.1,16c0.1-0.1,0.3-0.1,0.4-0.1c0.2,0,0.3-0.1,0.5-0.1
		c0.3,0,0.5,0,0.7,0.1s0.4,0.2,0.5,0.3c0.1,0.1,0.2,0.3,0.3,0.4c0.1,0.2,0.1,0.4,0.1,0.6c0,0.2,0,0.3-0.1,0.5c0,0.2-0.1,0.3-0.2,0.4
		c-0.1,0.1-0.2,0.2-0.3,0.3c-0.1,0.1-0.3,0.1-0.5,0.2v0c0.2,0,0.4,0.1,0.5,0.1c0.2,0.1,0.3,0.2,0.4,0.3s0.2,0.3,0.3,0.4
		C10.9,19.6,10.9,19.8,10.9,19.9z"/>
</g>
<g>
	<path class="st2" d="M6.2,13.9C6.2,13.9,6.2,13.9,6.2,13.9c0,0.1,0,0.1-0.1,0.1c0,0-0.1,0-0.1,0s-0.1,0-0.2,0c-0.1,0-0.1,0-0.2,0
		s-0.1,0-0.1,0c0,0,0,0-0.1,0c0,0,0,0,0-0.1v-2.4c0-0.2,0-0.3,0-0.5s-0.1-0.3-0.1-0.4s-0.1-0.2-0.2-0.2s-0.2-0.1-0.4-0.1
		c-0.2,0-0.3,0.1-0.5,0.2c-0.2,0.1-0.4,0.3-0.6,0.6v2.8c0,0,0,0,0,0.1c0,0,0,0-0.1,0c0,0-0.1,0-0.1,0s-0.1,0-0.2,0
		c-0.1,0-0.1,0-0.2,0c0,0-0.1,0-0.1,0c0,0,0,0-0.1,0c0,0,0,0,0-0.1v-2.4c0-0.2,0-0.3,0-0.5c0-0.1-0.1-0.3-0.1-0.4s-0.1-0.2-0.2-0.2
		s-0.2-0.1-0.3-0.1c-0.2,0-0.3,0.1-0.5,0.2s-0.4,0.3-0.6,0.6v2.8c0,0,0,0,0,0.1c0,0,0,0-0.1,0S1,14,0.9,14s-0.1,0-0.2,0
		c-0.1,0-0.1,0-0.2,0s-0.1,0-0.1,0c0,0,0,0-0.1,0c0,0,0,0,0-0.1v-4c0,0,0,0,0-0.1s0,0,0.1,0c0,0,0.1,0,0.1,0c0,0,0.1,0,0.2,0
		c0.1,0,0.1,0,0.2,0c0,0,0.1,0,0.1,0c0,0,0,0,0.1,0s0,0,0,0.1v0.5c0.2-0.2,0.4-0.4,0.6-0.5c0.2-0.1,0.4-0.2,0.6-0.2
		c0.2,0,0.3,0,0.4,0.1c0.1,0,0.2,0.1,0.3,0.2s0.2,0.2,0.3,0.2s0.1,0.2,0.2,0.3c0.1-0.1,0.3-0.3,0.4-0.4C4,10,4.1,10,4.2,9.9
		c0.1-0.1,0.2-0.1,0.3-0.1c0.1,0,0.2,0,0.3,0c0.3,0,0.5,0,0.6,0.1c0.2,0.1,0.3,0.2,0.4,0.4c0.1,0.1,0.2,0.3,0.2,0.5
		c0,0.2,0.1,0.4,0.1,0.6V13.9z"/>
	<path class="st2" d="M10.9,13.7c0,0.1,0,0.1,0,0.1c0,0,0,0.1,0,0.1c0,0,0,0-0.1,0.1c0,0,0,0-0.1,0H7.6c0,0-0.1,0-0.1,0
		c0,0-0.1,0-0.1-0.1c0,0,0-0.1,0-0.1c0,0,0-0.1,0-0.2c0-0.1,0-0.1,0-0.2s0-0.1,0-0.1c0,0,0-0.1,0.1-0.1c0,0,0.1-0.1,0.1-0.1L8.7,12
		c0.3-0.3,0.5-0.5,0.6-0.7c0.2-0.2,0.3-0.4,0.4-0.6s0.1-0.3,0.2-0.5s0-0.3,0-0.4s0-0.2-0.1-0.4c0-0.1-0.1-0.2-0.2-0.3S9.5,9,9.4,9
		c-0.1,0-0.3-0.1-0.4-0.1c-0.2,0-0.3,0-0.5,0.1S8.2,9.1,8.1,9.1S7.9,9.2,7.8,9.3S7.7,9.4,7.6,9.4c0,0,0,0-0.1,0s0,0,0-0.1
		s0-0.1,0-0.1s0-0.1,0-0.2c0,0,0-0.1,0-0.1c0,0,0-0.1,0-0.1c0,0,0,0,0-0.1s0,0,0.1-0.1c0,0,0.1-0.1,0.2-0.1C7.9,8.5,8,8.4,8.1,8.4
		c0.1-0.1,0.3-0.1,0.4-0.1c0.2,0,0.3-0.1,0.5-0.1c0.3,0,0.5,0,0.7,0.1c0.2,0.1,0.4,0.2,0.5,0.3c0.1,0.1,0.2,0.3,0.3,0.5
		s0.1,0.4,0.1,0.6c0,0.2,0,0.4,0,0.5c0,0.2-0.1,0.4-0.2,0.6c-0.1,0.2-0.3,0.4-0.5,0.7c-0.2,0.3-0.5,0.6-0.8,0.9l-0.9,0.9h2.5
		c0,0,0,0,0.1,0c0,0,0,0,0.1,0.1c0,0,0,0.1,0,0.1C10.9,13.6,10.9,13.6,10.9,13.7z"/>
</g>
<rect x="11" y="7.8" class="st3" width="10.9" height="6.4"/>
</svg>
