<?xml version="1.0" encoding="utf-8"?>
<!-- Generator: Adobe Illustrator 25.2.0, SVG Export Plug-In . SVG Version: 6.00 Build 0)  -->
<svg version="1.1" xmlns="http://www.w3.org/2000/svg" xmlns:xlink="http://www.w3.org/1999/xlink" x="0px" y="0px"
	 viewBox="0 0 22 22" style="enable-background:new 0 0 22 22;" xml:space="preserve">
<style type="text/css">
	.st0{fill:#003366;stroke:#29AAE2;stroke-width:2;stroke-miterlimit:10;}
	.st1{fill:none;stroke:#29AAE2;stroke-width:2;stroke-miterlimit:10;}
	.st2{fill:none;stroke:#C1272D;stroke-width:4;stroke-miterlimit:10;}
	.st3{fill:#C1272D;stroke:#C1272D;stroke-miterlimit:10;}
</style>
<g id="Layer_1">
	<rect x="1" y="1" class="st0" width="20" height="20"/>
	<line class="st1" x1="1" y1="1" x2="21" y2="21"/>
</g>
<g id="Layer_2">
	<circle class="st2" cx="11" cy="11.2" r="4.9"/>
	<rect x="9.5" y="3.1" class="st3" width="3.1" height="3.9"/>
	<rect x="3.7" y="9.3" transform="matrix(4.542151e-11 -1 1 4.542151e-11 -5.9745 16.4109)" class="st3" width="3.1" height="3.9"/>
	<rect x="9.5" y="15" transform="matrix(-1 4.660082e-11 -4.660082e-11 -1 22 33.9491)" class="st3" width="3.1" height="3.9"/>
	
		<rect x="15.2" y="9.3" transform="matrix(-5.899342e-13 1 -1 -5.899342e-13 27.9745 -5.5891)" class="st3" width="3.1" height="3.9"/>
	<rect x="5.2" y="4.8" transform="matrix(0.7071 -0.7071 0.7071 0.7071 -2.8064 6.7754)" class="st3" width="3.1" height="3.9"/>
	<rect x="5.5" y="13.3" transform="matrix(-0.7071 -0.7071 0.7071 -0.7071 1.2661 30.9737)" class="st3" width="3.1" height="3.9"/>
	
		<rect x="13.7" y="13.3" transform="matrix(-0.7071 0.7071 -0.7071 -0.7071 36.7555 15.2246)" class="st3" width="3.1" height="3.9"/>
	<rect x="13.7" y="5.1" transform="matrix(0.7071 0.7071 -0.7071 0.7071 9.4428 -8.7011)" class="st3" width="3.1" height="3.9"/>
</g>
</svg>
