<?xml version="1.0" encoding="utf-8"?>
<!-- Generator: Adobe Illustrator 25.2.0, SVG Export Plug-In . SVG Version: 6.00 Build 0)  -->
<svg version="1.1" xmlns="http://www.w3.org/2000/svg" xmlns:xlink="http://www.w3.org/1999/xlink" x="0px" y="0px"
	 viewBox="0 0 22 22" style="enable-background:new 0 0 22 22;" xml:space="preserve">
<style type="text/css">
	.st0{fill:#363795;}
	.st1{fill:#29AAE2;}
	.st2{fill:#ED1C24;stroke:#29AAE2;stroke-miterlimit:10;}
	.st3{fill:none;stroke:#29AAE2;stroke-miterlimit:10;}
</style>
<g id="Layer_1">
	<g>
		<rect x="0.5" y="0.5" class="st0" width="21" height="21"/>
		<path class="st1" d="M21,1v20H1V1H21 M22,0H0v22h22V0L22,0z"/>
	</g>
</g>
<g id="Layer_2">
	<rect x="7.4" y="7.4" class="st2" width="7.3" height="7.3"/>
</g>
<g id="Layer_3">
	<g>
		<line class="st3" x1="0.8" y1="21.3" x2="7.6" y2="14.4"/>
	</g>
	<line class="st3" x1="14.6" y1="14.6" x2="21.5" y2="21.2"/>
	<line class="st3" x1="14.6" y1="7.4" x2="21.6" y2="0.5"/>
	<line class="st3" x1="7.4" y1="7.4" x2="0.6" y2="0.6"/>
	<line class="st3" x1="14.6" y1="14.6" x2="14.6" y2="21.5"/>
	<line class="st3" x1="7.4" y1="14.6" x2="7.4" y2="21.6"/>
	<line class="st3" x1="14.6" y1="14.6" x2="7.4" y2="21.6"/>
	<line class="st3" x1="14.6" y1="7.4" x2="21.6" y2="7.4"/>
	<line class="st3" x1="14.6" y1="14.6" x2="21.6" y2="14.6"/>
	<line class="st3" x1="21.6" y1="7.4" x2="14.6" y2="14.6"/>
	<line class="st3" x1="14.6" y1="7.4" x2="14.6" y2="0.5"/>
	<line class="st3" x1="7.4" y1="7.4" x2="7.4" y2="0.5"/>
	<line class="st3" x1="14.6" y1="0.5" x2="7.4" y2="7.4"/>
	<line class="st3" x1="7.4" y1="14.6" x2="0.4" y2="14.6"/>
	<line class="st3" x1="7.4" y1="7.4" x2="0.6" y2="7.4"/>
	<line class="st3" x1="0.6" y1="14.6" x2="7.4" y2="7.4"/>
</g>
</svg>
