<?xml version="1.0" encoding="utf-8"?>
<!-- Generator: Adobe Illustrator 24.3.0, SVG Export Plug-In . SVG Version: 6.00 Build 0)  -->
<svg version="1.1" id="Layer_1" xmlns="http://www.w3.org/2000/svg" xmlns:xlink="http://www.w3.org/1999/xlink" x="0px" y="0px"
	 viewBox="0 0 22 22" style="enable-background:new 0 0 22 22;" xml:space="preserve">
<style type="text/css">
	.st0{fill:#767FB7;stroke:#030049;stroke-width:2;stroke-miterlimit:10;}
	.st1{fill:none;stroke:#030049;stroke-width:2;stroke-miterlimit:10;}
	.st2{fill:#FFFFFF;}
</style>
<rect x="1" y="1" class="st0" width="20" height="19.9"/>
<line class="st1" x1="1" y1="1" x2="21" y2="21"/>
<path class="st2" d="M9.9,16c-4.6,2.5-1,6.8,2.3,2.7C12.2,18.7,10.2,16.1,9.9,16z"/>
<path class="st2" d="M10.5,15.6c0.5-0.7,2-2.2,2.5-3.3c4.7-5.5,7.5,2.4,1.3,5.1c-0.2,0.1-1.5,0.8-1.5,0.8L10.5,15.6z"/>
<path class="st2" d="M10.5,9.1c-3.3,4-6.9-0.2-2.3-2.7C8.3,6.4,10.5,8.8,10.5,9.1z"/>
<path class="st2" d="M11,8.6c0.8-0.4,2.5-1.6,3.7-1.9c6.2-3.6-1.1-7.8-4.9-2.1c-0.2,0.2-1,1.3-1,1.3L11,8.6z"/>
</svg>
