<svg id="Layer_1" data-name="Layer 1" xmlns="http://www.w3.org/2000/svg" viewBox="0 0 21.98 20.66"><defs><style>.cls-1{fill:#868586;}.cls-2{fill:#fff;}</style></defs><path class="cls-1" d="M16.66,1.94l-.06,0c-.32-.15-.65-.27-1-.39l-.12,0v0A13.21,13.21,0,0,0,11,.67C4.94.67,0,4.61,0,9.47c0,0,0,.09,0,.14H0a17.12,17.12,0,0,0,.65,4.87l.06.17a11.26,11.26,0,0,0,1.53,3.13,10.41,10.41,0,0,0,4,3.29l.51.26.19-.54c.24-.67.63-1.77,1-2.88a13.72,13.72,0,0,0,3.11.36c6.06,0,11-3.94,11-8.8C22,6.27,19.85,3.48,16.66,1.94Z" transform="translate(-0.01 -0.67)"/><rect class="cls-2" x="9.22" y="6.76" width="3.53" height="8.37"/><ellipse class="cls-2" cx="10.99" cy="3.6" rx="1.89" ry="1.91"/></svg>