<svg id="Layer_1" data-name="Layer 1" xmlns="http://www.w3.org/2000/svg" viewBox="0 0 21.98 20.66"><defs><style>.cls-1{fill:#868586;}.cls-2{fill:#fff;}</style></defs><path class="cls-1" d="M16.57,1.89,14.54,8l-.78,2.27c0,.06-.26.65-.35.83l-.15.34-.16.29A2.82,2.82,0,0,1,9.71,13c-2-.49-2.08-1.91-1.35-3.83a3.27,3.27,0,0,1,3.49-2.11,1.9,1.9,0,0,1,1.42.8l2.24-6.42A13.21,13.21,0,0,0,11,.67C4.94.67,0,4.61,0,9.47c0,0,0,.09,0,.14H0a17.12,17.12,0,0,0,.65,4.87l.06.17a11.26,11.26,0,0,0,1.53,3.13,10.41,10.41,0,0,0,4,3.29l.51.26.19-.54c.24-.67.63-1.77,1-2.88a13.72,13.72,0,0,0,3.11.36c6.06,0,11-3.94,11-8.8C22,6.24,19.81,3.42,16.57,1.89Z" transform="translate(-0.01 -0.67)"/><path class="cls-2" d="M14.53,8l2-6.15-1.06-.45L13.27,7.87a2,2,0,0,0-1.42-.8A3.25,3.25,0,0,0,8.37,9.18C7.64,11.1,7.71,12.52,9.71,13a2.81,2.81,0,0,0,3.38-1.24l.17-.29.14-.34c.09-.18.33-.76.36-.83Z" transform="translate(-0.01 -0.67)"/></svg>