<?xml version="1.0" encoding="utf-8"?>
<!-- Generator: Adobe Illustrator 25.2.0, SVG Export Plug-In . SVG Version: 6.00 Build 0)  -->
<svg version="1.1" id="Layer_1" xmlns="http://www.w3.org/2000/svg" xmlns:xlink="http://www.w3.org/1999/xlink" x="0px" y="0px"
	 viewBox="0 0 22 22" style="enable-background:new 0 0 22 22;" xml:space="preserve">
<style type="text/css">
	.st0{fill:#339933;stroke:#39B54A;stroke-linecap:round;stroke-linejoin:round;stroke-miterlimit:1.3161;}
	.st1{fill:none;stroke:#39B54A;stroke-linecap:round;stroke-linejoin:round;stroke-miterlimit:1.3161;}
	.st2{fill:#B51F1F;stroke:#E51A1A;stroke-linecap:round;stroke-linejoin:round;stroke-miterlimit:1.3161;}
	.st3{fill:none;stroke:#E22020;stroke-linecap:round;stroke-linejoin:round;stroke-miterlimit:1.3161;}
	.st4{fill:#A01C1C;stroke:#ED1414;stroke-linecap:round;stroke-linejoin:round;stroke-miterlimit:1.3161;}
	.st5{fill:#6262B5;stroke:#29ABE2;stroke-linecap:round;stroke-linejoin:round;stroke-miterlimit:1.3161;}
	.st6{fill:none;stroke:#29ABE2;stroke-linecap:round;stroke-linejoin:round;stroke-miterlimit:1.3161;}
</style>
<ellipse class="st0" cx="4.9" cy="15" rx="0.8" ry="0.8"/>
<line class="st1" x1="4.9" y1="12.4" x2="4.9" y2="11.4"/>
<line class="st1" x1="6.5" y1="13" x2="7.4" y2="11.7"/>
<line class="st1" x1="6.9" y1="14.8" x2="8.3" y2="14.8"/>
<line class="st1" x1="6.4" y1="16.3" x2="8" y2="17.1"/>
<line class="st1" x1="3.4" y1="16.1" x2="1.6" y2="17.6"/>
<line class="st1" x1="2.9" y1="14.8" x2="1.2" y2="14.8"/>
<line class="st1" x1="3.6" y1="13.2" x2="2" y2="12"/>
<line class="st1" x1="4.9" y1="16.2" x2="4.9" y2="21.5"/>
<ellipse class="st2" cx="9.6" cy="5.2" rx="1.9" ry="1.9"/>
<line class="st3" x1="9.6" y1="2.5" x2="9.6" y2="0.5"/>
<line class="st3" x1="11.9" y1="3.5" x2="12.8" y2="2.2"/>
<line class="st3" x1="12.3" y1="5.2" x2="14.9" y2="5.2"/>
<line class="st3" x1="11.8" y1="7" x2="13.3" y2="7.8"/>
<line class="st3" x1="7.4" y1="7.2" x2="5.7" y2="8.6"/>
<line class="st3" x1="6.9" y1="5.2" x2="3.7" y2="5.2"/>
<line class="st3" x1="7.6" y1="3.3" x2="6.1" y2="2.1"/>
<line class="st4" x1="9.6" y1="7.2" x2="9.6" y2="21.5"/>
<ellipse class="st5" cx="16.1" cy="13.6" rx="1.4" ry="1.4"/>
<line class="st6" x1="16.1" y1="10.5" x2="16.1" y2="7.6"/>
<line class="st6" x1="18" y1="11.6" x2="18.9" y2="10.4"/>
<line class="st6" x1="18.4" y1="13.8" x2="21" y2="13.8"/>
<line class="st6" x1="17.5" y1="16" x2="19" y2="16.8"/>
<line class="st6" x1="14.7" y1="15.8" x2="12.9" y2="17.2"/>
<line class="st6" x1="13.7" y1="13.8" x2="11.4" y2="13.8"/>
<line class="st6" x1="14.1" y1="11.5" x2="12.6" y2="10.3"/>
<line class="st6" x1="16.1" y1="15.4" x2="16.1" y2="21.5"/>
</svg>
