<?xml version="1.0" encoding="utf-8"?>
<!-- Generator: Adobe Illustrator 25.2.0, SVG Export Plug-In . SVG Version: 6.00 Build 0)  -->
<svg version="1.1" xmlns="http://www.w3.org/2000/svg" xmlns:xlink="http://www.w3.org/1999/xlink" x="0px" y="0px"
	 viewBox="0 0 22 22" style="enable-background:new 0 0 22 22;" xml:space="preserve">
<style type="text/css">
	.st0{fill:#8CC63F;}
</style>
<g id="Layer_1">
	<rect width="22" height="22"/>
	<g>
		<path class="st0" d="M16.9,18.5c0.1,0.2,0.2,0.3,0.2,0.4c0,0.1,0,0.2-0.1,0.3c-0.1,0.1-0.2,0.1-0.4,0.1c-0.2,0-0.4,0-0.7,0
			c-0.3,0-0.5,0-0.6,0c-0.2,0-0.3,0-0.4-0.1c-0.1,0-0.2-0.1-0.2-0.1c0,0-0.1-0.1-0.1-0.2L11,12.4L7.3,19c0,0.1-0.1,0.1-0.1,0.2
			S7,19.3,6.9,19.3c-0.1,0-0.2,0.1-0.4,0.1c-0.2,0-0.4,0-0.6,0c-0.3,0-0.5,0-0.7,0c-0.2,0-0.3-0.1-0.3-0.1c-0.1-0.1-0.1-0.2-0.1-0.3
			s0.1-0.3,0.2-0.4L9.6,11L5.3,3.7C5.2,3.5,5.1,3.3,5.1,3.2s0-0.2,0.1-0.3s0.2-0.1,0.4-0.1s0.4,0,0.7,0c0.3,0,0.5,0,0.6,0
			s0.3,0,0.4,0.1S7.4,2.9,7.4,3s0.1,0.1,0.1,0.2l3.5,6.1l3.5-6.1c0-0.1,0.1-0.1,0.1-0.2c0-0.1,0.1-0.1,0.2-0.1s0.2-0.1,0.3-0.1
			c0.1,0,0.3,0,0.6,0c0.3,0,0.5,0,0.6,0c0.2,0,0.3,0.1,0.4,0.1c0.1,0.1,0.1,0.1,0.1,0.3c0,0.1-0.1,0.3-0.2,0.5l-4.3,7.2L16.9,18.5z"
			/>
	</g>
</g>
<g id="Layer_2">
	<g>
		<path class="st0" d="M20,2v18H2V2H20 M22,0H0v22h22V0L22,0z"/>
	</g>
</g>
</svg>
