<svg id="Layer_1" data-name="Layer 1" xmlns="http://www.w3.org/2000/svg" viewBox="0 0 24.44 24.39"><defs><style>.cls-1{fill:#fff;stroke:#fff;stroke-miterlimit:10;}.cls-2{fill:#231f20;}.cls-3{fill:#e79c24;}.cls-4{fill:#951a18;}</style></defs><rect class="cls-1" x="0.5" y="0.5" width="23.44" height="23.39"/><polygon class="cls-2" points="19.55 15.91 19.52 13.36 19.54 13.36 19.54 12.36 12.7 12.38 12.68 10.46 22.3 10.46 22.3 1.18 2.16 1.18 2.16 10.46 11.68 10.46 11.7 12.38 4.91 12.39 4.91 12.95 4.9 12.95 4.9 15.91 1.23 15.91 1.23 23.18 11.31 23.18 11.31 15.91 5.9 15.91 5.9 13.39 18.52 13.37 18.55 15.91 13.21 15.91 13.21 23.18 23.23 23.18 23.23 15.91 19.55 15.91"/><rect class="cls-3" x="3.03" y="1.9" width="18.26" height="7.61"/><rect class="cls-4" x="2.3" y="17.05" width="7.95" height="5.29"/><rect class="cls-4" x="14.32" y="16.98" width="7.95" height="5.29"/></svg>