<?xml version="1.0" encoding="utf-8"?>
<!-- Generator: Adobe Illustrator 25.2.0, SVG Export Plug-In . SVG Version: 6.00 Build 0)  -->
<svg version="1.1" id="Layer_1" xmlns="http://www.w3.org/2000/svg" xmlns:xlink="http://www.w3.org/1999/xlink" x="0px" y="0px"
	 viewBox="0 0 22 22" style="enable-background:new 0 0 22 22;" xml:space="preserve">
<style type="text/css">
	.st0{fill:#ED1C24;}
</style>
<g>
	<polygon class="st0" points="8.5,11.2 5.3,9.8 3.1,16.2 7.7,13.6 	"/>
	<path class="st0" d="M8.4,14.3l-5.6,4.4l-0.6,1.6C2.1,20.6,2,20.9,2,21.1c0,0.2,0,0.4,0.1,0.5s0.3,0.2,0.5,0.2c0.3,0,0.6,0,1.1,0
		c0.4,0,0.8,0,1.1,0c0.3,0,0.5-0.1,0.6-0.1c0.1-0.1,0.3-0.1,0.3-0.2c0.1-0.1,0.1-0.2,0.2-0.4l1.2-3.8h3.1l0.4-3.1H8.4z"/>
	<path class="st0" d="M9.4,2.1c-0.3,0-0.6,0.1-0.7,0.1C8.5,2.3,8.4,2.4,8.3,2.5C8.2,2.6,8.1,2.8,8.1,2.9L6.7,7.7l2.7,2.8l0.9-3.3
		L9.6,2.1C9.5,2.1,9.5,2.1,9.4,2.1z"/>
	<path class="st0" d="M15.8,6.7l-1.7-4.1c-0.1-0.2-0.2-0.3-0.2-0.4C13.8,2.1,13.6,2,13.4,2c-0.2,0-0.5-0.1-0.8-0.1
		c-0.2,0-0.5,0-0.9,0l0,4.8l1.4,3.6L15.8,6.7z"/>
	<path class="st0" d="M10.7,0.6c-0.3,0-0.6,0.1-0.8,0.1l0.8,3.9l0.2-1.1l0,0l0.3,0.7l-0.2-3.6C10.9,0.5,10.8,0.6,10.7,0.6z"/>
	<polygon class="st0" points="13.2,11.7 13.7,13.3 18.6,15.4 16.9,10.5 	"/>
	<polygon class="st0" points="19.7,4 16.8,7.4 17.3,8.6 20.9,7.5 	"/>
	<path class="st0" d="M19.1,18.4l-5.7-4.2H11l0.4,3.1h3l1.3,3.9c0,0.1,0.1,0.2,0.2,0.3c0.1,0.1,0.2,0.1,0.3,0.2s0.4,0.1,0.7,0.1
		c0.3,0,0.7,0,1.2,0c0.5,0,0.9,0,1.2,0s0.5-0.1,0.6-0.2c0.1-0.1,0.2-0.3,0.1-0.5c0-0.2-0.1-0.5-0.2-0.9L19.1,18.4z"/>
	<polygon class="st0" points="21,17.3 17.4,15.7 17.6,16.3 17.4,16.3 21.7,19.4 	"/>
	<polygon class="st0" points="10.3,18.4 10,21.4 11.2,21.4 10.8,18.4 	"/>
	<polygon class="st0" points="4.6,16.3 4.7,16 0.9,18.1 0.3,19.9 4.9,16.3 	"/>
	<polygon class="st0" points="5.1,7.4 2.6,4.3 1.7,6.7 4.7,8.3 	"/>
</g>
</svg>
