<svg xmlns="http://www.w3.org/2000/svg" viewBox="0 0 19.64 21.32"><defs><style>.cls-1{fill:#e83e3d;}.cls-1,.cls-2{stroke:#933;stroke-miterlimit:10;}.cls-2{fill:none;}</style></defs><g id="Layer_2" data-name="Layer 2"><path class="cls-1" d="M5.05,21.12h0a3,3,0,0,1-2.14-.9A3.11,3.11,0,0,1,2,18L2.64,11l.63-7.08A3.09,3.09,0,0,1,6.35.8h0a3.08,3.08,0,0,1,2.18.91,3,3,0,0,1,.72,1.15l11.29-.18L20.27,4,18.66,21.12H5.05" transform="translate(-1.51 -0.3)"/><line class="cls-2" x1="7.84" y1="2.53" x2="6.06" y2="18.93"/><path class="cls-2" d="M5.33,18c-.09.22-.91.62-.61,1,.52.74,2.6.92,2.85.17S6.63,17.4,5.42,17.1a2.5,2.5,0,0,0-2.32.46,2.09,2.09,0,0,0-.56,2.08A2.41,2.41,0,0,0,4.08,21a4,4,0,0,0,1,.17" transform="translate(-1.51 -0.3)"/></g></svg>