<svg id="Layer_1" data-name="Layer 1" xmlns="http://www.w3.org/2000/svg" xmlns:xlink="http://www.w3.org/1999/xlink" viewBox="0 0 20.9 20.9"><defs><style>.cls-1{fill:url(#linear-gradient);}.cls-2{fill:url(#linear-gradient-2);}</style><linearGradient id="linear-gradient" x1="6.043" y1="6.135" x2="19.706" y2="19.278" gradientUnits="userSpaceOnUse"><stop offset="0" stop-color="#f7941d" stop-opacity="0.8"/><stop offset="0.71" stop-color="#941a1d"/><stop offset="1" stop-color="#40130f"/></linearGradient><linearGradient id="linear-gradient-2" x1="3.199" y1="3.4" x2="21.54" y2="21.042" gradientUnits="userSpaceOnUse"><stop offset="0" stop-color="#f7941d" stop-opacity="0.7"/><stop offset="0.71" stop-color="#941a1d"/><stop offset="1" stop-color="#40130f"/></linearGradient></defs><path class="cls-1" d="M1.739,20.535h18.9V1.635l-3.15,6.3-7.875-6.3,3.15,7.875L1.739,6.36l9.45,7.875H1.739l7.875,3.15Z" transform="translate(-0.739 -0.635)"/><path class="cls-2" d="M20.639,1.635v18.9H1.739l7.875-3.15-7.875-3.15h9.45L1.739,6.36,12.764,9.51,9.614,1.635l7.875,6.3,3.15-6.3m0-1a1,1,0,0,0-.894.553l-2.6,5.194L10.239.854A1,1,0,0,0,8.686,2.007l2.393,5.982L2.014,5.4A1,1,0,0,0,1.1,7.128l7.328,6.107H1.739a1,1,0,0,0-.371,1.929l5.554,2.221L1.368,19.607a1,1,0,0,0,.371,1.928h18.9a1,1,0,0,0,1-1V1.635a1,1,0,0,0-.77-.973,1.01,1.01,0,0,0-.23-.027Z" transform="translate(-0.739 -0.635)"/></svg>