<?xml version="1.0" encoding="utf-8"?>
<!-- Generator: Adobe Illustrator 25.2.0, SVG Export Plug-In . SVG Version: 6.00 Build 0)  -->
<svg version="1.1" xmlns="http://www.w3.org/2000/svg" xmlns:xlink="http://www.w3.org/1999/xlink" x="0px" y="0px"
	 viewBox="0 0 22 22" style="enable-background:new 0 0 22 22;" xml:space="preserve">
<style type="text/css">
	.st0{fill:url(#SVGID_1_);stroke:#0C0C0C;stroke-linecap:round;stroke-linejoin:round;stroke-miterlimit:1.3161;}
	.st1{fill:#ED1C24;stroke:#ED1C24;stroke-width:1.1693;stroke-linecap:round;stroke-linejoin:round;stroke-miterlimit:1.3161;}
	.st2{fill:#FFFFFF;}
</style>
<g id="Layer_1">
	<g id="File-outline_1_" transform="matrix(1,0,0,1,-502.815,-339.547)">
		
			<linearGradient id="SVGID_1_" gradientUnits="userSpaceOnUse" x1="210.5052" y1="745.9138" x2="210.7684" y2="745.9138" gradientTransform="matrix(5.000000e-15 79.5383 106.0507 -6.000000e-15 -78590.625 -16403.1992)">
			<stop  offset="0" style="stop-color:#FFFFFF"/>
			<stop  offset="0.92" style="stop-color:#FFFFFF"/>
		</linearGradient>
		<path class="st0" d="M506.3,345.4l5.2-5.2h10.4h-10.4h10.4v20.7h-15.5V345.4"/>
	</g>
	<rect x="1" y="11.5" class="st1" width="16.9" height="8.4"/>
</g>
<g id="Layer_2">
	<g>
		<path class="st2" d="M7.4,19.5C7.4,19.5,7.3,19.5,7.4,19.5c0,0.1-0.1,0.1-0.1,0.1s-0.1,0-0.1,0s-0.1,0-0.2,0c-0.1,0-0.2,0-0.2,0
			s-0.1,0-0.1,0s-0.1,0-0.1-0.1s0-0.1,0-0.1v-0.7c-0.3,0.3-0.6,0.5-0.9,0.7s-0.6,0.3-1,0.3c-0.4,0-0.7-0.1-1-0.2S3.2,19.2,3,18.9
			S2.7,18.3,2.6,18s-0.1-0.7-0.1-1.1c0-0.5,0-0.9,0.1-1.2s0.2-0.7,0.4-0.9s0.4-0.5,0.7-0.6s0.6-0.2,1-0.2c0.3,0,0.6,0.1,0.8,0.2
			s0.5,0.3,0.8,0.6v-3.1c0,0,0-0.1,0-0.1s0,0,0.1-0.1s0.1,0,0.1,0s0.1,0,0.2,0c0.1,0,0.2,0,0.2,0s0.1,0,0.1,0s0.1,0,0.1,0.1
			s0,0.1,0,0.1V19.5z M6.4,15.8c-0.3-0.3-0.5-0.6-0.8-0.7s-0.5-0.3-0.8-0.3c-0.2,0-0.5,0.1-0.6,0.2s-0.3,0.3-0.4,0.5
			s-0.2,0.4-0.2,0.7s-0.1,0.5-0.1,0.7c0,0.3,0,0.5,0.1,0.8s0.1,0.5,0.2,0.7s0.2,0.4,0.4,0.5s0.4,0.2,0.6,0.2c0.1,0,0.3,0,0.4-0.1
			s0.2-0.1,0.4-0.2s0.3-0.2,0.4-0.3s0.3-0.3,0.4-0.5V15.8z"/>
		<path class="st2" d="M10.1,19.5C10.1,19.5,10.1,19.5,10.1,19.5c0,0.1-0.1,0.1-0.1,0.1s-0.1,0-0.1,0s-0.1,0-0.2,0
			c-0.1,0-0.2,0-0.2,0s-0.1,0-0.1,0s-0.1,0-0.1-0.1s0,0,0-0.1v-7.8c0,0,0-0.1,0-0.1s0,0,0.1-0.1s0.1,0,0.1,0s0.1,0,0.2,0
			c0.1,0,0.2,0,0.2,0s0.1,0,0.1,0s0.1,0,0.1,0.1s0,0.1,0,0.1V19.5z"/>
		<path class="st2" d="M15.7,18.7c0,0.1,0,0.1,0,0.2s0,0.1,0,0.1s0,0.1,0,0.1s0,0.1-0.1,0.1s-0.1,0.1-0.2,0.2s-0.2,0.1-0.4,0.2
			s-0.3,0.1-0.5,0.1s-0.3,0.1-0.5,0.1c-0.4,0-0.7-0.1-1-0.2s-0.5-0.3-0.7-0.5c-0.2-0.2-0.3-0.5-0.5-0.9s-0.2-0.8-0.2-1.2
			c0-0.5,0.1-1,0.2-1.3s0.3-0.7,0.5-0.9s0.5-0.4,0.8-0.5c0.3-0.1,0.6-0.2,1-0.2c0.2,0,0.3,0,0.5,0s0.3,0.1,0.4,0.1s0.2,0.1,0.4,0.2
			s0.2,0.1,0.2,0.2s0.1,0.1,0.1,0.1s0,0.1,0,0.1s0,0.1,0,0.1s0,0.1,0,0.2c0,0.2,0,0.3-0.1,0.3s-0.1,0.1-0.1,0.1
			c-0.1,0-0.1,0-0.2-0.1s-0.2-0.1-0.3-0.2s-0.3-0.1-0.4-0.2s-0.4-0.1-0.6-0.1c-0.5,0-0.8,0.2-1.1,0.5c-0.2,0.4-0.4,0.9-0.4,1.6
			c0,0.3,0,0.6,0.1,0.9s0.2,0.5,0.3,0.6s0.3,0.3,0.5,0.4s0.4,0.1,0.6,0.1c0.2,0,0.4,0,0.6-0.1s0.3-0.1,0.4-0.2s0.2-0.2,0.3-0.2
			s0.2-0.1,0.2-0.1c0,0,0.1,0,0.1,0s0,0,0,0.1s0,0.1,0,0.1S15.7,18.6,15.7,18.7z"/>
	</g>
</g>
<g id="Layer_3">
</g>
</svg>
