<?xml version="1.0" encoding="utf-8"?>
<!-- Generator: Adobe Illustrator 25.2.0, SVG Export Plug-In . SVG Version: 6.00 Build 0)  -->
<svg version="1.1" xmlns="http://www.w3.org/2000/svg" xmlns:xlink="http://www.w3.org/1999/xlink" x="0px" y="0px"
	 viewBox="0 0 22 22" style="enable-background:new 0 0 22 22;" xml:space="preserve">
<style type="text/css">
	.st0{fill:url(#SVGID_1_);}
	.st1{fill:none;stroke:#000000;stroke-width:0.5;stroke-miterlimit:10;}
	.st2{fill:none;stroke:#000000;stroke-miterlimit:10;}
</style>
<g id="Layer_1">
	<rect width="22" height="22"/>
	<radialGradient id="SVGID_1_" cx="11" cy="11" r="9" gradientUnits="userSpaceOnUse">
		<stop  offset="0" style="stop-color:#ED1C24"/>
		<stop  offset="0.1533" style="stop-color:#EB2125"/>
		<stop  offset="0.2558" style="stop-color:#E62E27"/>
		<stop  offset="0.3435" style="stop-color:#E03E2D"/>
		<stop  offset="0.4229" style="stop-color:#D84F37"/>
		<stop  offset="0.4966" style="stop-color:#CD5E45"/>
		<stop  offset="0.5662" style="stop-color:#BF6B54"/>
		<stop  offset="0.6326" style="stop-color:#AD7664"/>
		<stop  offset="0.6964" style="stop-color:#9A7E74"/>
		<stop  offset="0.756" style="stop-color:#838181"/>
		<stop  offset="0.7626" style="stop-color:#808285"/>
		<stop  offset="1" style="stop-color:#000000"/>
	</radialGradient>
	<circle class="st0" cx="11" cy="11" r="9"/>
</g>
<g id="Layer_2">
	<polygon class="st1" points="13.5,6.5 8.5,6.5 6,10.8 8.5,15.2 13.5,15.2 16,10.8 	"/>
	<polyline class="st1" points="6,1.8 8.5,6.5 13.5,6.5 16,1.8 	"/>
	<polyline class="st1" points="16,19.8 13.5,15.2 8.5,15.2 6,19.8 	"/>
	<line class="st1" x1="16" y1="10.8" x2="21.2" y2="10.8"/>
	<line class="st2" x1="16" y1="1.8" x2="21.2" y2="1.8"/>
	<line class="st2" x1="16" y1="19.8" x2="21.2" y2="19.8"/>
	<line class="st2" x1="6" y1="19.8" x2="1" y2="19.8"/>
	<line class="st1" x1="6" y1="10.8" x2="1.4" y2="10.8"/>
	<line class="st2" x1="6" y1="1.8" x2="1" y2="1.8"/>
</g>
</svg>
