<?xml version="1.0" encoding="utf-8"?>
<!-- Generator: Adobe Illustrator 25.2.0, SVG Export Plug-In . SVG Version: 6.00 Build 0)  -->
<svg version="1.1" id="Layer_1" xmlns="http://www.w3.org/2000/svg" xmlns:xlink="http://www.w3.org/1999/xlink" x="0px" y="0px"
	 viewBox="0 0 22 22" style="enable-background:new 0 0 22 22;" xml:space="preserve">
<style type="text/css">
	.st0{fill:#00AEEF;}
	.st1{fill:#ED1C24;}
</style>
<path class="st0" d="M1.7,8.5c0,0,5.5-2.8,7.3-2.8c1.8,0,6.1,1.8,6.8,2c0.6,0.1,1.9,0.4,2.4,0.2c0.4-0.2,0.9-1,1-1.4
	c0.1-0.4,0-1.4-0.2-1.7c-0.3-0.4-1.4-1-1.9-1.1c-0.6-0.1-0.9,0-1.4,0.2c-0.6,0.3-1.5,1.8-1.5,1.8s0.2-2.5,0.9-3
	c0.5-0.4,1.5-0.7,2-0.7c0.9,0.1,2.6,1,3.2,1.7c0.5,0.6,1,2.2,0.8,2.9c-0.2,0.8-0.9,2.8-1.8,3.1c-0.9,0.3-2.7-0.1-3.6-0.3
	c-1.5-0.4-4.8-1.9-6.4-2C7.5,7.3,1.7,8.5,1.7,8.5z"/>
<path class="st0" d="M2.1,11.2c0.1,0,2.7-1.2,3.6-1.5C6.5,9.6,8.2,9.5,9,9.6c1,0.1,3.1,0.8,4.1,1.1c0.6,0.2,1.8,0.6,2.4,0.7
	c0.7,0.1,2,0.2,2.7,0.1C18.8,11.5,21,11,21,11s-1.9,1.1-2.6,1.4c-0.7,0.3-2.2,0.5-2.9,0.5c-0.8-0.1-2.4-0.7-3.2-0.9
	c-0.9-0.3-2.6-0.9-3.5-1.1c-0.7-0.1-2.2-0.2-2.9-0.1C4.9,10.8,2.1,11.2,2.1,11.2z"/>
<g>
	<path class="st1" d="M9.4,13.5c-0.8,1.1-1.5,2.2-2,3.4c-0.3,0.6-0.4,1.2-0.6,1.8c-0.3,0.6-0.5,1.2-0.9,1.8l-0.1,0
		c-0.2-0.7-0.1-1.4,0-2.1c0.1-0.7,0.5-1.3,0.9-1.9C7.3,15.4,8.2,14.3,9.4,13.5L9.4,13.5z"/>
</g>
<g>
	<path class="st1" d="M15,10.5c-1.5,1.3-2.7,2.9-3.6,4.6c-0.4,0.9-0.7,1.8-1.1,2.7l-1.1,2.8l-0.1,0c-0.2-1,0-2.1,0.2-3.1
		c0.2-1,0.8-1.9,1.3-2.8C11.8,13,13.2,11.5,15,10.5L15,10.5z"/>
</g>
<g>
	<path class="st1" d="M5.4,11.6c-1.3,1.1-2.4,2.5-3,4.1c-0.3,0.8-0.4,1.6-0.7,2.4c-0.2,0.8-0.4,1.6-0.6,2.5l-0.1,0
		c-0.3-0.9-0.4-1.8-0.3-2.7c0.1-0.9,0.5-1.8,0.9-2.6C2.5,13.7,3.8,12.4,5.4,11.6L5.4,11.6z"/>
</g>
<g>
	<path class="st1" d="M7.4,12.1c-1,1.2-1.9,2.6-2.5,4c-0.3,0.7-0.5,1.5-0.7,2.2c-0.3,0.7-0.5,1.5-0.9,2.2l-0.1,0
		c-0.1-0.8-0.1-1.7,0.1-2.5c0.2-0.8,0.6-1.6,1-2.3C5,14.4,6.1,13.1,7.4,12.1L7.4,12.1z"/>
</g>
<g>
	<path class="st1" d="M15.5,13.7c-0.9,1-1.6,2.1-2.2,3.3c-0.3,0.6-0.5,1.2-0.8,1.8c-0.3,0.6-0.6,1.2-1.1,1.7l-0.1,0
		c-0.1-0.7,0-1.4,0.2-2.1c0.2-0.7,0.6-1.2,1-1.8C13.4,15.5,14.3,14.5,15.5,13.7L15.5,13.7z"/>
</g>
<g>
	<path class="st1" d="M19.2,13.1c-1,1.1-1.8,2.3-2.4,3.6c-0.3,0.6-0.5,1.3-0.8,2c-0.3,0.6-0.7,1.3-1.1,1.9l-0.1,0
		c-0.1-0.8,0.1-1.5,0.3-2.3c0.2-0.7,0.7-1.4,1.1-2C16.9,15,18,13.9,19.2,13.1L19.2,13.1z"/>
</g>
<g>
	<path class="st1" d="M21.5,12.4c-0.8,1.3-1.4,2.7-2,4.1c-0.3,0.7-0.5,1.5-0.9,2.1c-0.4,0.7-0.7,1.3-1.2,2l-0.1,0
		c-0.1-0.8,0.1-1.6,0.4-2.4c0.2-0.8,0.7-1.4,1.1-2.1C19.5,14.8,20.4,13.5,21.5,12.4L21.5,12.4z"/>
</g>
</svg>
