<?xml version="1.0" encoding="utf-8"?>
<!-- Generator: Adobe Illustrator 25.2.0, SVG Export Plug-In . SVG Version: 6.00 Build 0)  -->
<svg version="1.1" xmlns="http://www.w3.org/2000/svg" xmlns:xlink="http://www.w3.org/1999/xlink" x="0px" y="0px"
	 viewBox="0 0 22 22" style="enable-background:new 0 0 22 22;" xml:space="preserve">
<style type="text/css">
	.st0{fill:#603913;}
	.st1{fill:#BCBEC0;}
	.st2{fill:none;stroke:#603913;stroke-width:3.5334;stroke-miterlimit:1.3161;}
</style>
<g id="Layer_1">
</g>
<g id="Layer_2">
	<g>
		<path class="st0" d="M16.3,3c-0.1,0-0.3,0.1-0.4,0.2L1.2,19.7c-0.2,0.2-0.2,0.6,0,0.8l1.1,1c0.1,0.1,0.2,0.1,0.4,0.1
			c0.2,0,0.3-0.1,0.4-0.2L17.9,4.9c0.2-0.2,0.2-0.5,0-0.7l-1.2-1C16.6,3.1,16.4,3,16.3,3L16.3,3z"/>
	</g>
	<g>
		<path class="st1" d="M5.7,0.4c-0.8,0-1.4,0.1-1.4,0.3C4,1.2,9.2,2.1,14.4,6.8c5.1,4.6,6.6,9.4,7.2,9.4c0,0,0,0,0.1,0
			c0.6-0.4-0.3-7.3-5.2-11.7C12.9,1.3,8.1,0.4,5.7,0.4L5.7,0.4z"/>
	</g>
	<path class="st2" d="M1.4,18.3"/>
</g>
</svg>
