<svg xmlns="http://www.w3.org/2000/svg" xmlns:xlink="http://www.w3.org/1999/xlink" viewBox="0 0 19.933 19.584"><defs><style>.cls-1,.cls-4,.cls-5,.cls-6,.cls-7,.cls-8{fill:none;stroke-linecap:round;stroke-miterlimit:10;}.cls-1{stroke:url(#linear-gradient);}.cls-2{fill:url(#linear-gradient-2);}.cls-3{fill:url(#linear-gradient-3);}.cls-4{stroke:url(#linear-gradient-4);}.cls-5{stroke:url(#linear-gradient-5);}.cls-6{stroke:url(#linear-gradient-6);}.cls-7{stroke:url(#linear-gradient-7);}.cls-8{stroke:url(#linear-gradient-8);}</style><linearGradient id="linear-gradient" x1="8.748" y1="8.573" x2="18.791" y2="18.617" gradientUnits="userSpaceOnUse"><stop offset="0" stop-color="#d0147f"/><stop offset="0.444" stop-color="#b84594"/><stop offset="0.804" stop-color="#a766a3"/><stop offset="1" stop-color="#a173a8"/></linearGradient><linearGradient id="linear-gradient-2" x1="16.538" y1="0.782" x2="26.582" y2="10.826" xlink:href="#linear-gradient"/><linearGradient id="linear-gradient-3" x1="0.957" y1="16.364" x2="11.001" y2="26.407" xlink:href="#linear-gradient"/><linearGradient id="linear-gradient-4" x1="12.106" y1="14.3" x2="16.207" y2="14.3" xlink:href="#linear-gradient"/><linearGradient id="linear-gradient-5" x1="4.686" y1="14.3" x2="8.787" y2="14.3" xlink:href="#linear-gradient"/><linearGradient id="linear-gradient-6" x1="11.725" y1="6.048" x2="15.826" y2="6.048" xlink:href="#linear-gradient"/><linearGradient id="linear-gradient-7" x1="3.136" y1="4.002" x2="7.237" y2="4.002" xlink:href="#linear-gradient"/><linearGradient id="linear-gradient-8" x1="6.004" y1="9.151" x2="10.105" y2="9.151" xlink:href="#linear-gradient"/></defs><g id="Layer_1" data-name="Layer 1"><polyline class="cls-1" points="18.377 2.507 18.377 18.031 2.507 18.028"/><polygon class="cls-2" points="16.822 3.687 18.377 3.026 19.933 3.687 18.377 0 16.822 3.687"/><polygon class="cls-3" points="3.687 16.473 3.026 18.028 3.687 19.584 0 18.028 3.687 16.473"/></g><g id="Layer_2" data-name="Layer 2"><rect class="cls-4" x="12.606" y="12.931" width="3.101" height="2.739" rx="0.416"/><rect class="cls-5" x="5.186" y="12.931" width="3.101" height="2.739" rx="0.416"/><rect class="cls-6" x="12.225" y="4.678" width="3.101" height="2.739" rx="0.416"/><rect class="cls-7" x="3.636" y="2.632" width="3.101" height="2.739" rx="0.416"/><rect class="cls-8" x="6.504" y="7.782" width="3.101" height="2.739" rx="0.416"/></g></svg>