<?xml version="1.0" encoding="utf-8"?>
<!-- Generator: Adobe Illustrator 25.2.0, SVG Export Plug-In . SVG Version: 6.00 Build 0)  -->
<svg version="1.1" xmlns="http://www.w3.org/2000/svg" xmlns:xlink="http://www.w3.org/1999/xlink" x="0px" y="0px"
	 viewBox="0 0 22 22" style="enable-background:new 0 0 22 22;" xml:space="preserve">
<style type="text/css">
	.st0{fill:#39B54A;stroke:#000000;stroke-width:1.2428;stroke-miterlimit:10;}
	.st1{fill:#00AEEF;stroke:#000000;stroke-width:1.2428;stroke-miterlimit:10;}
	.st2{fill:#ED1C24;stroke:#000000;stroke-width:1.2428;stroke-miterlimit:10;}
	.st3{fill:#FFFFFF;stroke:#000000;stroke-width:1.2428;stroke-miterlimit:10;}
	.st4{fill:#FFF200;stroke:#000000;stroke-width:1.2428;stroke-miterlimit:10;}
</style>
<g id="Layer_2">
	<polygon class="st0" points="14.1,1.8 11,1.8 6.9,1.7 5.2,3.9 3.6,2.6 2.9,1.9 0.8,5.2 2.8,6.9 2.8,15.4 8.4,20.3 16.5,20.3 
		21.2,5.9 16.5,4.1 	"/>
</g>
<g id="Layer_3">
	<path class="st1" d="M14,2.2l-3,5.8c-0.8,1.7,2.9,4.2,3.8,1.6l2.2-5.3L14,2.2z"/>
</g>
<g id="Layer_4">
	<polygon class="st2" points="14.8,9.6 17.3,17.8 21.2,5.9 16.9,4.2 	"/>
</g>
<g id="Layer_5">
	<line class="st3" x1="11" y1="7.9" x2="2.8" y2="7.9"/>
</g>
<g id="Layer_6">
	<polygon class="st4" points="9.6,7.9 9.6,20.3 8.4,20.3 2.8,15.4 2.8,7.9 	"/>
</g>
</svg>
