<?xml version="1.0" encoding="utf-8"?>
<!-- Generator: Adobe Illustrator 25.2.0, SVG Export Plug-In . SVG Version: 6.00 Build 0)  -->
<svg version="1.1" xmlns="http://www.w3.org/2000/svg" xmlns:xlink="http://www.w3.org/1999/xlink" x="0px" y="0px"
	 viewBox="0 0 22 22" style="enable-background:new 0 0 22 22;" xml:space="preserve">
<style type="text/css">
	.st0{fill:#31A7DF;}
	.st1{fill:#F1F2F2;}
	.st2{fill:none;stroke:#F1F2F2;stroke-width:2;stroke-linecap:round;stroke-miterlimit:10;}
	.st3{fill:none;stroke:#31A7DF;stroke-width:2;stroke-linecap:round;stroke-miterlimit:10;}
</style>
<g id="Layer_1">
	<g>
		<rect y="7.9" class="st0" width="3.1" height="3.1"/>
		<rect x="3.1" y="7.9" class="st1" width="3.1" height="3.1"/>
		<rect x="6.3" y="7.9" class="st0" width="3.1" height="3.1"/>
		<rect x="9.4" y="7.9" class="st1" width="3.1" height="3.1"/>
		<rect x="12.6" y="7.9" class="st0" width="3.1" height="3.1"/>
		<rect x="15.7" y="7.9" class="st1" width="3.1" height="3.1"/>
		<rect x="18.9" y="7.9" class="st0" width="3.1" height="3.1"/>
		<rect y="11" class="st1" width="3.1" height="3.1"/>
		<rect x="3.1" y="11" class="st0" width="3.1" height="3.1"/>
		<rect x="6.3" y="11" class="st1" width="3.1" height="3.1"/>
		<rect x="9.4" y="11" class="st0" width="3.1" height="3.1"/>
		<rect x="12.6" y="11" class="st1" width="3.1" height="3.1"/>
		<rect x="15.7" y="11" class="st0" width="3.1" height="3.1"/>
		<rect x="18.9" y="11" class="st1" width="3.1" height="3.1"/>
	</g>
</g>
<g id="Layer_2">
	<g>
		<g>
			<polyline class="st2" points="19.5,1.6 11.2,7.3 7.9,5.1 			"/>
			<g>
				<polygon class="st1" points="11.8,3.7 8.8,5.7 8.1,9.2 3.4,2 				"/>
			</g>
		</g>
	</g>
	<g>
		<g>
			<polyline class="st3" points="19.9,20.5 11.2,14.7 7.9,16.9 			"/>
			<g>
				<polygon class="st0" points="8.1,12.8 8.8,16.3 11.8,18.3 3.4,20 				"/>
			</g>
		</g>
	</g>
</g>
</svg>
