<svg id="Layer_1" data-name="Layer 1" xmlns="http://www.w3.org/2000/svg" viewBox="0 0 21.298 21.61"><defs><style>.cls-1{fill:#2ca9e1;}.cls-2{fill:#fff;}</style></defs><path class="cls-1" d="M6.194,21.447a2.164,2.164,0,0,1-1.5-.629c-.507-.491-.307-1.183-.131-1.8.187-.646.278-1.056-.022-1.306a.712.712,0,0,0-.485-.162,3.285,3.285,0,0,0-.878.184,3.469,3.469,0,0,1-.974.2,1.118,1.118,0,0,1-.806-.31,2.159,2.159,0,0,1-.679-1.582,2.589,2.589,0,0,1,.8-1.754,3.453,3.453,0,0,1,2.732-.99,3.96,3.96,0,0,0,1-.1c.886-.3,7.5-7.134,7.772-8.031a3.979,3.979,0,0,0,.065-1,3.459,3.459,0,0,1,.9-2.763A2.545,2.545,0,0,1,15.806.553a2.165,2.165,0,0,1,1.505.63c.512.495.329,1.191.166,1.805-.168.638-.251,1.046.015,1.322a.548.548,0,0,0,.426.162h0a3.277,3.277,0,0,0,.873-.191,3.614,3.614,0,0,1,1.02-.212,1.1,1.1,0,0,1,.8.3,2.14,2.14,0,0,1,.679,1.581,2.587,2.587,0,0,1-.8,1.754,3.454,3.454,0,0,1-2.731.99,3.916,3.916,0,0,0-1,.1c-.887.3-7.5,7.132-7.771,8.029a3.994,3.994,0,0,0-.067,1,3.456,3.456,0,0,1-.9,2.763A2.544,2.544,0,0,1,6.194,21.447Z" transform="translate(-0.351 -0.195)"/><path class="cls-2" d="M15.805.912a1.8,1.8,0,0,1,1.257.528c.744.721-.656,2.263.173,3.119a.9.9,0,0,0,.683.271c.607,0,1.327-.4,1.892-.4a.75.75,0,0,1,.548.2,1.9,1.9,0,0,1-.127,2.829c-1.219,1.258-2.523.689-3.574.994-.922.269-7.78,7.354-8.018,8.284-.271,1.06.341,2.346-.878,3.6a2.2,2.2,0,0,1-1.566.747,1.8,1.8,0,0,1-1.257-.528c-.744-.721.78-2.326-.173-3.119a1.074,1.074,0,0,0-.714-.245c-.62,0-1.3.383-1.852.383a.764.764,0,0,1-.557-.209,1.9,1.9,0,0,1,.127-2.829c1.219-1.258,2.523-.689,3.574-.994.922-.269,7.78-7.354,8.018-8.284.271-1.06-.341-2.345.878-3.6A2.2,2.2,0,0,1,15.805.912m0-.717h0a2.893,2.893,0,0,0-2.081.965,3.808,3.808,0,0,0-1,3.017,3.685,3.685,0,0,1-.055.909c-.42.958-6.58,7.322-7.563,7.786a3.879,3.879,0,0,1-.867.071,3.809,3.809,0,0,0-2.983,1.1,2.6,2.6,0,0,0-.11,3.842A1.463,1.463,0,0,0,2.2,18.3a3.765,3.765,0,0,0,1.078-.213,3.085,3.085,0,0,1,.774-.17.356.356,0,0,1,.256.08c.12.1.066.381-.093.932a2.01,2.01,0,0,0,.226,2.151,2.519,2.519,0,0,0,1.755.73,2.893,2.893,0,0,0,2.081-.965,3.808,3.808,0,0,0,1-3.017,3.685,3.685,0,0,1,.055-.909c.42-.958,6.58-7.322,7.563-7.786a3.879,3.879,0,0,1,.867-.071,3.809,3.809,0,0,0,2.983-1.1,2.6,2.6,0,0,0,.11-3.842,1.451,1.451,0,0,0-1.046-.4,3.869,3.869,0,0,0-1.125.228,3.08,3.08,0,0,1-.767.175c-.116,0-.144-.029-.168-.054-.136-.14-.055-.495.073-.981A2.054,2.054,0,0,0,17.56.925,2.519,2.519,0,0,0,15.805.2Z" transform="translate(-0.351 -0.195)"/></svg>