<svg id="Layer_1" data-name="Layer 1" xmlns="http://www.w3.org/2000/svg" viewBox="0 0 21.46 21.34"><defs><style>.cls-1{fill:#a7a9ac;}.cls-2{fill:#6d6e71;}</style></defs><path class="cls-1" d="M20.51,1a3.28,3.28,0,0,1-.77,1.6c-.13.14-.6.71-.76.83-.06,0-.37-.11-.43-.16a2.68,2.68,0,0,1-.62-.9A3.18,3.18,0,0,1,17.63,1a2.55,2.55,0,0,1,1.46-.6A2.54,2.54,0,0,1,20.51,1Z" transform="translate(-0.27 -0.33)"/><path class="cls-1" d="M18.81,3.4a8,8,0,0,1-1.26.78,2.61,2.61,0,0,1-.65-1.57,2.79,2.79,0,0,1,.6-1.54A5,5,0,0,0,18,2.39a1.5,1.5,0,0,0,.64.7A3.28,3.28,0,0,0,18.81,3.4Z" transform="translate(-0.27 -0.33)"/><path class="cls-1" d="M20.24,11.11,10.16,2.3l6.7.45a1.9,1.9,0,0,0,.69,1.52,3.13,3.13,0,0,0,1.55.61Z" transform="translate(-0.27 -0.33)"/><path class="cls-2" d="M21.41,2.57a2.37,2.37,0,0,1-.34,1.08,2.14,2.14,0,0,1-1.32.15A4.3,4.3,0,0,1,19,3.44c.14-.11.6-.71.72-.84A3.55,3.55,0,0,0,20.55,1,3,3,0,0,1,21.41,2.57Z" transform="translate(-0.27 -0.33)"/><path class="cls-2" d="M20.9,3.85a3.24,3.24,0,0,1-1.82,1,3.19,3.19,0,0,1-1.58-.63,8.67,8.67,0,0,0,1.41-.75,3.51,3.51,0,0,0,.9.42A4,4,0,0,0,20.9,3.85Z" transform="translate(-0.27 -0.33)"/><polygon class="cls-2" points="16.74 2.42 10.08 1.92 12.01 1.16 16.74 2.42"/><polygon class="cls-2" points="21.22 7.95 20.15 10.65 18.76 3.92 21.22 7.95"/><polygon class="cls-1" points="20.15 11.04 0.07 21.25 9.88 1.99 20.15 11.04"/><path d="M21.63,8.11,19.73,5l0,0,0,0A2.55,2.55,0,0,0,21.55,2.6,2.51,2.51,0,0,0,19.44.35,2.43,2.43,0,0,0,16.7,2.47l-2.59-.63-1.84-.45-2.22.82L.54,20.55.27,21.67l1-.33,12-5.9,7.57-4,.09-.26.83-3ZM19.09,4.6a2,2,0,0,1-1.26-.45,5.15,5.15,0,0,0,1.09-.57,3.05,3.05,0,0,0,.86.35,2.15,2.15,0,0,0,.8,0A2.06,2.06,0,0,1,19.09,4.6Zm2-2a1.93,1.93,0,0,1-.28,1,1.39,1.39,0,0,1-1.06.08,3.25,3.25,0,0,1-.64-.24,3.42,3.42,0,0,0,.4-.36,4.78,4.78,0,0,0,1-1.8A2,2,0,0,1,21.12,2.61Zm-2-2a2.07,2.07,0,0,1,1.29.46,4.49,4.49,0,0,1-1,1.82,3.31,3.31,0,0,1-.44.39,2,2,0,0,1-.19-.12,2.91,2.91,0,0,1-.67-.92,2.43,2.43,0,0,1-.27-1.15A2,2,0,0,1,19.09.62Zm-1.53.7a2.86,2.86,0,0,0,.27,1,2.92,2.92,0,0,0,.81,1.06s0,0,.05,0A5.08,5.08,0,0,1,17.62,4a1.95,1.95,0,0,1-.06-2.65Zm-5.29.41,4.27.94-5.78-.45ZM1,20.73l9.23-18L19.75,11ZM10.44,2.48l6.28.44A2.29,2.29,0,0,0,17.93,4.7,1.86,1.86,0,0,0,19.05,5l.86,5.54Zm10,7.8L19.38,5,21,8.46Z" transform="translate(-0.27 -0.33)"/></svg>