<svg xmlns="http://www.w3.org/2000/svg" xmlns:xlink="http://www.w3.org/1999/xlink" viewBox="0 0 19.001 21.718"><defs><style>.cls-1{stroke:#0c0c0c;fill:url(#linear-gradient);}.cls-1,.cls-2{stroke-linecap:round;stroke-linejoin:round;}.cls-2{fill:#c1272d;stroke:#c1272d;}.cls-3{fill:#fff;}</style><linearGradient id="linear-gradient" x1="-292.31" y1="406.367" x2="-292.047" y2="406.367" gradientTransform="matrix(0, 79.538, 106.051, 0, -43084.234, 23250.297)" gradientUnits="userSpaceOnUse"><stop offset="0" stop-color="#fff"/><stop offset="0.92" stop-color="#fff"/></linearGradient></defs><g id="Layer_1" data-name="Layer 1"><g id="File-outline"><path class="cls-1" d="M3.493,5.847,8.673.668H19.032V21.386H3.493V5.847" transform="translate(-0.531 -0.168)"/></g><rect class="cls-2" x="0.5" y="9.832" width="16.95" height="9.004"/></g><g id="Layer_2" data-name="Layer 2"><path class="cls-3" d="M5.365,15.917a1.828,1.828,0,0,1-.165.793,1.612,1.612,0,0,1-.467.588,2.125,2.125,0,0,1-.723.361,3.272,3.272,0,0,1-.923.122,3.5,3.5,0,0,1-.59-.048,3.339,3.339,0,0,1-.5-.123,2.626,2.626,0,0,1-.378-.154,1.15,1.15,0,0,1-.226-.146.37.37,0,0,1-.1-.18,1.212,1.212,0,0,1-.032-.316,1.342,1.342,0,0,1,.013-.207.64.64,0,0,1,.032-.135.134.134,0,0,1,.135-.1.456.456,0,0,1,.21.087c.093.058.207.121.342.19a3.148,3.148,0,0,0,.481.191,2.138,2.138,0,0,0,.639.087,1.949,1.949,0,0,0,.49-.058,1.209,1.209,0,0,0,.381-.171.77.77,0,0,0,.248-.287A.918.918,0,0,0,4.313,16a.665.665,0,0,0-.126-.413,1.2,1.2,0,0,0-.332-.3,2.684,2.684,0,0,0-.465-.229l-.532-.21a5.517,5.517,0,0,1-.535-.248,2.046,2.046,0,0,1-.468-.339,1.553,1.553,0,0,1-.333-.478,1.612,1.612,0,0,1-.125-.664,1.666,1.666,0,0,1,.132-.655,1.51,1.51,0,0,1,.4-.549,1.978,1.978,0,0,1,.661-.377,2.739,2.739,0,0,1,.926-.142,2.806,2.806,0,0,1,.465.039,3.176,3.176,0,0,1,.419.1,2.039,2.039,0,0,1,.319.126,1.336,1.336,0,0,1,.2.12.341.341,0,0,1,.09.09.274.274,0,0,1,.032.087c.007.032.013.072.019.119a1.243,1.243,0,0,1,.01.175,1.5,1.5,0,0,1-.01.19.455.455,0,0,1-.032.132.163.163,0,0,1-.055.074.114.114,0,0,1-.071.023.361.361,0,0,1-.167-.071,2.515,2.515,0,0,0-.284-.152,3.205,3.205,0,0,0-.41-.151,1.848,1.848,0,0,0-.539-.071,1.674,1.674,0,0,0-.477.061.919.919,0,0,0-.339.174.746.746,0,0,0-.2.268.83.83,0,0,0-.068.336.681.681,0,0,0,.129.422,1.227,1.227,0,0,0,.336.3,2.793,2.793,0,0,0,.471.233q.264.1.539.213c.182.073.363.154.542.245a2.033,2.033,0,0,1,.474.329,1.5,1.5,0,0,1,.332.464A1.522,1.522,0,0,1,5.365,15.917Z" transform="translate(-0.531 -0.168)"/><path class="cls-3" d="M11.263,17.5a.137.137,0,0,1-.052.116.36.36,0,0,1-.142.058,1.334,1.334,0,0,1-.265.02,1.445,1.445,0,0,1-.267-.02.323.323,0,0,1-.146-.058.144.144,0,0,1-.045-.116v-.581a2.863,2.863,0,0,1-.848.633,2.257,2.257,0,0,1-.991.225,2.691,2.691,0,0,1-.829-.119,1.793,1.793,0,0,1-.632-.345,1.562,1.562,0,0,1-.407-.555,1.85,1.85,0,0,1-.145-.749,1.735,1.735,0,0,1,.2-.851,1.67,1.67,0,0,1,.574-.6,2.793,2.793,0,0,1,.917-.358,5.658,5.658,0,0,1,1.219-.12h.8v-.452a2.216,2.216,0,0,0-.071-.593A1.007,1.007,0,0,0,9.9,12.61a.983.983,0,0,0-.409-.258,1.918,1.918,0,0,0-.62-.087,2.474,2.474,0,0,0-.706.093,3.644,3.644,0,0,0-.549.207c-.157.075-.288.144-.393.206a.553.553,0,0,1-.236.094.159.159,0,0,1-.09-.026.211.211,0,0,1-.068-.078.41.41,0,0,1-.042-.132,1.082,1.082,0,0,1-.013-.177A1.13,1.13,0,0,1,6.8,12.2a.366.366,0,0,1,.109-.178,1.39,1.39,0,0,1,.3-.2,3.2,3.2,0,0,1,.491-.207,4.534,4.534,0,0,1,.606-.155,3.616,3.616,0,0,1,.665-.061,3.481,3.481,0,0,1,1.065.142,1.709,1.709,0,0,1,.709.416,1.613,1.613,0,0,1,.394.681,3.284,3.284,0,0,1,.123.948ZM10.2,14.852H9.3a3.463,3.463,0,0,0-.762.074,1.573,1.573,0,0,0-.535.22.9.9,0,0,0-.313.348,1.043,1.043,0,0,0-.1.468.933.933,0,0,0,.287.719,1.129,1.129,0,0,0,.8.268,1.5,1.5,0,0,0,.778-.213,3.347,3.347,0,0,0,.751-.652Z" transform="translate(-0.531 -0.168)"/><path class="cls-3" d="M17.76,11.677a.521.521,0,0,1,0,.055.5.5,0,0,1-.01.062c0,.021-.009.045-.016.07s-.014.054-.022.084l-1.981,5.517a.327.327,0,0,1-.068.116.271.271,0,0,1-.126.071.976.976,0,0,1-.213.036c-.086.006-.193.01-.322.01s-.237,0-.323-.013a1.1,1.1,0,0,1-.21-.039.318.318,0,0,1-.126-.071.337.337,0,0,1-.071-.11L12.3,11.948q-.025-.076-.042-.135a.566.566,0,0,1-.019-.087c0-.02,0-.036,0-.049a.161.161,0,0,1,.026-.09.172.172,0,0,1,.087-.061.582.582,0,0,1,.162-.029c.066,0,.149-.007.248-.007.125,0,.225,0,.3.01a.586.586,0,0,1,.174.035.225.225,0,0,1,.091.065.568.568,0,0,1,.055.1l1.639,4.788.025.077.02-.077L16.676,11.7a.236.236,0,0,1,.045-.1.252.252,0,0,1,.094-.065.576.576,0,0,1,.168-.035c.071-.007.164-.01.28-.01.1,0,.181,0,.246.007a.426.426,0,0,1,.151.032.18.18,0,0,1,.078.061A.161.161,0,0,1,17.76,11.677Z" transform="translate(-0.531 -0.168)"/></g></svg>