<svg id="Layer_1" data-name="Layer 1" xmlns="http://www.w3.org/2000/svg" viewBox="0 0 21.219 20.61"><defs><style>.cls-1{fill:#666;}.cls-2{fill:#ccc;}.cls-3{fill:#fff;}</style></defs><rect class="cls-1" x="0.546" y="8.111" width="20.622" height="12.498"/><polygon class="cls-2" points="6.977 8.346 0.494 8.346 0.494 5.768 3.072 5.768 6.977 8.346"/><polygon class="cls-1" points="12.159 8.346 6.977 8.346 3.072 5.768 8.253 5.768 12.159 8.346"/><polygon class="cls-2" points="17.34 8.346 12.159 8.346 8.253 5.768 13.434 5.768 17.34 8.346"/><polygon class="cls-1" points="21.219 8.346 17.34 8.346 13.434 5.768 21.219 5.768 21.219 8.346"/><polygon class="cls-2" points="6.385 2.473 0 3.599 0.448 6.137 2.986 5.69 6.385 2.473"/><polygon class="cls-1" points="11.487 1.573 6.385 2.473 2.986 5.69 8.089 4.79 11.487 1.573"/><polygon class="cls-2" points="16.59 0.674 11.487 1.573 8.089 4.79 13.191 3.89 16.59 0.674"/><polygon class="cls-1" points="20.411 0 16.59 0.674 13.191 3.89 20.858 2.538 20.411 0"/><path class="cls-3" d="M3.3,11.344a.745.745,0,0,1-.151.54.809.809,0,0,1-.553.143.8.8,0,0,1-.544-.14.728.728,0,0,1-.147-.53.74.74,0,0,1,.151-.54.809.809,0,0,1,.553-.143.8.8,0,0,1,.544.14A.728.728,0,0,1,3.3,11.344Zm-.13,8.23a.151.151,0,0,1-.028.093.216.216,0,0,1-.088.064.571.571,0,0,1-.171.041,2.367,2.367,0,0,1-.281.014,2.28,2.28,0,0,1-.273-.014.6.6,0,0,1-.174-.041.19.19,0,0,1-.089-.064.172.172,0,0,1-.024-.093V13.422a.172.172,0,0,1,.024-.089.176.176,0,0,1,.089-.068.6.6,0,0,1,.174-.041,2.28,2.28,0,0,1,.273-.014,2.367,2.367,0,0,1,.281.014.571.571,0,0,1,.171.041.2.2,0,0,1,.088.068.152.152,0,0,1,.028.089Z" transform="translate(-0.281 -1.39)"/><path class="cls-3" d="M10.066,19.574a.157.157,0,0,1-.027.093.22.22,0,0,1-.089.064.563.563,0,0,1-.171.041,2.268,2.268,0,0,1-.273.014,2.336,2.336,0,0,1-.28-.014.563.563,0,0,1-.171-.041.22.22,0,0,1-.089-.064.158.158,0,0,1-.028-.093v-3.6a3.527,3.527,0,0,0-.082-.848,1.749,1.749,0,0,0-.239-.554,1.033,1.033,0,0,0-.407-.355,1.286,1.286,0,0,0-.577-.123,1.456,1.456,0,0,0-.848.3,4.6,4.6,0,0,0-.889.881v4.3a.157.157,0,0,1-.027.093.22.22,0,0,1-.089.064.563.563,0,0,1-.171.041,2.336,2.336,0,0,1-.28.014,2.268,2.268,0,0,1-.273-.014.618.618,0,0,1-.175-.041.2.2,0,0,1-.089-.064.171.171,0,0,1-.023-.093V13.422a.191.191,0,0,1,.02-.093.194.194,0,0,1,.082-.068.5.5,0,0,1,.157-.041c.064-.006.148-.01.253-.01s.184,0,.25.01a.442.442,0,0,1,.154.041.233.233,0,0,1,.078.068.172.172,0,0,1,.024.093v.813a3.785,3.785,0,0,1,1.036-.851,2.226,2.226,0,0,1,1.042-.27,2.318,2.318,0,0,1,1.036.209,1.858,1.858,0,0,1,.68.557,2.238,2.238,0,0,1,.373.816,4.889,4.889,0,0,1,.112,1.125Z" transform="translate(-0.281 -1.39)"/><path class="cls-3" d="M14.922,10.893a1.167,1.167,0,0,1-.014.208.858.858,0,0,1-.03.127.108.108,0,0,1-.113.082.322.322,0,0,1-.119-.031c-.048-.021-.107-.044-.175-.069a2.3,2.3,0,0,0-.242-.068,1.576,1.576,0,0,0-.326-.031,1.034,1.034,0,0,0-.43.082.658.658,0,0,0-.287.257,1.26,1.26,0,0,0-.158.451,4.138,4.138,0,0,0-.048.673v.67h1.374a.159.159,0,0,1,.093.025.208.208,0,0,1,.069.082.522.522,0,0,1,.047.146,1.225,1.225,0,0,1,.017.219.763.763,0,0,1-.061.355.184.184,0,0,1-.165.11H12.98v5.393a.15.15,0,0,1-.027.093.213.213,0,0,1-.092.064.61.61,0,0,1-.174.041,2.679,2.679,0,0,1-.547,0,.6.6,0,0,1-.174-.041.213.213,0,0,1-.092-.064.151.151,0,0,1-.028-.093V14.181h-.868a.175.175,0,0,1-.164-.11.836.836,0,0,1-.055-.355,1.489,1.489,0,0,1,.014-.219.533.533,0,0,1,.041-.146.173.173,0,0,1,.068-.082.179.179,0,0,1,.1-.025h.868v-.636a4.437,4.437,0,0,1,.12-1.1,1.9,1.9,0,0,1,.365-.755,1.456,1.456,0,0,1,.619-.434,2.5,2.5,0,0,1,.878-.14,2.366,2.366,0,0,1,.465.044,1.964,1.964,0,0,1,.349.1.561.561,0,0,1,.164.092.34.34,0,0,1,.068.106.556.556,0,0,1,.038.157A2.035,2.035,0,0,1,14.922,10.893Z" transform="translate(-0.281 -1.39)"/><path class="cls-3" d="M20.762,16.43a4.631,4.631,0,0,1-.2,1.383,3.064,3.064,0,0,1-.591,1.091,2.656,2.656,0,0,1-.985.714,3.4,3.4,0,0,1-1.371.257,3.532,3.532,0,0,1-1.322-.226,2.419,2.419,0,0,1-.941-.656,2.789,2.789,0,0,1-.56-1.046,4.851,4.851,0,0,1-.185-1.394,4.676,4.676,0,0,1,.2-1.384,3.005,3.005,0,0,1,.588-1.091,2.636,2.636,0,0,1,.98-.711,3.454,3.454,0,0,1,1.375-.253,3.536,3.536,0,0,1,1.322.226,2.416,2.416,0,0,1,.94.656,2.8,2.8,0,0,1,.564,1.046A4.756,4.756,0,0,1,20.762,16.43Zm-1.168.075a4.582,4.582,0,0,0-.094-.943,2.319,2.319,0,0,0-.307-.78,1.512,1.512,0,0,0-.58-.529,1.906,1.906,0,0,0-.91-.2,1.946,1.946,0,0,0-.865.177,1.6,1.6,0,0,0-.6.5,2.254,2.254,0,0,0-.347.77,3.854,3.854,0,0,0-.115.971,4.637,4.637,0,0,0,.094.95,2.244,2.244,0,0,0,.31.776,1.537,1.537,0,0,0,.584.525,1.9,1.9,0,0,0,.91.2,1.952,1.952,0,0,0,.861-.178,1.6,1.6,0,0,0,.6-.5,2.149,2.149,0,0,0,.343-.766A3.972,3.972,0,0,0,19.594,16.505Z" transform="translate(-0.281 -1.39)"/></svg>