<svg id="Layer_1" data-name="Layer 1" xmlns="http://www.w3.org/2000/svg" viewBox="0 0 21.219 20.61"><defs><style>.cls-1{fill:#666;}.cls-2{fill:#ccc;}.cls-3{fill:#fff;}</style></defs><rect class="cls-1" x="0.546" y="8.111" width="20.622" height="12.498"/><polygon class="cls-2" points="6.977 8.346 0.494 8.346 0.494 5.768 3.072 5.768 6.977 8.346"/><polygon class="cls-1" points="12.159 8.346 6.977 8.346 3.072 5.768 8.253 5.768 12.159 8.346"/><polygon class="cls-2" points="17.34 8.346 12.159 8.346 8.253 5.768 13.434 5.768 17.34 8.346"/><polygon class="cls-1" points="21.219 8.346 17.34 8.346 13.434 5.768 21.219 5.768 21.219 8.346"/><polygon class="cls-2" points="6.385 2.473 0 3.599 0.448 6.137 2.986 5.69 6.385 2.473"/><polygon class="cls-1" points="11.487 1.573 6.385 2.473 2.986 5.69 8.089 4.79 11.487 1.573"/><polygon class="cls-2" points="16.59 0.674 11.487 1.573 8.089 4.79 13.191 3.89 16.59 0.674"/><polygon class="cls-1" points="20.411 0 16.59 0.674 13.191 3.89 20.858 2.538 20.411 0"/><path class="cls-3" d="M15.2,14.18a1.2,1.2,0,0,1-.019.226.5.5,0,0,1-.055.153.236.236,0,0,1-.086.086.222.222,0,0,1-.105.027H13.906l-.312,2.594H14.5a.22.22,0,0,1,.191.117.748.748,0,0,1,.075.383.921.921,0,0,1-.024.226.706.706,0,0,1-.054.153.206.206,0,0,1-.083.085.212.212,0,0,1-.105.028H13.461l-.328,2.672a.316.316,0,0,1-.031.1.179.179,0,0,1-.086.071.628.628,0,0,1-.172.039,2.823,2.823,0,0,1-.289.011c-.12,0-.219,0-.3-.011a.633.633,0,0,1-.18-.039.174.174,0,0,1-.086-.071.15.15,0,0,1-.015-.1l.328-2.672H10.133L9.805,20.93a.968.968,0,0,1-.035.1.159.159,0,0,1-.079.071.562.562,0,0,1-.168.039,2.81,2.81,0,0,1-.289.011c-.125,0-.226,0-.3-.011a.642.642,0,0,1-.18-.039.174.174,0,0,1-.086-.071.15.15,0,0,1-.016-.1l.321-2.672H8.062a.221.221,0,0,1-.191-.113.72.72,0,0,1-.074-.379.986.986,0,0,1,.023-.227.692.692,0,0,1,.055-.152.24.24,0,0,1,.078-.09.191.191,0,0,1,.109-.031H9.109l.321-2.594H8.484a.22.22,0,0,1-.191-.117.7.7,0,0,1-.074-.367.758.758,0,0,1,.074-.391.22.22,0,0,1,.191-.117H9.547l.32-2.508a.25.25,0,0,1,.035-.1A.2.2,0,0,1,10,11a.808.808,0,0,1,.184-.043,2.373,2.373,0,0,1,.3-.016,2.254,2.254,0,0,1,.3.016.65.65,0,0,1,.168.043.137.137,0,0,1,.075.07.274.274,0,0,1,.015.09L10.7,13.68h2.172l.3-2.508a.205.205,0,0,1,.039-.1.222.222,0,0,1,.093-.07.742.742,0,0,1,.18-.043,2.468,2.468,0,0,1,.3-.016,2.3,2.3,0,0,1,.293.016.608.608,0,0,1,.168.043.158.158,0,0,1,.074.07.155.155,0,0,1,.012.09l-.313,2.516h.9a.219.219,0,0,1,.191.121A.753.753,0,0,1,15.2,14.18Zm-4.617.492-.312,2.594H12.43l.328-2.594Z" transform="translate(-0.281 -1.39)"/></svg>