<?xml version="1.0" encoding="utf-8"?>
<!-- Generator: Adobe Illustrator 25.2.0, SVG Export Plug-In . SVG Version: 6.00 Build 0)  -->
<svg version="1.1" id="Layer_1" xmlns="http://www.w3.org/2000/svg" xmlns:xlink="http://www.w3.org/1999/xlink" x="0px" y="0px"
	 viewBox="0 0 22 22" style="enable-background:new 0 0 22 22;" xml:space="preserve">
<style type="text/css">
	.st0{fill:#666666;}
	.st1{fill:#CCCCCC;}
</style>
<rect x="0.8" y="9.5" class="st0" width="20.6" height="12.5"/>
<g>
	<polygon class="st1" points="7.3,9.7 0.8,9.7 0.8,7.2 3.4,7.2 	"/>
</g>
<polygon class="st0" points="12.4,9.7 7.3,9.7 3.4,7.2 8.5,7.2 "/>
<g>
	<polygon class="st1" points="17.6,9.7 12.4,9.7 8.5,7.2 13.7,7.2 	"/>
</g>
<polygon class="st0" points="21.5,9.7 17.6,9.7 13.7,7.2 21.5,7.2 "/>
<g>
	<polygon class="st1" points="6.7,3.9 0.3,5 0.7,7.5 3.3,7.1 	"/>
</g>
<polygon class="st0" points="11.8,3 6.7,3.9 3.3,7.1 8.4,6.2 "/>
<g>
	<polygon class="st1" points="16.9,2.1 11.8,3 8.4,6.2 13.5,5.3 	"/>
</g>
<polygon class="st0" points="20.7,1.4 16.9,2.1 13.5,5.3 21.1,3.9 "/>
</svg>
