<?xml version="1.0" encoding="utf-8"?>
<!-- Generator: Adobe Illustrator 24.3.0, SVG Export Plug-In . SVG Version: 6.00 Build 0)  -->
<svg version="1.1" id="Layer_1" xmlns="http://www.w3.org/2000/svg" xmlns:xlink="http://www.w3.org/1999/xlink" x="0px" y="0px"
	 viewBox="0 0 22 22" style="enable-background:new 0 0 22 22;" xml:space="preserve">
<style type="text/css">
	.st0{fill:#CCCCCC;}
</style>
<rect x="0.8" y="9.5" width="20.6" height="12.5"/>
<g>
	<g>
		<polygon class="st0" points="7.3,9.7 0.8,9.7 0.8,7.2 3.4,7.2 		"/>
	</g>
	<g>
		<polygon points="7.4,9.2 5,7.7 8.4,7.7 10.8,9.2 		"/>
		<path d="M8.2,8.2l0.9,0.6H7.6L6.7,8.2H8.2 M8.5,7.2H3.4l3.9,2.6h5.2L8.5,7.2L8.5,7.2z"/>
	</g>
	<g>
		<polygon class="st0" points="17.6,9.7 12.4,9.7 8.5,7.2 13.7,7.2 		"/>
	</g>
	<g>
		<polygon points="17.8,9.2 15.4,7.7 21,7.7 21,9.2 		"/>
		<path d="M20.5,8.2v0.6h-2.6L17,8.2H20.5 M21.5,7.2h-7.8l3.9,2.6h3.9V7.2L21.5,7.2z"/>
	</g>
</g>
<g>
	<g>
		<polygon class="st0" points="6.7,3.9 0.3,5 0.7,7.5 3.3,7.1 		"/>
	</g>
	<g>
		<polygon points="6.9,4.3 10.2,3.7 8.1,5.7 4.8,6.3 		"/>
		<path d="M8.7,4.5L7.9,5.2L6.4,5.5l0.8-0.7L8.7,4.5 M11.8,3L6.7,3.9L3.3,7.1l5.1-0.9L11.8,3L11.8,3z"/>
	</g>
	<g>
		<polygon class="st0" points="16.9,2.1 11.8,3 8.4,6.2 13.5,5.3 		"/>
	</g>
	<g>
		<polygon points="17.1,2.5 20.3,2 20.6,3.5 15,4.5 		"/>
		<path d="M19.9,2.5L20,3.1l-3.4,0.6L17.3,3L19.9,2.5 M20.7,1.4l-3.8,0.7l-3.4,3.2l7.7-1.4L20.7,1.4L20.7,1.4z"/>
	</g>
</g>
</svg>
