<svg xmlns="http://www.w3.org/2000/svg" viewBox="0 0 21.429 21.637"><defs><style>.cls-1{fill:#2fa8e0;}</style></defs><g id="Layer_11" data-name="Layer 11"><path class="cls-1" d="M3.243,20.3c-.295-.16-.588-.337-.87-.525s-.539-.377-.767-.561a7.4,7.4,0,0,1-.583-.517,2.108,2.108,0,0,1-.251-.279.3.3,0,0,0-.022-.038.453.453,0,0,1,.038-.092c.033-.063.077-.139.134-.229a2.357,2.357,0,0,1,.172-.239l0,0c.029.027.07.068.123.128.132.149.3.323.5.525a9.849,9.849,0,0,0,.743.653,7.114,7.114,0,0,0,1.042.68,5.015,5.015,0,0,0,.885.386,2.959,2.959,0,0,0,.785.147,1.578,1.578,0,0,0,.716-.131,1.171,1.171,0,0,0,.5-.43,1,1,0,0,0,.081-.922,2.766,2.766,0,0,0-.5-.8,10.286,10.286,0,0,0-.767-.8q-.423-.4-.857-.823c-.281-.275-.551-.562-.8-.855a4.211,4.211,0,0,1-.57-.834,1.981,1.981,0,0,1-.22-.778,1.144,1.144,0,0,1,.2-.692,1.6,1.6,0,0,1,.832-.664,3.282,3.282,0,0,1,1.329-.161,6.891,6.891,0,0,1,1.709.355,11.868,11.868,0,0,1,1.906.837,11.8,11.8,0,0,1,1.175.721c.352.247.653.478.9.687a6.608,6.608,0,0,1,.581.555,1.094,1.094,0,0,1,.267.383,1.034,1.034,0,0,1-.154.31,2.151,2.151,0,0,1-.177.243l-.021.023a1.344,1.344,0,0,1-.176-.184q-.2-.247-.551-.6a10.059,10.059,0,0,0-.87-.776A8.8,8.8,0,0,0,8.4,14.156a6.118,6.118,0,0,0-.993-.439,3.6,3.6,0,0,0-.9-.188,1.85,1.85,0,0,0-.826.119,1.285,1.285,0,0,0-.612.5.994.994,0,0,0-.078.935,2.939,2.939,0,0,0,.491.789,9.98,9.98,0,0,0,.748.788c.276.262.559.536.848.819s.549.56.792.846a4.163,4.163,0,0,1,.556.827,1.984,1.984,0,0,1,.214.778,1.19,1.19,0,0,1-.218.714,1.435,1.435,0,0,1-.739.594,2.916,2.916,0,0,1-1.183.147,6,6,0,0,1-1.534-.325,11.011,11.011,0,0,1-1.72-.758m-.234.365a11.519,11.519,0,0,0,1.8.792,6.5,6.5,0,0,0,1.662.35,3.39,3.39,0,0,0,1.385-.177,1.892,1.892,0,0,0,.966-.772,1.591,1.591,0,0,0,.28-.95,2.339,2.339,0,0,0-.255-.935,4.488,4.488,0,0,0-.612-.911q-.381-.449-.819-.876t-.852-.823a9.267,9.267,0,0,1-.715-.752,2.516,2.516,0,0,1-.422-.673.6.6,0,0,1,.041-.577.842.842,0,0,1,.4-.328,1.355,1.355,0,0,1,.607-.084,3.131,3.131,0,0,1,.777.164,5.6,5.6,0,0,1,.915.405,8.355,8.355,0,0,1,1.241.8,9.4,9.4,0,0,1,.831.74q.33.337.527.575a1.309,1.309,0,0,0,.338.314.514.514,0,0,0,.2.064.325.325,0,0,0,.191-.043.733.733,0,0,0,.194-.164,2.343,2.343,0,0,0,.216-.3,1.423,1.423,0,0,0,.21-.445.447.447,0,0,0-.046-.322,2.6,2.6,0,0,0-.317-.411,6.9,6.9,0,0,0-.624-.595q-.387-.333-.929-.714a12.443,12.443,0,0,0-1.221-.75,12.316,12.316,0,0,0-1.985-.87,7.3,7.3,0,0,0-1.834-.38,3.767,3.767,0,0,0-1.529.19,2.051,2.051,0,0,0-1.06.844,1.537,1.537,0,0,0-.267.929,2.351,2.351,0,0,0,.261.935,4.652,4.652,0,0,0,.628.919q.393.454.829.882t.863.828a9.758,9.758,0,0,1,.734.763A2.373,2.373,0,0,1,6.042,19,.6.6,0,0,1,6,19.563a.719.719,0,0,1-.314.266,1.082,1.082,0,0,1-.492.086,2.519,2.519,0,0,1-.652-.124,4.582,4.582,0,0,1-.8-.351,6.475,6.475,0,0,1-.973-.635,9.13,9.13,0,0,1-.709-.622q-.292-.29-.483-.5a1.317,1.317,0,0,0-.3-.274.439.439,0,0,0-.2-.062A.308.308,0,0,0,.9,17.4a.861.861,0,0,0-.174.167,2.778,2.778,0,0,0-.2.28q-.1.153-.153.261A.8.8,0,0,0,.3,18.3a.4.4,0,0,0-.009.142.589.589,0,0,0,.072.174,2.243,2.243,0,0,0,.322.373,7.384,7.384,0,0,0,.619.549q.36.291.8.585t.907.547Z" transform="translate(-0.286 -0.182)"/><path class="cls-1" d="M2.768,18.805a6.475,6.475,0,0,0,.973.635l-.732,1.228q-.466-.252-.907-.547Z" transform="translate(-0.286 -0.182)"/><path class="cls-1" d="M4.541,19.791a2.519,2.519,0,0,0,.652.124L6.466,21.81A6.5,6.5,0,0,1,4.8,21.46Z" transform="translate(-0.286 -0.182)"/><path class="cls-1" d="M8.817,20.861a1.892,1.892,0,0,1-.966.772l-2.166-1.8A.719.719,0,0,0,6,19.563Z" transform="translate(-0.286 -0.182)"/><path class="cls-1" d="M8.842,18.976a2.339,2.339,0,0,1,.255.935L6.042,19a2.373,2.373,0,0,0-.428-.676Z" transform="translate(-0.286 -0.182)"/><path class="cls-1" d="M7.336,17.322q.27.267.519.542l-2.95-.448c-.128-.145-.292-.312-.471-.488Z" transform="translate(-0.286 -0.182)"/><path class="cls-1" d="M5.03,17.291l-.17-.162,2.4.327c.068.067.136.136.2.2L5.03,17.291m-.15.265,3.35.509q-.381-.449-.819-.876l-3.394-.461q.436.428.863.828Z" transform="translate(-0.286 -0.182)"/><path class="cls-1" d="M5.844,15.614a9.267,9.267,0,0,0,.715.752l-3.371-.52a4.652,4.652,0,0,1-.628-.919Z" transform="translate(-0.286 -0.182)"/><path class="cls-1" d="M5.463,14.364a.6.6,0,0,0-.041.577L2.3,13.992a1.537,1.537,0,0,1,.267-.929Z" transform="translate(-0.286 -0.182)"/><path class="cls-1" d="M3.626,12.219a3.767,3.767,0,0,1,1.529-.19l1.317,1.923a1.355,1.355,0,0,0-.607.084Z" transform="translate(-0.286 -0.182)"/><path class="cls-1" d="M6.989,12.409a12.316,12.316,0,0,1,1.985.87l-.81,1.242a5.6,5.6,0,0,0-.915-.405Z" transform="translate(-0.286 -0.182)"/><path class="cls-1" d="M10.236,16.065a9.4,9.4,0,0,0-.831-.74l.79-1.3q.541.381.929.714Z" transform="translate(-0.286 -0.182)"/><path class="cls-1" d="M4.11,1.634c.3-.156.611-.3.929-.431s.625-.241.912-.331S6.5.714,6.729.666a2.341,2.341,0,0,1,.389-.06.4.4,0,0,0,.046,0,.47.47,0,0,1,.067.076c.044.058.093.132.149.222a2.48,2.48,0,0,1,.14.256v0c-.04.009-.1.021-.182.033q-.309.047-.745.139c-.294.062-.626.151-.987.265a7.52,7.52,0,0,0-1.161.49A4.9,4.9,0,0,0,3.64,2.6a2.608,2.608,0,0,0-.53.552,1.261,1.261,0,0,0-.235.637,1.024,1.024,0,0,0,.152.615,1.164,1.164,0,0,0,.828.526,3.284,3.284,0,0,0,1,0c.344-.045.726-.116,1.134-.212q.587-.138,1.2-.271c.4-.087.8-.158,1.206-.213A5.023,5.023,0,0,1,9.472,4.2a2.467,2.467,0,0,1,.842.215,1.277,1.277,0,0,1,.549.508,1.4,1.4,0,0,1,.21.994,2.683,2.683,0,0,1-.513,1.14A6.135,6.135,0,0,1,9.371,8.241a11.537,11.537,0,0,1-1.741,1.1,12.21,12.21,0,0,1-1.266.576c-.408.156-.777.281-1.095.37a7.44,7.44,0,0,1-.813.186,1.326,1.326,0,0,1-.494.021,1.128,1.128,0,0,1-.215-.278,1.882,1.882,0,0,1-.14-.263L3.6,9.925a1.624,1.624,0,0,1,.26-.048c.225-.026.5-.072.843-.138a11.12,11.12,0,0,0,1.166-.305,9.17,9.17,0,0,0,1.454-.62,5.878,5.878,0,0,0,.911-.572,3.234,3.234,0,0,0,.626-.623,1.517,1.517,0,0,0,.3-.718,1.128,1.128,0,0,0-.166-.738,1.166,1.166,0,0,0-.842-.53,3.524,3.524,0,0,0-.987,0,11.22,11.22,0,0,0-1.116.2q-.577.132-1.195.266c-.4.087-.8.157-1.193.208a4.987,4.987,0,0,1-1.056.03,2.459,2.459,0,0,1-.84-.22,1.319,1.319,0,0,1-.563-.53A1.252,1.252,0,0,1,1.011,4.7a2.373,2.373,0,0,1,.452-1.017A5.34,5.34,0,0,1,2.536,2.625,10.686,10.686,0,0,1,4.11,1.634m-.227-.37A11.182,11.182,0,0,0,2.241,2.3,5.751,5.751,0,0,0,1.08,3.448,2.749,2.749,0,0,0,.554,4.639,1.655,1.655,0,0,0,.8,5.8a1.777,1.777,0,0,0,.754.7,2.94,2.94,0,0,0,1.007.264,5.4,5.4,0,0,0,1.164-.032q.613-.08,1.234-.215t1.2-.267a10.316,10.316,0,0,1,1.065-.193,2.975,2.975,0,0,1,.845,0,.712.712,0,0,1,.522.32.744.744,0,0,1,.108.485,1.107,1.107,0,0,1-.225.525,2.784,2.784,0,0,1-.542.537,5.5,5.5,0,0,1-.84.527,8.684,8.684,0,0,1-1.377.587A10.418,10.418,0,0,1,4.6,9.324q-.483.095-.8.132a1.417,1.417,0,0,0-.465.113.462.462,0,0,0-.16.126.27.27,0,0,0-.055.174.664.664,0,0,0,.057.236,2.342,2.342,0,0,0,.17.32,1.543,1.543,0,0,0,.314.39.545.545,0,0,0,.326.124,3.03,3.03,0,0,0,.546-.048,7.571,7.571,0,0,0,.872-.2q.507-.141,1.137-.383a12.9,12.9,0,0,0,1.316-.6A11.951,11.951,0,0,0,9.668,8.565a6.521,6.521,0,0,0,1.275-1.271,3.087,3.087,0,0,0,.586-1.313,1.8,1.8,0,0,0-.265-1.267,1.714,1.714,0,0,0-.741-.677,2.907,2.907,0,0,0-1.01-.259,5.45,5.45,0,0,0-1.18.04q-.624.086-1.244.22c-.414.089-.818.181-1.212.273s-.755.16-1.085.2a2.815,2.815,0,0,1-.851,0A.7.7,0,0,1,3.429,4.2a.642.642,0,0,1-.094-.383A.879.879,0,0,1,3.5,3.381a2.172,2.172,0,0,1,.442-.457,4.453,4.453,0,0,1,.73-.462A6.768,6.768,0,0,1,5.758,2q.521-.165.939-.254t.717-.133a1.471,1.471,0,0,0,.409-.1.4.4,0,0,0,.158-.129.248.248,0,0,0,.033-.166A.77.77,0,0,0,7.944,1,2.628,2.628,0,0,0,7.781.7c-.063-.1-.12-.187-.169-.253A.911.911,0,0,0,7.47.289.5.5,0,0,0,7.341.211a.727.727,0,0,0-.2-.029,2.6,2.6,0,0,0-.512.07C6.38.3,6.105.376,5.8.47s-.619.21-.95.345-.655.286-.969.449Z" transform="translate(-0.286 -0.182)"/><path class="cls-1" d="M5.758,2a6.768,6.768,0,0,0-1.085.458l-.79-1.2q.471-.245.969-.449Z" transform="translate(-0.286 -0.182)"/><path class="cls-1" d="M3.943,2.924a2.172,2.172,0,0,0-.442.457L1.08,3.448A5.751,5.751,0,0,1,2.241,2.3Z" transform="translate(-0.286 -0.182)"/><path class="cls-1" d="M.8,5.8A1.655,1.655,0,0,1,.554,4.639l2.781-.822a.642.642,0,0,0,.094.383Z" transform="translate(-0.286 -0.182)"/><path class="cls-1" d="M2.559,6.758a2.94,2.94,0,0,1-1.007-.264L3.941,4.517a2.815,2.815,0,0,0,.851,0Z" transform="translate(-0.286 -0.182)"/><path class="cls-1" d="M4.87,6.384q-.387.082-.77.144L6,4.4c.2-.029.439-.077.7-.131Z" transform="translate(-0.286 -0.182)"/><path class="cls-1" d="M6.052,4.563l.237-.055L4.782,6.257c-.1.02-.2.04-.293.058L6.052,4.563m-.175-.252L3.723,6.726q.613-.08,1.234-.215L7.089,4.038c-.414.089-.818.181-1.212.273Z" transform="translate(-0.286 -0.182)"/><path class="cls-1" d="M7.224,6.051a10.316,10.316,0,0,0-1.065.193L8.333,3.818a5.45,5.45,0,0,1,1.18-.04Z" transform="translate(-0.286 -0.182)"/><path class="cls-1" d="M8.591,6.371a.712.712,0,0,0-.522-.32l2.454-2.014a1.714,1.714,0,0,1,.741.677Z" transform="translate(-0.286 -0.182)"/><path class="cls-1" d="M11.529,5.981a3.087,3.087,0,0,1-.586,1.313l-2.469.087A1.107,1.107,0,0,0,8.7,6.856Z" transform="translate(-0.286 -0.182)"/><path class="cls-1" d="M9.668,8.565A11.951,11.951,0,0,1,7.857,9.711L7.092,8.445a5.5,5.5,0,0,0,.84-.527Z" transform="translate(-0.286 -0.182)"/><path class="cls-1" d="M4.6,9.324a10.418,10.418,0,0,0,1.112-.292l.826,1.277q-.63.242-1.137.383Z" transform="translate(-0.286 -0.182)"/><path class="cls-1" d="M21.252,11.658a9.343,9.343,0,0,1-.059.956c-.036.318-.085.618-.144.892a6.3,6.3,0,0,1-.2.722,1.859,1.859,0,0,1-.138.34.366.366,0,0,0-.024.037.65.65,0,0,1-.106.015c-.075.006-.17.008-.282.007a2.978,2.978,0,0,1-.311-.016h0c.012-.037.03-.09.06-.162.074-.179.154-.4.242-.663a8.6,8.6,0,0,0,.243-.919,5.972,5.972,0,0,0,.12-1.169,4.175,4.175,0,0,0-.079-.9,2.372,2.372,0,0,0-.255-.7,1.378,1.378,0,0,0-.481-.5,1.275,1.275,0,0,0-.656-.187,1.2,1.2,0,0,0-.909.4,2.75,2.75,0,0,0-.5.8,9.148,9.148,0,0,0-.367,1.009q-.165.537-.347,1.1c-.118.361-.253.72-.4,1.067a4.119,4.119,0,0,1-.5.872,2.21,2.21,0,0,1-.622.564,1.4,1.4,0,0,1-.753.183,1.72,1.72,0,0,1-1.042-.33,2.86,2.86,0,0,1-.816-.978,5.563,5.563,0,0,1-.52-1.539,9.734,9.734,0,0,1-.165-1.938,9.856,9.856,0,0,1,.091-1.3,10.346,10.346,0,0,1,.2-1.057,5.816,5.816,0,0,1,.232-.741,1.073,1.073,0,0,1,.227-.4,1.288,1.288,0,0,1,.369-.032,2.325,2.325,0,0,1,.317.02l.032,0a1.254,1.254,0,0,1-.085.231q-.13.288-.291.74a8.967,8.967,0,0,0-.3,1.082,7.479,7.479,0,0,0-.144,1.469,4.989,4.989,0,0,0,.083,1.011,2.968,2.968,0,0,0,.274.811,1.618,1.618,0,0,0,.525.6,1.391,1.391,0,0,0,.778.237,1.2,1.2,0,0,0,.92-.406,2.93,2.93,0,0,0,.5-.785,9.029,9.029,0,0,0,.368-.99q.163-.527.347-1.085c.118-.363.253-.717.4-1.054a4.115,4.115,0,0,1,.5-.857,2.241,2.241,0,0,1,.626-.559,1.479,1.479,0,0,1,.781-.184,1.549,1.549,0,0,1,.928.292,2.54,2.54,0,0,1,.731.869,4.88,4.88,0,0,1,.46,1.384,8.947,8.947,0,0,1,.146,1.75m.462,0a9.4,9.4,0,0,0-.153-1.826,5.228,5.228,0,0,0-.5-1.5A2.941,2.941,0,0,0,20.2,7.322a2.039,2.039,0,0,0-1.21-.383,1.966,1.966,0,0,0-1.035.251,2.663,2.663,0,0,0-.752.671,4.488,4.488,0,0,0-.552.943q-.231.528-.415,1.09t-.349,1.091a8.347,8.347,0,0,1-.351.945,2.474,2.474,0,0,1-.422.674.727.727,0,0,1-.563.255.913.913,0,0,1-.51-.156,1.183,1.183,0,0,1-.382-.442,2.509,2.509,0,0,1-.235-.7,4.66,4.66,0,0,1-.076-.933,7.057,7.057,0,0,1,.136-1.39,8.463,8.463,0,0,1,.281-1.032q.153-.432.279-.707a1.173,1.173,0,0,0,.126-.427.412.412,0,0,0-.039-.19A.3.3,0,0,0,14,6.751a.808.808,0,0,0-.251-.072,2.74,2.74,0,0,0-.386-.025,1.754,1.754,0,0,0-.524.055.519.519,0,0,0-.281.2,2.492,2.492,0,0,0-.227.458,6.223,6.223,0,0,0-.249.794,10.675,10.675,0,0,0-.208,1.1,10.372,10.372,0,0,0-.094,1.348,10.076,10.076,0,0,0,.172,2.016,5.9,5.9,0,0,0,.56,1.65,3.249,3.249,0,0,0,.943,1.124,2.213,2.213,0,0,0,1.324.423,1.9,1.9,0,0,0,1.009-.252,2.652,2.652,0,0,0,.749-.676,4.565,4.565,0,0,0,.552-.959q.231-.54.415-1.1t.349-1.1a8.989,8.989,0,0,1,.351-.966,2.368,2.368,0,0,1,.422-.679.73.73,0,0,1,.556-.25.781.781,0,0,1,.407.118.938.938,0,0,1,.327.349,1.979,1.979,0,0,1,.209.581,3.713,3.713,0,0,1,.07.813,5.578,5.578,0,0,1-.11,1.093,8.3,8.3,0,0,1-.232.875c-.084.252-.162.465-.233.637a1.16,1.16,0,0,0-.107.378.35.35,0,0,0,.042.19.282.282,0,0,0,.14.11.977.977,0,0,0,.245.056,3.525,3.525,0,0,0,.363.02c.129,0,.237,0,.324-.009a1.007,1.007,0,0,0,.215-.036.494.494,0,0,0,.138-.064A.636.636,0,0,0,21.1,14.8a2.128,2.128,0,0,0,.19-.442,6.962,6.962,0,0,0,.208-.768q.093-.432.15-.93a9.789,9.789,0,0,0,.062-1Z" transform="translate(-0.286 -0.182)"/><path class="cls-1" d="M20.081,12.786a5.578,5.578,0,0,0,.11-1.093l1.523-.031a9.789,9.789,0,0,1-.062,1Z" transform="translate(-0.286 -0.182)"/><path class="cls-1" d="M20.121,10.88a1.979,1.979,0,0,0-.209-.581L21.06,8.337a5.228,5.228,0,0,1,.5,1.5Z" transform="translate(-0.286 -0.182)"/><path class="cls-1" d="M18.991,6.939a2.039,2.039,0,0,1,1.21.383L19.585,9.95a.781.781,0,0,0-.407-.118Z" transform="translate(-0.286 -0.182)"/><path class="cls-1" d="M17.2,7.861a2.663,2.663,0,0,1,.752-.671l.666,2.892a2.368,2.368,0,0,0-.422.679Z" transform="translate(-0.286 -0.182)"/><path class="cls-1" d="M16.4,9.888c.077-.232.161-.461.251-.685L17.7,11.778c-.073.174-.147.388-.224.619Z" transform="translate(-0.286 -0.182)"/><path class="cls-1" d="M17.524,11.74c-.022.072-.045.144-.067.217l-.893-2.075c.03-.088.06-.176.092-.263l.868,2.121m.325-.013L16.652,8.8q-.231.528-.415,1.09L17.5,12.829q.183-.561.349-1.1Z" transform="translate(-0.286 -0.182)"/><path class="cls-1" d="M15.538,11.93a8.551,8.551,0,0,0,.35-.945l1.2,2.946a4.565,4.565,0,0,1-.552.959Z" transform="translate(-0.286 -0.182)"/><path class="cls-1" d="M14.552,12.859a.727.727,0,0,0,.563-.255l.669,2.962a1.9,1.9,0,0,1-1.009.252Z" transform="translate(-0.286 -0.182)"/><path class="cls-1" d="M13.451,15.4a3.249,3.249,0,0,1-.943-1.124l1.152-2.01a1.183,1.183,0,0,0,.382.442Z" transform="translate(-0.286 -0.182)"/><path class="cls-1" d="M11.948,12.621a10.076,10.076,0,0,1-.172-2.016l1.573.023a4.66,4.66,0,0,0,.076.933Z" transform="translate(-0.286 -0.182)"/><path class="cls-1" d="M13.766,8.206a8.463,8.463,0,0,0-.281,1.032l-1.615.019a10.675,10.675,0,0,1,.208-1.1Z" transform="translate(-0.286 -0.182)"/></g></svg>