<svg id="Layer_11" data-name="Layer 11" xmlns="http://www.w3.org/2000/svg" viewBox="0 0 22 22"><defs><style>.cls-1{fill:#2fa8e0;}</style></defs><path class="cls-1" d="M11.872,1.02c.759,0,1.532.037,2.3.11s1.488.175,2.147.3a16.542,16.542,0,0,1,1.74.417,4.878,4.878,0,0,1,.82.3c.035.022.065.042.091.06a1.252,1.252,0,0,1,.037.226q.023.252.023.626a5.732,5.732,0,0,1-.034.688v.01c-.089-.025-.216-.065-.39-.129-.437-.16-.959-.331-1.6-.521a21.851,21.851,0,0,0-2.213-.518,15.637,15.637,0,0,0-2.815-.238,10.772,10.772,0,0,0-2.158.193,6.093,6.093,0,0,0-1.673.578,3.209,3.209,0,0,0-1.2,1.076A2.658,2.658,0,0,0,6.5,5.648a2.575,2.575,0,0,0,.973,2A6.741,6.741,0,0,0,9.4,8.74a23.77,23.77,0,0,0,2.434.79q1.293.351,2.638.742c.871.254,1.737.546,2.574.867a10.182,10.182,0,0,1,2.106,1.088,5.057,5.057,0,0,1,1.368,1.364,2.921,2.921,0,0,1,.455,1.662,3.6,3.6,0,0,1-.773,2.309,6.742,6.742,0,0,1-2.334,1.827,14.2,14.2,0,0,1-3.69,1.183,25.3,25.3,0,0,1-4.654.408,26.1,26.1,0,0,1-3.119-.173c-.97-.117-1.826-.258-2.544-.418a14.972,14.972,0,0,1-1.786-.5,5.057,5.057,0,0,1-.912-.4c-.018-.011-.039-.024-.064-.094a2.635,2.635,0,0,1-.084-.815,4.871,4.871,0,0,1,.041-.7c0-.026.008-.05.012-.071a3.177,3.177,0,0,1,.558.182c.464.19,1.048.4,1.785.628a22.686,22.686,0,0,0,2.606.63,19.465,19.465,0,0,0,3.533.287,13.065,13.065,0,0,0,2.429-.206,7.448,7.448,0,0,0,1.945-.623,3.8,3.8,0,0,0,1.428-1.173,2.9,2.9,0,0,0,.555-1.726,2.574,2.574,0,0,0-.994-2.025,7.141,7.141,0,0,0-1.9-1.081,23,23,0,0,0-2.386-.791q-1.27-.351-2.616-.744c-.874-.255-1.729-.545-2.542-.864A10.111,10.111,0,0,1,3.407,9.219,5.071,5.071,0,0,1,2.05,7.846a3.051,3.051,0,0,1-.457-1.722,3.236,3.236,0,0,1,.683-2.058A5.965,5.965,0,0,1,4.35,2.43,12.458,12.458,0,0,1,7.669,1.381a23.565,23.565,0,0,1,4.2-.361m0-1.02A24.383,24.383,0,0,0,7.486.378a13.37,13.37,0,0,0-3.593,1.14A6.929,6.929,0,0,0,1.471,3.44a4.257,4.257,0,0,0-.9,2.684A4.06,4.06,0,0,0,1.2,8.406a6.055,6.055,0,0,0,1.626,1.65,11.044,11.044,0,0,0,2.279,1.2q1.275.5,2.63.894t2.629.748a21.733,21.733,0,0,1,2.279.755,6.08,6.08,0,0,1,1.626.92,1.557,1.557,0,0,1,.625,1.239,1.9,1.9,0,0,1-.364,1.132,2.8,2.8,0,0,1-1.054.854,6.424,6.424,0,0,1-1.68.534,12.009,12.009,0,0,1-2.239.188,18.394,18.394,0,0,1-3.346-.27,21.758,21.758,0,0,1-2.486-.6q-1.041-.33-1.7-.6a3,3,0,0,0-1.029-.27,1.085,1.085,0,0,0-.456.09.687.687,0,0,0-.312.3,1.724,1.724,0,0,0-.169.557A5.837,5.837,0,0,0,0,18.585a3.6,3.6,0,0,0,.144,1.158,1.154,1.154,0,0,0,.481.615,6.187,6.187,0,0,0,1.106.494,15.922,15.922,0,0,0,1.914.533q1.145.255,2.643.435A27.013,27.013,0,0,0,9.529,22a26.2,26.2,0,0,0,4.843-.426A15.064,15.064,0,0,0,18.329,20.3a7.713,7.713,0,0,0,2.682-2.11A4.626,4.626,0,0,0,22,15.253a3.934,3.934,0,0,0-.625-2.225,6.051,6.051,0,0,0-1.639-1.642,11.226,11.226,0,0,0-2.318-1.2q-1.3-.5-2.656-.894t-2.655-.748a22.412,22.412,0,0,1-2.33-.755,5.808,5.808,0,0,1-1.641-.919,1.556,1.556,0,0,1-.612-1.223,1.644,1.644,0,0,1,.274-.9,2.194,2.194,0,0,1,.833-.731,5.1,5.1,0,0,1,1.393-.476,9.725,9.725,0,0,1,1.952-.172,14.567,14.567,0,0,1,2.63.221,20.949,20.949,0,0,1,2.109.493q.91.271,1.536.5a3.045,3.045,0,0,0,.91.23.906.906,0,0,0,.457-.1.643.643,0,0,0,.261-.312,1.979,1.979,0,0,0,.129-.542,6.713,6.713,0,0,0,.04-.8c0-.285-.01-.523-.027-.715a2.049,2.049,0,0,0-.09-.475,1.039,1.039,0,0,0-.157-.3,1.483,1.483,0,0,0-.351-.279A5.209,5.209,0,0,0,18.355.87,17.6,17.6,0,0,0,16.507.427q-1.043-.2-2.24-.312T11.872,0Z"/><path class="cls-1" d="M14.606,3.587a14.567,14.567,0,0,0-2.63-.221L11.872,0q1.2,0,2.395.115Z"/><path class="cls-1" d="M10.024,3.538a5.1,5.1,0,0,0-1.393.476l-4.738-2.5A13.37,13.37,0,0,1,7.486.378Z"/><path class="cls-1" d="M.573,6.124a4.257,4.257,0,0,1,.9-2.684L7.8,4.745a1.644,1.644,0,0,0-.274.9Z"/><path class="cls-1" d="M2.824,10.056A6.055,6.055,0,0,1,1.2,8.406L8.136,6.871a5.808,5.808,0,0,0,1.641.919Z"/><path class="cls-1" d="M7.714,11.788c-.562-.166-1.114-.346-1.652-.538L12.125,8.9q.786.215,1.594.444Z"/><path class="cls-1" d="M12.144,9.263l.522.144L7.7,11.426q-.32-.095-.635-.2l5.082-1.966m-.037-.718-7,2.71q1.275.5,2.63.894l7.029-2.856q-1.355-.395-2.655-.748Z"/><path class="cls-1" d="M12.641,13.652a21.733,21.733,0,0,0-2.279-.755l7.056-2.71a11.226,11.226,0,0,1,2.318,1.2Z"/><path class="cls-1" d="M14.892,15.811a1.557,1.557,0,0,0-.625-1.239l7.108-1.544A3.934,3.934,0,0,1,22,15.253Z"/><path class="cls-1" d="M21.011,18.191a7.713,7.713,0,0,1-2.682,2.11l-4.855-2.5a2.8,2.8,0,0,0,1.054-.854Z"/><path class="cls-1" d="M14.372,21.574A26.2,26.2,0,0,1,9.529,22l.026-3.481a12.009,12.009,0,0,0,2.239-.188Z"/><path class="cls-1" d="M3.723,17.65a21.758,21.758,0,0,0,2.486.6l.079,3.571q-1.5-.181-2.643-.435Z"/></svg>