<?xml version="1.0" encoding="utf-8"?>
<!-- Generator: Adobe Illustrator 25.2.0, SVG Export Plug-In . SVG Version: 6.00 Build 0)  -->
<svg version="1.1" xmlns="http://www.w3.org/2000/svg" xmlns:xlink="http://www.w3.org/1999/xlink" x="0px" y="0px"
	 viewBox="0 0 22 22" style="enable-background:new 0 0 22 22;" xml:space="preserve">
<style type="text/css">
	.st0{fill:#8C6239;stroke:#754C24;stroke-miterlimit:10;}
	.st1{fill:#006837;}
	.st2{fill:none;stroke:#FFFFFF;stroke-width:4;stroke-miterlimit:10;}
	.st3{fill:#29ABE2;stroke:#FFFFFF;stroke-miterlimit:10;}
	.st4{fill:none;stroke:#29ABE2;stroke-width:3;stroke-miterlimit:10;}
	.st5{fill:#29ABE2;stroke:#29ABE2;stroke-miterlimit:10;}
</style>
<g id="Layer_1">
	<rect x="4.7" y="15.9" class="st0" width="3.6" height="5.1"/>
	<g>
		<polygon class="st1" points="1.4,16.3 6.5,2.8 11.6,16.3 		"/>
		<path class="st1" d="M6.5,5.7l1.4,3.7l1.6,4.3l0.6,1.6H9.8H6.5H3.2H2.9l0.6-1.6l1.6-4.3L6.5,5.7 M6.5,0L4.9,4.3L3.2,8.6l-1.6,4.3
			L0,17.3h3.2h3.2h3.2H13l-1.6-4.3L9.8,8.6L8.1,4.3L6.5,0L6.5,0z"/>
	</g>
</g>
<g id="Layer_3">
	<g>
		<circle class="st2" cx="14.3" cy="9.1" r="3.3"/>
		<rect x="13.1" y="2.4" class="st3" width="2.5" height="3.2"/>
		<rect x="8.3" y="7.5" transform="matrix(4.583362e-11 -1 1 4.583362e-11 0.491 18.6422)" class="st3" width="2.5" height="3.2"/>
		
			<rect x="13.1" y="12.3" transform="matrix(-1 4.583388e-11 -4.583388e-11 -1 28.658 27.676)" class="st3" width="2.5" height="3.2"/>
		
			<rect x="17.8" y="7.5" transform="matrix(-1.431927e-12 1 -1 -1.431927e-12 28.167 -10.0157)" class="st3" width="2.5" height="3.2"/>
		<rect x="9.6" y="3.8" transform="matrix(0.7071 -0.7071 0.7071 0.7071 -0.667 9.2641)" class="st3" width="2.5" height="3.2"/>
		
			<rect x="9.8" y="10.8" transform="matrix(-0.7071 -0.7071 0.7071 -0.7071 10.1383 28.9927)" class="st3" width="2.5" height="3.2"/>
		
			<rect x="16.5" y="10.8" transform="matrix(-0.7071 0.7071 -0.7071 -0.7071 39.1672 8.5697)" class="st3" width="2.5" height="3.2"/>
		<rect x="16.5" y="4.1" transform="matrix(0.7071 0.7071 -0.7071 0.7071 9.2194 -10.9344)" class="st3" width="2.5" height="3.2"/>
	</g>
</g>
<g id="Layer_2">
	<circle class="st4" cx="14.3" cy="9.1" r="3"/>
	<rect x="13.2" y="3" class="st5" width="2.3" height="2.9"/>
	<rect x="8.8" y="7.6" transform="matrix(4.569062e-11 -1 1 4.569062e-11 0.9383 19.0608)" class="st5" width="2.3" height="2.9"/>
	
		<rect x="13.2" y="11.9" transform="matrix(-1 4.569044e-11 -4.569044e-11 -1 28.658 26.7813)" class="st5" width="2.3" height="2.9"/>
	
		<rect x="17.5" y="7.6" transform="matrix(-1.575812e-12 1 -1 -1.575812e-12 27.7196 -9.5972)" class="st5" width="2.3" height="2.9"/>
	<rect x="10" y="4.3" transform="matrix(0.7071 -0.7071 0.7071 0.7071 -0.798 9.5804)" class="st5" width="2.3" height="2.9"/>
	
		<rect x="10.2" y="10.6" transform="matrix(-0.7071 -0.7071 0.7071 -0.7071 10.8671 28.6619)" class="st5" width="2.3" height="2.9"/>
	
		<rect x="16.3" y="10.6" transform="matrix(-0.7071 0.7071 -0.7071 -0.7071 38.4035 8.2534)" class="st5" width="2.3" height="2.9"/>
	<rect x="16.3" y="4.5" transform="matrix(0.7071 0.7071 -0.7071 0.7071 9.336 -10.6241)" class="st5" width="2.3" height="2.9"/>
</g>
</svg>
