<?xml version="1.0" encoding="utf-8"?>
<!-- Generator: Adobe Illustrator 25.2.0, SVG Export Plug-In . SVG Version: 6.00 Build 0)  -->
<svg version="1.1" id="Layer_1" xmlns="http://www.w3.org/2000/svg" xmlns:xlink="http://www.w3.org/1999/xlink" x="0px" y="0px"
	 viewBox="0 0 22 22" style="enable-background:new 0 0 22 22;" xml:space="preserve">
<style type="text/css">
	.st0{fill:#8C6239;stroke:#754C24;stroke-width:1.0402;stroke-miterlimit:10;}
	.st1{fill:#006837;}
	.st2{fill:#8C6239;stroke:#754C24;stroke-width:1.1485;stroke-miterlimit:10;}
	.st3{fill:#8C6239;stroke:#754C24;stroke-width:1.0362;stroke-miterlimit:10;}
</style>
<rect x="9.5" y="13.8" class="st0" width="2.8" height="4.1"/>
<g>
	<polygon class="st1" points="7.1,13.3 11,1.6 14.9,13.3 	"/>
	<path class="st1" d="M11,3.2l0.2,0.6l1.2,3.5l1.2,3.5l0.7,2.1h-0.9H11H8.7H7.8l0.7-2.1l1.2-3.5l1.2-3.5L11,3.2 M11,0L9.8,3.5
		L8.7,6.9l-1.2,3.5l-1.2,3.5h2.3H11h2.3h2.3l-1.2-3.5l-1.2-3.5l-1.2-3.5L11,0L11,0z"/>
</g>
<rect x="2.5" y="16.9" class="st2" width="3.4" height="4.1"/>
<g>
	<polygon class="st1" points="1.4,16 4.6,6.3 7.8,16 	"/>
	<path class="st1" d="M4.6,9.5L5,10.7l1.2,3.5L6.4,15H4.6H2.8l0.3-0.8l1.2-3.5L4.6,9.5 M4.6,3.2L3.5,6.6l-1.2,3.5l-1.2,3.5L0,17h2.3
		h2.3h2.3h2.3l-1.2-3.5l-1.2-3.5L5.8,6.6L4.6,3.2L4.6,3.2z"/>
</g>
<rect x="16.5" y="17.3" class="st3" width="2.5" height="3.7"/>
<g>
	<polygon class="st1" points="14.4,16.5 17.8,6.1 21.3,16.5 	"/>
	<path class="st1" d="M17.8,7.7l0.1,0.3l1,3.1l1,3.1l0.6,1.8h-0.7h-2.1h-2.1h-0.7l0.6-1.8l1-3.1l1-3.1L17.8,7.7 M17.8,4.5l-1,3.1
		l-1,3.1l-1,3.1l-1,3.1h2.1h2.1h2.1H22l-1-3.1l-1-3.1l-1-3.1L17.8,4.5L17.8,4.5z"/>
</g>
</svg>
