<?xml version="1.0" encoding="utf-8"?>
<!-- Generator: Adobe Illustrator 25.2.0, SVG Export Plug-In . SVG Version: 6.00 Build 0)  -->
<svg version="1.1" xmlns="http://www.w3.org/2000/svg" xmlns:xlink="http://www.w3.org/1999/xlink" x="0px" y="0px"
	 viewBox="0 0 22 22" style="enable-background:new 0 0 22 22;" xml:space="preserve">
<style type="text/css">
	.st0{fill:#1C75BC;}
	.st1{fill:#00A651;}
	.st2{stroke:#2CA9E1;stroke-miterlimit:10;}
	.st3{fill:none;stroke:#2CA9E1;stroke-miterlimit:10;}
	.st4{display:none;}
	.st5{display:inline;}
	.st6{fill:#39B54A;}
	.st7{fill:none;stroke:#29AAE2;stroke-miterlimit:10;}
</style>
<g id="Layer_1">
</g>
<g id="Layer_2">
	<g>
		<circle class="st0" cx="11" cy="14" r="7.5"/>
		<path class="st1" d="M4.2,10.8c0,0.3-0.2,1.6,0.6,2.4c0.2,0.2,1,0.9,1.4,1c0.2,0.1-0.1-0.4,0.1-0.3c0.5,0.2,1,0.3,1.6,0.5
			c0.9,0.3,0.7,1.6,0.8,2c0.1,0.7-1.1-0.1-1.6,1.1c-0.1,0.1-0.7,1.6,0.1,2.9c0.9,0.7,3.9,1.4,5.4,0.9c0.7-0.2,0.5-0.8,0.9-1.6
			c0.2-0.5-0.9-0.9-1.1-1.2c-1.7-2.1-2-0.5-2.4-2c-0.1-0.3,1.3-0.3,0.7-0.6c-1.3-0.5-0.4-2.4-0.1-2.5c1.9-0.4,1.2,0.8,2,0.8
			c0.4,0,0.5,0.3,0.6-0.1c0.2-0.7-1.6-1.7-0.6-1.6c0.5,0,1.3-1.5,1.6-2.2c-0.6-0.5,1.2-2.4,0.6-2.9c-0.8-0.5-2.6-1-3.2-1
			c-0.9,0-0.9,0-2,0.1C8,6.8,5.5,8.1,4.2,10.8z"/>
	</g>
	<rect x="2.1" y="1.6" class="st2" width="2.8" height="3.2"/>
	<rect x="5.1" y="1.6" class="st2" width="2.8" height="3.2"/>
	<rect x="8.1" y="1.6" class="st2" width="2.8" height="3.2"/>
	<rect x="11.1" y="1.6" class="st2" width="2.8" height="3.2"/>
	<rect x="14" y="1.6" class="st3" width="6" height="3.2"/>
</g>
<g id="Layer_3" class="st4">
	<g class="st5">
		<rect x="3.8" y="1.4" class="st1" width="11.4" height="3.7"/>
		<rect x="14.2" y="1.4" class="st6" width="1" height="3.7"/>
		<rect x="3.8" y="1.4" class="st7" width="15" height="3.7"/>
	</g>
</g>
</svg>
