<?xml version="1.0" encoding="utf-8"?>
<!-- Generator: Adobe Illustrator 25.2.0, SVG Export Plug-In . SVG Version: 6.00 Build 0)  -->
<svg version="1.1" xmlns="http://www.w3.org/2000/svg" xmlns:xlink="http://www.w3.org/1999/xlink" x="0px" y="0px"
	 viewBox="0 0 22 22" style="enable-background:new 0 0 22 22;" xml:space="preserve">
<style type="text/css">
	.st0{fill:none;stroke:#29AAE2;stroke-width:2;stroke-miterlimit:10;}
	.st1{fill:#23A9E1;stroke:#2CA9E1;stroke-miterlimit:10;}
	.st2{fill:#2CA9E1;stroke:#29AAE2;stroke-miterlimit:10;}
	.st3{stroke:#2CA9E1;stroke-miterlimit:10;}
	.st4{fill:none;stroke:#2CA9E1;stroke-miterlimit:10;}
	.st5{display:none;}
	.st6{display:inline;fill:#00A651;}
	.st7{display:inline;fill:#39B54A;}
	.st8{display:inline;fill:none;stroke:#29AAE2;stroke-miterlimit:10;}
</style>
<g id="Layer_1">
	<g>
		<circle class="st0" cx="15.4" cy="12.1" r="4.8"/>
		<rect x="8.2" y="13.1" transform="matrix(0.4982 0.8671 -0.8671 0.4982 18.1694 0.1065)" class="st1" width="1.5" height="5.2"/>
		<path class="st2" d="M1.6,20.2l-0.2-0.3C1,19.2,1.3,18.4,1.9,18l3.9-2.2c0.7-0.4,1.5-0.2,1.9,0.5l0.2,0.3c0.4,0.7,0.2,1.5-0.5,1.9
			l-3.9,2.2C2.8,21.1,2,20.9,1.6,20.2z"/>
	</g>
</g>
<g id="Layer_3">
	<rect x="2.1" y="1.6" class="st3" width="2.8" height="3.2"/>
	<rect x="5.1" y="1.6" class="st3" width="2.8" height="3.2"/>
	<rect x="8.1" y="1.6" class="st3" width="2.8" height="3.2"/>
	<rect x="11.1" y="1.6" class="st3" width="2.8" height="3.2"/>
	<rect x="14" y="1.6" class="st4" width="6" height="3.2"/>
</g>
<g id="Layer_4" class="st5">
	<rect x="4.1" y="1.9" class="st6" width="11.4" height="2.6"/>
	<rect x="14.5" y="1.9" class="st7" width="1" height="2.6"/>
	<rect x="4.1" y="1.9" class="st8" width="15" height="2.6"/>
</g>
</svg>
