<svg id="Layer_1" data-name="Layer 1" xmlns="http://www.w3.org/2000/svg" viewBox="0 0 21.492 19.274"><defs><style>.cls-1{fill:none;stroke:#28abe2;stroke-miterlimit:10;}.cls-2{fill:#28abe2;}</style></defs><path class="cls-1" d="M21.219,9.853c0,2.087-4.577,7.386-1.526,10.437-2.669-.486-5.891-2.878-8.72-2.878A12.274,12.274,0,0,1,3.728,15.2a6.725,6.725,0,0,1-3-5.345,6.725,6.725,0,0,1,3-5.345,12.274,12.274,0,0,1,7.245-2.214,12.274,12.274,0,0,1,7.245,2.214A6.725,6.725,0,0,1,21.219,9.853Z" transform="translate(-0.227 -1.794)"/><path class="cls-2" d="M10.354,12.87c0,.068,0,.127-.006.178a.856.856,0,0,1-.022.133.444.444,0,0,1-.042.1.545.545,0,0,1-.089.109,1.876,1.876,0,0,1-.266.193,3.237,3.237,0,0,1-.505.254,4.216,4.216,0,0,1-.692.209,3.984,3.984,0,0,1-.854.086,3.742,3.742,0,0,1-1.444-.267,2.915,2.915,0,0,1-1.1-.787,3.6,3.6,0,0,1-.7-1.285,5.787,5.787,0,0,1-.244-1.761,5.806,5.806,0,0,1,.263-1.822A3.967,3.967,0,0,1,5.4,6.856a3.167,3.167,0,0,1,1.14-.848A3.765,3.765,0,0,1,8.7,5.783a4.455,4.455,0,0,1,.622.168,2.816,2.816,0,0,1,.508.235,1.731,1.731,0,0,1,.308.219.727.727,0,0,1,.111.13.46.46,0,0,1,.042.1,1.263,1.263,0,0,1,.025.143,1.834,1.834,0,0,1,.009.2,1.643,1.643,0,0,1-.012.216.628.628,0,0,1-.039.149.208.208,0,0,1-.061.089.125.125,0,0,1-.085.029.482.482,0,0,1-.25-.124,4,4,0,0,0-.411-.273,3.38,3.38,0,0,0-.613-.273,2.656,2.656,0,0,0-.864-.124,2.266,2.266,0,0,0-1,.219,2.117,2.117,0,0,0-.769.645,3.148,3.148,0,0,0-.5,1.038,5.083,5.083,0,0,0-.175,1.4,5.093,5.093,0,0,0,.169,1.381,2.868,2.868,0,0,0,.485,1,2.043,2.043,0,0,0,.775.609,2.509,2.509,0,0,0,1.041.206,2.758,2.758,0,0,0,.857-.12,3.335,3.335,0,0,0,.626-.271,4.422,4.422,0,0,0,.424-.269.511.511,0,0,1,.262-.12.154.154,0,0,1,.077.018.136.136,0,0,1,.051.073.648.648,0,0,1,.028.15A2.271,2.271,0,0,1,10.354,12.87Z" transform="translate(-0.227 -1.794)"/><path class="cls-2" d="M17.285,12.87c0,.068,0,.127-.006.178a.758.758,0,0,1-.021.133.5.5,0,0,1-.043.1.5.5,0,0,1-.088.109,1.871,1.871,0,0,1-.268.193,3.094,3.094,0,0,1-.5.254,4.233,4.233,0,0,1-.691.209,3.988,3.988,0,0,1-.853.086,3.748,3.748,0,0,1-1.446-.267,2.9,2.9,0,0,1-1.1-.787,3.553,3.553,0,0,1-.7-1.285,5.786,5.786,0,0,1-.245-1.761,5.835,5.835,0,0,1,.263-1.822,3.968,3.968,0,0,1,.74-1.355,3.163,3.163,0,0,1,1.139-.848,3.768,3.768,0,0,1,2.162-.225,4.366,4.366,0,0,1,.621.168,2.785,2.785,0,0,1,.508.235,1.693,1.693,0,0,1,.308.219.792.792,0,0,1,.112.13.418.418,0,0,1,.041.1.932.932,0,0,1,.025.143,1.808,1.808,0,0,1,.01.2,1.331,1.331,0,0,1-.014.216.549.549,0,0,1-.037.149.216.216,0,0,1-.06.089.13.13,0,0,1-.086.029.479.479,0,0,1-.25-.124,3.916,3.916,0,0,0-.412-.273,3.4,3.4,0,0,0-.612-.273,2.662,2.662,0,0,0-.865-.124,2.262,2.262,0,0,0-1,.219,2.112,2.112,0,0,0-.77.645,3.167,3.167,0,0,0-.494,1.038,5.081,5.081,0,0,0-.176,1.4,5.133,5.133,0,0,0,.169,1.381,2.887,2.887,0,0,0,.486,1,2.043,2.043,0,0,0,.775.609,2.5,2.5,0,0,0,1.039.206,2.778,2.778,0,0,0,.86-.12,3.352,3.352,0,0,0,.625-.271,4.392,4.392,0,0,0,.423-.269.521.521,0,0,1,.262-.12.143.143,0,0,1,.076.018.138.138,0,0,1,.053.073.655.655,0,0,1,.027.15A2.032,2.032,0,0,1,17.285,12.87Z" transform="translate(-0.227 -1.794)"/><text x="-0.227" y="-1.794"/></svg>