<?xml version="1.0" encoding="UTF-8" standalone="no"?>
<!DOCTYPE svg PUBLIC "-//W3C//DTD SVG 1.1//EN" "http://www.w3.org/Graphics/SVG/1.1/DTD/svg11.dtd">
<svg width="100%" height="100%" viewBox="0 0 256 256" version="1.1" xmlns="http://www.w3.org/2000/svg" xmlns:xlink="http://www.w3.org/1999/xlink" xml:space="preserve" xmlns:serif="http://www.serif.com/" style="fill-rule:evenodd;clip-rule:evenodd;stroke-linejoin:round;stroke-miterlimit:2;">
    <g transform="matrix(1,0,0,1,0,-313)">
        <g id="Artboard1" transform="matrix(1.04065,0,0,1.04065,-442.276,227.667)">
            <rect x="425" y="82" width="246" height="246" style="fill:none;"/>
            <clipPath id="_clip1">
                <rect x="425" y="82" width="246" height="246"/>
            </clipPath>
            <g clip-path="url(#_clip1)">
                <g transform="matrix(0.960938,0,0,0.960938,425,-218.773)">
                    <path d="M256,377L-0,377L-0,502C86.277,546.34 171.616,546.628 256,502L256,377Z" style="fill:rgb(17,17,17);"/>
                </g>
                <g transform="matrix(1.17143,0,0,1.16038,371.114,-306.726)">
                    <ellipse cx="151" cy="388" rx="105" ry="53" style="fill:rgb(227,199,47);"/>
                </g>
                <g transform="matrix(0.960938,0,0,0.960938,425,-218.773)">
                    <path d="M0,441L0,417.373C4.183,421.686 9.077,425.774 14.659,429.573C40.318,447.033 81.596,458.896 128.275,458.896C174.954,458.896 216.231,447.033 241.89,429.573C247.229,425.94 251.939,422.042 256,417.934L256,441C256,476.323 198.645,505 128,505C57.355,505 -0,476.323 0,441Z" style="fill:rgb(227,199,47);"/>
                </g>
                <g transform="matrix(0.960938,0,0,0.960938,425,-157.273)">
                    <path d="M0,441L0,417.373C4.183,421.686 9.077,425.774 14.659,429.573C40.318,447.033 81.596,458.896 128.275,458.896C174.954,458.896 216.231,447.033 241.89,429.573C247.229,425.94 251.939,422.042 256,417.934L256,441C256,476.323 198.645,505 128,505C57.355,505 -0,476.323 0,441Z" style="fill:rgb(227,199,47);"/>
                </g>
                <g transform="matrix(5.48128,0,0,5.48128,479.27,164.28)">
                    <text x="-5.08px" y="0px" style="font-family:'Calibri', sans-serif;font-size:12px;fill:rgb(17,17,17);">TWE<tspan x="17.174px 24.117px " y="0px 0px ">AK</tspan></text>
                </g>
            </g>
        </g>
    </g>
</svg>
