<?xml version="1.0" encoding="UTF-8"?>
<svg width="22px" height="22px" viewBox="0 0 22 22" version="1.1" xmlns="http://www.w3.org/2000/svg" xmlns:xlink="http://www.w3.org/1999/xlink">
    <title>VoiceTags</title>
    <defs>
        <linearGradient x1="50%" y1="0%" x2="50%" y2="100%" id="linearGradient-1">
            <stop stop-color="#FAD961" offset="0%"></stop>
            <stop stop-color="#F76B1C" offset="100%"></stop>
        </linearGradient>
    </defs>
    <g id="Page-1" stroke="none" stroke-width="1" fill="none" fill-rule="evenodd">
        <path d="M16.9247639,10.5946958 C17.4247496,10.8292864 17.6398948,11.4247782 17.4053042,11.9247639 C16.2919392,14.2976916 14.4543833,15.6600306 11.9981323,15.9440484 C11.9994578,15.9616892 12,15.9807813 12,16 L12,19 C12,19.5522847 11.5522847,20 11,20 C10.4477153,20 10,19.5522847 10,19 L10,16 L10.0028672,15.9441639 C7.54611517,15.6604001 5.70821181,14.2980134 4.59469582,11.9247639 C4.36010521,11.4247782 4.57525044,10.8292864 5.07523613,10.5946958 C5.57522182,10.3601052 6.17071357,10.5752504 6.40530418,11.0752361 C7.3354917,13.0577556 8.81616147,14 11,14 C13.1838385,14 14.6645083,13.0577556 15.5946958,11.0752361 C15.8292864,10.5752504 16.4247782,10.3601052 16.9247639,10.5946958 Z M11,2 C12.6568542,2 14,3.34314575 14,5 L14,9 C14,10.6568542 12.6568542,12 11,12 C9.34314575,12 8,10.6568542 8,9 L8,5 C8,3.34314575 9.34314575,2 11,2 Z" id="Combined-Shape" fill="url(#linearGradient-1)"></path>
        <rect id="Rectangle" x="0" y="0" width="22" height="22"></rect>
    </g>
</svg>