<svg id="Layer_1" data-name="Layer 1" xmlns="http://www.w3.org/2000/svg" viewBox="0 0 21.506 21.453"><defs><style>.cls-1{fill:#bd212f;stroke:#bd212f;stroke-linejoin:round;stroke-width:0.5px;}.cls-2{fill:#fff;}</style></defs><polygon class="cls-1" points="21.256 10.726 0.25 0.25 0.25 21.203 21.256 10.726"/><path class="cls-2" d="M8,16a1.973,1.973,0,0,1-.017.273.582.582,0,0,1-.061.2.3.3,0,0,1-.1.113.233.233,0,0,1-.125.035H2.31a.612.612,0,0,1-.377-.135A.555.555,0,0,1,1.755,16V6a.555.555,0,0,1,.178-.472.612.612,0,0,1,.377-.135H7.635a.239.239,0,0,1,.126.035.245.245,0,0,1,.091.113.864.864,0,0,1,.056.2,1.671,1.671,0,0,1,.022.29,1.575,1.575,0,0,1-.022.274.773.773,0,0,1-.056.19.25.25,0,0,1-.091.109.238.238,0,0,1-.126.034H3.247V10.15H7.01a.214.214,0,0,1,.126.039.33.33,0,0,1,.1.109.565.565,0,0,1,.056.191,2.145,2.145,0,0,1,.017.286,1.882,1.882,0,0,1-.017.269.551.551,0,0,1-.056.182.251.251,0,0,1-.1.1.261.261,0,0,1-.126.03H3.247v4.015H7.7a.232.232,0,0,1,.125.034.3.3,0,0,1,.1.109.531.531,0,0,1,.061.19A2.139,2.139,0,0,1,8,16Z" transform="translate(-0.247 -0.274)"/></svg>