<svg id="Layer_1" data-name="Layer 1" xmlns="http://www.w3.org/2000/svg" viewBox="0 0 15.155 21.5"><defs><style>.cls-1{fill:#be1e2d;}.cls-2{fill:#961a29;}.cls-3{fill:#fff;}</style></defs><polygon class="cls-1" points="0.5 10.962 0.5 4.664 7.578 0.577 14.656 4.664 14.656 10.962 7.578 20.652 0.5 10.962"/><path class="cls-2" d="M11,1.405l6.578,3.8v5.847L11,20.055,4.422,11.049V5.2L11,1.405M11,.25,3.422,4.625v6.75L11,21.75l7.578-10.375V4.625L11,.25Z" transform="translate(-3.422 -0.25)"/><polygon class="cls-3" points="4.239 9.678 4.239 5.822 7.578 3.895 10.917 5.822 10.917 9.678 7.578 11.605 4.239 9.678"/><path class="cls-2" d="M11,4.289l3.214,1.855V9.856L11,11.711,7.786,9.856V6.144L11,4.289M11,4,7.536,6v4L11,12l3.464-2V6L11,4Z" transform="translate(-3.422 -0.25)"/></svg>