<svg xmlns="http://www.w3.org/2000/svg" viewBox="0 0 17.049 21.235"><defs><style>.cls-1,.cls-4{fill:#231f20;}.cls-1,.cls-2{stroke:#f1f2f2;stroke-width:0.5px;}.cls-1,.cls-2,.cls-3{stroke-miterlimit:10;}.cls-3{fill:#fff200;stroke:#fff200;}.cls-4{font-size:14px;font-family:Calibri;}</style></defs><g id="Layer_1" data-name="Layer 1"><rect class="cls-1" x="0.25" y="0.25" width="16.549" height="20.735" rx="0.906"/><path class="cls-1" d="M.808.25H3.8a0,0,0,0,1,0,0V20.985a0,0,0,0,1,0,0H.808a.558.558,0,0,1-.558-.558V.808A.558.558,0,0,1,.808.25Z"/><rect class="cls-2" x="0.25" y="7.009" width="3.546" height="8.01"/><polygon class="cls-3" points="7.118 15.165 14.699 15.165 14.699 10.618 14.699 6.07 10.152 6.07 5.604 6.07 5.604 13.139 7.118 15.165"/></g><g id="Layer_2" data-name="Layer 2"><text class="cls-4" transform="translate(8.053 15.218)">!</text></g></svg>