<?xml version="1.0" encoding="utf-8"?>
<!-- Generator: Adobe Illustrator 25.2.0, SVG Export Plug-In . SVG Version: 6.00 Build 0)  -->
<svg version="1.1" xmlns="http://www.w3.org/2000/svg" xmlns:xlink="http://www.w3.org/1999/xlink" x="0px" y="0px"
	 viewBox="0 0 22 22" style="enable-background:new 0 0 22 22;" xml:space="preserve">
<style type="text/css">
	.st0{filter:url(#Adobe_OpacityMaskFilter);}
	.st1{filter:url(#Adobe_OpacityMaskFilter_1_);}
	.st2{filter:url(#Adobe_OpacityMaskFilter_2_);}
	.st3{fill:#C1272D;}
	.st4{fill:#FFFFFF;}
	.st5{mask:url(#SVGID_1_);}
	.st6{fill:#29ABE2;}
	.st7{filter:url(#Adobe_OpacityMaskFilter_3_);}
	.st8{filter:url(#Adobe_OpacityMaskFilter_4_);}
	.st9{mask:url(#SVGID_2_);}
	.st10{filter:url(#Adobe_OpacityMaskFilter_5_);}
	.st11{mask:url(#SVGID_3_);}
</style>
<g id="Layer_1">
	<defs>
		<filter id="Adobe_OpacityMaskFilter" filterUnits="userSpaceOnUse" x="0" y="10.6" width="20.6" height="11.3">
			
				<feColorMatrix  type="matrix" values="-1 0 0 0 1  0 -1 0 0 1  0 0 -1 0 1  0 0 0 1 0" color-interpolation-filters="sRGB" result="source"/>
			<feFlood  style="flood-color:white;flood-opacity:1" result="back"/>
			<feBlend  in="source" in2="back" mode="normal"/>
		</filter>
	</defs>
	<mask maskUnits="userSpaceOnUse" x="0" y="10.6" width="20.6" height="11.3" id="SVGID_1_">
		<g class="st0">
			<defs>
				<filter id="Adobe_OpacityMaskFilter_1_" filterUnits="userSpaceOnUse" x="1.4" y="7.1" width="20.6" height="11.3">
					
						<feColorMatrix  type="matrix" values="-1 0 0 0 1  0 -1 0 0 1  0 0 -1 0 1  0 0 0 1 0" color-interpolation-filters="sRGB" result="source"/>
					<feFlood  style="flood-color:white;flood-opacity:1" result="back"/>
					<feBlend  in="source" in2="back" mode="normal"/>
				</filter>
			</defs>
			<mask maskUnits="userSpaceOnUse" x="1.4" y="7.1" width="20.6" height="11.3" id="SVGID_1_">
				<g class="st1">
					<defs>
						<filter id="Adobe_OpacityMaskFilter_2_" filterUnits="userSpaceOnUse" x="0" y="3.6" width="20.6" height="11.3">
							
								<feColorMatrix  type="matrix" values="-1 0 0 0 1  0 -1 0 0 1  0 0 -1 0 1  0 0 0 1 0" color-interpolation-filters="sRGB" result="source"/>
							<feFlood  style="flood-color:white;flood-opacity:1" result="back"/>
							<feBlend  in="source" in2="back" mode="normal"/>
						</filter>
					</defs>
					<mask maskUnits="userSpaceOnUse" x="0" y="3.6" width="20.6" height="11.3" id="SVGID_1_">
						<g class="st2">
							<g>
								<polygon class="st3" points="1,5.8 10.3,0.7 19.6,5.8 10.3,10.8 								"/>
								<path class="st4" d="M10.3,1.3L15,3.8l3.6,1.9L15,7.7l-4.7,2.6L5.6,7.7L2.1,5.8l3.6-1.9L10.3,1.3 M10.3,0.1L5.2,3L0,5.8
									l5.2,2.8l5.2,2.8l5.2-2.8l5.2-2.8L15.5,3L10.3,0.1L10.3,0.1z"/>
							</g>
						</g>
					</mask>
					<g class="st5">
						<polygon class="st3" points="15.5,12.1 10.3,14.9 5.2,12.1 0,9.3 5.2,6.4 10.3,3.6 15.5,6.4 20.6,9.3 						"/>
					</g>
				</g>
			</mask>
			<g>
				<polygon class="st6" points="16.8,15.6 11.7,18.4 6.5,15.6 1.4,12.7 6.5,9.9 11.7,7.1 16.8,9.9 22,12.7 				"/>
			</g>
		</g>
	</mask>
	<g>
		<polygon class="st3" points="15.5,19 10.3,21.9 5.2,19 0,16.2 5.2,13.4 10.3,10.6 15.5,13.4 20.6,16.2 		"/>
	</g>
</g>
<g id="Layer_4">
	<defs>
		<filter id="Adobe_OpacityMaskFilter_3_" filterUnits="userSpaceOnUse" x="1.4" y="7.1" width="20.6" height="11.3">
			
				<feColorMatrix  type="matrix" values="-1 0 0 0 1  0 -1 0 0 1  0 0 -1 0 1  0 0 0 1 0" color-interpolation-filters="sRGB" result="source"/>
			<feFlood  style="flood-color:white;flood-opacity:1" result="back"/>
			<feBlend  in="source" in2="back" mode="normal"/>
		</filter>
	</defs>
	<mask maskUnits="userSpaceOnUse" x="1.4" y="7.1" width="20.6" height="11.3" id="SVGID_2_">
		<g class="st7">
			<defs>
				<filter id="Adobe_OpacityMaskFilter_4_" filterUnits="userSpaceOnUse" x="0" y="3.6" width="20.6" height="11.3">
					
						<feColorMatrix  type="matrix" values="-1 0 0 0 1  0 -1 0 0 1  0 0 -1 0 1  0 0 0 1 0" color-interpolation-filters="sRGB" result="source"/>
					<feFlood  style="flood-color:white;flood-opacity:1" result="back"/>
					<feBlend  in="source" in2="back" mode="normal"/>
				</filter>
			</defs>
			<mask maskUnits="userSpaceOnUse" x="0" y="3.6" width="20.6" height="11.3" id="SVGID_2_">
				<g class="st8">
					<g>
						<polygon class="st3" points="1,5.8 10.3,0.7 19.6,5.8 10.3,10.8 						"/>
						<path class="st4" d="M10.3,1.3L15,3.8l3.6,1.9L15,7.7l-4.7,2.6L5.6,7.7L2.1,5.8l3.6-1.9L10.3,1.3 M10.3,0.1L5.2,3L0,5.8
							l5.2,2.8l5.2,2.8l5.2-2.8l5.2-2.8L15.5,3L10.3,0.1L10.3,0.1z"/>
					</g>
				</g>
			</mask>
			<g class="st9">
				<polygon class="st3" points="15.5,12.1 10.3,14.9 5.2,12.1 0,9.3 5.2,6.4 10.3,3.6 15.5,6.4 20.6,9.3 				"/>
			</g>
		</g>
	</mask>
	<g>
		<polygon class="st6" points="16.8,15.6 11.7,18.4 6.5,15.6 1.4,12.7 6.5,9.9 11.7,7.1 16.8,9.9 22,12.7 		"/>
	</g>
</g>
<g id="Layer_3">
	<defs>
		<filter id="Adobe_OpacityMaskFilter_5_" filterUnits="userSpaceOnUse" x="0" y="3.6" width="20.6" height="11.3">
			
				<feColorMatrix  type="matrix" values="-1 0 0 0 1  0 -1 0 0 1  0 0 -1 0 1  0 0 0 1 0" color-interpolation-filters="sRGB" result="source"/>
			<feFlood  style="flood-color:white;flood-opacity:1" result="back"/>
			<feBlend  in="source" in2="back" mode="normal"/>
		</filter>
	</defs>
	<mask maskUnits="userSpaceOnUse" x="0" y="3.6" width="20.6" height="11.3" id="SVGID_3_">
		<g class="st10">
			<g>
				<polygon class="st3" points="1,5.8 10.3,0.7 19.6,5.8 10.3,10.8 				"/>
				<path class="st4" d="M10.3,1.3L15,3.8l3.6,1.9L15,7.7l-4.7,2.6L5.6,7.7L2.1,5.8l3.6-1.9L10.3,1.3 M10.3,0.1L5.2,3L0,5.8l5.2,2.8
					l5.2,2.8l5.2-2.8l5.2-2.8L15.5,3L10.3,0.1L10.3,0.1z"/>
			</g>
		</g>
	</mask>
	<g class="st11">
		<polygon class="st3" points="15.5,12.1 10.3,14.9 5.2,12.1 0,9.3 5.2,6.4 10.3,3.6 15.5,6.4 20.6,9.3 		"/>
	</g>
</g>
<g id="Layer_2">
	<g>
		<polygon class="st3" points="14.9,8.3 10.3,10.9 5.7,8.3 1,5.8 5.7,3.2 10.3,0.7 14.9,3.2 19.6,5.8 		"/>
	</g>
</g>
</svg>
