<?xml version="1.0" encoding="utf-8"?>
<!-- Generator: Adobe Illustrator 25.2.0, SVG Export Plug-In . SVG Version: 6.00 Build 0)  -->
<svg version="1.1" id="Layer_1" xmlns="http://www.w3.org/2000/svg" xmlns:xlink="http://www.w3.org/1999/xlink" x="0px" y="0px"
	 viewBox="0 0 22 22" style="enable-background:new 0 0 22 22;" xml:space="preserve">
<style type="text/css">
	.st0{fill:#FFFFFF;stroke:#29AAE2;stroke-width:1.2635;stroke-miterlimit:10;}
	.st1{fill:none;stroke:#29AAE2;stroke-width:2;stroke-miterlimit:10;}
</style>
<path class="st0" d="M8.4,21.2H3.3c-1.3,0-2.4-1.1-2.4-2.4v-1.3c0-1.3,1.1-2.4,2.4-2.4h5.1c1.3,0,2.4,1.1,2.4,2.4v1.3
	C10.8,20.1,9.7,21.2,8.4,21.2z"/>
<path class="st0" d="M8.4,7.2H3.3C2,7.2,0.9,6.1,0.9,4.8V3.6c0-1.3,1.1-2.4,2.4-2.4h5.1c1.3,0,2.4,1.1,2.4,2.4v1.3
	C10.8,6.1,9.7,7.2,8.4,7.2z"/>
<path class="st0" d="M18.7,14.2h-5.1c-1.3,0-2.4-1.1-2.4-2.4v-1.3c0-1.3,1.1-2.4,2.4-2.4h5.1c1.3,0,2.4,1.1,2.4,2.4v1.3
	C21.1,13.1,20,14.2,18.7,14.2z"/>
<line class="st1" x1="9.8" y1="6.8" x2="11.8" y2="9"/>
<line class="st1" x1="10.2" y1="16" x2="12.1" y2="13.7"/>
</svg>
