<svg id="Layer_1" data-name="Layer 1" xmlns="http://www.w3.org/2000/svg" viewBox="0 0 20.92 20.92"><defs><style>.cls-1{fill:#f9ed32;stroke:#231f20;stroke-miterlimit:10;stroke-width:0.914px;}.cls-2{fill:#231f20;}</style></defs><circle class="cls-1" cx="10.46" cy="10.46" r="10.003"/><path class="cls-2" d="M12.38,17.654a2.805,2.805,0,0,1-.059.628.785.785,0,0,1-.224.4.915.915,0,0,1-.427.22,3.016,3.016,0,0,1-.67.062,3.116,3.116,0,0,1-.677-.062.878.878,0,0,1-.427-.22.814.814,0,0,1-.217-.4,2.805,2.805,0,0,1-.059-.628,2.934,2.934,0,0,1,.059-.638.766.766,0,0,1,.217-.4.96.96,0,0,1,.427-.207A3.116,3.116,0,0,1,11,16.342a3.016,3.016,0,0,1,.67.062,1,1,0,0,1,.427.207.741.741,0,0,1,.224.4A2.934,2.934,0,0,1,12.38,17.654Zm-.408-3.1a.279.279,0,0,1-.046.161.334.334,0,0,1-.164.116,1.253,1.253,0,0,1-.3.069,4.612,4.612,0,0,1-.92,0,1.253,1.253,0,0,1-.3-.069.334.334,0,0,1-.164-.116.279.279,0,0,1-.046-.161L9.8,3.575a.44.44,0,0,1,.04-.242.4.4,0,0,1,.19-.173,1.153,1.153,0,0,1,.368-.1,5.069,5.069,0,0,1,.6-.028,4.072,4.072,0,0,1,.585.034,1.253,1.253,0,0,1,.368.1.418.418,0,0,1,.19.167.49.49,0,0,1,.053.236Z" transform="translate(-0.54 -0.54)"/></svg>