<svg id="Layer_1" data-name="Layer 1" xmlns="http://www.w3.org/2000/svg" viewBox="0 0 21.219 20.61"><defs><style>.cls-1{fill:#be1e2d;}.cls-2{fill:#ccc;}</style></defs><rect class="cls-1" x="0.546" y="8.111" width="20.622" height="12.498"/><polygon class="cls-2" points="6.977 8.346 0.494 8.346 0.494 5.768 3.072 5.768 6.977 8.346"/><polygon class="cls-1" points="12.159 8.346 6.977 8.346 3.072 5.768 8.253 5.768 12.159 8.346"/><polygon class="cls-2" points="17.34 8.346 12.159 8.346 8.253 5.768 13.434 5.768 17.34 8.346"/><polygon class="cls-1" points="21.219 8.346 17.34 8.346 13.434 5.768 21.219 5.768 21.219 8.346"/><polygon class="cls-2" points="6.385 2.473 0 3.599 0.448 6.137 2.986 5.69 6.385 2.473"/><polygon class="cls-1" points="11.487 1.573 6.385 2.473 2.986 5.69 8.089 4.79 11.487 1.573"/><polygon class="cls-2" points="16.59 0.674 11.487 1.573 8.089 4.79 13.191 3.89 16.59 0.674"/><polygon class="cls-1" points="20.411 0 16.59 0.674 13.191 3.89 20.858 2.538 20.411 0"/></svg>