<?xml version="1.0" encoding="utf-8"?>
<!-- Generator: Adobe Illustrator 25.2.0, SVG Export Plug-In . SVG Version: 6.00 Build 0)  -->
<svg version="1.1" id="Layer_1" xmlns="http://www.w3.org/2000/svg" xmlns:xlink="http://www.w3.org/1999/xlink" x="0px" y="0px"
	 viewBox="0 0 22 22" style="enable-background:new 0 0 22 22;" xml:space="preserve">
<style type="text/css">
	.st0{fill:#C1272D;stroke:#C1272D;stroke-miterlimit:10;}
	.st1{fill:none;stroke:#C1272D;stroke-width:2;stroke-miterlimit:10;}
	.st2{fill:#C1272D;stroke:#C1272D;stroke-linecap:round;stroke-linejoin:round;stroke-miterlimit:10;}
</style>
<path class="st0" d="M13.5,14h-5c-1.1,0-2-0.9-2-2v-2c0-1.1,0.9-2,2-2h5c1.1,0,2,0.9,2,2v2C15.5,13.1,14.6,14,13.5,14z"/>
<circle class="st1" cx="11" cy="11" r="9.5"/>
<path class="st2" d="M7.2,10l0.3-0.9l0.3-0.9c0,0-1.1,0.7-2.4,0.2S3.2,6.7,3.2,6.7L2.9,7.6L2.6,8.4c0,0,1.1-0.1,2.5,0.4
	C6.6,9.3,7.2,10,7.2,10z"/>
<path class="st2" d="M15,10l-0.3-0.9l-0.3-0.9c0,0,1.1,0.7,2.4,0.2S19,6.7,19,6.7l0.3,0.9l0.3,0.9c0,0-1.1-0.1-2.5,0.4
	C15.6,9.3,15,10,15,10z"/>
<path class="st2" d="M6.5,12.8l0.7,0.6L8,13.9c0,0-1.3,0.1-2.1,1.2s-0.8,2.7-0.8,2.7l-0.7-0.6l-0.7-0.6c0,0,0.9-0.6,1.9-1.8
	S6.5,12.8,6.5,12.8z"/>
<path class="st2" d="M15.4,12.8l-0.7,0.6l-0.7,0.6c0,0,1.3,0.1,2.1,1.2c0.8,1.1,0.8,2.7,0.8,2.7l0.7-0.6l0.7-0.6
	c0,0-0.9-0.6-1.9-1.8C15.6,13.7,15.4,12.8,15.4,12.8z"/>
</svg>
