<?xml version="1.0" encoding="utf-8"?>
<!-- Generator: Adobe Illustrator 25.2.0, SVG Export Plug-In . SVG Version: 6.00 Build 0)  -->
<svg version="1.1" id="Layer_1" xmlns="http://www.w3.org/2000/svg" xmlns:xlink="http://www.w3.org/1999/xlink" x="0px" y="0px"
	 viewBox="0 0 22 22" style="enable-background:new 0 0 22 22;" xml:space="preserve">
<style type="text/css">
	.st0{fill:#E24747;}
	.st1{fill:#993333;}
	.st2{fill:#FFFFFF;stroke:#993333;stroke-linecap:round;stroke-linejoin:round;stroke-miterlimit:10;}
</style>
<g>
	<path class="st0" d="M0.6,21.4c0,0-0.1,0-0.1-0.1c0,0,0-0.1,0-0.1l10.4-18c0,0,0.1-0.1,0.1-0.1s0.1,0,0.1,0.1l10.4,18
		c0,0,0,0.1,0,0.1s-0.1,0.1-0.1,0.1H0.6z"/>
	<path class="st1" d="M11,3.3l10.4,18H0.6L11,3.3 M11,3.1c-0.1,0-0.2,0-0.2,0.1l-10.4,18c0,0.1,0,0.2,0,0.2c0,0.1,0.1,0.1,0.2,0.1
		h20.8c0.1,0,0.2,0,0.2-0.1c0-0.1,0-0.2,0-0.2l-10.4-18C11.2,3.1,11.1,3.1,11,3.1L11,3.1z"/>
</g>
<g>
	<path class="st2" d="M11,3.3l-5.4,9.3c0.8,0,2.7-2.2,3.4-2.2c0.7,0,1.3,2.5,1.9,2.5c0.7,0,1.4-2.5,2.1-2.5c0.8,0,2.5,2.1,3.3,2.1
		C14.9,10.1,12.4,5.7,11,3.3z"/>
</g>
</svg>
