<?xml version="1.0" encoding="utf-8"?>
<!-- Generator: Adobe Illustrator 25.2.0, SVG Export Plug-In . SVG Version: 6.00 Build 0)  -->
<svg version="1.1" id="Layer_1" xmlns="http://www.w3.org/2000/svg" xmlns:xlink="http://www.w3.org/1999/xlink" x="0px" y="0px"
	 viewBox="0 0 22 22" style="enable-background:new 0 0 22 22;" xml:space="preserve">
<style type="text/css">
	.st0{fill:#1C75BC;}
	.st1{fill:#00A651;}
</style>
<circle class="st0" cx="11" cy="11" r="9.3"/>
<path class="st1" d="M2.5,7.1c0,0.3-0.2,2,0.8,2.9c0.3,0.3,1.2,1.1,1.7,1.3c0.2,0.1-0.1-0.4,0.2-0.4c0.6,0.2,1.2,0.4,2,0.6
	c1.1,0.3,0.9,1.9,1,2.5c0.1,0.9-1.4-0.1-2,1.4c-0.1,0.1-0.9,2,0.1,3.6c1.1,0.9,4.8,1.7,6.7,1.1c0.9-0.3,0.6-0.9,1.1-2
	c0.3-0.6-1.1-1.1-1.4-1.6C10.5,13.9,10,16,9.7,14c-0.1-0.3,1.6-0.4,0.8-0.7c-1.7-0.6-0.5-3-0.1-3.1c2.4-0.5,1.5,1,2.5,1
	c0.5,0,0.6,0.3,0.7-0.1c0.2-0.9-2-2.1-0.7-2c0.7,0.1,1.6-1.9,2-2.7c-0.7-0.6,1.5-3,0.7-3.6c-1-0.7-3.2-1.2-4-1.2
	c-1.1,0-1.1,0-2.5,0.1C7.2,2,4.2,3.7,2.5,7.1z"/>
</svg>
