<?xml version="1.0" encoding="utf-8"?>
<!-- Generator: Adobe Illustrator 25.2.1, SVG Export Plug-In . SVG Version: 6.00 Build 0)  -->
<svg version="1.1" xmlns="http://www.w3.org/2000/svg" xmlns:xlink="http://www.w3.org/1999/xlink" x="0px" y="0px"
	 viewBox="0 0 22 22" style="enable-background:new 0 0 22 22;" xml:space="preserve">
<style type="text/css">
	.st0{fill:#BD202E;}
	.st1{fill:#FFFFFF;}
	.st2{fill:#A7A9AC;stroke:#000000;stroke-linecap:round;stroke-miterlimit:10;}
	.st3{fill:#A41D2E;}
</style>
<g id="Layer_2">
</g>
<g id="Layer_3">
	<rect class="st0" width="22" height="22"/>
	<g>
		<circle class="st1" cx="10.8" cy="13" r="8.6"/>
	</g>
</g>
<g id="Layer_4">
	<path d="M6.6,8.2c1,0.7,7.7,0.9,8.4,0c3.2,1.9,4.2,4.7,4.4,5.2c0.2,0.5,1.9-4.5,0-7c-1.8-2.3-4.3-2.9-5.4-3c0.9-0.5,2.5-2,2.5-2
		s-2.2,0.1-4.6,0.6c-1.1,0.2-1.1,0.1-2,0.6c0.4-0.9,1.3-1.9,1.3-1.9C11,0.5,8.7,1.7,7.4,2.4C6.5,2.9,4.6,3.7,5.6,4.7
		C4.3,4,3.3,5.4,2.5,6.8C1,9.4,1.9,14,2.2,13.2C2.5,12.3,5.8,8.5,6.6,8.2z"/>
</g>
<g id="Layer_5">
	<line class="st2" x1="3.5" y1="10.5" x2="3.5" y2="20.9"/>
	<path class="st3" d="M16,16.5c-1.6,0.6-3.9-1.3-5-1.3c-2.5,0-3.8,1.7-5,1.3c-1.5-0.5-2.5-2.8-2.5-3.5c0-0.7-0.1-3.4,0.8-3.7
		s5,0.8,6.9,0.7s5.9-0.9,6.8-0.7c0.8,0.2,0.5,2.9,0.5,3.6C18.4,13.7,17.1,16.1,16,16.5z"/>
</g>
<g id="Layer_6">
</g>
</svg>
