<svg id="Layer_1" data-name="Layer 1" xmlns="http://www.w3.org/2000/svg" viewBox="0 0 22 22"><defs><style>.cls-1{fill:#fff;}.cls-2{fill:#be1e2d;}</style></defs><rect class="cls-1" x="0.5" y="0.5" width="21" height="21"/><path d="M21,1V21H1V1H21m1-1H0V22H22V0Z"/><path class="cls-2" d="M18.62,11.176a13.235,13.235,0,0,1-.488,3.731,7.8,7.8,0,0,1-1.456,2.827,6.348,6.348,0,0,1-2.433,1.793,8.613,8.613,0,0,1-3.414.626A8.763,8.763,0,0,1,7.5,19.58a5.834,5.834,0,0,1-2.32-1.667A7.1,7.1,0,0,1,3.815,15.2a14.029,14.029,0,0,1-.448-3.73A12.891,12.891,0,0,1,3.854,7.8,7.639,7.639,0,0,1,5.318,5,6.464,6.464,0,0,1,7.757,3.22a8.613,8.613,0,0,1,3.414-.627,8.7,8.7,0,0,1,3.283.567,5.956,5.956,0,0,1,2.327,1.654A7.052,7.052,0,0,1,18.165,7.5,13.443,13.443,0,0,1,18.62,11.176Zm-2.4.158a13.37,13.37,0,0,0-.257-2.7,6.186,6.186,0,0,0-.856-2.162,4.129,4.129,0,0,0-1.6-1.431,5.382,5.382,0,0,0-2.475-.514,5.055,5.055,0,0,0-2.475.554A4.632,4.632,0,0,0,6.932,6.562a6.144,6.144,0,0,0-.9,2.155,12.08,12.08,0,0,0-.27,2.591,14.275,14.275,0,0,0,.25,2.768,6.193,6.193,0,0,0,.843,2.182,4.037,4.037,0,0,0,1.587,1.424,5.447,5.447,0,0,0,2.494.507,5.16,5.16,0,0,0,2.5-.553,4.5,4.5,0,0,0,1.633-1.5,6.359,6.359,0,0,0,.882-2.182A12.572,12.572,0,0,0,16.221,11.334Z"/></svg>