<?xml version="1.0" encoding="utf-8"?>
<!-- Generator: Adobe Illustrator 25.2.0, SVG Export Plug-In . SVG Version: 6.00 Build 0)  -->
<svg version="1.1" xmlns="http://www.w3.org/2000/svg" xmlns:xlink="http://www.w3.org/1999/xlink" x="0px" y="0px"
	 viewBox="0 0 22 22" style="enable-background:new 0 0 22 22;" xml:space="preserve">
<style type="text/css">
	.st0{fill:#BE1E2D;}
	.st1{fill:#FFFFFF;}
</style>
<g id="Layer_1">
	<g>
		<g>
			<polygon class="st0" points="1,18.2 10.2,2.4 10.2,21.4 			"/>
			<path class="st1" d="M9.9,3.5V21l-8.4-2.9L9.9,3.5 M10.5,1.4l-9.8,17l9.8,3.4V1.4L10.5,1.4z"/>
		</g>
		<g>
			<polygon class="st0" points="10.7,2.4 19.9,18.2 10.7,21.4 			"/>
			<path class="st1" d="M11,3.5l8.4,14.6L11,21V3.5 M10.5,1.4v20.4l9.8-3.4L10.5,1.4L10.5,1.4z"/>
		</g>
	</g>
</g>
<g id="Layer_2">
	<g>
		<path class="st1" d="M20.3,6.6c0.1,1.8-1.8,2.5-3.4,2.2c-0.5-0.1-1.1-0.2-1.3-0.6c0-0.2-0.1-0.7,0.1-0.7c1,0.5,2.8,1.1,3.5-0.2
			c0.6-1.7-1.3-2.1-2.6-2c-0.3,0-0.4-0.8,0-0.8c0,0,0.7,0,0.7,0c2.8-0.1,1.8-3.7-0.7-2.3c-0.2,0.1-0.4,0.4-0.6,0.3
			c-0.1-0.1-0.1-0.2-0.1-0.4c0-0.3,0.1-0.5,0.4-0.6c0.9-0.6,2.4-0.7,3.3,0.1c0.8,0.8,0.7,2.4-0.3,3c-0.2,0.1-0.4,0.2-0.6,0.2
			C19.4,4.8,20.3,5.6,20.3,6.6z"/>
	</g>
</g>
</svg>
