<?xml version="1.0" encoding="utf-8"?>
<!-- Generator: Adobe Illustrator 25.2.0, SVG Export Plug-In . SVG Version: 6.00 Build 0)  -->
<svg version="1.1" xmlns="http://www.w3.org/2000/svg" xmlns:xlink="http://www.w3.org/1999/xlink" x="0px" y="0px"
	 viewBox="0 0 22 22" style="enable-background:new 0 0 22 22;" xml:space="preserve">
<style type="text/css">
	.st0{fill:#FFFFFF;stroke:#0C0C0C;stroke-width:0.5;stroke-linecap:round;stroke-miterlimit:10;}
</style>
<g id="Layer_1">
	<g id="File-outline_1_" transform="matrix(1,0,0,1,-502.815,-339.547)">
		<path class="st0" d="M506,345.4l5.2-5.2h10.4h-10.4h10.4v20.7H506V345.4"/>
	</g>
</g>
<g id="Layer_2">
	<path d="M7.9,17.5c-0.3,1.1-2.1,0.2-2-0.8c-0.2-1.5,0.5-3.8-1.2-4.4c0-0.2-0.1-0.5,0.2-0.6c1.8-0.5,0.4-3.4,1.3-4.6
		c0.2-0.6,1.8-1,1.8-0.1c0.1,0.6-0.5,0.3-0.8,0.5c-0.9,1.2,0.6,4.1-1.5,4.7c2.4,0.4-0.1,4.8,2,5C7.8,17.1,7.9,17.3,7.9,17.5z"/>
	<path d="M13.3,9.3c0.1,1.4-0.9,2.5-2.3,2.5c-0.1,0.7,0.3,2.2-0.9,1.7c-0.2,0-0.1-1.9-0.2-2c-0.1-0.4,0.3-0.6,0.6-0.5
		c3-0.2,1.2-4.7-1.3-3.1C8.9,8.2,8.5,8.3,8.5,7.7C9.5,5.8,13.6,6.8,13.3,9.3z M11.2,15.1c0.2,1-1.6,1-1.4,0
		C9.6,14.1,11.4,14.1,11.2,15.1z"/>
	<path d="M17.3,12.1c0.1,0.5-0.4,0.3-0.7,0.6c-1.3,1.4,0.7,6.1-2.5,5.2c-0.1-0.2-0.1-0.7,0.2-0.7c2.1-0.1-0.3-4.5,2-5
		c-2.5-0.3,0.1-4.5-2-4.7c-0.4,0-0.3-0.6-0.1-0.8c3.3-0.7,1,3.8,2.5,5C16.9,11.7,17.4,11.6,17.3,12.1z"/>
</g>
</svg>
