<?xml version="1.0" encoding="utf-8"?>
<!-- Generator: Adobe Illustrator 24.3.0, SVG Export Plug-In . SVG Version: 6.00 Build 0)  -->
<svg version="1.1" id="Layer_1" xmlns="http://www.w3.org/2000/svg" xmlns:xlink="http://www.w3.org/1999/xlink" x="0px" y="0px"
	 viewBox="0 0 22 22" style="enable-background:new 0 0 22 22;" xml:space="preserve">
<style type="text/css">
	.st0{fill:#CCCCCC;}
</style>
<g>
	<rect y="0" class="st0" width="5.5" height="5.5"/>
</g>
<g>
	<rect x="0.5" y="6" width="4.5" height="4.5"/>
	<path d="M4.5,6.5V10H1V6.5H4.5 M5.5,5.5H0V11h5.5V5.5L5.5,5.5z"/>
</g>
<g>
	<rect y="11" class="st0" width="5.5" height="5.5"/>
</g>
<g>
	<rect x="0.5" y="17" width="4.5" height="4.5"/>
	<path d="M4.5,17.5V21H1v-3.5H4.5 M5.5,16.5H0V22h5.5V16.5L5.5,16.5z"/>
</g>
<g>
	<rect x="6" y="0.5" width="4.5" height="4.5"/>
	<path d="M10,1v3.5H6.5V1H10 M11,0H5.5v5.5H11V0L11,0z"/>
</g>
<g>
	<rect x="5.5" y="5.5" class="st0" width="5.5" height="5.5"/>
</g>
<g>
	<rect x="6" y="11.5" width="4.5" height="4.5"/>
	<path d="M10,12v3.5H6.5V12H10 M11,11H5.5v5.5H11V11L11,11z"/>
</g>
<g>
	<rect x="5.5" y="16.5" class="st0" width="5.5" height="5.5"/>
</g>
<g>
	<rect x="11" y="0" class="st0" width="5.5" height="5.5"/>
</g>
<g>
	<rect x="11.5" y="6" width="4.5" height="4.5"/>
	<path d="M15.5,6.5V10H12V6.5H15.5 M16.5,5.5H11V11h5.5V5.5L16.5,5.5z"/>
</g>
<g>
	<rect x="11" y="11" class="st0" width="5.5" height="5.5"/>
</g>
<g>
	<rect x="11.5" y="17" width="4.5" height="4.5"/>
	<path d="M15.5,17.5V21H12v-3.5H15.5 M16.5,16.5H11V22h5.5V16.5L16.5,16.5z"/>
</g>
<g>
	<rect x="17" y="0.5" width="4.5" height="4.5"/>
	<path d="M21,1v3.5h-3.5V1H21 M22,0h-5.5v5.5H22V0L22,0z"/>
</g>
<g>
	<rect x="16.5" y="5.5" class="st0" width="5.5" height="5.5"/>
</g>
<g>
	<rect x="17" y="11.5" width="4.5" height="4.5"/>
	<path d="M21,12v3.5h-3.5V12H21 M22,11h-5.5v5.5H22V11L22,11z"/>
</g>
<g>
	<rect x="16.5" y="16.5" class="st0" width="5.5" height="5.5"/>
</g>
</svg>
