<svg xmlns="http://www.w3.org/2000/svg" width="16" height="16"><style type="text/css">.icon-canvas-transparent{opacity:0;fill:#F6F6F6;} .icon-vs-out{fill:#F6F6F6;} .icon-vs-bg{fill:#424242;} .icon-vs-fg{fill:#F0EFF1;} .icon-vs-action-blue{fill:#00539C;}</style><path class="icon-canvas-transparent" d="M16 16h-16v-16h16v16z" id="canvas"/><path class="icon-vs-out" d="M14 4.556v8.444c0 .97-.701 2-2 2h-8c-.97 0-2-.701-2-2v-6.351c-1.178-.564-2-1.758-2-3.149 0-1.93 1.57-3.5 3.5-3.5h1.5v1h5.06l3.94 3.556z" id="outline"/><path class="icon-vs-bg" d="M13 5v8s-.035 1-1.035 1h-8s-.965 0-.965-1v-4h1v4h8v-7h-2.603l.517-.52-.914-.908v-1.572h-1.581l-1.006-1h3.228l3.359 3z" id="iconBg"/><path class="icon-vs-fg" d="M7.419 3h1.581v1.572l-1.581-1.572zm1.978 3l-2.981 3h-2.416v4h8v-7h-2.603z" id="iconFg"/><g id="colorAction"><path class="icon-vs-action-blue" d="M5.988 6h-2.488c-1.381 0-2.5-1.119-2.5-2.5s1.119-2.5 2.5-2.5h.5v1h-.5c-.827 0-1.5.673-1.5 1.5s.673 1.5 1.5 1.5h2.513l-2.013-2h2l2.5 2.484-2.5 2.516h-2l1.988-2z"/></g></svg>