<svg xmlns="http://www.w3.org/2000/svg" viewBox="0 0 16 16"><style>.icon-canvas-transparent{opacity:0;fill:#f6f6f6}.icon-vs-out{fill:#f6f6f6}.icon-vs-bg{fill:#424242}.icon-vs-red{fill:#e51400}.icon-vs-yellow{fill:#fc0}.icon-vs-green{fill:#393}.icon-white{fill:#fff}.icon-vs-action-blue{fill:#00539c}</style><path class="icon-canvas-transparent" d="M16 16H0V0h16v16z" id="canvas"/><path class="icon-vs-out" d="M16 8c0 4.411-3.589 8-8 8a2.803 2.803 0 0 1-2.8-2.8c0-.833.272-1.629.766-2.241a.596.596 0 0 0 .101-.359.667.667 0 0 0-.667-.666.58.58 0 0 0-.358.102A3.584 3.584 0 0 1 2.8 10.8 2.803 2.803 0 0 1 0 8c0-.963.18-1.883.493-2.739A3.463 3.463 0 0 1 0 3.5C0 1.57 1.57 0 3.5 0h1v.817A7.941 7.941 0 0 1 8 0c4.411 0 8 3.589 8 8z" id="outline"/><path class="icon-white" d="M4.272 8.186c-.174.081-.34.174-.486.292A1.568 1.568 0 0 1 2.8 8.8.801.801 0 0 1 2 8c0-.438.05-.864.14-1.275.418.177.878.275 1.36.275h.879l-.647.646.54.54zM8 2a6.03 6.03 0 0 0-1.247.132L10.121 5.5 7.077 8.544a2.65 2.65 0 0 1 .99 2.056 2.57 2.57 0 0 1-.544 1.614 1.593 1.593 0 0 0-.323.986.8.8 0 0 0 .8.8c3.309 0 6-2.691 6-6s-2.691-6-6-6z" id="iconFg"/><g id="iconBg"><path class="icon-vs-green" d="M10.625 4.5a.875.875 0 1 0 0 1.75.875.875 0 0 0 0-1.75z"/><path class="icon-vs-yellow" d="M11.5 8a.875.875 0 1 0 0 1.75.875.875 0 0 0 0-1.75z"/><path class="icon-vs-red" d="M9.75 10.625a.875.875 0 1 0 0 1.75.875.875 0 0 0 0-1.75z"/><path class="icon-vs-bg" d="M15 8c0 3.859-3.141 7-7 7-.992 0-1.8-.808-1.8-1.8 0-.606.193-1.179.544-1.613.208-.259.323-.609.323-.987 0-.556-.276-1.046-.696-1.349l.707-.707c.598.489.989 1.224.989 2.056a2.57 2.57 0 0 1-.544 1.614 1.593 1.593 0 0 0-.323.986.8.8 0 0 0 .8.8c3.309 0 6-2.691 6-6a6.006 6.006 0 0 0-7.247-5.868l-.82-.82A6.993 6.993 0 0 1 8 1c3.859 0 7 3.14 7 7zm-10.728.186c-.174.081-.34.174-.486.292A1.568 1.568 0 0 1 2.8 8.8.801.801 0 0 1 2 8c0-.438.05-.864.14-1.275a3.507 3.507 0 0 1-.887-.564A6.978 6.978 0 0 0 1 8c0 .992.808 1.8 1.8 1.8.606 0 1.179-.193 1.614-.544.179-.144.41-.224.656-.272l-.798-.798z"/></g><g id="colorAction"><path class="icon-vs-action-blue" d="M5.854 8.354l-.708-.708L6.793 6H3.5C2.122 6 1 4.878 1 3.5S2.122 1 3.5 1v1C2.673 2 2 2.673 2 3.5S2.673 5 3.5 5h3.293L5.146 3.354l.707-.707L8.707 5.5 5.854 8.354z"/></g></svg>