<svg xmlns="http://www.w3.org/2000/svg" viewBox="0 0 16 16"><style>.icon-canvas-transparent{opacity:0;fill:#f6f6f6}.icon-vs-out{fill:#f6f6f6}.icon-vs-fg{fill:#f0eff1}.icon-folder{fill:#dcb67a}.icon-vs-action-blue{fill:#00539c}</style><path class="icon-canvas-transparent" d="M0 0h16v16H0V0z" id="canvas"/><path class="icon-vs-out" d="M14.5 5h-2.886l-1-2H8.866l-3-3H4.517L2.894 1.626l.432.432H0v3.25h1.004V14.5c0 .827.673 1.5 1.5 1.5H14.5c.827 0 1.5-.673 1.5-1.5v-8c0-.827-.673-1.5-1.5-1.5z" id="outline"/><path class="icon-vs-action-blue" d="M4.422 1.512L6 3 .988 2.987 1 4h5.153L4.409 5.831l.783.794 2.812-3.074L5.192.74z" id="colorImportance"/><g id="iconFg"><path class="icon-folder" d="M14.5 6h-3.504l-1-2H9.23l-1 1h1.147l.5 1H7.231l-2.04 2.04-2.222-2.316v-.385l-.965-.032V14.5a.5.5 0 0 0 .5.5H14.5a.5.5 0 0 0 .5-.5v-8a.5.5 0 0 0-.5-.5z"/><path class="icon-vs-fg" d="M9.378 5H8.176l-1 1h2.702z"/></g></svg>