<svg xmlns="http://www.w3.org/2000/svg" viewBox="0 0 16 16"><style>.icon-canvas-transparent{opacity:0;fill:#f6f6f6}.icon-vs-out{fill:#f6f6f6}.icon-folder{fill:#dcb67a}.icon-vs-action-orange{fill:#c27d1a}</style><g id="canvas"><path class="icon-canvas-transparent" d="M0 0h16v15.917H0V0z"/><path class="icon-canvas-transparent" d="M16 16.041H0v-16h16v16z"/></g><path class="icon-vs-out" d="M14.496 5H11.61l-1-2H8.121l.621-.621L6.621.258 6 .879V0H3v.879L2.379.258.258 2.379.879 3H0v3h.879l-.621.621.742.742V14.5c0 .827.673 1.5 1.5 1.5h11.996c.827 0 1.5-.673 1.5-1.5v-8c0-.827-.673-1.5-1.5-1.5z" id="outline"/><path class="icon-folder" d="M14.496 6h-3.504l-1-2H9v1h.374l.5 1H8.121l.621.621-2.121 2.121L6 8.121V9H3v-.879l-.621.621L2 8.363V14.5a.5.5 0 0 0 .5.5h11.996a.5.5 0 0 0 .5-.5v-8a.5.5 0 0 0-.5-.5z" id="iconBg"/><path class="icon-vs-action-orange" d="M8 4H5.707l1.621-1.621-.707-.708L5 3.292V1H4v2.292L2.379 1.671l-.708.708L3.293 4H1v1h2.293L1.671 6.621l.708.707L4 5.707V8h1V5.707l1.621 1.621.707-.707L5.707 5H8V4zM5 5H4V4h1v1z" id="colorImportance"/></svg>