<svg xmlns="http://www.w3.org/2000/svg" viewBox="0 0 16 16"><defs><style>.icon-canvas-transparent,.icon-vs-out{fill:#f6f6f6;}.icon-canvas-transparent{opacity:0;}.icon-vs-bg{fill:#424242;}.icon-vs-action-blue{fill:#00539c;}</style></defs><title>OpenFile_16x</title><g id="canvas"><path class="icon-canvas-transparent" d="M16,16.018H0v-16H16Z"/></g><g id="outline"><path class="icon-vs-out" d="M16,4.4V16.018H3V9.967a3.483,3.483,0,0,1,0-6.9V.018H5.711L5.729,0l.017.018h5.875Z"/></g><g id="iconBg"><path class="icon-vs-bg" d="M11.207,1.018H6.746l1,1H10v4h4v8H5v-4H4v5H15V4.811Zm-.207,4V2.225l2.793,2.793Z"/></g><g id="colorAction"><path class="icon-vs-action-blue" d="M8.832,4.518l-3.1,3.1-.708-.707,1.9-1.9H3.5a1.5,1.5,0,0,0,0,3v1a2.5,2.5,0,0,1,0-5H6.918l-1.9-1.9.708-.707Z"/></g></svg>