<svg xmlns="http://www.w3.org/2000/svg" viewBox="0 0 16 16"><style>.icon-canvas-transparent{opacity:0;fill:#f6f6f6}.icon-vs-out{fill:#f6f6f6}.icon-vs-bg{fill:#424242}.icon-vs-fg{fill:#f0eff1}</style><path class="icon-canvas-transparent" d="M16 16H0V0h16v16z" id="canvas"/><path class="icon-vs-out" d="M16 5.667v.549l-.785.781A3.427 3.427 0 0 1 12.77 8h-.034l-1.818 1.825a4.435 4.435 0 0 1-1.24 3.887l-1.061 1.062-2.608-2.608-3.501 3.501L1.117 16H0v-1.111l.302-1.349 3.533-3.546-2.61-2.61 1.061-1.061A4.402 4.402 0 0 1 6.17 5.084l1.818-1.818A3.463 3.463 0 0 1 8.996.786L9.782 0h.551L16 5.667z" id="outline"/><path class="icon-vs-fg" d="M12.341 5.948l-.286-.085-3.416 3.416.135.312a2.442 2.442 0 0 1-.194 2.32L4.089 7.42a2.438 2.438 0 0 1 2.319-.193l.312.135 3.417-3.417-.085-.286a1.489 1.489 0 0 1 .069-1.043l3.263 3.263c-.32.146-.69.174-1.043.069z" id="iconFg"/><g id="iconBg"><path class="icon-vs-bg" d="M10.058 1.139l-.354.353a2.463 2.463 0 0 0-.681 2.153L6.481 6.187a3.423 3.423 0 0 0-3.489.844l-.353.353 2.609 2.609-4.033 4.047L1 15l.999-.239 4.008-4.008 2.608 2.608.354-.354a3.432 3.432 0 0 0 .844-3.489l2.542-2.542a2.465 2.465 0 0 0 2.152-.681l.354-.354-4.803-4.802zm2.283 4.809l-.286-.085-3.416 3.416.135.312a2.442 2.442 0 0 1-.194 2.32L4.089 7.42a2.438 2.438 0 0 1 2.319-.193l.312.135 3.417-3.417-.085-.286a1.489 1.489 0 0 1 .069-1.043l3.263 3.263c-.32.146-.69.174-1.043.069z"/></g></svg>