<svg xmlns="http://www.w3.org/2000/svg" viewBox="0 0 16 16"><defs><style>.icon-canvas-transparent,.icon-vs-out{fill:#f6f6f6;}.icon-canvas-transparent{opacity:0;}.icon-vs-bg{fill:#424242;}.icon-vs-action-purple{fill:#652d90;}.icon-vs-fg{fill:#f0eff1;}</style></defs><title>SQLServerObjectExplorer_16x</title><g id="canvas"><path class="icon-canvas-transparent" d="M16,16H0V0H16Z"/></g><g id="outline"><path class="icon-vs-out" d="M16,11H12v3H6v2H0V0H6V2h5V5h5Z"/></g><g id="iconBg"><path class="icon-vs-bg" d="M5,8v7H1V1H5V2H4V8Z"/><path class="icon-vs-action-purple" d="M9,7H5V3h5V5H9V4H6V6H9Zm2,4v2H6V9H9v1H7v2h3V11ZM10,6v4h5V6Zm4,3H11V7h3Z"/></g><g id="iconFg"><path class="icon-vs-fg" d="M9,6H6V4H9Zm5,3H11V7h3ZM9,11h1v1H7V10H9Z"/></g></svg>