<?xml version="1.0" encoding="utf-8"?>
<!-- Generator: Adobe Illustrator 24.3.0, SVG Export Plug-In . SVG Version: 6.00 Build 0)  -->
<svg version="1.1" id="Layer_1" xmlns="http://www.w3.org/2000/svg" xmlns:xlink="http://www.w3.org/1999/xlink" x="0px" y="0px"
	 viewBox="0 0 22 22" style="enable-background:new 0 0 22 22;" xml:space="preserve">
<style type="text/css">
	.st0{fill:none;stroke:#3333CC;stroke-width:3;stroke-miterlimit:10;}
	.st1{fill:none;stroke:#CC3333;stroke-width:3;stroke-miterlimit:10;}
	.st2{fill:none;stroke:#020202;stroke-width:3;stroke-linecap:round;stroke-miterlimit:10;}
	.st3{stroke:#020202;stroke-miterlimit:10;}
	.st4{fill:none;stroke:#020202;stroke-linecap:round;stroke-miterlimit:10;}
</style>
<polyline class="st0" points="11.1,20.7 1.3,20.7 1.3,11 1.3,1.3 8.6,1.3 "/>
<polyline class="st1" points="12.6,17.7 10.6,20.7 20.7,20.7 20.7,11 20.7,1.3 10.7,1.3 "/>
<path class="st2" d="M4,18c1.4-0.7,3.4-1.9,5.3-4c1.7-1.8,4.1-5,4.7-6.3"/>
<polyline class="st2" points="12.9,13.3 16.4,16 12.6,20.2 "/>
<circle class="st3" cx="15.5" cy="3.2" r="2.2"/>
<line class="st4" x1="7.9" y1="11.7" x2="1.4" y2="11.7"/>
<line class="st4" x1="5.7" y1="14.2" x2="2.4" y2="14.2"/>
<polyline class="st0" points="1.3,11 1.3,1.3 10.6,1.3 6.7,5.9 "/>
<polyline class="st2" points="6.7,8.3 9.4,4.7 17.9,9.7 20.5,6.4 "/>
<line class="st4" x1="9.4" y1="4.1" x2="2" y2="4.1"/>
<line class="st4" x1="5.7" y1="7.4" x2="3.2" y2="7.4"/>
<line class="st4" x1="5" y1="10" x2="2.7" y2="10"/>
</svg>
