<svg id="Layer_1" data-name="Layer 1" xmlns="http://www.w3.org/2000/svg" viewBox="0 0 22.08 19.79"><defs><style>.cls-1{fill:#a2d0f0;}.cls-2{fill:#fbae2f;}.cls-3{fill:#231f20;}</style></defs><path class="cls-1" d="M19.93,20.22H9.54s-.37,0-.37,0H7.66l-.47,0H5.88c-4.18-.27-4.08-7.9.24-7.9a3.29,3.29,0,0,1,.8.11h.14l.12,0,.05,0,.06,0a1.47,1.47,0,0,0,.1-.13l0-.05s0,0,0,0l0,0a2.17,2.17,0,0,0,0-.36,1,1,0,0,1,0-.17c0-.15,0-.29,0-.43v-.05C7.56,8.57,9,6.19,11.8,6.19a4.22,4.22,0,0,1,4.12,3.52s0,.1,0,.16,0,0,0,0,0,.21,0,.32,0,.1,0,.15h0a2.84,2.84,0,0,0,.06.31c0,.05,0,.11,0,.15a.34.34,0,0,1,0,.08,0,0,0,0,0,0,0,.25.25,0,0,0,0,.09l.05.06,0,.05h0a1.29,1.29,0,0,1,.16.09h0l.09,0,.2,0,.25.06h0l.35,0a4.07,4.07,0,0,1,2,1.12,5.3,5.3,0,0,1,.38.43h0A6.48,6.48,0,0,1,19.93,20.22Z" transform="translate(0.04 -1.1)"/><path class="cls-2" d="M12.33,5.7l-.13,0a5.8,5.8,0,0,0-5.62,6h-.1a4.74,4.74,0,0,0-3.78,2c-.06-.07-.12-.12-.18-.2A5.12,5.12,0,0,1,2,12.75c-.16-.23-.32-.45-.47-.68A7.31,7.31,0,0,1,.74,8.66L1,6.91a9.16,9.16,0,0,1,.6-1.58l0,0L2.49,4A6,6,0,0,1,5.18,2.22,5.25,5.25,0,0,1,6.9,2a5.52,5.52,0,0,1,3,.89l.48.42a6.34,6.34,0,0,1,.69.59s0,0,0,0h0a2.08,2.08,0,0,1,.21.21c.31.43.61.87.92,1.32C12.25,5.51,12.29,5.6,12.33,5.7Z" transform="translate(0.04 -1.1)"/><path class="cls-3" d="M16.89,10.05a5.38,5.38,0,0,0-3.7-4.12A6.87,6.87,0,0,0,6.8,1.1,7.12,7.12,0,0,0,0,8.47,7.57,7.57,0,0,0,2.33,14a5,5,0,0,0-.44,2,4.68,4.68,0,0,0,4.54,4.83,2.81,2.81,0,0,0,.41,0l13.45,0h0A6.54,6.54,0,0,0,22,16.43,6.45,6.45,0,0,0,16.89,10.05ZM2.74,12.87a5.06,5.06,0,0,1-.45-.63l-.44-.63a6.62,6.62,0,0,1-.78-3.15c.07-.54.13-1.07.2-1.61a8.62,8.62,0,0,1,.56-1.46l0,0,.86-1.23A5.63,5.63,0,0,1,5.23,2.52a4.88,4.88,0,0,1,1.61-.25,5.21,5.21,0,0,1,2.79.82l.45.39a5.38,5.38,0,0,1,.64.54l0,0h0a1.8,1.8,0,0,1,.2.19c.29.4.57.81.86,1.22,0,.09.08.18.12.27l-.12,0a5.4,5.4,0,0,0-5.27,5.52H6.45a4.45,4.45,0,0,0-3.54,1.82Zm17,6.78H9.71s-.35,0-.35,0H7.89l-.45,0H6.17c-4-.25-4-7.21.23-7.21a3.2,3.2,0,0,1,.78.1h.13a.27.27,0,0,0,.12,0l.05,0,0,0,.1-.12,0,0s0,0,0,0l0,0a1.82,1.82,0,0,0,0-.33.83.83,0,0,1,0-.15c0-.14,0-.27,0-.4v0C7.8,9,9.2,6.84,11.9,6.84a4,4,0,0,1,4,3.22s0,.09,0,.14,0,0,0,0,0,.19,0,.29,0,.09,0,.14h0A2.33,2.33,0,0,0,16,11l0,.14a.24.24,0,0,1,0,.07,0,0,0,0,0,0,0,.2.2,0,0,0,0,.08l.05.06,0,0h0l.15.08h0l.09,0,.19,0,.25,0h0l.34,0a3.9,3.9,0,0,1,1.95,1,4.59,4.59,0,0,1,.37.39h0A5.63,5.63,0,0,1,19.78,19.65Z" transform="translate(0.04 -1.1)"/></svg>