<?xml version="1.0" encoding="utf-8"?>
<!-- Generator: Adobe Illustrator 24.3.0, SVG Export Plug-In . SVG Version: 6.00 Build 0)  -->
<svg version="1.1" id="Layer_1" xmlns="http://www.w3.org/2000/svg" xmlns:xlink="http://www.w3.org/1999/xlink" x="0px" y="0px"
	 viewBox="0 0 22 22" style="enable-background:new 0 0 22 22;" xml:space="preserve">
<style type="text/css">
	.st0{fill:#2E3192;stroke:#2E3192;stroke-miterlimit:10;}
	.st1{fill:#2E3192;stroke:#FFFFFF;stroke-miterlimit:10;}
</style>
<path class="st0" d="M12.5,13.2c1.4,1.5,2.5,2.6,2.2,4.2s-1.6,3-3.7,3c-2,0-3.3-1.4-3.7-3c-0.3-1.6,0.8-2.7,2.2-4.2
	C9.9,12.8,10,11.5,10,11S9.9,9.2,9.5,8.8C8.2,7.3,7,6.2,7.3,4.6C7.7,3,9,1.5,11,1.5c2,0,3.3,1.4,3.7,3s-0.8,2.7-2.2,4.2
	C12.1,9.2,12,10.5,12,11S12.1,12.8,12.5,13.2z"/>
<circle class="st1" cx="5" cy="11" r="3.3"/>
<circle class="st1" cx="17" cy="11" r="3.3"/>
</svg>
