<?xml version="1.0" encoding="utf-8"?>
<!-- Generator: Adobe Illustrator 24.3.0, SVG Export Plug-In . SVG Version: 6.00 Build 0)  -->
<svg version="1.1" id="Layer_1" xmlns="http://www.w3.org/2000/svg" xmlns:xlink="http://www.w3.org/1999/xlink" x="0px" y="0px"
	 viewBox="0 0 22 22" style="enable-background:new 0 0 22 22;" xml:space="preserve">
<style type="text/css">
	.st0{fill:none;stroke:#000000;stroke-linecap:round;stroke-miterlimit:10;}
	.st1{fill:none;stroke:#FFFFFF;stroke-width:2;stroke-miterlimit:10;}
</style>
<polygon points="8,17 4,14 0,14 0,11 0,8 4,8 8,5 8,11 "/>
<g>
	<line class="st0" x1="10" y1="10" x2="10" y2="12.5"/>
	<line class="st0" x1="12" y1="4.5" x2="12" y2="12.5"/>
	<line class="st0" x1="14" y1="7" x2="14" y2="12.5"/>
	<line class="st0" x1="16" y1="3" x2="16" y2="12.5"/>
	<line class="st0" x1="18" y1="6" x2="18" y2="12.5"/>
</g>
<g>
	<line class="st0" x1="10" y1="12" x2="10" y2="9.5"/>
	<line class="st0" x1="12" y1="17.5" x2="12" y2="9.5"/>
	<line class="st0" x1="14" y1="15" x2="14" y2="9.5"/>
	<line class="st0" x1="16" y1="19" x2="16" y2="9.5"/>
	<line class="st0" x1="18" y1="16" x2="18" y2="9.5"/>
</g>
<line class="st0" x1="19.9" y1="21" x2="19.9" y2="1"/>
<line class="st1" x1="9" y1="11" x2="21" y2="11"/>
</svg>
