<svg id="Layer_1" data-name="Layer 1" xmlns="http://www.w3.org/2000/svg" viewBox="0 0 22.01 22.01"><defs><style>.cls-1{fill:#a12821;}.cls-2{fill:#278c43;}.cls-3{fill:#378c42;}.cls-4{fill:#231f20;}.cls-5,.cls-6,.cls-7{fill:none;stroke-miterlimit:10;stroke-width:1.5px;}.cls-5{stroke:#1a7536;}.cls-6{stroke:#065f29;}.cls-7{stroke:#05270a;}.cls-8{fill:#7a1810;}.cls-9{fill:#520000;}.cls-10{fill:#90211a;}</style></defs><path class="cls-1" d="M19,6.56,19,8a5.09,5.09,0,0,1-.44,1L16.31,9S14,8.93,14,9l-.15,2.3H8.29L8.33,9A1.07,1.07,0,0,0,8,8.61l-4.66,0a1.82,1.82,0,0,1-.42-.49L3,6.41a.56.56,0,0,1,.23-.27l2.71,0c.05,0,.19-.09.19-.15V4.4l.24-.27.21,0,2.48,0a.41.41,0,0,0,.2-.24l0-1.53a1.25,1.25,0,0,1,.29-.44h2.86a1.25,1.25,0,0,1,.29.44l0,1.64c0,.06.11.15.16.15l2.69,0c.05,0,.25.17.25.23V5.86c0,.06.15.2.2.2h2.61A1.8,1.8,0,0,1,19,6.56Z" transform="translate(0.01)"/><path class="cls-2" d="M14.08,13.8l.06,1.44-6,0V13.8l0-1.46V10.9l0-2-5-.06V6l2.94.11.2-1.57V6.21a.1.1,0,0,1-.1.1H3.32a.11.11,0,0,0-.1.11V8.25a.1.1,0,0,0,.1.1H8.49a.11.11,0,0,1,.1.1v6a.1.1,0,0,0,.1.1H13.4a.1.1,0,0,0,.1-.1v-6a.11.11,0,0,1,.1-.1h5.08a.1.1,0,0,0,.1-.1V6.42a.11.11,0,0,0-.1-.11H15.79a.1.1,0,0,1-.1-.1V4.35a.11.11,0,0,0-.1-.11h-3a.1.1,0,0,1-.1-.1V2.25a.1.1,0,0,0-.1-.1H9.6a.1.1,0,0,0-.1.1V4.14a.1.1,0,0,1-.1.1H6.67L9.13,4l.42-2.37,3,.09L12.72,4l3.22.28,0,1.68,2.85.36.06,2.31-5,.14L14,10.9,14,12.34Z" transform="translate(0.01)"/><path class="cls-3" d="M17.43,17.11v4.54H1.74C1,21.65.39,21.5.39,21.29V17.47c0-.2.6-.36,1.35-.36Z" transform="translate(0.01)"/><path class="cls-4" d="M21,16.73H1a1,1,0,0,0-1,1.05V21A1,1,0,0,0,1,22H21A1.06,1.06,0,0,0,22,21V17.78A1.06,1.06,0,0,0,21,16.73ZM4.39,21.26H1A.3.3,0,0,1,.74,21V17.78a.3.3,0,0,1,.29-.3H4.39Zm4.21,0h-4V17.48h4Zm4.23,0h-4V17.48h4Zm4.45,0h-4.2V17.48h4.2Zm4-.3a.3.3,0,0,1-.31.3H17.53V17.48H21a.3.3,0,0,1,.31.3Z" transform="translate(0.01)"/><polyline class="cls-5" points="14.65 10.9 13.96 10.9 13.51 10.9"/><polyline class="cls-5" points="8.6 10.9 8.16 10.9 7.38 10.9"/><polyline class="cls-6" points="14.69 12.34 14.03 12.34 13.51 12.34"/><polyline class="cls-6" points="8.6 12.34 8.15 12.34 7.39 12.34"/><polyline class="cls-7" points="14.69 13.8 14.09 13.8 13.51 13.8"/><polyline class="cls-7" points="8.6 13.8 8.13 13.8 7.39 13.8"/><polygon class="cls-8" points="13.63 11.63 13.7 13.54 8.32 13.58 8.44 11.59 13.63 11.63"/><path class="cls-9" d="M13.88,13.22l-.09,1.12a1.31,1.31,0,0,1-.37.52l-4.86-.2a.63.63,0,0,1-.22-.37l-.06-1.06Z" transform="translate(0.01)"/><rect class="cls-10" x="8.4" y="10.62" width="5.3" height="1.32"/><path class="cls-4" d="M21.89,6.22H19a.11.11,0,0,1-.1-.11V4.27a.1.1,0,0,0-.1-.1h-3a.11.11,0,0,1-.1-.1V2.2a.1.1,0,0,0-.1-.1H12.74a.11.11,0,0,1-.1-.1V.1a.11.11,0,0,0-.1-.1h-3a.11.11,0,0,0-.1.1V2a.11.11,0,0,1-.1.1H6.38a.1.1,0,0,0-.1.1V4.07a.11.11,0,0,1-.1.1h-3a.1.1,0,0,0-.1.1V6.13a.11.11,0,0,1-.1.11H.11a.1.1,0,0,0-.1.1V8.28a.1.1,0,0,0,.1.1H3a.11.11,0,0,1,.1.1v1.93a.11.11,0,0,0,.1.1h3a.11.11,0,0,1,.1.1V16a.11.11,0,0,0,.1.11h9.34a.11.11,0,0,0,.1-.11V10.61a.11.11,0,0,1,.1-.1h2.93a.11.11,0,0,0,.1-.1v-2a.11.11,0,0,1,.1-.1h2.85a.1.1,0,0,0,.1-.1V6.32A.1.1,0,0,0,21.89,6.22ZM6.33,4.35a.11.11,0,0,1,0-.08.09.09,0,0,1,.07,0h3a.1.1,0,0,0,.1-.1V2.25a.1.1,0,0,1,.1-.1h2.8a.1.1,0,0,1,.1.1V4.14a.1.1,0,0,0,.1.1h3a.11.11,0,0,1,.1.11V6.21a.1.1,0,0,0,.1.1h2.89a.11.11,0,0,1,.1.11V8.25a.1.1,0,0,1-.1.1H13.6a.11.11,0,0,0-.1.1v6a.1.1,0,0,1-.1.1H8.69a.1.1,0,0,1-.1-.1v-6a.11.11,0,0,0-.1-.1H3.32a.1.1,0,0,1-.1-.1V6.42a.11.11,0,0,1,.1-.11H6.23a.1.1,0,0,0,.1-.1Z" transform="translate(0.01)"/></svg>