<?xml version="1.0" encoding="utf-8"?>
<!-- Generator: Adobe Illustrator 24.3.0, SVG Export Plug-In . SVG Version: 6.00 Build 0)  -->
<svg version="1.1" id="Layer_1" xmlns="http://www.w3.org/2000/svg" xmlns:xlink="http://www.w3.org/1999/xlink" x="0px" y="0px"
	 viewBox="0 0 22 22" style="enable-background:new 0 0 22 22;" xml:space="preserve">
<style type="text/css">
	.st0{fill:#4D4D4D;}
	.st1{fill:#F2F2F2;}
</style>
<rect y="0" width="22" height="22"/>
<g>
	<path class="st0" d="M4.9,0C2.2,0,0,2.2,0,4.9h4.9V0z"/>
	<path class="st0" d="M4.9,9.8c2.7,0,4.9-2.2,4.9-4.9H4.9V9.8z"/>
	<path class="st1" d="M4.9,9.8C2.2,9.8,0,7.6,0,4.9h4.9V9.8z"/>
	<path class="st1" d="M4.9,0c2.7,0,4.9,2.2,4.9,4.9H4.9V0z"/>
</g>
<g>
	<path class="st0" d="M17.1,0c-2.7,0-4.9,2.2-4.9,4.9h4.9V0z"/>
	<path class="st0" d="M17.1,9.8c2.7,0,4.9-2.2,4.9-4.9h-4.9V9.8z"/>
	<path class="st1" d="M17.1,9.8c-2.7,0-4.9-2.2-4.9-4.9h4.9V9.8z"/>
	<path class="st1" d="M17.1,0C19.8,0,22,2.2,22,4.9h-4.9V0z"/>
</g>
<g>
	<path class="st0" d="M4.9,12.3c-2.7,0-4.9,2.2-4.9,4.9h4.9V12.3z"/>
	<path class="st0" d="M4.9,22c2.7,0,4.9-2.2,4.9-4.9H4.9V22z"/>
	<path class="st1" d="M4.9,22C2.2,22,0,19.8,0,17.1h4.9V22z"/>
	<path class="st1" d="M4.9,12.3c2.7,0,4.9,2.2,4.9,4.9H4.9V12.3z"/>
</g>
<g>
	<path class="st0" d="M17.1,12.3c-2.7,0-4.9,2.2-4.9,4.9h4.9V12.3z"/>
	<path class="st0" d="M17.1,22c2.7,0,4.9-2.2,4.9-4.9h-4.9V22z"/>
	<path class="st1" d="M17.1,22c-2.7,0-4.9-2.2-4.9-4.9h4.9V22z"/>
	<path class="st1" d="M17.1,12.3c2.7,0,4.9,2.2,4.9,4.9h-4.9V12.3z"/>
</g>
</svg>
