<?xml version="1.0" encoding="utf-8"?>
<!-- Generator: Adobe Illustrator 24.3.0, SVG Export Plug-In . SVG Version: 6.00 Build 0)  -->
<svg version="1.1" id="Layer_1" xmlns="http://www.w3.org/2000/svg" xmlns:xlink="http://www.w3.org/1999/xlink" x="0px" y="0px"
	 viewBox="0 0 22 22" style="enable-background:new 0 0 22 22;" xml:space="preserve">
<style type="text/css">
	.st0{fill:none;stroke:#000000;stroke-width:2;stroke-linecap:round;stroke-miterlimit:10;}
	.st1{stroke:#000000;stroke-linecap:round;stroke-miterlimit:10;}
	.st2{fill:#FFFFFF;stroke:#000000;stroke-linecap:round;stroke-miterlimit:10;}
	.st3{fill:#FFFFFF;}
</style>
<g>
	<g>
		<line class="st0" x1="4.5" y1="11.5" x2="4.5" y2="14.5"/>
	</g>
	<g>
		<line class="st0" x1="13.5" y1="11.5" x2="13.5" y2="14.5"/>
	</g>
	<path class="st1" d="M13.9,12.5H4.1c-0.3,0-0.6-0.3-0.6-0.6V9.6C3.5,9,4,8.5,4.6,8.5h8.8c0.6,0,1.1,0.5,1.1,1.1v2.3
		C14.5,12.2,14.2,12.5,13.9,12.5z"/>
	<path class="st2" d="M13.4,8.1H4.6V6c0-0.6,0.5-1.1,1.1-1.1h6.6c0.6,0,1.1,0.5,1.1,1.1V8.1z"/>
	<path class="st3" d="M6.5,11.5h-1c-0.5,0-1-0.4-1-1v0c0-0.5,0.4-1,1-1h1c0.5,0,1,0.4,1,1v0C7.5,11.1,7.1,11.5,6.5,11.5z"/>
	<path class="st3" d="M12.5,11.5h-1c-0.5,0-1-0.4-1-1v0c0-0.5,0.4-1,1-1h1c0.5,0,1,0.4,1,1v0C13.5,11.1,13.1,11.5,12.5,11.5z"/>
</g>
<g>
	<g>
		<line class="st0" x1="10.5" y1="17.5" x2="10.5" y2="20.5"/>
	</g>
	<g>
		<line class="st0" x1="19.5" y1="17.5" x2="19.5" y2="20.5"/>
	</g>
	<path class="st1" d="M19.9,18.5h-9.8c-0.3,0-0.6-0.3-0.6-0.6v-2.3c0-0.6,0.5-1.1,1.1-1.1h8.8c0.6,0,1.1,0.5,1.1,1.1v2.3
		C20.5,18.2,20.2,18.5,19.9,18.5z"/>
	<path class="st2" d="M19.4,14.1h-8.8V12c0-0.6,0.5-1.1,1.1-1.1h6.6c0.6,0,1.1,0.5,1.1,1.1V14.1z"/>
	<path class="st3" d="M12.5,17.5h-1c-0.5,0-1-0.4-1-1v0c0-0.5,0.4-1,1-1h1c0.5,0,1,0.4,1,1v0C13.5,17.1,13.1,17.5,12.5,17.5z"/>
	<path class="st3" d="M18.5,17.5h-1c-0.5,0-1-0.4-1-1v0c0-0.5,0.4-1,1-1h1c0.5,0,1,0.4,1,1v0C19.5,17.1,19.1,17.5,18.5,17.5z"/>
</g>
</svg>
