<?xml version="1.0" encoding="utf-8"?>
<!-- Generator: Adobe Illustrator 24.3.0, SVG Export Plug-In . SVG Version: 6.00 Build 0)  -->
<svg version="1.1" id="Layer_2" xmlns="http://www.w3.org/2000/svg" xmlns:xlink="http://www.w3.org/1999/xlink" x="0px" y="0px"
	 viewBox="0 0 22 22" style="enable-background:new 0 0 22 22;" xml:space="preserve">
<style type="text/css">
	.st0{fill:#999999;}
	.st1{fill:#666666;}
	.st2{fill:#B3B3B3;}
</style>
<g>
	<g>
		<polygon points="1.3,4.9 6.1,7.3 6.1,13.4 1.3,10.9 		"/>
		<polygon class="st0" points="6.1,7.3 11,9.7 11,15.8 6.1,13.4 		"/>
		<polygon class="st0" points="1.3,10.9 6.1,13.4 6.1,19.4 1.3,17 		"/>
		<polygon points="6.1,13.4 11,15.8 11,21.9 6.1,19.4 		"/>
	</g>
	<g>
		<polygon points="20.7,4.9 15.9,7.3 15.9,13.4 20.7,10.9 		"/>
		<polygon class="st1" points="15.9,7.3 11,9.7 11,15.8 15.9,13.4 		"/>
		<polygon class="st1" points="20.7,10.9 15.9,13.4 15.9,19.4 20.7,17 		"/>
		<polygon points="15.9,13.4 11,15.8 11,21.9 15.9,19.4 		"/>
	</g>
	<g>
		<polygon class="st2" points="11,5 15.9,7.4 11,9.8 6.1,7.4 		"/>
		<polygon points="6.1,2.6 11,5 6.1,7.4 1.3,5 		"/>
		<polygon points="15.9,2.6 20.7,5 15.9,7.4 11,5 		"/>
		<polygon class="st2" points="11,0.1 15.9,2.6 11,5 6.1,2.6 		"/>
	</g>
</g>
</svg>
