<?xml version="1.0" encoding="utf-8"?>
<!-- Generator: Adobe Illustrator 24.3.0, SVG Export Plug-In . SVG Version: 6.00 Build 0)  -->
<svg version="1.1" id="Layer_1" xmlns="http://www.w3.org/2000/svg" xmlns:xlink="http://www.w3.org/1999/xlink" x="0px" y="0px"
	 viewBox="0 0 22 22" style="enable-background:new 0 0 22 22;" xml:space="preserve">
<style type="text/css">
	.st0{fill:#FFFFFF;stroke:#000000;stroke-linecap:round;stroke-linejoin:round;stroke-miterlimit:10;}
	.st1{stroke:#000000;stroke-width:0.5;stroke-linecap:round;stroke-linejoin:round;stroke-miterlimit:10;}
	.st2{fill:none;stroke:#000000;stroke-width:0.5;stroke-linecap:round;stroke-linejoin:round;stroke-miterlimit:10;}
	.st3{fill:none;stroke:#FFFFFF;stroke-width:0.25;stroke-miterlimit:10;}
	.st4{fill:none;stroke:#000000;stroke-linecap:round;stroke-linejoin:round;stroke-miterlimit:10;}
</style>
<path class="st0" d="M6.1,16.9c0-0.9-1.6-1.8-2.1-2.5c-1.1-1.4-1.7-3.2-1.7-5.2c0-2.4,1-4.6,2.5-6.2S8.6,0.5,11,0.5s4.6,1,6.2,2.5
	s2.5,3.8,2.5,6.2c0,1.9-0.6,3.7-1.7,5.1c-0.5,0.7-2.1,1.6-2.1,2.5v1.7l-2,2.9H8l-1.8-2.9L6.1,16.9z"/>
<ellipse class="st1" cx="14.7" cy="9.5" rx="2.5" ry="1.9"/>
<ellipse class="st1" cx="7.2" cy="9.5" rx="2.5" ry="1.9"/>
<path class="st1" d="M10.2,12l-1.1,2c-0.3,0.5,0.1,1.1,0.6,1.1H12c0.6,0,0.9-0.6,0.6-1.1l-1.1-2C11.2,11.5,10.5,11.5,10.2,12z"/>
<line class="st2" x1="6.6" y1="15.2" x2="8.1" y2="13.7"/>
<line class="st2" x1="14.9" y1="15.2" x2="13.4" y2="13.7"/>
<line class="st3" x1="8" y1="19" x2="14" y2="19"/>
<line class="st4" x1="8.5" y1="18.5" x2="8.5" y2="21.5"/>
<line class="st4" x1="10" y1="18.5" x2="10" y2="21.5"/>
<line class="st4" x1="11.7" y1="18.5" x2="11.7" y2="21.5"/>
<line class="st4" x1="13.3" y1="18.5" x2="13.3" y2="21.5"/>
</svg>
