<?xml version="1.0" standalone="no"?>
<!DOCTYPE svg PUBLIC "-//W3C//DTD SVG 20010904//EN"
 "http://www.w3.org/TR/2001/REC-SVG-20010904/DTD/svg10.dtd">
<svg version="1.0" xmlns="http://www.w3.org/2000/svg"
 width="32.000000pt" height="32.000000pt" viewBox="0 0 32.000000 32.000000"
 preserveAspectRatio="xMidYMid meet">

<g transform="translate(0.000000,32.000000) scale(0.100000,-0.100000)"
fill="#000000" stroke="none">
<path d="M92 277 l-63 -32 3 -80 3 -80 63 -33 62 -33 63 33 62 33 3 80 3 80
-66 33 c-36 17 -66 32 -68 31 -1 0 -30 -14 -65 -32z m103 -4 c19 -9 35 -20 35
-23 0 -3 -16 -14 -35 -23 -33 -16 -37 -16 -70 0 -19 9 -35 20 -35 23 0 5 51
35 67 39 1 1 18 -7 38 -16z m-47 -151 c2 -39 -1 -72 -5 -72 -4 0 -26 11 -48
23 -39 22 -40 24 -43 81 -5 87 0 92 50 64 l43 -23 3 -73z m120 37 c-3 -63 -4
-64 -43 -86 -22 -12 -44 -23 -48 -23 -4 0 -7 32 -5 72 l3 72 40 23 c22 12 43
19 48 14 4 -4 7 -37 5 -72z"/>
</g>
</svg>
