<?xml version="1.0" standalone="no"?>
<!DOCTYPE svg PUBLIC "-//W3C//DTD SVG 20010904//EN"
 "http://www.w3.org/TR/2001/REC-SVG-20010904/DTD/svg10.dtd">
<svg version="1.0" xmlns="http://www.w3.org/2000/svg"
 width="32.000000pt" height="32.000000pt" viewBox="0 0 32.000000 32.000000"
 preserveAspectRatio="xMidYMid meet">

<g transform="translate(0.000000,32.000000) scale(0.100000,-0.100000)"
fill="#000000" stroke="none">
<path d="M60 160 l0 -160 100 0 100 0 0 143 c0 178 1 177 -118 177 l-82 0 0
-160z m130 115 c0 -20 5 -25 25 -25 l25 0 0 -115 0 -115 -80 0 -80 0 0 140 0
140 55 0 c52 0 55 -1 55 -25z m40 10 c10 -12 10 -15 -4 -15 -9 0 -16 7 -16 15
0 8 2 15 4 15 2 0 9 -7 16 -15z"/>
<path d="M108 225 c-7 -7 14 -55 24 -55 12 0 0 -68 -16 -92 -20 -28 -21 -48
-2 -48 7 0 19 14 26 30 16 38 28 38 41 0 7 -19 18 -30 30 -30 16 0 17 3 7 25
-6 14 -16 25 -21 25 -6 0 -7 3 -4 6 3 4 2 16 -4 26 -9 16 -5 30 16 69 24 45
25 49 7 49 -11 0 -24 -13 -33 -32 l-16 -32 -18 32 c-19 32 -27 37 -37 27z"/>
</g>
</svg>
