<svg xmlns="http://www.w3.org/2000/svg" viewBox="0 0 16 16"><style>.st0{opacity:0}.st0,.st1{fill:#f6f6f6}.st2{fill:#424242}.st3{fill:#f0eff1}</style><g id="outline"><path class="st0" d="M0 0h16v16H0z"/><path class="st1" d="M11.503 9c-.169 0-.337.014-.503.041V9c0-.545-.144-1.066-.416-1.522 1.173-2.073 1.794-3.187 1.946-3.49.205-.411.462-.922.47-1.49a2.231 2.231 0 0 0-.657-1.57L11.414 0h-1.032L8 4.764 5.618 0H4.589l-.938.928c-.198.197-.658.745-.651 1.547.003.59.28 1.145.464 1.513.155.309.811 1.483 1.951 3.492A2.97 2.97 0 0 0 5 9v.04A3.208 3.208 0 0 0 4.501 9C2.604 9 1 10.604 1 12.5S2.604 16 4.501 16C6.365 16 8 14.364 8 12.5c0-.168 0-.168 0 0 0 1.896 1.604 3.5 3.503 3.5C13.398 16 15 14.396 15 12.5S13.398 9 11.503 9z"/></g><path class="st2" d="M11.503 10c-.42 0-.818.127-1.175.328L9.82 9.82c.114-.25.18-.527.18-.82 0-.564-.237-1.073-.614-1.438.942-1.662 2.054-3.631 2.25-4.023.171-.341.359-.718.364-1.055.005-.356-.185-.669-.364-.849L11 1 8 7 5 1l-.642.635c-.177.178-.361.484-.358.834.002.342.186.724.358 1.071.196.392 1.31 2.362 2.255 4.025A1.974 1.974 0 0 0 6.18 9.82l-.507.508A2.39 2.39 0 0 0 4.501 10C3.17 10 2 11.172 2 12.5S3.17 15 4.501 15C5.828 15 7 13.828 7 12.5c0-.419-.126-.816-.327-1.172l.508-.508a1.966 1.966 0 0 0 1.639 0l.507.508A2.383 2.383 0 0 0 9 12.5c0 1.328 1.172 2.5 2.503 2.5C12.834 15 14 13.828 14 12.5S12.834 10 11.503 10zm-7.015 4C3.658 14 3 13.352 3 12.523 3 11.693 3.658 11 4.488 11A1.53 1.53 0 0 1 6 12.523C6 13.352 5.314 14 4.488 14zm3.514-4A1 1 0 1 1 8 7.998 1 1 0 0 1 8.002 10zm3.491 4A1.485 1.485 0 0 1 10 12.512c0-.83.667-1.512 1.493-1.512.827 0 1.507.682 1.507 1.512 0 .829-.68 1.488-1.507 1.488z" id="icon_x5F_bg"/><path class="st3" d="M4.488 14C3.658 14 3 13.352 3 12.523 3 11.693 3.658 11 4.488 11A1.53 1.53 0 0 1 6 12.523C6 13.352 5.314 14 4.488 14zM9 9a1 1 0 1 0-2 0 1 1 0 0 0 2 0zm4 3.512c0-.83-.68-1.512-1.507-1.512-.826 0-1.493.682-1.493 1.512 0 .829.667 1.488 1.493 1.488.827 0 1.507-.659 1.507-1.488z" id="icon_x5F_fg"/></svg>