<svg xmlns="http://www.w3.org/2000/svg" viewBox="0 0 16 16"><style>.icon-canvas-transparent{opacity:0;fill:#f6f6f6}.icon-vs-out{fill:#f6f6f6}.icon-vs-bg{fill:#424242}.icon-vs-fg{fill:#f0eff1}.icon-vs-action-blue{fill:#00539c}</style><path class="icon-canvas-transparent" d="M16 16.018H0v-16h16v16z" id="canvas"/><path class="icon-vs-out" d="M16 4.396v11.621H3v-6.05c-1.692-.245-3-1.691-3-3.449s1.308-3.204 3-3.449V.018h2.711L5.728 0l.018.018h5.875L16 4.396z" id="outline"/><path class="icon-vs-fg" d="M13.793 5.018H11V2.225l2.793 2.793zM10 4.271V2.018H7.746L10 4.271zm0 1.747V4.764L5.728 9.035 5 8.307v5.711h9v-8h-4z" id="iconFg"/><path class="icon-vs-bg" d="M11.207 1.018H6.746l1 1H10v4h4v8H5v-4H4v5h11V4.811l-3.793-3.793zm-.207 4V2.225l2.793 2.793H11z" id="iconBg"/><g id="colorAction"><path class="icon-vs-action-blue" d="M8.832 4.518L5.728 7.621l-.706-.707 1.897-1.896H3.5c-.827 0-1.5.673-1.5 1.5s.673 1.5 1.5 1.5v1a2.503 2.503 0 0 1-2.5-2.5c0-1.378 1.122-2.5 2.5-2.5h3.418L5.022 2.121l.707-.707 3.103 3.104z"/></g></svg>