<svg xmlns="http://www.w3.org/2000/svg" viewBox="0 0 16 16" enable-background="new 0 0 16 16"><style type="text/css">.icon-canvas-transparent{opacity:0;fill:#F6F6F6;} .icon-vs-out{fill:#F6F6F6;} .icon-vs-bg{fill:#424242;} .icon-vs-fg{fill:#F0EFF1;}</style><path class="icon-canvas-transparent" d="M16 16h-16v-16h16v16z" id="canvas"/><g id="iconBg"><path class="icon-vs-out" d="M6 16v-1h-5v-13h3.171c.413-1.164 1.525-2 2.829-2s2.416.836 2.829 2h3.171v4h2v10h-9z"/><path class="icon-vs-bg" d="M12 7v-4h-3c0-1.103-.897-2-2-2s-2 .897-2 2h-3v11h5v1h7v-8h-2zm-7-3h1v-1c0-.551.449-1 1-1s1 .449 1 1v1h1v1h-4v-1zm-2 9v-9h1v2h6v-2h1v3h-4v6h-4zm10 1h-5v-6h5v6z"/></g><path class="icon-vs-fg" d="M5 4h1v-1c0-.551.449-1 1-1s1 .449 1 1v1h1v1h-4v-1zm-2 9v-9h1v2h6v-2h1v3h-4v6h-4zm10 1h-5v-6h5v6z" id="iconFg"/></svg>