<svg xmlns="http://www.w3.org/2000/svg" viewBox="0 0 16 16"><style>.icon-canvas-transparent{opacity:0;fill:#f6f6f6}.icon-vs-out{fill:#f6f6f6}.icon-vs-action-blue{fill:#00539c}</style><path class="icon-canvas-transparent" d="M16 0v16H0V0h16z" id="canvas"/><path class="icon-vs-out" d="M2.895 1.736A5.883 5.883 0 0 1 7.087.002c1.457 0 2.832.52 3.913 1.472V0h4v8H7V4.011a2.041 2.041 0 0 0-1.332.61 1.915 1.915 0 0 0-.565 1.363c0 .515.2.999.565 1.363l5.945 5.945L8.906 16h-.242L2.84 10.176a5.857 5.857 0 0 1-1.728-4.204 6.01 6.01 0 0 1 1.783-4.236z" id="outline"/><g id="iconBg"><path class="icon-vs-action-blue" d="M3.602 2.443a4.933 4.933 0 0 1 6.969 0L12 3.872V1h2v6H8V5h2.3L9.158 3.857c-1.141-1.142-2.999-1.141-4.197.057a2.909 2.909 0 0 0-.858 2.07c0 .782.305 1.517.857 2.07l5.238 5.238-1.414 1.414-5.237-5.237c-1.922-1.922-1.922-5.048.055-7.026z"/></g></svg>