<svg xmlns="http://www.w3.org/2000/svg" viewBox="0 0 16 16"><style>.icon-canvas-transparent{opacity:0;fill:#f6f6f6}.icon-vs-out{fill:#f6f6f6}.icon-vs-action-blue{fill:#00539c}</style><path class="icon-canvas-transparent" d="M16 0v16H0V0h16z" id="canvas"/><path class="icon-vs-out" d="M14.888 5.972a5.852 5.852 0 0 1-1.727 4.204L7.336 16h-.242l-2.707-2.707 5.945-5.945c.364-.364.565-.849.565-1.363 0-.515-.2-1-.565-1.364A2.036 2.036 0 0 0 9 4.011V8H1V0h4v1.474A5.885 5.885 0 0 1 8.913.002c1.585 0 3.074.616 4.192 1.734a6.01 6.01 0 0 1 1.783 4.236z" id="outline"/><g id="iconBg"><path class="icon-vs-action-blue" d="M12.453 9.469l-5.238 5.238-1.414-1.414 5.238-5.238a2.91 2.91 0 0 0 .857-2.07c0-.782-.305-1.518-.857-2.071-1.198-1.198-3.056-1.199-4.197-.057L5.7 5H8v2H2V1h2v2.872l1.428-1.428a4.933 4.933 0 0 1 6.969 0c1.978 1.977 1.978 5.103.056 7.025z"/></g></svg>