<svg xmlns="http://www.w3.org/2000/svg" viewBox="0 0 16 16"><defs><style>.icon-canvas-transparent,.icon-vs-out{fill:#f6f6f6;}.icon-canvas-transparent{opacity:0;}.icon-vs-fg{fill:#f0eff1;}.icon-vs-action-purple{fill:#652d90;}</style></defs><title>Method_left_16x</title><g id="canvas"><path class="icon-canvas-transparent" d="M16,16H0V0H16Z"/></g><g id="outline"><path class="icon-vs-out" d="M0,11.14V3.906L6.147.7,12,3.93v7.343L6.478,15.319Z"/></g><g id="iconFg"><path class="icon-vs-fg" d="M9.776,4.986,6.411,7.073,2.47,4.873,6.12,2.967ZM2,5.756,6,7.989v4.643L2,10.05Zm5,6.7V7.884l3-1.86v4.235Z"/></g><g id="iconBg"><path class="icon-vs-action-purple" d="M6.134,1.833,1,4.512V10.6l5.442,3.511L11,10.767V4.52ZM9.776,4.986,6.411,7.073,2.47,4.873,6.12,2.967ZM2,5.756,6,7.989v4.643L2,10.05Zm5,6.7V7.884l3-1.86v4.235Z"/></g></svg>