<svg xmlns="http://www.w3.org/2000/svg" width="16" height="16"><style type="text/css">.icon-canvas-transparent{opacity:0;fill:#F6F6F6;} .icon-vs-out{fill:#F6F6F6;} .icon-vs-bg{fill:#424242;} .icon-vs-fg{fill:#F0EFF1;} .icon-vs-action-orange{fill:#C27D1A;}</style><path class="icon-canvas-transparent" d="M16 16h-16v-16h16v16z" id="canvas"/><path class="icon-vs-out" d="M15 5.52v7.48c0 .97-.701 2-2 2h-6c-.97 0-2-.701-2-2v-4h-2v-.879l-.621.621-2.122-2.121.621-.621h-.878v-3h.878l-.621-.621 2.122-2.122.621.621v-.878h3v.878l.621-.622 2.121 2.122-.621.622h3.948l2.931 2.52z" id="outline"/><path class="icon-vs-bg" d="M14 6.136v6.864s-.035 1-1.035 1h-6s-.965 0-.965-1v-4.855l.598.598.402-.403v4.66h6v-6h-2v-2h-2v-1h2.625l2.375 2.136z" id="iconBg"/><path class="icon-vs-fg" d="M13 7v6h-6v-4.637l1.742-1.742-.621-.621h.879v-1h2v2h2z" id="iconFg"/><path class="icon-vs-action-orange" d="M8 4h-2.293l1.621-1.621-.707-.708-1.621 1.621v-2.292h-1v2.292l-1.621-1.621-.708.708 1.621 1.621h-2.292v1h2.292l-1.621 1.621.708.707 1.621-1.621v2.293h1v-2.293l1.621 1.621.707-.707-1.621-1.621h2.293v-1zm-3 1h-1v-1h1v1z" id="colorAction"/></svg>