<svg xmlns="http://www.w3.org/2000/svg" viewBox="0 0 16 16"><style>.st0{fill:#f6f6f6}.st1{fill:none}.st2{fill:#424242}.st3{fill:#f0eff1}</style><path class="st0" d="M16 5.446L7.287 0H6v4.276A4.454 4.454 0 0 0 4.5 4 4.505 4.505 0 0 0 0 8.5C0 10.981 2.019 13 4.5 13c.599 0 1.188-.119 1.735-.35L9.586 16h.828l2-2-3.202-3.203L16 6.554V5.446z" id="outline"/><g id="icon_x5F_bg"><circle class="st1" cx="4.5" cy="8.5" r="2.5"/><path class="st2" d="M9 8.5c0 .483-.098.952-.248 1.405L15 6 7 1v3.762C8.205 5.57 9 6.943 9 8.5z"/><path class="st2" d="M8 8.5A3.5 3.5 0 1 0 4.5 12c.711 0 1.369-.215 1.922-.578L10 15l1-1-3.578-3.578A3.488 3.488 0 0 0 8 8.5zM4.5 11a2.5 2.5 0 1 1 0-5 2.5 2.5 0 0 1 0 5z"/></g><circle class="st3" cx="4.5" cy="8.5" r="2.5" id="icon_x5F_fg"/></svg>