<svg xmlns="http://www.w3.org/2000/svg" viewBox="0 0 16 16"><style>.icon-canvas-transparent{opacity:0;fill:#f6f6f6}.icon-vs-out{fill:#f6f6f6}.icon-vs-bg{fill:#424242}</style><path class="icon-canvas-transparent" d="M16 16H0V0h16v16z" id="canvas"/><path class="icon-vs-out" d="M2.071 14a2.06 2.06 0 0 1-1.464-.606 2.076 2.076 0 0 1 0-2.93L3.73 7.34a4.073 4.073 0 0 1-.159-1.126A4.22 4.22 0 0 1 7.786 2c.619 0 1.214.173 1.809.419C11 3 11 3 11.581 4.405c.247.596.419 1.191.419 1.809a4.219 4.219 0 0 1-4.214 4.214c-.38 0-.757-.054-1.126-.159l-3.124 3.124A2.057 2.057 0 0 1 2.071 14z" id="outline"/><g id="iconBg"><path class="icon-vs-bg" d="M11 6.214a3.214 3.214 0 0 1-3.214 3.214c-.495 0-.959-.121-1.378-.321l-3.579 3.579a1.068 1.068 0 0 1-1.516 0 1.07 1.07 0 0 1 0-1.515l3.579-3.579a3.186 3.186 0 0 1-.321-1.378A3.215 3.215 0 0 1 7.786 3c.495 0 .959.121 1.378.321L7.169 5.316l1.515 1.515 1.995-1.995c.2.42.321.883.321 1.378z"/></g></svg>