<svg xmlns="http://www.w3.org/2000/svg" viewBox="0 0 16 16"><defs><style>.icon-canvas-transparent,.icon-vs-out{fill:#f6f6f6;}.icon-canvas-transparent{opacity:0;}.icon-vs-fg{fill:#f0eff1;}.icon-folder{fill:#dcb67a;}.icon-vs-action-blue{fill:#00539c;}</style></defs><title>SearchFolderClosed_16x</title><g id="canvas"><path class="icon-canvas-transparent" d="M0,0H16V16H0Z"/></g><g id="outline"><path class="icon-vs-out" d="M16,12.129v1.828l-1.5,1.5L13.043,14H1.5A1.5,1.5,0,0,1,0,12.5V2.5A1.5,1.5,0,0,1,1.5,1H9.61l1,2H13.5A1.5,1.5,0,0,1,15,4.5v6.625Z"/></g><g id="iconFg"><path class="icon-vs-fg" d="M2,3H8.374l.5,1H2Z"/></g><g id="iconBg"><path class="icon-folder" d="M13.5,4h-3.5l-1-2H1.5a.5.5,0,0,0-.5.5v10a.5.5,0,0,0,.5.5h9.325A3.242,3.242,0,1,1,14,8.073V4.5A.5.5,0,0,0,13.5,4ZM2,4V3H8.374l.5,1ZM12,12.953l.047.047H11.6A3.186,3.186,0,0,0,12,12.953Z"/></g><g id="colorAction"><path class="icon-vs-action-blue" d="M13.253,10.8a2.224,2.224,0,0,0,.247-1,2.25,2.25,0,1,0-2.25,2.25,2.225,2.225,0,0,0,1-.246L14.5,14.043l1-1Zm-2,.246a1.25,1.25,0,1,1,1.25-1.25A1.25,1.25,0,0,1,11.25,11.043Z"/></g></svg>