<svg xmlns="http://www.w3.org/2000/svg" viewBox="0 0 16 16" enable-background="new 0 0 16 16"><style type="text/css">.icon-canvas-transparent{opacity:0;fill:#F6F6F6;} .icon-vs-bg-inverse{fill:#C5C5C5;} .icon-vs-out-inverse{fill:#252526;} .icon-vs-action-blue-inverse{fill:#75BEFF;} .icon-vs-fg-inverse{fill:#2A292C;}</style><path class="icon-canvas-transparent" d="M16 16h-16v-16h16v16z" id="canvas"/><path class="icon-vs-out-inverse" d="M0 0h16v16h-16v-16z" id="outline"/><path class="icon-vs-bg-inverse" d="M1 7h6v-6h-6v6zm1-5h4v4h-4v-4zm7 7v6h6v-6h-6zm5 5h-4v-4h4v4z" id="iconBg"/><path class="icon-vs-fg-inverse" d="M13 5h-2v-2h2v2zm1 9v-4h-4v4h4zm-8-8v-4h-4v4h4zm-1 7h-2v-2h2v2z" id="iconFg"/><path class="icon-vs-action-blue-inverse" d="M9 7h6v-6h-6v6zm2-4h2v2h-2v-2zm-10 12h6v-6h-6v6zm2-4h2v2h-2v-2z" id="colorAction"/></svg>