<svg xmlns="http://www.w3.org/2000/svg" viewBox="0 0 16 16" enable-background="new 0 0 16 16"><style type="text/css">.icon-canvas-transparent{opacity:0;fill:#F6F6F6;} .icon-vs-out-inverse{fill:#252526;} .icon-vs-bg-inverse{fill:#C5C5C5;} .icon-vs-fg-inverse{fill:#2A292C;}</style><path class="icon-canvas-transparent" d="M16 16h-16v-16h16v16z" id="canvas"/><path class="icon-vs-out-inverse" d="M0 0h16v16h-16v-16z" id="outline"/><path class="icon-vs-bg-inverse" d="M1 1v6h6v-6h-6zm5 5h-4v-4h4v4zm3 3v6h6v-6h-6zm5 5h-4v-4h4v4zm-5-13v6h6v-6h-6zm5 5h-4v-4h4v4zm-13 3v6h6v-6h-6zm5 5h-4v-4h4v4z" id="iconBg"/><path class="icon-vs-fg-inverse" d="M6 6h-4v-4h4v4zm8 8h-4v-4h4v4zm0-8h-4v-4h4v4zm-8 8h-4v-4h4v4z" id="iconFg"/></svg>