<svg xmlns="http://www.w3.org/2000/svg" viewBox="0 0 16 16" enable-background="new 0 0 16 16"><style type="text/css">.icon-canvas-transparent{opacity:0;fill:#F6F6F6;} .icon-vs-out-inverse{fill:#252526;} .icon-vs-action-blue-inverse{fill:#75BEFF;} .icon-vs-fg-inverse{fill:#2A292C;}</style><path class="icon-canvas-transparent" d="M16 16h-16v-16h16v16z" id="canvas"/><path class="icon-vs-out-inverse" d="M0 0h16v16h-16v-16z" id="outline"/><path class="icon-vs-fg-inverse" d="M5 5h-2v-2h2v2zm8-2h-2v2h2v-2zm0 8h-2v2h2v-2zm-8 0h-2v2h2v-2z" id="iconFg"/><path class="icon-vs-action-blue-inverse" d="M9 15h6v-6h-6v6zm2-4h2v2h-2v-2zm-10-4h6v-6h-6v6zm2-4h2v2h-2v-2zm-2 12h6v-6h-6v6zm2-4h2v2h-2v-2zm6-10v6h6v-6h-6zm4 4h-2v-2h2v2z" id="colorAction"/></svg>