<svg xmlns="http://www.w3.org/2000/svg" viewBox="0 0 16 16"><style>.icon-canvas-transparent{opacity:0;fill:#f6f6f6}.icon-vs-out{fill:#f6f6f6}.icon-vs-bg{fill:#424242}.icon-vs-fg{fill:#f0eff1}.icon-vs-action-blue{fill:#00539c}</style><path class="icon-canvas-transparent" d="M16 16H0V0h16v16z" id="canvas"/><path class="icon-vs-out" d="M11.621 0H3v1.025l-3 3v.66l1.791 1.791L3 5.267V16h13V4.379z" id="outline"/><path class="icon-vs-bg" d="M11.207 1H5.85l1 1H10v4h4v8H5V9H4v6h11V4.793L11.207 1zM11 5V2.207L13.793 5H11z" id="iconBg"/><g id="iconFg"><path class="icon-vs-fg" d="M11 2.207V5h2.793z"/><path class="icon-vs-fg" d="M10 6V2H6.85l2.355 2.355-2.121 2.121L6 5.392V9H5v5h9V6z"/><path class="icon-vs-fg" d="M11 2.207V5h2.793z"/><path class="icon-vs-fg" d="M10 6V2H6.85l2.355 2.355-2.121 2.121L6 5.392V9H5v5h9V6z"/></g><path class="icon-vs-action-blue" d="M1.084 4.355l.707.707L4 2.853V8h1V2.978l2.084 2.084.707-.707-3.353-3.354z" id="colorAction"/></svg>